<svg xmlns="http://www.w3.org/2000/svg" width="503.928" height="530.706" viewBox="0 0 503.928 530.706">
  <g id="Grupo_134663" data-name="Grupo 134663" transform="translate(426.496 -49.666)">
    <g id="Modo_de_aislamiento" data-name="Modo de aislamiento" transform="translate(-426.496 187.63)">
      <text id="PELIGRO_DE_EXPLOSIVOS" data-name="PELIGRO DE EXPLOSIVOS" transform="translate(0 12)" fill="#e30613" font-size="11" font-family="Roboto-Bold, Roboto" font-weight="700"><tspan x="0" y="0">PELIGRO DE EXPLOSIVOS</tspan></text>
      <text id="INFLAMABLE" transform="translate(261.579 12)" fill="#e30613" font-size="11" font-family="Roboto-Bold, Roboto" font-weight="700"><tspan x="-33.33" y="0">INFLAMABLE</tspan></text>
      <text id="CARBURANTE" transform="translate(437.827 12)" fill="#e30613" font-size="11" font-family="Roboto-Bold, Roboto" font-weight="700"><tspan x="-35.53" y="0">CARBURANTE</tspan></text>
      <text id="GASES_BAJO_PRESIÓN" data-name="GASES BAJO PRESIÓN" transform="translate(64.832 186.513)" fill="#e30613" font-size="11" font-family="Roboto-Bold, Roboto" font-weight="700"><tspan x="-56.939" y="0">GASES BAJO PRESIÓN</tspan></text>
      <text id="CORROSIÓN" transform="translate(262.435 186.513)" fill="#e30613" font-size="11" font-family="Roboto-Bold, Roboto" font-weight="700"><tspan x="-30.878" y="0">CORROSIÓN</tspan></text>
      <text id="TOXICIDAD" transform="translate(438.395 186.513)" fill="#e30613" font-size="11" font-family="Roboto-Bold, Roboto" font-weight="700"><tspan x="-28.214" y="0">TOXICIDAD</tspan></text>
      <text id="QUÍMICO_NOCIVO" data-name="QUÍMICO NOCIVO" transform="translate(67.539 358.958)" fill="#e30613" font-size="11" font-family="Roboto-Bold, Roboto" font-weight="700"><tspan x="-44.448" y="0">QUÍMICO NOCIVO</tspan></text>
      <text id="DAÑO_AL_MEDIO_AMBIENTE" data-name="DAÑO AL MEDIO AMBIENTE" transform="translate(255.74 358.958)" fill="#e30613" font-size="11" font-family="Roboto-Bold, Roboto" font-weight="700"><tspan x="-69.736" y="0">DAÑO AL MEDIO AMBIENTE</tspan></text>
      <text id="PELIGRO_PARA_LA_SALUD" data-name="PELIGRO PARA LA SALUD" transform="translate(431.555 358.958)" fill="#e30613" font-size="11" font-family="Roboto-Bold, Roboto" font-weight="700"><tspan x="-64.287" y="0">PELIGRO PARA LA SALUD</tspan></text>
      <g id="Capa_1" data-name="Capa 1" transform="translate(352.051 391.169)">
        <path id="Trazado_195236" data-name="Trazado 195236" d="M-179.958,421.305a5.3,5.3,0,0,0,2.006-1.092" transform="translate(179.958 -420.213)" fill="none" stroke="#fff" stroke-miterlimit="10" stroke-width="1"/>
      </g>
    </g>
    <g id="Normal" transform="translate(-412.752 49.666)">
      <g id="Grupo_134646" data-name="Grupo 134646" transform="translate(0 0.513)">
        <path id="Trazado_195237" data-name="Trazado 195237" d="M-366.535,93.411l1.725.055-.394-.424Z" transform="translate(438.414 -31.615)" fill="none"/>
        <path id="Trazado_195238" data-name="Trazado 195238" d="M-386.946,92.88l-.471-.019.087.156Z" transform="translate(429.477 -31.692)" fill="none"/>
        <path id="Trazado_195239" data-name="Trazado 195239" d="M-410.137,107.832l51.073,51.075,51.073-51.075-51.073-51.073Zm47.92-22.559.811.318.414-1.052.957.017.7,2.259-1.268,1.379-.733,1.07-.431-1.578-.862-.406Zm-16.559,20.576,8.948,2.016-9.552-1.492Zm2.782-1.854,6.529,3.466-6.367-3.063Zm-7.3,13.864-.484.524-.765.04-.4,1.13-.059-.08-1.231-1.694.443-1.451,1.209.765.363-.443,1.17.443Zm61.193-15.713-38.417,5.219,1.147.911.179.3,10.653.337-.383-1.482,1.619-.54,1.132-1.08,4.264,1.889-1.217,1.384,15.95.506.7.54-16.869-.8-.131.15-2.375-.161-.1-.113-2.489-.117-.051.014,0-.017-10.694-.506.237.4,1.067.383q-.1.343-.224.67l13.774,1.929-.27,1.835-6.3-1.624,1.015.44.708.8-.069,1.035-4.3-.735-1.635-1.212.45-.817,1.621.3.233-.323-5.326-1.372a8.179,8.179,0,0,1-.437.882l8.514,4.681.5,1.021-9.093-5.569c-.087.144-.179.286-.273.423l10.087,7.3-.466.466-9.737-7.605q-.221.3-.467.583l7.168,5.262.466,1.052-7.72-6.22a6.96,6.96,0,0,1-5.138,2.315,6.973,6.973,0,0,1-5.258-2.448l-2.919,2.676h1.172l.765.484-.321,1.088-.807.483-.4-.4-.807.363-.725-.805.164-.328-6.733,6.172-.847-.805,11.344-9.062A7.713,7.713,0,0,1-371,111.1l-9.709,5.713-.04-.524,9.716-5.252c-.019-.033-.036-.066-.054-.1l-6.2,2.048.081-.6,6.03-1.608c-.046-.09-.089-.181-.131-.274l-18.071,4.461.121-.6,17.907-3.958q-.144-.332-.26-.678l-23.894,3.226.04-.524,23.843-2.737a8.2,8.2,0,0,1-.273-1.07l.024-.066-4.585-.184.1,1.074h-.887l-.444.725-1.411-.241-1.289-.927.467-.77-8.931-.358-.484-.524,9.567.631.187-.31,1.572.081.2.357,1.041.069.291-.1.011.123,4.62.306,0-.01.047.013,2.008.133-1.775-.071,2.9.764,2.219-1.926,3.14,2.68,1-.673-1.112-.87,1.158.838,1.257-.845v-1.549l.484.384,38.42-6.512Zm-59.137,11.038,2.135.121v.725l-.887.363Zm-5.361-2.539v-.484l1.25-.927,2.216,1.734Zm49.982-18.335.557-.428,1.925-.086.728-2.269,1.584,2.7.043,2.91-2.4-1.626-1.2,1.284-1.5-.855Zm9.766,4.925.486,1.025-35.457,8.042Zm-34.164,8.215,19.86-14v1.669Zm13.7-4.837-11.771,4.537L-347.4,99.63Zm3-1.755.386-1.027.814-.9,2.353,2.355Zm-13.035-15.037-5.1,15.839q.109.036.218.077l8.608-24.55,1.651.755-8.789,24.49.054.034L-354,87.218l.848.52-7.448,12.8a7.4,7.4,0,0,1,1.437,1.184l1.034-1.125-.139-.324,1.224-.86,15.084-16.433.855.857-14.875,15.018,1.735-.037,2.226-1.841-1.412,2.612-2.526,2.053-.343-1.2-1.584.728-.119-.277-1,1.007a6.238,6.238,0,0,1,.513.673l-1.165-.013-3.838,3.876,3.56-3.878-1.4-.017-.336,1.382-2.3-.251.753,1.842-1.674,2.009-2.932-1.465-2.1.119,1.225.922-1.364-.915-.733.041-1.008-1.088c.009-.036.019-.07.027-.1l-2.443-1.641-.363-.725,2.86,2.155a7.33,7.33,0,0,1,6.924-5.546,7.584,7.584,0,0,1,2.3.373l4.2-16.392Zm5.035,7.8-.217,1.062-.773.938-1.082-.938.308-1.568.537-.753.381.381.371-.391Z" transform="translate(419.753 -47.143)" fill="none"/>
        <path id="Trazado_195240" data-name="Trazado 195240" d="M-416.871,110.714l60.689,60.692,60.689-60.692-60.689-60.689Zm111.762,0-51.073,51.075-51.073-51.075,51.073-51.073Z" transform="translate(416.871 -50.025)" fill="#ef4135"/>
        <path id="Trazado_195241" data-name="Trazado 195241" d="M-366.331,70.42l-1.651-.755-8.608,24.55a8.135,8.135,0,0,1,1.469.7Z" transform="translate(434.11 -41.62)"/>
        <path id="Trazado_195242" data-name="Trazado 195242" d="M-367.968,78.609l-.848-.52-6.707,13.25c.036.021.071.046.107.069Z" transform="translate(434.567 -38.014)"/>
        <path id="Trazado_195243" data-name="Trazado 195243" d="M-376.73,91.72l5.1-15.839-.942-.567-4.2,16.392Z" transform="translate(434.032 -39.202)"/>
        <path id="Trazado_195244" data-name="Trazado 195244" d="M-375.575,80.938l.733-1.069,1.267-1.38-.7-2.259-.957-.017-.414,1.052-.81-.319-.414,2.009.862.405Z" transform="translate(433.991 -38.817)"/>
        <path id="Trazado_195245" data-name="Trazado 195245" d="M-370.252,80.3l-.536.753-.309,1.567,1.083.938.774-.938.216-1.062-.474-1.268-.371.392Z" transform="translate(436.461 -37.074)"/>
        <path id="Trazado_195246" data-name="Trazado 195246" d="M-373.281,87.755l-.127-.3-1.034,1.125c.056.06.111.119.164.18Z" transform="translate(435.03 -34.005)"/>
        <path id="Trazado_195247" data-name="Trazado 195247" d="M-371.895,90.995l14.876-15.018-.856-.856-15.083,16.433.787-.553Z" transform="translate(435.665 -39.285)"/>
        <path id="Trazado_195248" data-name="Trazado 195248" d="M-377.472,92.709l3.838-3.875-.278,0Z" transform="translate(433.733 -33.417)"/>
        <path id="Trazado_195249" data-name="Trazado 195249" d="M-355.873,81.055l-19.861,14,19.861-12.328Z" transform="translate(434.477 -36.745)"/>
        <path id="Trazado_195250" data-name="Trazado 195250" d="M-362.614,87.765l-.086-.984L-374.385,92.3Z" transform="translate(435.054 -34.294)"/>
        <path id="Trazado_195251" data-name="Trazado 195251" d="M-373.431,89.117l1.584-.728.343,1.2,2.525-2.054,1.412-2.611-2.226,1.841-1.736.037-.276.006-.787.553-1.225.86.138.323.128.3Z" transform="translate(435.298 -35.09)"/>
        <path id="Trazado_195252" data-name="Trazado 195252" d="M-363.658,85.791l-.385,1.027,3.553.428-2.354-2.354Z" transform="translate(439.48 -35.103)"/>
        <path id="Trazado_195253" data-name="Trazado 195253" d="M-356.132,83.687l2.4,1.626-.043-2.911-1.583-2.7-.728,2.269-1.926.086-.557.428-.257,1.627,1.5.856Z" transform="translate(441.712 -37.322)"/>
        <path id="Trazado_195254" data-name="Trazado 195254" d="M-340.842,86.13l-.486-1.025L-376.3,94.171Z" transform="translate(434.235 -35.012)"/>
        <path id="Trazado_195255" data-name="Trazado 195255" d="M-375.384,94.15l38.417-5.219v-1.3l-38.42,6.511Z" transform="translate(434.625 -33.928)"/>
        <path id="Trazado_195256" data-name="Trazado 195256" d="M-364.892,93.866l.394.424,3.031.1L-360.25,93l-4.263-1.889-1.133,1.079-1.619.54.382,1.482.662.021Z" transform="translate(438.101 -32.44)"/>
        <path id="Trazado_195257" data-name="Trazado 195257" d="M-366.963,93.424l.051-.014-.055,0Z" transform="translate(438.229 -31.458)"/>
        <path id="Trazado_195258" data-name="Trazado 195258" d="M-365.081,93.6l2.375.162.132-.15-2.611-.124Z" transform="translate(438.992 -31.422)"/>
        <path id="Trazado_195259" data-name="Trazado 195259" d="M-363.761,93.561l.055,0,2.49.118,2.611.124,16.868.8-.7-.54-15.95-.505-3.031-.1-1.725-.055-.662-.021-10.652-.337,0,.006Z" transform="translate(435.023 -31.612)"/>
        <path id="Trazado_195260" data-name="Trazado 195260" d="M-368.445,95.7l.19-.264,1.791.774,6.3,1.624L-359.9,96l-13.774-1.929c-.033.087-.066.173-.1.258Z" transform="translate(435.317 -31.174)"/>
        <path id="Trazado_195261" data-name="Trazado 195261" d="M-369.351,95.292l-.232.322-1.621-.3-.45.817,1.635,1.213,4.3.736.068-1.035-.709-.8-1.015-.439-1.791-.774Z" transform="translate(436.223 -30.764)"/>
        <path id="Trazado_195262" data-name="Trazado 195262" d="M-365.037,100.572l-.5-1.021-8.514-4.681c-.026.046-.05.09-.076.133Z" transform="translate(435.163 -30.832)"/>
        <path id="Trazado_195263" data-name="Trazado 195263" d="M-377.418,93.017l1.112.869.046-.031Z" transform="translate(433.756 -31.625)"/>
        <path id="Trazado_195264" data-name="Trazado 195264" d="M-364.665,103.027l.466-.466-10.087-7.3c-.039.054-.076.11-.116.163Z" transform="translate(435.047 -30.666)"/>
        <path id="Trazado_195265" data-name="Trazado 195265" d="M-367.069,102.1l-.466-1.052-7.168-5.262-.086.094Z" transform="translate(434.881 -30.442)"/>
        <path id="Trazado_195266" data-name="Trazado 195266" d="M-384.9,98.837l.725.806.806-.363.4.4.806-.484.322-1.088-.766-.484h-1.172l-.961.881Z" transform="translate(430.554 -29.652)"/>
        <path id="Trazado_195267" data-name="Trazado 195267" d="M-390.094,104.719l.847.805,6.733-6.172.961-.881,2.919-2.676c-.04-.046-.077-.091-.116-.139Z" transform="translate(428.331 -30.495)"/>
        <path id="Trazado_195268" data-name="Trazado 195268" d="M-389.558,100.02l.04.524,9.709-5.713-.033-.063Z" transform="translate(428.56 -30.876)"/>
        <path id="Trazado_195269" data-name="Trazado 195269" d="M-387.05,96.191l-.081.6,6.2-2.048c-.029-.054-.057-.109-.084-.164Z" transform="translate(429.599 -30.955)"/>
        <path id="Trazado_195270" data-name="Trazado 195270" d="M-387.76,97.119v-.725l-2.136-.121,1.249,1.209Z" transform="translate(428.416 -30.232)"/>
        <path id="Trazado_195271" data-name="Trazado 195271" d="M-391.744,99.24l-1.209-.766-.443,1.451,1.232,1.694.058.08.4-1.128.766-.04.484-.524.242-.766-1.169-.443Z" transform="translate(426.918 -29.29)"/>
        <path id="Trazado_195272" data-name="Trazado 195272" d="M-395.477,98.278l-.121.6,18.071-4.461-.043-.1Z" transform="translate(425.975 -31.068)"/>
        <path id="Trazado_195273" data-name="Trazado 195273" d="M-399.848,96.557l-.04.524,23.894-3.226-.011-.036Z" transform="translate(424.139 -31.282)"/>
        <path id="Trazado_195274" data-name="Trazado 195274" d="M-393.65,94.434v.484l3.466.322-2.217-1.733Z" transform="translate(426.809 -31.416)"/>
        <path id="Trazado_195275" data-name="Trazado 195275" d="M-386.523,93.044l-.087-.156-2.228-.09-.467.77,1.29.927,1.411.242.443-.725h.887l-.095-1.074-.77-.031Z" transform="translate(428.669 -31.719)"/>
        <path id="Trazado_195276" data-name="Trazado 195276" d="M-386.479,92.689l-.291.1.3.02Z" transform="translate(429.754 -31.766)"/>
        <path id="Trazado_195277" data-name="Trazado 195277" d="M-387.111,92.487l-1.572-.08-.187.309,1.958.129Z" transform="translate(428.855 -31.887)"/>
        <path id="Trazado_195278" data-name="Trazado 195278" d="M-382.7,93.03l-.3-.02-1.042-.069L-386,92.812l-9.566-.631.484.524,8.93.359,2.228.09.471.019.77.031,4.585.184.02-.052Z" transform="translate(425.988 -31.983)"/>
        <path id="Trazado_195279" data-name="Trazado 195279" d="M-381.279,93.124l-2.008-.132.232.061Z" transform="translate(431.244 -31.636)"/>
        <path id="Trazado_195280" data-name="Trazado 195280" d="M-387.994,91.136l-.6.524,9.552,1.491Z" transform="translate(428.971 -32.43)"/>
        <path id="Trazado_195281" data-name="Trazado 195281" d="M-386.227,89.838l.161.4L-379.7,93.3Z" transform="translate(429.986 -32.986)"/>
        <path id="Trazado_195282" data-name="Trazado 195282" d="M-385.239,88.907l.363.725,2.443,1.641c.017-.07.036-.141.054-.211Z" transform="translate(430.409 -33.384)"/>
        <path id="Trazado_195283" data-name="Trazado 195283" d="M-380.71,92.288l-1.226-.923-.138.008Z" transform="translate(431.764 -32.332)"/>
        <path id="Trazado_195284" data-name="Trazado 195284" d="M-372.463,91.927v1.549l-1.257.845-.046.031-1,.673-3.14-2.68-2.219,1.926-2.9-.764-.233-.061-.047-.013,0,.01-.02.051-.024.066a8.193,8.193,0,0,0,.273,1.07l.011.036q.116.347.26.678c.014.034.029.069.043.1.043.093.086.184.131.274.027.056.056.11.084.164.019.034.036.067.054.1l.033.063a7.715,7.715,0,0,0,.83,1.207c.039.047.076.093.116.139a6.973,6.973,0,0,0,5.258,2.448,6.96,6.96,0,0,0,5.138-2.315l.086-.094q.246-.278.467-.583c.04-.053.077-.109.116-.163.094-.137.186-.278.273-.423.026-.043.05-.087.076-.133a8.189,8.189,0,0,0,.437-.882c.036-.086.069-.171.1-.258q.126-.328.224-.67l-1.067-.383-.237-.4,0-.006-.178-.3-1.147-.911,0,0Z" transform="translate(431.216 -32.092)"/>
        <path id="Trazado_195285" data-name="Trazado 195285" d="M-376.287,86.532a7.33,7.33,0,0,0-6.924,5.546c-.019.07-.037.141-.054.211-.009.034-.019.069-.027.1l1.008,1.088.733-.041.139-.007,2.1-.119,2.932,1.465,1.674-2.009-.753-1.842,2.3.251.336-1.382,1.4.017.278,0,1.165.013a6.238,6.238,0,0,0-.513-.673c-.053-.061-.109-.12-.164-.18a7.4,7.4,0,0,0-1.437-1.184c-.036-.023-.071-.047-.107-.069l-.054-.034a8.136,8.136,0,0,0-1.469-.7q-.109-.041-.219-.077l-.043-.014A7.584,7.584,0,0,0-376.287,86.532Z" transform="translate(431.242 -34.401)"/>
      </g>
      <g id="Grupo_134655" data-name="Grupo 134655" transform="translate(192.444 346.956)">
        <rect id="Rectángulo_41316" data-name="Rectángulo 41316" width="85.831" height="85.831" transform="translate(0 60.692) rotate(-44.999)" fill="none"/>
        <path id="Trazado_195286" data-name="Trazado 195286" d="M-282.1,353.329l60.692,60.693,60.686-60.693-60.686-60.693Zm111.761,0c-4.205,4.205-46.869,46.871-51.069,51.076l-51.075-51.076c4.205-4.207,46.869-46.871,51.075-51.076C-217.212,306.459-174.549,349.123-170.343,353.329Z" transform="translate(282.105 -292.636)" fill="#ef4135"/>
        <g id="Grupo_134654" data-name="Grupo 134654" transform="translate(36.438 32.058)">
          <g id="Grupo_134647" data-name="Grupo 134647" transform="translate(0 28.164)">
            <rect id="Rectángulo_41317" data-name="Rectángulo 41317" width="47.422" height="0.843"/>
          </g>
          <g id="Grupo_134648" data-name="Grupo 134648" transform="translate(1.151)">
            <path id="Trazado_195287" data-name="Trazado 195287" d="M-250.614,355.829l5.838-3.374.273-14.4-7.2-3.923a3.319,3.319,0,0,0-2.645-.273c-.547.181-1.277.364-1.277.364s3.921-3.283,4.651-3.009,5.836,2.736,5.836,2.736-.547-3.831-1.915-4.925-6.657-5.291-6.657-5.291v-1l7.2,4.378s.274-4.2-1.185-6.659-2.553-4.651-2.553-4.651l.456-.364,3.557,5.472,1.185-3.74.73-.183s-.912,5.291-.273,6.931,3.009,10.58,3.009,10.58l3.557-5.108a26.327,26.327,0,0,0-.091-3.557c-.183-1.458-.456-8.208-.456-8.208h.638l1,7.388,5.743-6.659v.73s-5.652,7.114-5.378,8.665a6.175,6.175,0,0,1-.456,4.651c-1,2.189-1.642,3.738-1.642,3.738s3.009-3.556,4.378-3.83c1.367-.091,3.189.091,4.467-1s4.377-4.56,4.377-4.56l-4.834,7.478s-2.278.091-3.19,1.1-4.651,5.289-4.651,5.289v9.843l6.2,3.1-7.568,1.094-1.824,2.645-2.463-2.1Z" transform="translate(255.846 -314.937)"/>
            <path id="Trazado_195288" data-name="Trazado 195288" d="M-241.18,357.937l-2.639-2.248-6.7.624-.2-.627,5.672-3.28.267-14.007-7.051-3.84a2.966,2.966,0,0,0-2.362-.231c-.543.181-1.261.361-1.291.368l-.3-.585c.01-.009,1-.837,2.069-1.621,2.012-1.477,2.592-1.569,2.917-1.447.593.223,3.9,1.805,5.275,2.465-.248-1.274-.817-3.382-1.682-4.074-1.352-1.081-6.6-5.246-6.657-5.288l-.127-.1v-1.766l7.223,4.388c.013-1.208-.079-4.077-1.157-5.9-1.448-2.445-2.555-4.651-2.566-4.672l-.121-.244.96-.768,3.371,5.186,1.027-3.239,1.415-.354-.089.511c-.25,1.445-.787,5.476-.291,6.752.54,1.387,2.258,7.757,2.833,9.912l3.086-4.43a25.577,25.577,0,0,0-.093-3.4c-.183-1.457-.447-7.961-.458-8.237l-.014-.351h1.284l.942,6.937,5.848-6.777v1.755l-.074.091c-2.148,2.7-5.491,7.375-5.311,8.4.02.11.04.217.059.321a6.216,6.216,0,0,1-.54,4.528c-.321.7-.605,1.341-.844,1.882,1.012-1.047,2.352-2.273,3.207-2.445l.044-.006c.254-.017.517-.024.8-.031a5.409,5.409,0,0,0,3.473-.891c1.245-1.067,4.314-4.494,4.345-4.528l.534.407-4.928,7.625-.174.007c-.021,0-2.149.1-2.954.984-.824.907-4.007,4.551-4.564,5.189v9.509l6.977,3.49-8.488,1.227Zm-2.418-2.946,2.286,1.948,1.7-2.459,6.649-.961-5.423-2.713V340.627l.083-.094c.037-.043,3.753-4.3,4.657-5.295a5.452,5.452,0,0,1,3.247-1.194l2.625-4.058c-.665.693-1.315,1.342-1.758,1.722a6.007,6.007,0,0,1-3.893,1.052c-.263.007-.513.014-.747.03-1.037.233-3.356,2.755-4.167,3.713l-.568-.347c.006-.014.651-1.581,1.646-3.751a5.6,5.6,0,0,0,.488-4.127c-.019-.106-.039-.213-.059-.324-.187-1.064,1.811-4.067,3.474-6.345l-3.74,4.337-1.054-7.754c.064,1.515.284,6.53.436,7.745a26.243,26.243,0,0,1,.094,3.613l0,.1-4.028,5.785-.187-.7c-.024-.089-2.373-8.938-3-10.543-.55-1.417-.039-5.215.174-6.6l-.05.013-1.345,4.24-3.4-5.233c.447.855,1.219,2.292,2.126,3.824,1.5,2.523,1.244,6.676,1.232,6.851l-.036.555-7.168-4.355v.24c.817.648,5.3,4.2,6.532,5.189,1.455,1.165,2.015,4.979,2.038,5.141l.09.627-.57-.276c-.051-.024-5.044-2.43-5.8-2.719h-.011a11.062,11.062,0,0,0-3.043,1.923,3.636,3.636,0,0,1,2.6.384L-244.1,338l-.281,14.8-4.667,2.7Z" transform="translate(255.781 -315.086)"/>
          </g>
          <g id="Grupo_134649" data-name="Grupo 134649" transform="translate(0.086 36.779)">
            <path id="Trazado_195289" data-name="Trazado 195289" d="M-256.46,353.416s8.3-2.462,9.667-1.459c1.825-.821,15.138-6.476,15.138-6.11s15.321-4.742,15.321-4.742l5.563,4.013-5.289,2.553,7.114.638-1.916,2.555h3.923l.09,2.826Z" transform="translate(256.556 -340.73)"/>
            <path id="Trazado_195290" data-name="Trazado 195290" d="M-206.471,354.141l-49.962-.276-.094-.661c1.361-.4,8.01-2.306,9.78-1.512,1.134-.5,4.658-2.006,7.972-3.379,6.4-2.648,7.046-2.78,7.273-2.68,1.09-.15,9.742-2.955,15.091-4.737l.163-.054,6.163,4.444-4.7,2.269,6.5.584-1.874,2.5h3.573Zm-47.5-.937,46.8.259-.069-2.151h-4.27l1.956-2.609-7.725-.694,5.878-2.837-4.964-3.581c-.764.254-4.07,1.351-7.371,2.413-6.75,2.172-7.72,2.369-7.994,2.286-1.288.283-12.766,5.126-14.9,6.086l-.178.081-.158-.116C-247.659,351.829-251.026,352.46-253.969,353.2Zm22.007-7.246v0Zm.674-.021v0Z" transform="translate(256.527 -340.842)"/>
          </g>
          <g id="Grupo_134652" data-name="Grupo 134652" transform="translate(18.526 25.017)">
            <g id="Grupo_134650" data-name="Grupo 134650" transform="translate(0.17 0.422)">
              <path id="Trazado_195291" data-name="Trazado 195291" d="M-243.5,349.721a13.853,13.853,0,0,0,3.466-.547c1.736-.723,4.558-1.915,6.2-4.287,1.7-2.45,7.751-12.762,16.05-11.941a38.131,38.131,0,0,1-1.915,3.466l5.928-1.824s.091,7.837-11.125,12.853c-5.2,1.824-6.293,1.915-6.749,2.553s-2.555,3.83-2.555,3.83Z" transform="translate(243.495 -332.901)" fill="#fff"/>
            </g>
            <g id="Grupo_134651" data-name="Grupo 134651">
              <path id="Trazado_195292" data-name="Trazado 195292" d="M-233.987,354.482l-9.627-4.247.154-.808a13.48,13.48,0,0,0,3.32-.514c1.656-.691,4.428-1.846,6.015-4.138.137-.2.3-.45.5-.743,2.206-3.324,8.071-12.156,15.94-11.378l.567.057-.218.526a26.664,26.664,0,0,1-1.377,2.576l5.415-1.666.007.564a10.773,10.773,0,0,1-1.407,4.749c-1.289,2.418-4.065,5.855-9.97,8.494l-.031.013c-1.821.638-3.139,1.065-4.1,1.378-1.622.524-2.229.721-2.445,1.024-.447.624-2.523,3.784-2.545,3.817Zm-7.778-4.354,7.465,3.294c.535-.813,1.989-3.016,2.366-3.546s.957-.715,2.872-1.335c.955-.31,2.263-.733,4.064-1.365,5.646-2.528,8.3-5.78,9.527-8.064a11.225,11.225,0,0,0,1.287-3.811l-6.4,1.971.587-.954c.011-.02,1.052-1.712,1.631-2.865-7.076-.224-12.482,7.924-14.554,11.045-.2.3-.367.554-.507.755-1.728,2.5-4.642,3.71-6.384,4.437A8.3,8.3,0,0,1-241.765,350.128Z" transform="translate(243.614 -332.605)"/>
            </g>
          </g>
          <g id="Grupo_134653" data-name="Grupo 134653" transform="translate(42.953 30.861)">
            <path id="Trazado_195293" data-name="Trazado 195293" d="M-226.508,337.562a.942.942,0,0,1,1-.864.942.942,0,0,1,1,.864.943.943,0,0,1-1,.867A.943.943,0,0,1-226.508,337.562Z" transform="translate(226.508 -336.698)"/>
          </g>
        </g>
      </g>
      <g id="Grupo_134656" data-name="Grupo 134656" transform="translate(368.806 346.959)">
        <path id="Trazado_195294" data-name="Trazado 195294" d="M-151.866,350.446c4.205,4.205,46.868,46.868,51.073,51.074,4.205-4.207,46.868-46.869,51.073-51.074l-51.073-51.073ZM-119.5,371.84a1.36,1.36,0,0,1-.287-.03l-9.078-9.216v-5.6a4.678,4.678,0,0,1,2.863-4.15c.738-.3,2.67-1.04,5-1.931a.885.885,0,0,1,.46-.13.878.878,0,0,1,.87.76.874.874,0,0,1,.564-.206.881.881,0,0,1,.81.535,1.634,1.634,0,0,1,.43-.057,1.676,1.676,0,0,1,1.676,1.666.867.867,0,0,1,.323-.063.88.88,0,0,1,.88.88.865.865,0,0,1-.08.364,1.671,1.671,0,0,1,.941.728,1.673,1.673,0,0,1,.793-.2,1.677,1.677,0,0,1,1.678,1.678,1.671,1.671,0,0,1-.019.241.893.893,0,0,1,.248-.036.879.879,0,0,1,.88.878.907.907,0,0,1-.057.313,1.661,1.661,0,0,1,.88-.251,1.677,1.677,0,0,1,1.676,1.678c0,.04,0,.079-.006.118a1.667,1.667,0,0,1,.693,1.245c.019,0,.034-.006.053-.006a.617.617,0,0,1,.615.617.617.617,0,0,1-.615.617h0a1.307,1.307,0,0,1,.047.337,1.355,1.355,0,0,1-.113.538.684.684,0,0,1,.66.683.684.684,0,0,1-.685.684.684.684,0,0,1-.683-.658,1.356,1.356,0,0,1-.538.113,1.174,1.174,0,0,1-.124-.007,1.409,1.409,0,0,1,.049.358,1.355,1.355,0,0,1-.5,1.05.952.952,0,0,1,.678.911.952.952,0,0,1-.951.951.952.952,0,0,1-.952-.951.948.948,0,0,1,.221-.608,1.356,1.356,0,0,1-.863-.437,1.367,1.367,0,0,1-.717.863.945.945,0,0,1,.3.691.952.952,0,0,1-.951.953.949.949,0,0,1-.678-.286,1.373,1.373,0,0,1-.667.507,1.345,1.345,0,0,1,.126.567,1.359,1.359,0,0,1-1.359,1.359,1.356,1.356,0,0,1-1.057-.505,1.781,1.781,0,0,1,.013.2,1.678,1.678,0,0,1-1.678,1.678,1.675,1.675,0,0,1-.588-.108A1.359,1.359,0,0,1-119.5,371.84Zm13.185-11.43a.609.609,0,0,1-.351.111.617.617,0,0,1-.615-.617.617.617,0,0,1,.615-.617.616.616,0,0,1,.6.474.856.856,0,0,1,.605-.25.855.855,0,0,1,.855.855.856.856,0,0,1-.855.857A.855.855,0,0,1-106.319,360.411Zm.148,5.231a.684.684,0,0,1-.684.685.686.686,0,0,1-.685-.685.684.684,0,0,1,.685-.684A.683.683,0,0,1-106.171,365.641Zm-.905-7.733a.879.879,0,0,1-.88-.88.879.879,0,0,1,.88-.878.879.879,0,0,1,.88.878A.879.879,0,0,1-107.076,357.909Zm5.815,24.945a2.625,2.625,0,0,1,.468,1.5,2.636,2.636,0,0,1-1.144,2.173.779.779,0,0,1,.605.758.781.781,0,0,1-.35.65.6.6,0,0,1,.361.55.6.6,0,0,1-.4.563.6.6,0,0,1,.334.536.6.6,0,0,1-.366.551l-16.482-16.743a1.369,1.369,0,0,1-.037-.318,1.359,1.359,0,0,1,1.359-1.358,1.342,1.342,0,0,1,.765.237,2.032,2.032,0,0,1,1.866-1.231,2.02,2.02,0,0,1,1.365.53,1.347,1.347,0,0,1-.036-.306,1.359,1.359,0,0,1,1.358-1.359,1.361,1.361,0,0,1,.767.237,1.359,1.359,0,0,1,1.315-1.022,1.355,1.355,0,0,1,1.005.446,1.676,1.676,0,0,1,1.438-.815,1.673,1.673,0,0,1,1.07.386c0-.036,0-.071.007-.107a.948.948,0,0,1-.81-.94.951.951,0,0,1,.951-.951.951.951,0,0,1,.838.5,1.667,1.667,0,0,1,.69-.15,1.669,1.669,0,0,1,1.3.623.682.682,0,0,1,.558-.291.686.686,0,0,1,.685.685.682.682,0,0,1-.454.643,1.665,1.665,0,0,1,.326.991,1.667,1.667,0,0,1-.418,1.105,1.674,1.674,0,0,1,.743,1.392,1.671,1.671,0,0,1-.581,1.268.952.952,0,0,1,.623.891.951.951,0,0,1-.884.948,1.67,1.67,0,0,1,.149.687,1.664,1.664,0,0,1-.168.728.939.939,0,0,1,.23-.03.952.952,0,0,1,.951.952.941.941,0,0,1-.221.608.952.952,0,0,1,.407.78.951.951,0,0,1-.376.755,1.676,1.676,0,0,1,.981,1.525A1.675,1.675,0,0,1-101.261,382.854Zm1.454-28.871a.617.617,0,0,1-.617.617.616.616,0,0,1-.617-.617.615.615,0,0,1,.447-.59.851.851,0,0,1-.456-.751.857.857,0,0,1,.857-.857.856.856,0,0,1,.855.857.853.853,0,0,1-.727.842A.617.617,0,0,1-99.808,353.983Zm-.972,2.129a.616.616,0,0,1-.617.615.616.616,0,0,1-.615-.615.616.616,0,0,1,.615-.617A.616.616,0,0,1-100.78,356.112Zm-1.078,8.719a.856.856,0,0,1,.855.857.855.855,0,0,1-.855.855.855.855,0,0,1-.857-.855A.857.857,0,0,1-101.858,364.832Zm.777,7.888a.948.948,0,0,1,.3-.691.682.682,0,0,1-.233-.511.686.686,0,0,1,.685-.685.684.684,0,0,1,.684.685.671.671,0,0,1-.091.336.952.952,0,0,1,.56.867.95.95,0,0,1-.951.95A.95.95,0,0,1-101.081,372.72Zm19.035.96-17.785,16.375a.6.6,0,0,1-.366-.553.6.6,0,0,1,.226-.466.567.567,0,0,1-.011-.111.6.6,0,0,1,.273-.5.6.6,0,0,1-.261-.494.592.592,0,0,1,.229-.467,1.35,1.35,0,0,1-.254-.79,1.357,1.357,0,0,1,.193-.7,1.689,1.689,0,0,1-.134-.658,1.675,1.675,0,0,1,.728-1.384,2.019,2.019,0,0,1-.693-1.525,2.03,2.03,0,0,1,1.235-1.868,2.025,2.025,0,0,1-.912-1.694,2.014,2.014,0,0,1,.278-1.021c-.03,0-.059.007-.089.007a.951.951,0,0,1-.951-.951.95.95,0,0,1,.69-.914.946.946,0,0,1-.258-.651.951.951,0,0,1,.951-.951.952.952,0,0,1,.952.951.937.937,0,0,1-.187.563.952.952,0,0,1,.478.17,2.12,2.12,0,0,1-.03-.333,2.027,2.027,0,0,1,.176-.822,2.018,2.018,0,0,1-.553-1.389,2.029,2.029,0,0,1,.24-.96,1.676,1.676,0,0,1-.661-1.334,1.675,1.675,0,0,1,.194-.783.952.952,0,0,1-.738-.927.952.952,0,0,1,.952-.951.937.937,0,0,1,.6.219,1.142,1.142,0,0,1-.134-.537,1.142,1.142,0,0,1,1.142-1.142,1.143,1.143,0,0,1,1.067.738,2.009,2.009,0,0,1,.551-.079c.043,0,.086,0,.127.007a.95.95,0,0,1,.892-.623.951.951,0,0,1,.947.861,1.587,1.587,0,0,1,.274-.024,1.675,1.675,0,0,1,1.676,1.658,1.356,1.356,0,0,1,.229-.02,1.354,1.354,0,0,1,1.158.65.868.868,0,0,1-.009-.121.952.952,0,0,1,.951-.952.952.952,0,0,1,.95.907,1.656,1.656,0,0,1,.614-.118,1.678,1.678,0,0,1,1.678,1.678c0,.036,0,.07-.006.1a1.364,1.364,0,0,1,.725-.21,1.357,1.357,0,0,1,1.3.978.941.941,0,0,1,.451-.114.951.951,0,0,1,.951.952A.93.93,0,0,1-82.046,373.679Zm-12.7-8.084a.685.685,0,0,1-.685.685h0l-.017,0a.655.655,0,0,1-.607-.414.671.671,0,0,1-.057-.273.683.683,0,0,1,.59-.675.9.9,0,0,1-.061-.328.917.917,0,0,1,.917-.918.918.918,0,0,1,.918.918.918.918,0,0,1-.918.918c-.029,0-.057,0-.084,0A.617.617,0,0,1-94.744,365.6Zm-1.1-5.676a.975.975,0,0,1-.194.021.92.92,0,0,1-.917-.871.643.643,0,0,1-.159.02.688.688,0,0,1-.688-.688.689.689,0,0,1,.688-.688.688.688,0,0,1,.657.493.915.915,0,0,1,.418-.1.915.915,0,0,1,.835.541.841.841,0,0,1,.119.427A.853.853,0,0,1-95.841,359.919Zm14.191-7.248a.813.813,0,0,1-.013-.146.917.917,0,0,1,.917-.918.92.92,0,0,1,.42.1.919.919,0,0,1,.827-.734s3.583,1.17,4.124,1.355c2.418.827,4.418,3.149,4.418,5.006v6.125l-9.086,8.364h0a1.046,1.046,0,0,1-.848.434,1.046,1.046,0,0,1-1.047-1.047,1.04,1.04,0,0,1,.2-.617,1.655,1.655,0,0,1-.867.243,1.678,1.678,0,0,1-1.678-1.678c0-.041,0-.081.007-.123a1.352,1.352,0,0,1-.918.358,1.359,1.359,0,0,1-1.348-1.2,1.675,1.675,0,0,1-.948.293,1.676,1.676,0,0,1-1.624-1.264.684.684,0,0,1-.674.578.686.686,0,0,1-.685-.685.686.686,0,0,1,.685-.685.69.69,0,0,1,.134.014,1.348,1.348,0,0,1-.147-.61,1.337,1.337,0,0,1,.087-.474,2.1,2.1,0,0,1-.284.021,2.018,2.018,0,0,1-.87-.2.874.874,0,0,1-.127.256.831.831,0,0,1-.7.378.835.835,0,0,1-.774-.528.864.864,0,0,1-.076-.35.855.855,0,0,1,.661-.831,2.024,2.024,0,0,1-.147-.757,2.116,2.116,0,0,1,.01-.214,1.143,1.143,0,0,1-.254.03,1.135,1.135,0,0,1-.537-.137.685.685,0,0,1-.641.444.687.687,0,0,1-.421-.146.619.619,0,0,1-.281-.517.6.6,0,0,1,.054-.25.684.684,0,0,1,.583-.457V362.1a1.163,1.163,0,0,1-.373-.854,1.17,1.17,0,0,1,1.171-1.169,1.16,1.16,0,0,1,.573.15,1.051,1.051,0,0,1-.123-.494,1.064,1.064,0,0,1,1.064-1.064,1.074,1.074,0,0,1,.216.021,2.028,2.028,0,0,1,2.026-1.943,2,2,0,0,1,.635.1,1.058,1.058,0,0,1,.853-.43,1.069,1.069,0,0,1,.427.09,2.188,2.188,0,0,1-.029-.337,2.214,2.214,0,0,1,2.215-2.215,2.235,2.235,0,0,1,.53.066v-.009a1.678,1.678,0,0,1,1.678-1.678A1.669,1.669,0,0,1-81.649,352.671Zm-5.9-27.323A36.856,36.856,0,0,1-90,336.408a17.9,17.9,0,0,1-3.481,5.9l.039,4.174,9.777,3.149.935.3a.59.59,0,0,1,.034.2.616.616,0,0,1-.615.617.628.628,0,0,1-.188-.031,1.167,1.167,0,0,1-.551.89,1.169,1.169,0,0,1-1.168,1.147,1.171,1.171,0,0,1-1.04-.634.935.935,0,0,1,.01.127.918.918,0,0,1-.918.918.915.915,0,0,1-.281-.046,1.171,1.171,0,0,1,.161.591,1.171,1.171,0,0,1-1.171,1.171,1.16,1.16,0,0,1-.611-.174.914.914,0,0,1-.765.414.918.918,0,0,1-.885-.675,1.034,1.034,0,0,1-.827.413,1.034,1.034,0,0,1-.964-.658l-.076,0a2.209,2.209,0,0,1-.578-.079,2.534,2.534,0,0,1-.186.6.854.854,0,0,1,.531.791.855.855,0,0,1-.855.857.856.856,0,0,1-.775-.5,2.423,2.423,0,0,1-.864.261,1.141,1.141,0,0,1-1.122.938,1.141,1.141,0,0,1-1.141-1.141,1.132,1.132,0,0,1,.171-.6,2.442,2.442,0,0,1-.63-1.638,2.451,2.451,0,0,1,.281-1.14,2.208,2.208,0,0,1-.331-1.162c0-.059,0-.114.009-.171a.567.567,0,0,1-.086.009.616.616,0,0,1-.615-.617.616.616,0,0,1,.615-.615.615.615,0,0,1,.438.183,2.113,2.113,0,0,1,.2-.254,2.2,2.2,0,0,1-.234-.985,2.227,2.227,0,0,1,.163-.831,1.065,1.065,0,0,1-.611-.962,1.06,1.06,0,0,1,.144-.534,1.285,1.285,0,0,1-.771-1.178,1.287,1.287,0,0,1,.773-1.179,2.213,2.213,0,0,1-.853-1.746,2.2,2.2,0,0,1,.084-.6,1.678,1.678,0,0,1-.994-1.531,1.68,1.68,0,0,1,.1-.571,1.168,1.168,0,0,1-.543-.987,1.141,1.141,0,0,1,.021-.221,1.17,1.17,0,0,1-.65.231,1.225,1.225,0,0,1,.02.206,1.167,1.167,0,0,1-.254.727,1.168,1.168,0,0,1,.567,1,1.171,1.171,0,0,1-.8,1.111,1.669,1.669,0,0,1,.407,1.094,1.677,1.677,0,0,1-1.088,1.569,2.233,2.233,0,0,1,.144.784,2.212,2.212,0,0,1-.33,1.164.856.856,0,0,1,.611.438.618.618,0,0,1,.361-.118.616.616,0,0,1,.615.617.617.617,0,0,1-.615.617.606.606,0,0,1-.163-.026,1.671,1.671,0,0,1,.464,1.154,1.678,1.678,0,0,1-1.082,1.568,1.6,1.6,0,0,1,.019.236,1.673,1.673,0,0,1-.414,1.1.614.614,0,0,1,.406.577.613.613,0,0,1-.534.607,1.841,1.841,0,0,1,.294,1,1.846,1.846,0,0,1-1.235,1.741.627.627,0,0,1,.04.214.616.616,0,0,1-.615.617.616.616,0,0,1-.617-.617.614.614,0,0,1,.034-.193,1.85,1.85,0,0,1-1.12-.975,1.674,1.674,0,0,1-.693.15,1.665,1.665,0,0,1-1.012-.343,1.676,1.676,0,0,1-1.485.9,1.678,1.678,0,0,1-1.652-1.391,1.067,1.067,0,0,1-.313.046,1.063,1.063,0,0,1-1.058-.958,1.667,1.667,0,0,1-.644.129,1.679,1.679,0,0,1-1.619-1.241,1.681,1.681,0,0,1-.241.019,1.676,1.676,0,0,1-1.622-1.257,1.656,1.656,0,0,1-.414.054,1.679,1.679,0,0,1-1.644-1.339l9.793-3.543.446-4.57c-3.651-4.307-5.523-11.334-5.523-16.342,0-7.705,5.8-13.951,12.957-13.951S-87.548,319.273-87.548,325.348Z" transform="translate(161.482 -289.756)" fill="none"/>
        <path id="Trazado_195295" data-name="Trazado 195295" d="M-117.81,336.633l-.047.013.043.023Z" transform="translate(176.037 -273.809)" fill="none"/>
        <path id="Trazado_195296" data-name="Trazado 195296" d="M-158.6,353.329l60.689,60.691,60.689-60.691-60.689-60.691Zm111.762,0c-4.205,4.205-46.868,46.868-51.073,51.075-4.205-4.207-46.868-46.869-51.073-51.075l51.073-51.073Z" transform="translate(158.6 -292.638)" fill="#ef4135"/>
        <path id="Trazado_195297" data-name="Trazado 195297" d="M-120.236,339.134a.879.879,0,0,0-.88.878.879.879,0,0,0,.88.88.879.879,0,0,0,.88-.88A.879.879,0,0,0-120.236,339.134Z" transform="translate(174.642 -272.739)"/>
        <path id="Trazado_195298" data-name="Trazado 195298" d="M-110.46,345.32a.918.918,0,0,0-.918-.918.917.917,0,0,0-.917.918.9.9,0,0,0,.061.328.683.683,0,0,0-.59.675.671.671,0,0,0,.057.273.655.655,0,0,0,.607.414l.017,0h0a.685.685,0,0,0,.685-.685.617.617,0,0,0-.009-.09c.027,0,.056,0,.084,0A.918.918,0,0,0-110.46,345.32Z" transform="translate(178.192 -270.484)"/>
        <path id="Trazado_195299" data-name="Trazado 195299" d="M-117.446,346.07a.855.855,0,0,0,.857.855.855.855,0,0,0,.855-.855.856.856,0,0,0-.855-.857A.857.857,0,0,0-117.446,346.07Z" transform="translate(176.213 -270.137)"/>
        <path id="Trazado_195300" data-name="Trazado 195300" d="M-118.828,343.267a.856.856,0,0,0,.855-.857.855.855,0,0,0-.855-.855.856.856,0,0,0-.605.25.616.616,0,0,0-.6-.474.617.617,0,0,0-.615.617.617.617,0,0,0,.615.617.609.609,0,0,0,.351-.111A.855.855,0,0,0-118.828,343.267Z" transform="translate(174.843 -271.798)"/>
        <path id="Trazado_195301" data-name="Trazado 195301" d="M-112.239,340.619a.915.915,0,0,0-.418.1.688.688,0,0,0-.657-.493.689.689,0,0,0-.688.688.688.688,0,0,0,.688.688.644.644,0,0,0,.159-.02.92.92,0,0,0,.917.871.97.97,0,0,0,.194-.021.853.853,0,0,0,.76-.847.841.841,0,0,0-.119-.427A.915.915,0,0,0-112.239,340.619Z" transform="translate(177.687 -272.271)"/>
        <path id="Trazado_195302" data-name="Trazado 195302" d="M-114.568,336.934a.856.856,0,0,0-.855-.857.857.857,0,0,0-.857.857.851.851,0,0,0,.456.751.615.615,0,0,0-.447.59.616.616,0,0,0,.617.617.617.617,0,0,0,.617-.617.617.617,0,0,0-.257-.5A.853.853,0,0,0-114.568,336.934Z" transform="translate(176.712 -274.047)"/>
        <path id="Trazado_195303" data-name="Trazado 195303" d="M-120.14,345.3a.684.684,0,0,0-.685.684.686.686,0,0,0,.685.685.684.684,0,0,0,.684-.685A.683.683,0,0,0-120.14,345.3Z" transform="translate(174.767 -270.099)"/>
        <path id="Trazado_195304" data-name="Trazado 195304" d="M-116.954,339.292a.616.616,0,0,0,.615.615.616.616,0,0,0,.617-.615.616.616,0,0,0-.617-.617A.616.616,0,0,0-116.954,339.292Z" transform="translate(176.424 -272.935)"/>
        <path id="Trazado_195305" data-name="Trazado 195305" d="M-114.4,351.3a.952.952,0,0,0-.56-.867.671.671,0,0,0,.091-.336.684.684,0,0,0-.684-.685.686.686,0,0,0-.685.685.683.683,0,0,0,.233.511.948.948,0,0,0-.3.691.95.95,0,0,0,.951.95A.95.95,0,0,0-114.4,351.3Z" transform="translate(176.703 -268.339)"/>
        <path id="Trazado_195306" data-name="Trazado 195306" d="M-111.52,359.692a.951.951,0,0,0,.376-.755.952.952,0,0,0-.407-.78.941.941,0,0,0,.221-.608.952.952,0,0,0-.951-.952.94.94,0,0,0-.23.03,1.664,1.664,0,0,0,.168-.728,1.67,1.67,0,0,0-.149-.687.951.951,0,0,0,.884-.948.952.952,0,0,0-.623-.891,1.671,1.671,0,0,0,.581-1.268,1.674,1.674,0,0,0-.743-1.392,1.667,1.667,0,0,0,.418-1.105,1.665,1.665,0,0,0-.326-.991.683.683,0,0,0,.454-.643.686.686,0,0,0-.685-.685.682.682,0,0,0-.558.291,1.669,1.669,0,0,0-1.3-.623,1.667,1.667,0,0,0-.69.15.951.951,0,0,0-.838-.5.951.951,0,0,0-.951.951.948.948,0,0,0,.81.94c0,.036-.006.071-.007.107a1.673,1.673,0,0,0-1.07-.386,1.676,1.676,0,0,0-1.438.815,1.355,1.355,0,0,0-1.005-.446,1.359,1.359,0,0,0-1.315,1.022,1.361,1.361,0,0,0-.767-.237,1.359,1.359,0,0,0-1.358,1.36,1.347,1.347,0,0,0,.036.306,2.02,2.02,0,0,0-1.365-.53,2.032,2.032,0,0,0-1.866,1.231,1.342,1.342,0,0,0-.765-.237,1.359,1.359,0,0,0-1.359,1.358,1.37,1.37,0,0,0,.037.318l16.482,16.743a.6.6,0,0,0,.366-.551.6.6,0,0,0-.334-.535.6.6,0,0,0,.4-.563.6.6,0,0,0-.361-.55.781.781,0,0,0,.35-.65.779.779,0,0,0-.605-.758,2.636,2.636,0,0,0,1.144-2.173,2.625,2.625,0,0,0-.468-1.5,1.675,1.675,0,0,0,.791-1.424A1.676,1.676,0,0,0-111.52,359.692Z" transform="translate(171.551 -269.542)"/>
        <path id="Trazado_195307" data-name="Trazado 195307" d="M-98.386,352.114a.941.941,0,0,0-.451.114,1.357,1.357,0,0,0-1.3-.978,1.364,1.364,0,0,0-.725.21c0-.034.006-.069.006-.1a1.678,1.678,0,0,0-1.678-1.678,1.655,1.655,0,0,0-.614.119.952.952,0,0,0-.95-.907.952.952,0,0,0-.951.953.866.866,0,0,0,.009.121,1.354,1.354,0,0,0-1.158-.65,1.356,1.356,0,0,0-.228.02,1.675,1.675,0,0,0-1.676-1.658,1.59,1.59,0,0,0-.274.024.951.951,0,0,0-.947-.861.95.95,0,0,0-.892.623c-.041,0-.084-.007-.127-.007a2.008,2.008,0,0,0-.551.079,1.143,1.143,0,0,0-1.067-.738,1.142,1.142,0,0,0-1.142,1.142,1.142,1.142,0,0,0,.134.537.937.937,0,0,0-.6-.219.952.952,0,0,0-.952.951.952.952,0,0,0,.738.927,1.676,1.676,0,0,0-.194.783,1.676,1.676,0,0,0,.661,1.334,2.029,2.029,0,0,0-.24.96,2.018,2.018,0,0,0,.553,1.389,2.027,2.027,0,0,0-.176.822,2.118,2.118,0,0,0,.03.333.952.952,0,0,0-.478-.17.937.937,0,0,0,.187-.563.952.952,0,0,0-.952-.951.951.951,0,0,0-.951.951.946.946,0,0,0,.258.651.95.95,0,0,0-.69.914.951.951,0,0,0,.951.951c.03,0,.059,0,.089-.007a2.014,2.014,0,0,0-.278,1.021,2.025,2.025,0,0,0,.912,1.694,2.03,2.03,0,0,0-1.235,1.868,2.019,2.019,0,0,0,.693,1.525,1.675,1.675,0,0,0-.728,1.384,1.689,1.689,0,0,0,.134.658,1.357,1.357,0,0,0-.193.7,1.35,1.35,0,0,0,.254.79.592.592,0,0,0-.228.467.6.6,0,0,0,.261.494.6.6,0,0,0-.273.5.567.567,0,0,0,.011.111.6.6,0,0,0-.226.466.6.6,0,0,0,.366.553l17.785-16.375a.93.93,0,0,0,.054-.317A.951.951,0,0,0-98.386,352.114Z" transform="translate(176.924 -269.46)"/>
        <path id="Trazado_195308" data-name="Trazado 195308" d="M-101.627,338.551v.009a2.232,2.232,0,0,0-.53-.066,2.214,2.214,0,0,0-2.215,2.215,2.189,2.189,0,0,0,.029.337,1.069,1.069,0,0,0-.427-.09,1.058,1.058,0,0,0-.853.43,2,2,0,0,0-.635-.1,2.028,2.028,0,0,0-2.026,1.943,1.076,1.076,0,0,0-.216-.021,1.064,1.064,0,0,0-1.064,1.064,1.051,1.051,0,0,0,.123.494,1.16,1.16,0,0,0-.573-.15,1.17,1.17,0,0,0-1.171,1.17,1.163,1.163,0,0,0,.373.854v.013a.684.684,0,0,0-.583.457.6.6,0,0,0-.054.25.619.619,0,0,0,.281.517.687.687,0,0,0,.421.146.685.685,0,0,0,.641-.444,1.135,1.135,0,0,0,.537.137,1.145,1.145,0,0,0,.254-.03,2.115,2.115,0,0,0-.01.214,2.024,2.024,0,0,0,.147.757.855.855,0,0,0-.661.831.864.864,0,0,0,.076.35.835.835,0,0,0,.774.528.831.831,0,0,0,.7-.378.874.874,0,0,0,.127-.256,2.018,2.018,0,0,0,.87.2,2.1,2.1,0,0,0,.284-.021,1.338,1.338,0,0,0-.087.474,1.348,1.348,0,0,0,.147.61.692.692,0,0,0-.134-.014.686.686,0,0,0-.685.685.686.686,0,0,0,.685.685.684.684,0,0,0,.674-.578,1.676,1.676,0,0,0,1.624,1.264,1.675,1.675,0,0,0,.948-.293,1.359,1.359,0,0,0,1.348,1.2,1.352,1.352,0,0,0,.918-.358c0,.041-.007.081-.007.123a1.678,1.678,0,0,0,1.678,1.678,1.655,1.655,0,0,0,.867-.243,1.04,1.04,0,0,0-.2.617,1.046,1.046,0,0,0,1.047,1.047,1.046,1.046,0,0,0,.848-.434h0L-88.255,348v-6.125c0-1.858-2-4.18-4.418-5.006-.541-.186-4.124-1.355-4.124-1.355a.918.918,0,0,0-.827.734.92.92,0,0,0-.42-.1.917.917,0,0,0-.917.918.812.812,0,0,0,.013.146,1.669,1.669,0,0,0-1-.333A1.678,1.678,0,0,0-101.627,338.551Z" transform="translate(178.781 -274.29)"/>
        <path id="Trazado_195309" data-name="Trazado 195309" d="M-123.56,321.744c0,5.008,1.872,12.035,5.523,16.342l-.446,4.57-9.793,3.543a1.679,1.679,0,0,0,1.644,1.339,1.655,1.655,0,0,0,.414-.054,1.676,1.676,0,0,0,1.622,1.257,1.673,1.673,0,0,0,.241-.019,1.679,1.679,0,0,0,1.619,1.241,1.668,1.668,0,0,0,.644-.128,1.063,1.063,0,0,0,1.058.958,1.067,1.067,0,0,0,.313-.046,1.678,1.678,0,0,0,1.652,1.391,1.676,1.676,0,0,0,1.485-.9,1.665,1.665,0,0,0,1.012.343,1.675,1.675,0,0,0,.693-.15,1.85,1.85,0,0,0,1.12.975.615.615,0,0,0-.034.193.616.616,0,0,0,.617.617.616.616,0,0,0,.615-.617.627.627,0,0,0-.04-.214,1.847,1.847,0,0,0,1.235-1.741,1.841,1.841,0,0,0-.294-1,.613.613,0,0,0,.534-.607.614.614,0,0,0-.406-.577,1.673,1.673,0,0,0,.414-1.1,1.6,1.6,0,0,0-.019-.236,1.678,1.678,0,0,0,1.082-1.568,1.671,1.671,0,0,0-.464-1.154.605.605,0,0,0,.163.026.617.617,0,0,0,.615-.617.616.616,0,0,0-.615-.617.618.618,0,0,0-.361.118.856.856,0,0,0-.611-.438,2.212,2.212,0,0,0,.33-1.164,2.233,2.233,0,0,0-.144-.784,1.677,1.677,0,0,0,1.088-1.569,1.669,1.669,0,0,0-.407-1.094,1.171,1.171,0,0,0,.8-1.111,1.169,1.169,0,0,0-.567-1,1.167,1.167,0,0,0,.254-.727,1.224,1.224,0,0,0-.02-.206,1.171,1.171,0,0,0,.65-.231,1.139,1.139,0,0,0-.021.221,1.168,1.168,0,0,0,.543.987,1.68,1.68,0,0,0-.1.571,1.678,1.678,0,0,0,.994,1.531,2.2,2.2,0,0,0-.084.6,2.213,2.213,0,0,0,.853,1.746,1.287,1.287,0,0,0-.773,1.18,1.285,1.285,0,0,0,.771,1.178,1.06,1.06,0,0,0-.144.534,1.064,1.064,0,0,0,.611.962,2.227,2.227,0,0,0-.163.831,2.2,2.2,0,0,0,.234.985,2.111,2.111,0,0,0-.2.254.615.615,0,0,0-.438-.183.616.616,0,0,0-.615.615.616.616,0,0,0,.615.617.567.567,0,0,0,.086-.009c0,.057-.009.113-.009.171a2.208,2.208,0,0,0,.331,1.162,2.451,2.451,0,0,0-.281,1.139,2.442,2.442,0,0,0,.63,1.638,1.132,1.132,0,0,0-.171.6,1.141,1.141,0,0,0,1.141,1.141,1.141,1.141,0,0,0,1.122-.938,2.424,2.424,0,0,0,.864-.261.856.856,0,0,0,.775.5.855.855,0,0,0,.855-.857.854.854,0,0,0-.531-.791,2.533,2.533,0,0,0,.186-.6,2.208,2.208,0,0,0,.578.079l.076,0a1.034,1.034,0,0,0,.964.658,1.034,1.034,0,0,0,.827-.413.918.918,0,0,0,.885.675.914.914,0,0,0,.765-.414,1.16,1.16,0,0,0,.611.174,1.171,1.171,0,0,0,1.171-1.171,1.171,1.171,0,0,0-.161-.591.915.915,0,0,0,.281.046.918.918,0,0,0,.918-.918.936.936,0,0,0-.01-.127,1.171,1.171,0,0,0,1.04.634A1.169,1.169,0,0,0-94.143,348a1.167,1.167,0,0,0,.551-.89.627.627,0,0,0,.188.031.616.616,0,0,0,.615-.617.591.591,0,0,0-.034-.2l-.935-.3-9.777-3.149-.039-4.174a17.9,17.9,0,0,0,3.481-5.9,36.856,36.856,0,0,0,2.448-11.06c0-6.075-5.8-13.951-12.958-13.951S-123.56,314.039-123.56,321.744Zm10.209,27.232,0,.036-.043-.023Z" transform="translate(171.578 -286.152)"/>
        <path id="Trazado_195310" data-name="Trazado 195310" d="M-122.952,354.181a1.778,1.778,0,0,0-.013-.2,1.356,1.356,0,0,0,1.057.506,1.359,1.359,0,0,0,1.359-1.359,1.345,1.345,0,0,0-.126-.567,1.373,1.373,0,0,0,.667-.507.949.949,0,0,0,.678.286.952.952,0,0,0,.951-.953.945.945,0,0,0-.3-.691,1.367,1.367,0,0,0,.717-.862,1.356,1.356,0,0,0,.862.437.948.948,0,0,0-.221.608.952.952,0,0,0,.952.951.952.952,0,0,0,.951-.951.952.952,0,0,0-.678-.911,1.355,1.355,0,0,0,.5-1.05,1.409,1.409,0,0,0-.049-.358,1.174,1.174,0,0,0,.124.007,1.356,1.356,0,0,0,.538-.113.684.684,0,0,0,.683.658.684.684,0,0,0,.685-.684.684.684,0,0,0-.66-.683,1.355,1.355,0,0,0,.113-.538,1.307,1.307,0,0,0-.047-.337h0a.617.617,0,0,0,.615-.617.617.617,0,0,0-.615-.617c-.019,0-.034,0-.053.006a1.667,1.667,0,0,0-.693-1.245c0-.04.006-.079.006-.119a1.677,1.677,0,0,0-1.676-1.678,1.661,1.661,0,0,0-.88.251.907.907,0,0,0,.057-.313.879.879,0,0,0-.88-.878.894.894,0,0,0-.248.036,1.669,1.669,0,0,0,.019-.241,1.677,1.677,0,0,0-1.678-1.678,1.673,1.673,0,0,0-.793.2,1.671,1.671,0,0,0-.941-.728.866.866,0,0,0,.08-.364.88.88,0,0,0-.88-.88.867.867,0,0,0-.323.063,1.676,1.676,0,0,0-1.676-1.666,1.634,1.634,0,0,0-.43.057.881.881,0,0,0-.81-.535.874.874,0,0,0-.564.206.878.878,0,0,0-.87-.76.885.885,0,0,0-.46.13c-2.326.891-4.258,1.635-5,1.931a4.678,4.678,0,0,0-2.863,4.15v5.6l9.078,9.216a1.36,1.36,0,0,0,.287.03,1.359,1.359,0,0,0,1.178-.683,1.674,1.674,0,0,0,.588.108A1.678,1.678,0,0,0-122.952,354.181Z" transform="translate(168.375 -274.349)"/>
      </g>
      <g id="Grupo_134657" data-name="Grupo 134657" transform="translate(192.701)">
        <path id="Trazado_195311" data-name="Trazado 195311" d="M-275.19,107.476l51.073,51.075c4.2-4.205,46.866-46.869,51.072-51.075-4.205-4.205-46.869-46.869-51.072-51.075Zm70.512,26.369h-36.551v-3.753h36.551Zm-18.245-57.353,3.254,6.077,2.183,6.19.39,2.837-.5,3.227,1.614-.6,1.544-1.558,1.085-3.8.557-5.314,2.212,4.313.528,4.548-.043,4.575-1.4,3.464,2.433-1.378L-207,97.007l1.724-3.351,1.141,4.005.487,3.019-1.025,4.258-1.105,2.173-2.062,3.056,3.683-1.068,2.025-1.4.585-2.695-.511,7.593-1.621,5.3-2.615,4.161-3.129,2.172-3.314,1.621-3.167.553h-2.909l1.369-.784,1.9-1.417,3.3-3.237,2.509-4.7-2.449,1.558-2.1.587-2.388-.02,1.377-1.377,1.315-1.8,1.132-3.36v-4.472l-1.051,2.368L-217,111.8l-1.741,1.8.021-6.436-1.032-4.311-2.065-3.116-2.163-2.146v4.331l-2.165,6.213.04,2.348.527,3.056-3.663-2.023-1.235-1.781-.87-2.268-.121,2.248-.507,2.125.77,2.246,1.052,1.8,1.922,2.469-3.481-.4-1.9-.668-2.043-1.5,1.962,4.514,3.2,3.806,3.157,1.538,3.884.708-8.277-.527-5.241-2.165-3.684-2.652-2.226-3.987-3.2-11.151-.466-3.137,1.983,2.043,1.3,1.721,2.043,1.579,3.663.526-1.477-3.137-1.154-3.116-.384-3.1-.041-3.561-.444-4.635,2.246,2.288,2.59,3.724,1.862,1.194-.911-2.712.04-3.583.426-3.541.567-2.753-.527-2.692,2.085.507,1.377,1.457.931,2.389.446,2.954,1.619,3.259,1.437-3.239.688-2.773.466-4.512.02-6.032.567-2.469,1.112-3.319Z" transform="translate(284.806 -46.784)" fill="none"/>
        <path id="Trazado_195312" data-name="Trazado 195312" d="M-234.282,72.554l-.02,6.031-.466,4.513-.688,2.773-1.437,3.238-1.619-3.258-.445-2.955-.931-2.388-1.376-1.457-2.084-.506.526,2.692-.567,2.752-.425,3.542-.041,3.582.911,2.712-1.862-1.194-2.59-3.724-2.246-2.287.445,4.635.041,3.562.384,3.1,1.154,3.117,1.477,3.137-3.663-.526-2.044-1.578-1.3-1.72-1.983-2.044.465,3.137,3.2,11.151,2.226,3.987,3.683,2.651,5.242,2.166,8.276.526-3.884-.708-3.157-1.538-3.2-3.8-1.963-4.513,2.044,1.5,1.9.668,3.481.4-1.923-2.469-1.052-1.8-.769-2.246.506-2.125.121-2.247.87,2.267,1.235,1.781,3.663,2.024-.526-3.056-.04-2.348,2.165-6.213V93.157L-230.4,95.3l2.064,3.117,1.032,4.311-.02,6.436,1.741-1.8,3.1-2.044,1.052-2.368v4.473l-1.133,3.36-1.316,1.8-1.376,1.376,2.388.02,2.1-.587,2.449-1.558-2.509,4.7-3.3,3.238-1.9,1.417-1.37.783h2.909l3.167-.552,3.314-1.62,3.13-2.172,2.614-4.161,1.62-5.3.512-7.592-.585,2.7-2.025,1.4-3.682,1.068,2.062-3.056,1.1-2.173,1.025-4.259-.487-3.018-1.141-4.006-1.725,3.352-2.073,2.072-2.434,1.377,1.4-3.463.042-4.576-.528-4.548-2.212-4.312-.556,5.313-1.085,3.8-1.544,1.558-1.613.6.5-3.227-.389-2.837-2.184-6.19-3.254-6.078-1.092-5.289-1.113,3.319Z" transform="translate(293.393 -42.348)"/>
        <rect id="Rectángulo_41318" data-name="Rectángulo 41318" width="36.55" height="3.753" transform="translate(43.578 83.308)"/>
        <path id="Trazado_195313" data-name="Trazado 195313" d="M-281.924,110.358l60.689,60.692,60.689-60.692-60.689-60.692Zm111.761,0c-4.205,4.205-46.869,46.869-51.072,51.075l-51.073-51.075,51.073-51.075C-217.032,63.489-174.369,106.153-170.163,110.358Z" transform="translate(281.924 -49.666)" fill="#ef4135"/>
      </g>
      <g id="Grupo_134658" data-name="Grupo 134658" transform="translate(368.806 174.515)">
        <path id="Trazado_195314" data-name="Trazado 195314" d="M-98.506,213.212l.026-.013a5.257,5.257,0,0,1,2.67-.544l.129,0a5.49,5.49,0,0,1,2.289.745,5.189,5.189,0,0,0,1.939.677c.671,0,.813-.58.813-1.065V211.3a1.052,1.052,0,0,0-.074-.33l-.009.358a.906.906,0,0,1-.91.89.874.874,0,0,1-.871-.89l.023-1c.04-1.265.094-3-.478-3.589a.831.831,0,0,0-.658-.226,3.39,3.39,0,0,0-2.625,1.381l-.268.384a10.616,10.616,0,0,1-3.407,3.5c-1.358.7-6.887,3.232-8.327,3.89v2.476Z" transform="translate(180.151 -157.054)" fill="none"/>
        <path id="Trazado_195315" data-name="Trazado 195315" d="M-129.1,208.278l-.268-.384A3.39,3.39,0,0,0-132,206.513a.831.831,0,0,0-.658.226c-.573.591-.518,2.323-.477,3.589l.021,1a.874.874,0,0,1-.871.89.907.907,0,0,1-.911-.89l-.007-.358a1.052,1.052,0,0,0-.074.33v1.714c0,.486.141,1.065.814,1.065a5.192,5.192,0,0,0,1.938-.677,5.49,5.49,0,0,1,2.289-.745l.129,0a5.257,5.257,0,0,1,2.67.544l.013.007,8.942,4.528V215.3c-2.078-.952-6.323-2.906-7.518-3.52A10.625,10.625,0,0,1-129.1,208.278Z" transform="translate(168.711 -157.054)" fill="none"/>
        <path id="Trazado_195316" data-name="Trazado 195316" d="M-97.736,227.726a2.64,2.64,0,0,0,2.123,1.651,1.521,1.521,0,0,0,1.508-1.057c.181-1.085,1-4.982,1.038-5.148a.89.89,0,0,1,1.055-.687.891.891,0,0,1,.688,1.055c0,.009-.053.247-.13.614,1.548-.738,1.614-.871,1.614-1.405,0-.657-1.521-1.5-2.712-1.5a6.817,6.817,0,0,0-2.523.567,6.093,6.093,0,0,1-2.159.514,3.365,3.365,0,0,1-1.978-.4l-.438-.214c-.741-.311-7.153-3.376-8.969-4.245a10.084,10.084,0,0,1-1.061,1.368l8.6,4.135A5.808,5.808,0,0,1-97.736,227.726Z" transform="translate(179.537 -152.36)" fill="none"/>
        <path id="Trazado_195317" data-name="Trazado 195317" d="M-117.43,221.985a15.886,15.886,0,0,0,4.745,1.571,13.9,13.9,0,0,0,3.9-1.522l.094-.049c2.92-1.468,4.535-3.984,4.535-5.164v-4.215c-1.729,1.017-1.825,1.1-1.825,2v1.135c0,2.1-3.968,4.131-6.966,4.131-2.7,0-7-1.864-7-4.071,0-.67.009-1.03.034-1.249-.006-.814-.143-.935-1.939-1.979l-.111-.064v4.315C-121.965,218-120.35,220.517-117.43,221.985Z" transform="translate(174.279 -154.489)" fill="none"/>
        <path id="Trazado_195318" data-name="Trazado 195318" d="M-125.733,221.85a3.365,3.365,0,0,1-1.978.4,6.078,6.078,0,0,1-2.158-.514,6.831,6.831,0,0,0-2.525-.567c-1.191,0-2.712.838-2.712,1.5,0,.534.066.667,1.614,1.405-.077-.367-.127-.605-.13-.614a.891.891,0,0,1,.688-1.055.89.89,0,0,1,1.055.687c.034.166.857,4.063,1.038,5.148a1.52,1.52,0,0,0,1.508,1.057,2.64,2.64,0,0,0,2.123-1.651,5.811,5.811,0,0,1,3.343-4.744l1.332-.63,6.764-3.187a10.578,10.578,0,0,1-1.17-1.392c-2.345,1.121-7.67,3.663-8.357,3.951Z" transform="translate(168.655 -152.272)" fill="none"/>
        <path id="Trazado_195319" data-name="Trazado 195319" d="M-126.116,205.718c0-.079.007-.6.007-.6,0-1.752.433-3.173,2.545-5.051a.79.79,0,0,1,.905.053c.206.244.277.334.454.551s-.044.61-.19.738c-1.785,1.588-1.932,2.552-1.932,3.708,0,0-.009.521-.009.583,0,.481.855,3.571.855,4.364s-.611,1.711-.611,4.28c0,2.439,1.221,3.033,2.932,4.078l.537.331c.767.48,1.419.858,1.943,1.162,1.882,1.094,2.827,1.642,2.827,3.591,0,0-.034.354-.036,1.168.1.61,2.783,2.3,5.222,2.3,2.656,0,5.148-1.691,5.148-2.35v-1.135c0-1.989.968-2.492,2.907-3.63l1.836-1.107.537-.331c1.709-1.045,3.06-1.871,3.06-4.078a19.054,19.054,0,0,0-.6-4.335l-.06-.211.517-2.318a8.246,8.246,0,0,0,.39-2.5c0-1.234-.16-1.642-1.995-3.56l1.288-1.231c1.958,2.046,2.488,2.873,2.488,4.791a6.375,6.375,0,0,1-.069,1.161,7.6,7.6,0,0,0,.958-3.4c0-.938-1.831-2.523-3.767-4.2l-.6-.523-1.615-1.448c-3.044-2.772-5.449-4.837-10.4-4.837a15.366,15.366,0,0,0-7.221,1.754,14.353,14.353,0,0,0-3.306,2.715c-.535.525-1.09,1.07-1.726,1.651l-.807.733c-1.845,1.671-3.587,3.249-3.587,4.157a8.588,8.588,0,0,0,1.405,4.21C-126.135,205.953-126.116,206.194-126.116,205.718Zm20.079,4.424h5.646a1.292,1.292,0,0,1,1.2,1.361c0,.96-1.249,4.687-4.217,4.687-2.031,0-2.879-1.451-3.857-2.746a3.813,3.813,0,0,1-.83-1.873C-108.09,210.633-106.639,210.142-106.037,210.142Zm-5.793,7.5a1.82,1.82,0,0,1,1.512-.841c1.761,0,2.338,2.885,2.635,3.663s.951,1.154.951,1.731a1.374,1.374,0,0,1-1.512,1.3c-1.309,0-.982-.547-1.949-.547-1.185,0-.717.561-2.1.561s-1.559-.825-1.559-1.184a2.781,2.781,0,0,1,.671-1.559C-112.69,220.154-112.625,218.58-111.83,217.645Zm-9.338-7.5h5.646c.6,0,2.053.491,2.053,1.428a3.813,3.813,0,0,1-.83,1.873c-.978,1.3-1.826,2.746-3.857,2.746-2.967,0-4.217-3.727-4.217-4.687A1.292,1.292,0,0,1-121.168,210.142Z" transform="translate(171.998 -163.377)" fill="none"/>
        <path id="Trazado_195320" data-name="Trazado 195320" d="M-151.865,229.684c4.2,4.205,46.866,46.869,51.072,51.075l51.073-51.075-51.073-51.073Zm51.733-34.234c5.642,0,8.535,2.635,11.6,5.425l1.586,1.422.6.518c2.543,2.2,4.381,3.8,4.381,5.548,0,2.849-1.758,5.388-3.042,7.24l-.32.475a19.569,19.569,0,0,1,.448,3.886,5.381,5.381,0,0,1-2.488,4.672c2.063-.952,4.482-2.078,5.3-2.5a9.42,9.42,0,0,0,2.756-2.927l.293-.42a5.155,5.155,0,0,1,4.065-2.116,2.588,2.588,0,0,1,1.938.768,4.365,4.365,0,0,1,.981,2.849,3.768,3.768,0,0,1,1.839,2.954v1.714a2.61,2.61,0,0,1-2.593,2.846,6.443,6.443,0,0,1-2.72-.857,4.7,4.7,0,0,0-1.508-.566l-.213-.006a3.438,3.438,0,0,0-1.826.377l-10.627,5.382c-.029.123-.064.25-.106.378,3.054,1.462,8.255,3.941,8.881,4.205l.594.288c.258.14.337.181,1.131.181a4.679,4.679,0,0,0,1.535-.4,8.512,8.512,0,0,1,3.147-.68c1.832,0,4.492,1.277,4.492,3.276,0,1.781-1.141,2.316-3.032,3.2l-.814.387c-.191.934-.373,1.846-.444,2.273a3.292,3.292,0,0,1-3.264,2.545,4.337,4.337,0,0,1-3.89-3.212,4.01,4.01,0,0,0-2.348-3.36l-9.239-4.442a12.45,12.45,0,0,1-2.059,1.3l-.094.047c-1.825.917-3.549,1.785-4.7,1.785a17.651,17.651,0,0,1-5.545-1.832,12.386,12.386,0,0,1-1.674-1.017l-7.5,3.534-1.315.621a4.01,4.01,0,0,0-2.348,3.36,4.337,4.337,0,0,1-3.89,3.212,3.292,3.292,0,0,1-3.264-2.545c-.071-.427-.253-1.339-.444-2.273l-.814-.387c-1.891-.888-3.032-1.424-3.032-3.2,0-2,2.66-3.276,4.492-3.276a8.505,8.505,0,0,1,3.147.68,4.679,4.679,0,0,0,1.535.4c.8,0,.873-.041,1.131-.181l.594-.288c.581-.246,5.1-2.4,8.191-3.876a4.6,4.6,0,0,1-.306-1.16l-9.737-4.931a3.438,3.438,0,0,0-1.826-.377l-.213.006a4.7,4.7,0,0,0-1.508.566,6.437,6.437,0,0,1-2.719.857,2.61,2.61,0,0,1-2.595-2.846v-1.714a3.768,3.768,0,0,1,1.839-2.954,4.358,4.358,0,0,1,.982-2.849,2.582,2.582,0,0,1,1.936-.768,5.155,5.155,0,0,1,4.065,2.116l.293.42a9.438,9.438,0,0,0,2.756,2.927c.624.321,2.156,1.041,3.757,1.785a4.884,4.884,0,0,1-1.766-3.744,34.653,34.653,0,0,1,.371-4.237l-.227-.337c-1.284-1.852-3.042-4.391-3.042-7.24,0-1.7,1.751-3.283,4.173-5.476l.8-.728c.613-.56,1.155-1.092,1.679-1.606a15.773,15.773,0,0,1,3.748-3.032A17.509,17.509,0,0,1-100.132,195.45Z" transform="translate(161.482 -168.995)" fill="none"/>
        <path id="Trazado_195321" data-name="Trazado 195321" d="M-158.6,232.566l60.689,60.692,60.689-60.692-60.689-60.689Zm111.762,0-51.073,51.075c-4.205-4.205-46.868-46.869-51.072-51.075l51.072-51.073Z" transform="translate(158.6 -171.877)" fill="#ef4135"/>
        <path id="Trazado_195322" data-name="Trazado 195322" d="M-92.336,224.365l.91-.433c.143-.066.273-.129.4-.187.077-.367.127-.605.13-.614a.891.891,0,0,0-.688-1.055.89.89,0,0,0-1.055.687c-.034.166-.857,4.063-1.038,5.148a1.521,1.521,0,0,1-1.508,1.057,2.64,2.64,0,0,1-2.123-1.651,5.808,5.808,0,0,0-3.343-4.744l-8.6-4.135a11.81,11.81,0,0,1-1.409,1.3l9.239,4.442a4.01,4.01,0,0,1,2.348,3.36,4.337,4.337,0,0,0,3.89,3.212,3.292,3.292,0,0,0,3.264-2.545c.071-.427.253-1.339.444-2.273l-.08.037Z" transform="translate(179.114 -151.95)"/>
        <path id="Trazado_195323" data-name="Trazado 195323" d="M-99.968,222.2l.438.214a3.365,3.365,0,0,0,1.978.4,6.093,6.093,0,0,0,2.159-.514,6.817,6.817,0,0,1,2.523-.567c1.191,0,2.712.838,2.712,1.5,0,.534-.066.667-1.614,1.405-.123.059-.253.121-.4.187l-.91.433.774,1.6.08-.037.814-.387c1.891-.888,3.032-1.424,3.032-3.2,0-2-2.66-3.276-4.492-3.276a8.512,8.512,0,0,0-3.147.68,4.678,4.678,0,0,1-1.535.4c-.794,0-.872-.041-1.131-.181l-.594-.288c-.625-.264-5.826-2.743-8.881-4.205a7.056,7.056,0,0,1-.78,1.6C-107.121,218.828-100.709,221.893-99.968,222.2Z" transform="translate(179.855 -152.84)"/>
        <path id="Trazado_195324" data-name="Trazado 195324" d="M-107.981,214.474l-.264.16V216.2c1.439-.658,6.969-3.19,8.327-3.89a10.616,10.616,0,0,0,3.407-3.5l.268-.384a3.39,3.39,0,0,1,2.625-1.381.831.831,0,0,1,.658.226c.573.591.518,2.323.478,3.589l-.023,1a.874.874,0,0,0,.871.89.906.906,0,0,0,.91-.89l.009-.358a2.193,2.193,0,0,0-1.062-1.188l.781-1.6c.1.051.2.106.3.164a4.365,4.365,0,0,0-.981-2.849,2.588,2.588,0,0,0-1.938-.768,5.155,5.155,0,0,0-4.065,2.116l-.293.42a9.42,9.42,0,0,1-2.756,2.927c-.821.423-3.24,1.548-5.3,2.5-.466.338-.952.637-1.425.925Z" transform="translate(180.151 -157.588)"/>
        <path id="Trazado_195325" data-name="Trazado 195325" d="M-91.747,209.284a2.193,2.193,0,0,1,1.062,1.188,1.052,1.052,0,0,1,.074.33v1.714c0,.486-.141,1.065-.813,1.065a5.189,5.189,0,0,1-1.939-.677,5.49,5.49,0,0,0-2.289-.745l-.129,0a5.257,5.257,0,0,0-2.67.544l-.026.013-9.739,4.932v1.242a3.529,3.529,0,0,1-.1.807l10.627-5.382a3.439,3.439,0,0,1,1.826-.377l.213.006a4.7,4.7,0,0,1,1.508.565,6.443,6.443,0,0,0,2.72.857,2.61,2.61,0,0,0,2.593-2.846V210.8a3.768,3.768,0,0,0-1.839-2.954c-.1-.059-.194-.113-.3-.164Z" transform="translate(180.12 -156.553)"/>
        <path id="Trazado_195326" data-name="Trazado 195326" d="M-109.159,210.673c2.967,0,4.217-3.727,4.217-4.687a1.292,1.292,0,0,0-1.2-1.361h-5.646c-.6,0-2.053.491-2.053,1.428a3.813,3.813,0,0,0,.83,1.873C-112.038,209.223-111.19,210.673-109.159,210.673Z" transform="translate(177.754 -157.861)"/>
        <path id="Trazado_195327" data-name="Trazado 195327" d="M-121.889,195.505c-.524.514-1.067,1.047-1.679,1.606l-.8.728c-2.422,2.193-4.173,3.778-4.173,5.476,0,2.849,1.758,5.388,3.042,7.24l.227.337c.116-.825.23-1.481.293-1.731-.169-.764-.288-1.278-.376-1.636a8.588,8.588,0,0,1-1.405-4.21c0-.908,1.742-2.486,3.587-4.157l.807-.733c.637-.581,1.191-1.125,1.726-1.651a14.353,14.353,0,0,1,3.306-2.715,15.366,15.366,0,0,1,7.221-1.754c4.952,0,7.357,2.065,10.4,4.837l1.615,1.448.6.523c1.936,1.678,3.767,3.263,3.767,4.2a7.6,7.6,0,0,1-.958,3.4c-.057.364-.166.843-.364,1.728,0,0-.346,1.549-.421,1.885.04.16.1.4.163.7l.32-.475c1.284-1.852,3.042-4.391,3.042-7.24,0-1.752-1.838-3.344-4.381-5.548l-.6-.518-1.586-1.422c-3.064-2.79-5.958-5.425-11.6-5.425a17.509,17.509,0,0,0-8.027,2.071A15.772,15.772,0,0,0-121.889,195.505Z" transform="translate(171.464 -163.948)"/>
        <path id="Trazado_195328" data-name="Trazado 195328" d="M-95.92,205.411c.2-.885.307-1.364.364-1.728a6.375,6.375,0,0,0,.069-1.161c0-1.918-.53-2.745-2.488-4.791l-1.288,1.231c1.835,1.918,1.995,2.326,1.995,3.56a8.245,8.245,0,0,1-.39,2.5l-.517,2.318.06.211a19.055,19.055,0,0,1,.6,4.335c0,2.208-1.351,3.033-3.06,4.078l-.537.331-1.836,1.107c-1.939,1.138-2.907,1.641-2.907,3.63v1.135c0,.66-2.492,2.35-5.148,2.35-2.439,0-5.124-1.691-5.222-2.3,0-.814.036-1.168.036-1.168,0-1.949-.945-2.5-2.827-3.591-.524-.3-1.177-.683-1.943-1.162l-.537-.331c-1.711-1.045-2.932-1.639-2.932-4.078,0-2.569.611-3.487.611-4.28s-.855-3.883-.855-4.364c0-.061.009-.583.009-.583,0-1.157.147-2.121,1.932-3.708.146-.129.366-.521.19-.738s-.248-.307-.454-.551a.789.789,0,0,0-.905-.053c-2.112,1.878-2.545,3.3-2.545,5.051,0,0-.007.52-.007.6,0,.475-.02.234.226,1.237.087.358.207.872.376,1.636-.063.25-.177.905-.293,1.731a34.654,34.654,0,0,0-.371,4.237,4.884,4.884,0,0,0,1.766,3.744c1.22.565,2.478,1.144,3.406,1.569h1.322v.605l.113.051-.113.248v.617l.111.064c1.8,1.044,1.934,1.165,1.939,1.979-.026.22-.034.58-.034,1.249,0,2.208,4.3,4.071,7,4.071,3,0,6.966-2.026,6.966-4.131V221.03c0-.9.1-.981,1.825-2V217.41h1.782v.551l.264-.16.52-.32c.473-.288.96-.587,1.425-.925a5.381,5.381,0,0,0,2.488-4.672A19.569,19.569,0,0,0-96.178,208c-.064-.3-.123-.543-.163-.7C-96.266,206.961-95.92,205.411-95.92,205.411Z" transform="translate(172.333 -160.915)"/>
        <path id="Trazado_195329" data-name="Trazado 195329" d="M-123.2,215.777a4.6,4.6,0,0,0,.306,1.16l1.02-.488Z" transform="translate(173.752 -153.089)"/>
        <path id="Trazado_195330" data-name="Trazado 195330" d="M-101.839,216.035v-4.6h-1.782v5.838c0,1.18-1.615,3.7-4.535,5.164l-.094.049a13.9,13.9,0,0,1-3.9,1.522,15.886,15.886,0,0,1-4.745-1.571c-2.92-1.468-4.535-3.984-4.535-5.164v-4.932l-.627,1.372-1.155-.528v2.436l.851.431.518,2.239.139-.067.768,1.606-1.091.523a10.577,10.577,0,0,0,1.17,1.392l.764-.36,1.718,1.16-.992.467a12.388,12.388,0,0,0,1.674,1.017,17.652,17.652,0,0,0,5.545,1.832c1.151,0,2.875-.868,4.7-1.785l.094-.047a12.452,12.452,0,0,0,2.059-1.3,11.813,11.813,0,0,0,1.409-1.3,10.085,10.085,0,0,0,1.061-1.368,7.056,7.056,0,0,0,.78-1.6c.041-.129.077-.256.106-.378a3.529,3.529,0,0,0,.1-.807Z" transform="translate(173.745 -154.945)"/>
        <path id="Trazado_195331" data-name="Trazado 195331" d="M-121.569,211.44h-1.322c.635.291,1.114.511,1.322.605Z" transform="translate(173.883 -154.945)"/>
        <path id="Trazado_195332" data-name="Trazado 195332" d="M-115.444,218.408l-.764.36-6.764,3.187-1.332.63a5.811,5.811,0,0,0-3.343,4.744,2.64,2.64,0,0,1-2.123,1.651,1.52,1.52,0,0,1-1.508-1.057c-.181-1.085-1-4.982-1.038-5.148a.89.89,0,0,0-1.055-.687.891.891,0,0,0-.688,1.055c0,.009.053.247.13.614.123.059.253.121.4.187l.91.433-.774,1.6-.08-.037c.191.934.373,1.846.444,2.273a3.292,3.292,0,0,0,3.264,2.545,4.337,4.337,0,0,0,3.89-3.212,4.01,4.01,0,0,1,2.348-3.36l1.315-.621,7.5-3.534.992-.467Z" transform="translate(169.094 -151.963)"/>
        <path id="Trazado_195333" data-name="Trazado 195333" d="M-131.653,225.325l-.91-.433c-.143-.066-.273-.129-.4-.187-1.548-.738-1.614-.871-1.614-1.405,0-.657,1.521-1.5,2.712-1.5a6.832,6.832,0,0,1,2.525.567,6.077,6.077,0,0,0,2.158.514,3.365,3.365,0,0,0,1.978-.4l.438-.214c.687-.288,6.012-2.83,8.357-3.951l1.091-.523-.768-1.606-.139.067,0,.021-.026-.013-1.02.488c-3.09,1.478-7.61,3.63-8.191,3.876l-.594.288c-.258.14-.336.181-1.131.181a4.678,4.678,0,0,1-1.535-.4,8.505,8.505,0,0,0-3.147-.68c-1.832,0-4.492,1.277-4.492,3.276,0,1.781,1.141,2.316,3.032,3.2l.814.387.08.037Z" transform="translate(168.122 -152.91)"/>
        <path id="Trazado_195334" data-name="Trazado 195334" d="M-133.855,210.319a2.193,2.193,0,0,0-1.062,1.188l.007.358a.907.907,0,0,0,.911.89.874.874,0,0,0,.871-.89l-.021-1c-.041-1.265-.1-3,.477-3.589a.831.831,0,0,1,.658-.226,3.39,3.39,0,0,1,2.625,1.381l.268.384a10.625,10.625,0,0,0,3.406,3.5c1.2.614,5.441,2.568,7.518,3.52l1.155.528.627-1.372.113-.248-.113-.051c-.208-.094-.687-.314-1.322-.605-.928-.426-2.186-1-3.406-1.569-1.6-.744-3.133-1.464-3.757-1.785a9.437,9.437,0,0,1-2.756-2.927l-.293-.42a5.155,5.155,0,0,0-4.065-2.116,2.582,2.582,0,0,0-1.936.768,4.358,4.358,0,0,0-.982,2.849c.1-.059.194-.113.3-.164Z" transform="translate(168.729 -157.588)"/>
        <path id="Trazado_195335" data-name="Trazado 195335" d="M-116.272,219.925l0-.021-.518-2.239-.851-.431-8.942-4.528-.013-.007a5.257,5.257,0,0,0-2.67-.544l-.129,0a5.49,5.49,0,0,0-2.289.745,5.191,5.191,0,0,1-1.938.677c-.673,0-.814-.58-.814-1.065V210.8a1.052,1.052,0,0,1,.074-.33,2.193,2.193,0,0,1,1.062-1.188l-.781-1.6c-.1.051-.2.106-.3.164a3.768,3.768,0,0,0-1.839,2.954v1.714a2.61,2.61,0,0,0,2.595,2.846,6.437,6.437,0,0,0,2.719-.857,4.7,4.7,0,0,1,1.508-.565l.213-.006a3.438,3.438,0,0,1,1.826.377l9.737,4.931,1.325.671Z" transform="translate(168.178 -156.553)"/>
        <path id="Trazado_195336" data-name="Trazado 195336" d="M-119.63,210.673c2.031,0,2.879-1.451,3.857-2.746a3.813,3.813,0,0,0,.83-1.873c0-.937-1.451-1.428-2.053-1.428h-5.646a1.292,1.292,0,0,0-1.2,1.361C-123.847,206.947-122.6,210.673-119.63,210.673Z" transform="translate(173.474 -157.861)"/>
        <path id="Trazado_195337" data-name="Trazado 195337" d="M-116.326,215.994c1.388,0,.92-.561,2.1-.561.967,0,.64.547,1.949.547a1.374,1.374,0,0,0,1.512-1.3c0-.577-.654-.947-.951-1.731s-.874-3.663-2.635-3.663a1.82,1.82,0,0,0-1.512.841c-.8.935-.86,2.509-1.357,3.119a2.781,2.781,0,0,0-.671,1.559C-117.885,215.169-117.712,215.994-116.326,215.994Z" transform="translate(176.025 -155.865)"/>
      </g>
      <g id="Grupo_134659" data-name="Grupo 134659" transform="translate(0.513 174.506)">
        <path id="Trazado_195338" data-name="Trazado 195338" d="M-409.778,229.7l51.072,51.075c4.207-4.205,46.868-46.869,51.073-51.075-4.205-4.211-46.868-46.885-51.073-51.09C-362.912,182.81-405.573,225.484-409.778,229.7Zm63.464-12.633c1.231-.33,2.589.384,3.663,1.746v0a2.3,2.3,0,0,0,2.413.81l8.337-2.239a2,2,0,0,1,2.245,1.654,2,2,0,0,1-1.115,2.557l-8.337,2.242a2.307,2.307,0,0,0-1.682,1.891v0c-.244,1.731-1.064,3.04-2.3,3.371l-39.362,10.564c-2.013.541-4.368-1.709-5.258-5.025s.021-6.443,2.035-6.984Z" transform="translate(419.394 -168.989)" fill="none"/>
        <path id="Trazado_195339" data-name="Trazado 195339" d="M-394.223,223.124c.89,3.316,3.244,5.566,5.258,5.025l39.362-10.564c1.235-.331,2.055-1.641,2.3-3.371v0a2.307,2.307,0,0,1,1.682-1.891l8.337-2.242a2,2,0,0,0,1.115-2.557,2,2,0,0,0-2.245-1.654l-8.337,2.239a2.3,2.3,0,0,1-2.413-.81v0c-1.074-1.362-2.432-2.076-3.663-1.746l-39.362,10.58C-394.2,216.681-395.112,219.808-394.223,223.124Z" transform="translate(425.905 -157.487)"/>
        <path id="Trazado_195340" data-name="Trazado 195340" d="M-416.512,232.577l60.688,60.691,60.691-60.691-60.691-60.706Zm111.761,0c-4.205,4.205-46.866,46.869-51.073,51.075L-406.9,232.577c4.205-4.211,46.866-46.885,51.072-51.09C-351.619,185.692-308.957,228.366-304.751,232.577Z" transform="translate(416.512 -171.871)" fill="#ef4135"/>
      </g>
      <g id="Grupo_134660" data-name="Grupo 134660" transform="translate(368.806 0.001)">
        <path id="Trazado_195341" data-name="Trazado 195341" d="M-104.045,92.48l.026-5.786-2.245,1.585-1.455,1.222a16.072,16.072,0,0,1,3.277,6.063Z" transform="translate(180.376 -33.82)" fill="none"/>
        <path id="Trazado_195342" data-name="Trazado 195342" d="M-109.294,81.5-112.8,86.91a16.046,16.046,0,0,1,5.118,2.752Z" transform="translate(178.2 -36.045)" fill="none"/>
        <path id="Trazado_195343" data-name="Trazado 195343" d="M-111.577,88.385l-1.257-3.794-.634-3.884-2.984-3.541-.054,3.647-2.41,4.724.066,2.9a16.076,16.076,0,0,1,3.741-.44A16.088,16.088,0,0,1-111.577,88.385Z" transform="translate(175.583 -37.898)" fill="none"/>
        <path id="Trazado_195344" data-name="Trazado 195344" d="M-120.266,85.172l-1.215-5.416-.577,4.235-1.225,4.165.7,1.722a16.04,16.04,0,0,1,3.756-1.995Z" transform="translate(173.715 -36.79)" fill="none"/>
        <path id="Trazado_195345" data-name="Trazado 195345" d="M-122.074,88.373l-1.559-.069-1.334-.763-2.206-2.153.383,2.508.844,3.4.036,1.961A16.149,16.149,0,0,1-122.074,88.373Z" transform="translate(172.05 -34.379)" fill="none"/>
        <circle id="Elipse_4797" data-name="Elipse 4797" cx="11.462" cy="11.462" r="11.462" transform="translate(47.619 56.3) rotate(-7.466)" fill="none"/>
        <path id="Trazado_195346" data-name="Trazado 195346" d="M-151.865,107.475c4.2,4.205,46.866,46.868,51.072,51.075,4.205-4.207,46.868-46.869,51.073-51.075L-100.793,56.4C-105,60.607-147.661,103.27-151.865,107.475Zm53.771-34.667,1.3,4.317v5.5l2.373-1.187,1.242-2.375.647-3.023v-1.4l3.13,6.746v3.724l-.54,3.127,2.268-1.08,1.3-1.347.73-1.955,1.3,4.649-1.19,3.964-.674,3.163,2.32-1.08,2-1.888V91.426l1.834,7.61v6.746l-1.858,5.529-3.486,5.576a16.1,16.1,0,0,1-11.742,11.687H-83.8v4.988h-32.9v-4.988h11.842a16.088,16.088,0,0,1-12.155-14.1l-1.532-1.9-1.3-2.536-1.241-6.476V96.445l-.594-5.72,2.645,2,2.947,1.811-.6-3.24-.029-6.179-.594-3.67,2.159,2.59,1.594,2.359,2.423,1.279-.671-5.419.54-3.778,1.352-2.555-.651-2.465,2.753,3.346.431,1.512.755,1.457,1.708,2.239,1.347-3.381,1.048-5.442V69.2l1.357-5.892,1.287,5.241Z" transform="translate(161.482 -46.785)" fill="none"/>
        <path id="Trazado_195347" data-name="Trazado 195347" d="M-158.6,110.358l60.689,60.691,60.689-60.691L-97.911,49.667Zm111.762,0c-4.205,4.205-46.868,46.868-51.073,51.075-4.205-4.207-46.868-46.869-51.072-51.075,4.2-4.205,46.866-46.868,51.072-51.073Z" transform="translate(158.6 -49.667)" fill="#ef4135"/>
        <path id="Trazado_195348" data-name="Trazado 195348" d="M-115.4,106.943h-11.842v4.988h32.9v-4.988h-13.356a16.09,16.09,0,0,1-3.853.466A16.082,16.082,0,0,1-115.4,106.943Z" transform="translate(172.021 -25.154)"/>
        <path id="Trazado_195349" data-name="Trazado 195349" d="M-96.521,100.5l.528-4.1a16.072,16.072,0,0,0-3.277-6.063l-1.03.865-.713-.9-.4-2.032a16.045,16.045,0,0,0-5.118-2.752l-.837,1.292-.554-1.671a16.088,16.088,0,0,0-3.533-.391,16.076,16.076,0,0,0-3.741.44l.016.7-1.581.4-.284-.538a16.04,16.04,0,0,0-3.756,1.995l.394.972-1.545-.067a16.149,16.149,0,0,0-3.837,4.887l.033,1.789-.972,7.932-.734-.91a16.088,16.088,0,0,0,12.155,14.1,16.082,16.082,0,0,0,3.853.465,16.09,16.09,0,0,0,3.853-.465,16.1,16.1,0,0,0,11.742-11.687l-.61.977Zm-14.932,11.789a11.462,11.462,0,0,1-11.462-11.461,11.463,11.463,0,0,1,11.462-11.462,11.462,11.462,0,0,1,11.461,11.462A11.461,11.461,0,0,1-111.453,112.289Z" transform="translate(171.927 -34.653)"/>
        <path id="Trazado_195350" data-name="Trazado 195350" d="M-111.567,67.127v3.991l-1.047,5.442-1.348,3.382-1.707-2.24-.756-1.457-.432-1.511-2.752-3.346.651,2.465-1.353,2.554-.54,3.778.671,5.42-2.423-1.279-1.594-2.359-2.159-2.59.594,3.67.029,6.18.6,3.239-2.948-1.81-2.645-2,.594,5.721V101.5l1.241,6.476,1.3,2.537,1.532,1.9.735.91.971-7.933-.032-1.789-.035-1.961-.844-3.4-.384-2.508,2.207,2.154,1.334.762,1.559.068,1.545.068-.393-.973-.7-1.722,1.225-4.165.577-4.236,1.215,5.416,1.433,2.712.284.538,1.58-.4-.016-.7-.066-2.9,2.411-4.725.053-3.646,2.986,3.541.634,3.884,1.257,3.794.553,1.671.837-1.292,3.509-5.415,1.608,8.167.4,2.032.713.9,1.029-.865,1.455-1.222,2.246-1.585-.027,5.786-.4,3.083-.528,4.1.053,5.232.61-.976,3.485-5.577,1.858-5.528V96.968l-1.835-7.609V90.6l-2,1.889-2.32,1.079L-94.6,90.4l1.189-3.963L-94.7,81.79l-.73,1.955-1.3,1.347-2.267,1.079.54-3.128V79.32l-3.13-6.746v1.4L-102.231,77l-1.241,2.374-2.374,1.187v-5.5l-1.3-4.317-1.781-4.263-1.287-5.241Z" transform="translate(170.53 -44.716)"/>
      </g>
    </g>
    <g id="_-45_degree_angle" data-name="-45 degree angle" transform="translate(-220.05 224.181)">
      <g id="Grupo_134661" data-name="Grupo 134661">
        <path id="Trazado_195351" data-name="Trazado 195351" d="M-257.785,212.9a1.7,1.7,0,0,0-.354-.267,2.346,2.346,0,0,1,.046.834c-.017.194-.016.243.007.281a1.588,1.588,0,0,0,.234.284c.01-.089.021-.177.033-.271A2.76,2.76,0,0,0-257.785,212.9Z" transform="translate(292.103 -154.436)" fill="none"/>
        <path id="Trazado_195352" data-name="Trazado 195352" d="M-238.074,198.795c-1.754.3-16.676,2.887-16.676,2.887l.324,2.131s15.084-1.457,16.81-1.565,2.538-.835,2.538-1.942S-236.321,198.5-238.074,198.795Z" transform="translate(293.554 -160.386)" fill="none"/>
        <path id="Trazado_195353" data-name="Trazado 195353" d="M-223.734,213.834a5.637,5.637,0,0,1-2.676-1.054,7.348,7.348,0,0,1-2.076.286c-.169,0-.367.011-.531.024a2.074,2.074,0,0,0,1.806.808h3.423C-223.77,213.877-223.752,213.855-223.734,213.834Z" transform="translate(304.567 -154.371)" fill="none"/>
        <path id="Trazado_195354" data-name="Trazado 195354" d="M-235.8,202c1.728.109,18.067,1.538,18.067,1.538l.324-2.132s-15.8-2.76-17.554-3.049c-1.969-.324-3.346.728-3.346,1.835S-237.527,201.893-235.8,202Z" transform="translate(300.59 -160.57)" fill="none"/>
        <path id="Trazado_195355" data-name="Trazado 195355" d="M-275.19,229.684l51.072,51.075,51.073-51.075-51.073-51.073Zm21.067-8.332.393.44a3.965,3.965,0,0,1,1.269,2.146,3.193,3.193,0,0,1-.091,1.032c-.063.288-.074.354.01.523.061.123.18.19.456.327l.18.093c0-.021-.009-.043-.011-.064a2.484,2.484,0,0,1,.161-1.125,2.843,2.843,0,0,0,.178-1.191l1.294-.077c0,.093.007.181.007.267a4.189,4.189,0,0,1-.247,1.4,1.659,1.659,0,0,0-.113.488.756.756,0,0,0,0,.079c.013.1.273.268.461.388a2,2,0,0,1,.89.9,1.976,1.976,0,0,1,.113.705,6.266,6.266,0,0,1-.067.794c-.019.15-.047.366-.047.478a.309.309,0,0,0,0,.04,5.829,5.829,0,0,0,1.032,1.458l-.958.871a9.815,9.815,0,0,1-.778-.97l-.091.183a5.374,5.374,0,0,1-1.829-1.582,1.63,1.63,0,0,1-.18-1.054.835.835,0,0,0-.074-.554c-.084-.157-.238-.238-.5-.37a2.07,2.07,0,0,1-1.037-.908,1.86,1.86,0,0,1-.116-1.382,1.953,1.953,0,0,0,.064-.641,3.189,3.189,0,0,0-.93-1.378l-.444-.5Zm23.936,15.582H-263.8v-6.166h13.487c.541,1.06,1.685,1.709,3.56,1.709a5.479,5.479,0,0,0,4.344-1.709h12.221Zm-14.231-9.212a3.2,3.2,0,0,1-.123-.8,1.824,1.824,0,0,1,.16-.761,2.6,2.6,0,0,1,.871-1.018,1.235,1.235,0,0,0,.378-.378.261.261,0,0,0,.007-.066,3.765,3.765,0,0,0-.127-.658,4.864,4.864,0,0,1-.2-1.194,2.244,2.244,0,0,1,.036-.411l1.275.226a2.818,2.818,0,0,0,.14,1.064,2.334,2.334,0,0,1,.036,1.592,2.366,2.366,0,0,1-.75.844,1.438,1.438,0,0,0-.49.531,1.084,1.084,0,0,0,.039.714,1.773,1.773,0,0,1,.044,1.008c-.016.053-.04.124-.07.207a2.509,2.509,0,0,0,.347-.533,3.3,3.3,0,0,0,.074-.577,3.073,3.073,0,0,1,.253-1.2,1.708,1.708,0,0,1,.911-.685c.211-.093.453-.2.511-.316a1.389,1.389,0,0,0,.019-.757,4.948,4.948,0,0,1-.043-1.08A4.924,4.924,0,0,1-239.468,221l.855.972a3.966,3.966,0,0,0-1.212,1.616c-.007.071-.01.141-.01.21a5.039,5.039,0,0,0,.049.6,5.173,5.173,0,0,1,.047.61,1.916,1.916,0,0,1-.194.88,2.091,2.091,0,0,1-1.151.924,2.465,2.465,0,0,0-.3.146,3.44,3.44,0,0,0-.09.653,2.96,2.96,0,0,1-.206,1.047c-.634,1.265-1.419,1.531-1.968,1.531v-.687a3.768,3.768,0,0,1-.947.942l-.74-1.062a2.487,2.487,0,0,0,.978-1.355A1.913,1.913,0,0,0-244.419,227.722Zm16.172-15.529c-2.023.324-14.841,2.55-15.866,2.712s-1.3.54-1.3.864a7.427,7.427,0,0,1,.647,2.428c0,.864-.243,2-1.375,2a.141.141,0,0,1-.024,0c.194,2.091,1.022,4.4,1.022,4.942,0,.618-.308,2.126-1.475,2.126s-1.405-1.337-1.405-2.332c0-.907,1.024-2.588,1.205-4.931a2.222,2.222,0,0,1-.808-1.746c0-1.308,1.2-2.21.964-3.96-.064-.487-1.18-7.036-1.18-7.036.757.351,1.14,1.855,2.793,1.538,1.124-.216,12.75-2.308,15.3-2.712s4.371.728,4.7,2.428S-226.223,211.869-228.247,212.193Zm33.42,7.053c.137-.036.14-.036.229-.2a1.034,1.034,0,0,0,.039-.827,2.841,2.841,0,0,1-.067-1.071,2.972,2.972,0,0,1,.988-1.612,8.363,8.363,0,0,0,.6-.67l1.018.8a9.722,9.722,0,0,1-.693.771c-.388.4-.594.621-.64.911a1.667,1.667,0,0,0,.057.605,2.291,2.291,0,0,1-.166,1.7,1.493,1.493,0,0,1-1.042.843c-.146.039-.181.047-.3.24a.729.729,0,0,0-.159.558,2.134,2.134,0,0,1-.2,1.1,2.842,2.842,0,0,1-1.9,1.788l-.3-1.262a1.74,1.74,0,0,0,1.02-1.057.88.88,0,0,0,.086-.507,1.991,1.991,0,0,1,.358-1.317A1.632,1.632,0,0,1-194.826,219.246Zm-4.5,3.341a1.621,1.621,0,0,0,.714-1.065,1.593,1.593,0,0,0,.057-.774,3.036,3.036,0,0,1,.076-1.224,1.575,1.575,0,0,1,.881-1.078.438.438,0,0,0,.3-.377.831.831,0,0,0-.1-.678,2.336,2.336,0,0,1-.229-1.541l1.275.231a1.077,1.077,0,0,0,.13.768,2.085,2.085,0,0,1,.181,1.539,1.692,1.692,0,0,1-.944,1.2c-.181.1-.2.106-.24.27a1.742,1.742,0,0,0-.04.751,2.835,2.835,0,0,1-.109,1.3,2.8,2.8,0,0,1-1.1,1.654l-.291.258-.865-.964Zm2.352,5.286c.336.2.753.457.855.5a22.972,22.972,0,0,0,4.088.341v1.3a21.928,21.928,0,0,1-4.551-.427,8.9,8.9,0,0,1-1.064-.6,22.706,22.706,0,0,0-2.323-1.289,4.979,4.979,0,0,1-1.444.615v.214h.04l2.208.391-3.871.9h-.187a1.378,1.378,0,0,0-.019.223c0,1.812,2.35,2.38,3.751,2.558l-.161,1.285c-4.251-.537-4.885-2.639-4.885-3.843,0-.077,0-.15.01-.223h-7.757c-.924,0-1.144.267-1.144.508s.183.468.76.468h5.7v1.3h-8.415a.752.752,0,0,0-.793.6.97.97,0,0,0,.857.634h2.368v.009q.137-.009.287-.009h5.7v1.3h-5.7c-.488,0-.984.1-.984.28,0,.216.438.633,1.241.633h2.335v.007c.084,0,.17-.007.256-.007h3.968l1.248,1.3h-5.215c-.913,0-1.308.33-1.337.408,0,.154.341.47,1.165.538,1.141.1,6.223.254,7.081.254a25.886,25.886,0,0,0,5.291-.55,8.049,8.049,0,0,0,1.165-.471,8.942,8.942,0,0,1,4.358-.962v1.3a7.725,7.725,0,0,0-3.811.843,9.449,9.449,0,0,1-1.349.54,26.9,26.9,0,0,1-5.653.6c-.931,0-6.01-.16-7.188-.258-1.626-.136-2.353-1.017-2.353-1.829a1.3,1.3,0,0,1,.069-.408h-.029c-1.6,0-2.536-.864-2.536-1.928a1.638,1.638,0,0,1,.026-.28h-.4a2.05,2.05,0,0,1-2.152-1.928,2.023,2.023,0,0,1,2.088-1.895h.755a1.987,1.987,0,0,1-.06-.473c0-.467.233-1.8,2.408-1.8h2.006a2.52,2.52,0,0,1-.154-.241,1.312,1.312,0,0,1-.061-1.348c.32-.5.941-.516,1.729-.538a5.271,5.271,0,0,0,1.968-.307l.39-.181.317.29a4.868,4.868,0,0,0,5.62.263l.276-.223.337.111A17.755,17.755,0,0,1-196.974,227.873Zm-11.984-7.7c.094.211.147.231.37.313a1.637,1.637,0,0,1,1.048.92,2.046,2.046,0,0,1,.221.878,2,2,0,0,1-.05.42l-.017.086.011.03c.27.613.684,1.124.944,1.161l-.19,1.282c-1.057-.156-1.708-1.4-1.939-1.922a1.36,1.36,0,0,1-.076-.9.616.616,0,0,0-.08-.488c-.073-.157-.111-.171-.32-.248a1.707,1.707,0,0,1-1.107-1,2.156,2.156,0,0,1-.133-1.437,1.242,1.242,0,0,0-.029-.761,2.6,2.6,0,0,0-.7-1.157l-.406-.461,1-.827.363.411a3.865,3.865,0,0,1,.974,1.616,2.523,2.523,0,0,1,.144.82,2.955,2.955,0,0,1-.071.6,1.688,1.688,0,0,0-.041.313A.838.838,0,0,0-208.958,220.169Zm1.208-3.227,1.287-.151a3.071,3.071,0,0,1-.219,1.505,1.14,1.14,0,0,0-.113.673c.023.1.1.161.363.326a1.965,1.965,0,0,1,1.041,1.3,2.084,2.084,0,0,1-.047,1.225.321.321,0,0,0,0,.274c.151.53.22.624,1.037,1.442l-.915.915a3.919,3.919,0,0,1-1.367-2,1.547,1.547,0,0,1,.021-1.042.814.814,0,0,0,.007-.543c-.043-.2-.146-.283-.453-.473a1.772,1.772,0,0,1-.947-1.142,2.352,2.352,0,0,1,.156-1.388A1.852,1.852,0,0,0-207.749,216.942Zm-16.07-8.8c.324-1.7,2.051-3.026,4.6-2.622s15.556,2.806,16.68,3.022c1.654.317,1.855-.988,2.61-1.339,0,0-.932,6.35-1,6.837-.233,1.749.73,1.385.73,3.236a2.069,2.069,0,0,1-.975,1.971c.288,1.836.977,3.107.977,3.894,0,.994-.364,2.365-1.531,2.365s-1.349-1.542-1.349-2.159c0-.474.751-2.2,1.1-4-.93-.174-1.055-1.438-1.055-2.242a3.807,3.807,0,0,1,.625-1.809c0-.16-.48-.545-1.065-.638-1.025-.164-15.209-2.528-17.233-2.85S-224.143,209.841-223.82,208.14Z" transform="translate(284.806 -168.995)" fill="none"/>
        <path id="Trazado_195356" data-name="Trazado 195356" d="M-250.166,216.845c-1.875,0-3.019-.65-3.56-1.709h-13.487V221.3H-233.6v-6.166h-12.221A5.479,5.479,0,0,1-250.166,216.845Z" transform="translate(288.22 -153.363)"/>
        <path id="Trazado_195357" data-name="Trazado 195357" d="M-253.1,217.488c.548,0,1.334-.266,1.968-1.531a2.96,2.96,0,0,0,.206-1.047,3.44,3.44,0,0,1,.09-.653,2.465,2.465,0,0,1,.3-.146,2.091,2.091,0,0,0,1.151-.924,1.916,1.916,0,0,0,.194-.88,5.173,5.173,0,0,0-.047-.61,5.039,5.039,0,0,1-.049-.6c0-.069,0-.139.01-.21a3.966,3.966,0,0,1,1.212-1.616l-.855-.972a4.924,4.924,0,0,0-1.648,2.476,4.947,4.947,0,0,0,.043,1.08,1.39,1.39,0,0,1-.019.757c-.059.117-.3.223-.511.316a1.708,1.708,0,0,0-.911.685,3.073,3.073,0,0,0-.253,1.2,3.3,3.3,0,0,1-.074.577,2.51,2.51,0,0,1-.347.533,3.861,3.861,0,0,1-.46.885Z" transform="translate(294.26 -156.29)"/>
        <path id="Trazado_195358" data-name="Trazado 195358" d="M-254.282,216.252l.74,1.062a3.769,3.769,0,0,0,.947-.942,3.861,3.861,0,0,0,.46-.885c.03-.083.054-.154.07-.207a1.773,1.773,0,0,0-.044-1.008,1.084,1.084,0,0,1-.039-.714,1.438,1.438,0,0,1,.49-.531,2.366,2.366,0,0,0,.75-.844,2.334,2.334,0,0,0-.036-1.592,2.817,2.817,0,0,1-.14-1.064l-1.275-.226a2.244,2.244,0,0,0-.036.411,4.864,4.864,0,0,0,.2,1.194,3.765,3.765,0,0,1,.127.658.262.262,0,0,1-.007.066,1.235,1.235,0,0,1-.378.378,2.6,2.6,0,0,0-.871,1.018,1.825,1.825,0,0,0-.16.761,3.194,3.194,0,0,0,.123.8,1.914,1.914,0,0,1,.063.31A2.487,2.487,0,0,1-254.282,216.252Z" transform="translate(293.754 -155.86)"/>
        <path id="Trazado_195359" data-name="Trazado 195359" d="M-257.99,213.294a2.03,2.03,0,0,1,.178.453,1.7,1.7,0,0,1,.354.267,2.76,2.76,0,0,1-.034.861c-.011.094-.023.183-.033.271a5.152,5.152,0,0,0,1.057.8l-.487.975a9.823,9.823,0,0,0,.778.97l.958-.871a5.828,5.828,0,0,1-1.032-1.458.3.3,0,0,1,0-.04c0-.113.029-.328.047-.478a6.266,6.266,0,0,0,.067-.794,1.976,1.976,0,0,0-.113-.705,2,2,0,0,0-.89-.9c-.188-.12-.448-.284-.461-.388a.756.756,0,0,1,0-.079,1.658,1.658,0,0,1,.113-.488,4.189,4.189,0,0,0,.247-1.4c0-.086,0-.174-.007-.267l-1.294.077a2.844,2.844,0,0,1-.178,1.191,2.484,2.484,0,0,0-.161,1.125c0,.021.007.043.011.064A2,2,0,0,1-257.99,213.294Z" transform="translate(291.776 -155.555)"/>
        <path id="Trazado_195360" data-name="Trazado 195360" d="M-259.765,211.239a1.955,1.955,0,0,1-.064.641,1.86,1.86,0,0,0,.116,1.382,2.069,2.069,0,0,0,1.037.908c.266.131.42.213.5.37a.835.835,0,0,1,.074.554,1.63,1.63,0,0,0,.18,1.054,5.374,5.374,0,0,0,1.829,1.582l.091-.183.487-.975a5.153,5.153,0,0,1-1.057-.8,1.586,1.586,0,0,1-.234-.284c-.023-.039-.024-.087-.007-.281a2.346,2.346,0,0,0-.046-.834,2.034,2.034,0,0,0-.178-.453,2,2,0,0,0-.887-.821l-.18-.093c-.276-.137-.394-.2-.456-.327-.084-.169-.073-.234-.01-.523a3.191,3.191,0,0,0,.091-1.032,3.965,3.965,0,0,0-1.269-2.146l-.393-.44-1,.82.444.5A3.189,3.189,0,0,1-259.765,211.239Z" transform="translate(290.82 -156.185)"/>
        <path id="Trazado_195361" data-name="Trazado 195361" d="M-256.162,212.524c0,1,.24,2.332,1.405,2.332s1.475-1.508,1.475-2.126c0-.544-.828-2.852-1.022-4.942a1.209,1.209,0,0,1-.653-.194C-255.138,209.936-256.162,211.617-256.162,212.524Z" transform="translate(292.95 -156.591)"/>
        <path id="Trazado_195362" data-name="Trazado 195362" d="M-237.943,197.873c-2.549.4-14.176,2.5-15.3,2.712-1.654.317-2.036-1.187-2.793-1.538,0,0,1.115,6.549,1.18,7.036.233,1.749-.964,2.652-.964,3.96a2.222,2.222,0,0,0,.808,1.746,1.209,1.209,0,0,0,.653.194.141.141,0,0,0,.024,0c1.132,0,1.375-1.134,1.375-2a7.427,7.427,0,0,0-.647-2.428c0-.324.27-.7,1.3-.864s13.843-2.388,15.866-2.712,3.521-1.983,3.2-3.684S-235.392,197.467-237.943,197.873Zm.877,4.775c-1.726.109-16.81,1.565-16.81,1.565l-.324-2.131s14.922-2.59,16.676-2.887,3,.4,3,1.511S-235.338,202.541-237.066,202.648Z" transform="translate(293.004 -160.787)"/>
        <path id="Trazado_195363" data-name="Trazado 195363" d="M-223.588,207.163c-.348,1.8-1.1,3.529-1.1,4,0,.617.184,2.159,1.349,2.159s1.531-1.371,1.531-2.365c0-.787-.688-2.058-.977-3.894a1.426,1.426,0,0,1-.581.117A1.365,1.365,0,0,1-223.588,207.163Z" transform="translate(306.42 -156.817)"/>
        <path id="Trazado_195364" data-name="Trazado 195364" d="M-236.085,203.759c2.023.323,16.208,2.686,17.233,2.85.585.093,1.065.478,1.065.638a3.807,3.807,0,0,0-.625,1.809c0,.8.126,2.068,1.055,2.242a1.363,1.363,0,0,0,.223.02,1.425,1.425,0,0,0,.581-.117,2.069,2.069,0,0,0,.975-1.971c0-1.851-.962-1.487-.73-3.236.064-.487,1-6.837,1-6.837-.755.351-.957,1.656-2.61,1.339-1.124-.216-14.13-2.616-16.68-3.022s-4.277.922-4.6,2.622S-238.108,203.435-236.085,203.759Zm1.522-5.019c1.756.288,17.554,3.049,17.554,3.049l-.324,2.132s-16.339-1.429-18.067-1.538-2.509-.7-2.509-1.808S-236.532,198.416-234.563,198.74Z" transform="translate(300.188 -160.952)"/>
        <path id="Trazado_195365" data-name="Trazado 195365" d="M-219.581,210.5a.88.88,0,0,1-.086.507,1.74,1.74,0,0,1-1.02,1.057l.3,1.262a2.842,2.842,0,0,0,1.9-1.788,2.134,2.134,0,0,0,.2-1.1.729.729,0,0,1,.158-.558c.121-.193.157-.2.3-.24a1.493,1.493,0,0,0,1.042-.843,2.291,2.291,0,0,0,.166-1.7,1.667,1.667,0,0,1-.057-.605c.046-.29.251-.511.64-.911a9.716,9.716,0,0,0,.693-.771l-1.018-.8a8.362,8.362,0,0,1-.6.67,2.972,2.972,0,0,0-.988,1.612,2.84,2.84,0,0,0,.067,1.071,1.034,1.034,0,0,1-.039.827c-.089.166-.091.166-.229.2a1.632,1.632,0,0,0-1.07.8A1.991,1.991,0,0,0-219.581,210.5Z" transform="translate(308.133 -158.129)"/>
        <path id="Trazado_195366" data-name="Trazado 195366" d="M-221.117,212.4a2.8,2.8,0,0,0,1.1-1.654,2.834,2.834,0,0,0,.109-1.3,1.743,1.743,0,0,1,.04-.751c.044-.164.059-.173.24-.27a1.692,1.692,0,0,0,.944-1.2,2.085,2.085,0,0,0-.181-1.539,1.077,1.077,0,0,1-.13-.768l-1.275-.231a2.336,2.336,0,0,0,.229,1.541.831.831,0,0,1,.1.678.438.438,0,0,1-.3.377,1.575,1.575,0,0,0-.881,1.078,3.036,3.036,0,0,0-.076,1.224,1.594,1.594,0,0,1-.057.774,1.621,1.621,0,0,1-.714,1.065l-.3.267.865.964Z" transform="translate(307.453 -157.834)"/>
        <path id="Trazado_195367" data-name="Trazado 195367" d="M-228.163,207.81a1.772,1.772,0,0,0,.947,1.142c.307.19.41.27.453.473a.814.814,0,0,1-.007.543,1.547,1.547,0,0,0-.021,1.042,3.919,3.919,0,0,0,1.367,2l.915-.915c-.817-.818-.885-.913-1.037-1.442a.321.321,0,0,1,0-.274,2.084,2.084,0,0,0,.047-1.225,1.965,1.965,0,0,0-1.041-1.3c-.264-.164-.34-.223-.363-.326a1.14,1.14,0,0,1,.113-.673,3.071,3.071,0,0,0,.218-1.505l-1.287.151a1.852,1.852,0,0,1-.153.922A2.352,2.352,0,0,0-228.163,207.81Z" transform="translate(304.912 -157.552)"/>
        <path id="Trazado_195368" data-name="Trazado 195368" d="M-228.047,207.678a2.523,2.523,0,0,0-.144-.82,3.865,3.865,0,0,0-.974-1.616l-.363-.411-1,.827.406.461a2.6,2.6,0,0,1,.7,1.157,1.242,1.242,0,0,1,.029.761,2.156,2.156,0,0,0,.133,1.437,1.707,1.707,0,0,0,1.107,1c.208.077.247.091.32.248a.615.615,0,0,1,.08.488,1.36,1.36,0,0,0,.076.9c.231.526.883,1.766,1.939,1.922l.19-1.282c-.26-.037-.674-.548-.944-1.161l-.011-.03.017-.086a2,2,0,0,0,.05-.42,2.046,2.046,0,0,0-.221-.878,1.637,1.637,0,0,0-1.048-.92c-.223-.081-.276-.1-.37-.313a.838.838,0,0,1-.087-.353,1.688,1.688,0,0,1,.041-.313A2.955,2.955,0,0,0-228.047,207.678Z" transform="translate(303.922 -157.773)"/>
        <path id="Trazado_195369" data-name="Trazado 195369" d="M-219.811,212.284a4.868,4.868,0,0,1-5.62-.263l-.317-.29-.39.181a5.271,5.271,0,0,1-1.968.307c-.788.023-1.409.041-1.729.538a1.312,1.312,0,0,0,.061,1.348,2.522,2.522,0,0,0,.154.241h2.826a2.075,2.075,0,0,1-1.806-.808c.164-.013.363-.02.531-.024a7.348,7.348,0,0,0,2.076-.286,5.637,5.637,0,0,0,2.676,1.054,3.6,3.6,0,0,1,2.562-1.12v.97a4.978,4.978,0,0,0,1.444-.615,22.7,22.7,0,0,1,2.323,1.289,8.909,8.909,0,0,0,1.064.6,21.929,21.929,0,0,0,4.551.427v-1.3a22.968,22.968,0,0,1-4.088-.341c-.1-.043-.52-.3-.855-.5a17.754,17.754,0,0,0-2.882-1.526l-.337-.111Z" transform="translate(304.149 -154.82)"/>
        <path id="Trazado_195370" data-name="Trazado 195370" d="M-225.583,213.563h-4.832c-2.175,0-2.408,1.332-2.408,1.8a1.987,1.987,0,0,0,.06.473h1.963c-.577,0-.76-.226-.76-.468s.22-.508,1.144-.508h7.757a2.341,2.341,0,0,1,.5-1.3Z" transform="translate(302.938 -154.036)"/>
        <path id="Trazado_195371" data-name="Trazado 195371" d="M-224.792,214.858h.187l3.871-.9-2.208-.391h-.04v.111C-223,213.674-224.6,213.749-224.792,214.858Z" transform="translate(306.375 -154.036)"/>
        <path id="Trazado_195372" data-name="Trazado 195372" d="M-232.684,215.154a2.023,2.023,0,0,0-2.088,1.895,2.05,2.05,0,0,0,2.152,1.928h.4c.094-.5.49-1.205,1.966-1.287v-.009h-2.368a.97.97,0,0,1-.857-.634.752.752,0,0,1,.793-.6h8.415v-1.3h-8.415Z" transform="translate(302.104 -153.355)"/>
        <path id="Trazado_195373" data-name="Trazado 195373" d="M-232.976,218.219a1.64,1.64,0,0,0-.026.28c0,1.064.935,1.928,2.536,1.928h.029a2.421,2.421,0,0,1,2.306-1.288v-.007h-2.335c-.8,0-1.241-.417-1.241-.633,0-.183.5-.28.984-.28h5.7v-1.3h-5.7q-.15,0-.287.009C-232.487,217.014-232.882,217.721-232.976,218.219Z" transform="translate(302.862 -152.598)"/>
        <path id="Trazado_195374" data-name="Trazado 195374" d="M-231.185,219.765a1.3,1.3,0,0,0-.069.408c0,.813.727,1.694,2.353,1.829,1.178.1,6.257.258,7.188.258a26.9,26.9,0,0,0,5.653-.6,9.449,9.449,0,0,0,1.349-.54,7.725,7.725,0,0,1,3.811-.843v-1.3a8.942,8.942,0,0,0-4.358.962,8.049,8.049,0,0,1-1.165.471,25.886,25.886,0,0,1-5.291.55c-.858,0-5.94-.159-7.081-.254-.824-.069-1.165-.384-1.165-.538.029-.079.424-.408,1.337-.408h5.215l-1.248-1.3h-3.968c-.086,0-.171,0-.256.007A2.421,2.421,0,0,0-231.185,219.765Z" transform="translate(303.61 -151.936)"/>
        <path id="Trazado_195375" data-name="Trazado 195375" d="M-225.149,213.854c-.017.021-.036.043-.054.064a2.341,2.341,0,0,0-.5,1.3c-.006.073-.01.146-.01.223,0,1.2.634,3.306,4.885,3.843l.161-1.285c-1.4-.177-3.751-.745-3.751-2.558a1.379,1.379,0,0,1,.019-.223c.19-1.11,1.794-1.184,1.811-1.184v-1.3A3.6,3.6,0,0,0-225.149,213.854Z" transform="translate(305.982 -154.391)"/>
        <path id="Trazado_195376" data-name="Trazado 195376" d="M-281.924,232.566l60.688,60.692,60.691-60.692-60.691-60.689Zm111.761,0-51.073,51.075-51.072-51.075,51.072-51.073Z" transform="translate(281.924 -171.877)" fill="#ef4135"/>
      </g>
    </g>
    <g id="normal-2" data-name="normal" transform="translate(-412.239 396.625)">
      <g id="Grupo_134662" data-name="Grupo 134662" transform="translate(0 0)">
        <path id="Trazado_195377" data-name="Trazado 195377" d="M-409.778,350.446c4.205,4.205,46.866,46.868,51.072,51.074l51.073-51.074-51.073-51.073Zm51.5,25.876a6.941,6.941,0,0,1-6.743-7.124,6.941,6.941,0,0,1,6.743-7.124,6.94,6.94,0,0,1,6.741,7.124A6.94,6.94,0,0,1-358.277,376.323Zm8.786-51.546c0,.076,0,.151-.009.227h0v.017a4.013,4.013,0,0,1-.1.654l-4.167,28.167a4.549,4.549,0,0,1-4.514,4.258,4.551,4.551,0,0,1-4.518-4.3l-4.174-28.17a3.905,3.905,0,0,1-.084-.577l-.009-.05h.006c0-.076-.009-.151-.009-.227,0-3.194,3.934-5.783,8.788-5.783S-349.49,321.582-349.49,324.777Z" transform="translate(419.394 -289.756)" fill="none"/>
        <path id="Trazado_195378" data-name="Trazado 195378" d="M-371.691,343.282a6.941,6.941,0,0,0-6.743,7.124,6.941,6.941,0,0,0,6.743,7.124,6.94,6.94,0,0,0,6.741-7.124A6.94,6.94,0,0,0-371.691,343.282Z" transform="translate(432.809 -270.963)"/>
        <path id="Trazado_195379" data-name="Trazado 195379" d="M-379.866,318.9c0,.076,0,.151.009.227h-.006l.009.05a3.909,3.909,0,0,0,.084.577l4.174,28.17a4.551,4.551,0,0,0,4.518,4.3,4.549,4.549,0,0,0,4.514-4.258l4.167-28.167a4.02,4.02,0,0,0,.1-.654v-.017h0c0-.076.009-.151.009-.227,0-3.194-3.934-5.783-8.786-5.783S-379.866,315.7-379.866,318.9Z" transform="translate(432.196 -283.875)"/>
        <path id="Trazado_195380" data-name="Trazado 195380" d="M-416.512,353.329l60.688,60.691,60.691-60.691-60.691-60.691Zm111.761,0L-355.824,404.4c-4.205-4.207-46.866-46.869-51.072-51.075l51.072-51.073Z" transform="translate(416.512 -292.638)" fill="#ef4135"/>
      </g>
    </g>
  </g>
</svg>
