<svg xmlns="http://www.w3.org/2000/svg" width="610" height="350" viewBox="0 0 610 350">
  <g id="Grupo_134636" data-name="Grupo 134636" transform="translate(-705 -3594)">
    <rect id="Rectángulo_40941" data-name="Rectángulo 40941" width="610" height="350" transform="translate(705 3594)" fill="#fff"/>
    <g id="Grupo_130138" data-name="Grupo 130138" transform="translate(589.055 3316.144)">
      <g id="bg">
        <rect id="Rectángulo_40983" data-name="Rectángulo 40983" width="610" height="350" transform="translate(115.945 277.857)" fill="#00bcd4" opacity="0.35" style="isolation: isolate"/>
      </g>
      <g id="Capa_1" data-name="Capa 1">
        <g id="Grupo_130137" data-name="Grupo 130137">
          <g id="Grupo_130108" data-name="Grupo 130108">
            <g id="Grupo_130096" data-name="Grupo 130096">
              <rect id="Rectángulo_40984" data-name="Rectángulo 40984" width="77.741" height="104.319" transform="matrix(0.944, -0.331, 0.331, 0.944, 393.77, 476.159)" fill="#45b9bc"/>
              <path id="Trazado_189291" data-name="Trazado 189291" d="M452.2,456.042a65.6,65.6,0,0,0-19.928,10.889c-3.865,3.082-8.2,4.7-10.374,9.235-.7,1.461,2.856,8.151,12.123,5.969,9.736-2.291,6.187,17.665,2.465,23.883-2.845,4.755,3,6.983,4.275,6.851,4.349-.452,10.307-.211,13.725,2.942,8.14,7.5-7.679,12.92-2.184,18.717s8.711-4.981,13.781-3.877c2.568.559.4,8.515,7.761,8.34s6.073-7.065,9.828-9.876a13.317,13.317,0,0,1,10.134-2.569l-26.666-76.1L453.92,455.08A5.038,5.038,0,0,1,452.2,456.042Z" fill="#cbd8cf" opacity="0.4" style="mix-blend-mode: soft-light;isolation: isolate"/>
              <path id="Trazado_189292" data-name="Trazado 189292" d="M491.135,536.294c-3.661,1.528-5.985,6.041-8.853,8.688-3.3,3.046-7.054,4.633-11.566,3.9a9.528,9.528,0,0,1-6.889-5.392c-1.023-2.613.311-3.991-2.621-2.642-4.314,1.985-7.57,5.916-12.062,7.552-9.956,3.625-13.251-6.679-9.645-14.26,1.856-3.9,5.915-6.857,7.792-10.642a7.061,7.061,0,0,1-1.085-.6c-.348-.067-.7-.138-1.046-.2a12.882,12.882,0,0,0-2.762.02,36.58,36.58,0,0,1-5.326.529c-12.29-.57-11.512-14.605-9.516-23.615.572-2.592,1.619-5.615,1.495-8.317-1.266.18-3.21.7-4.642,1.023-5.942,1.316-13.532.589-13.82-7.262-.228-6.182,2.086-11.842,5.836-16.852l-22.655,7.938,34.5,98.45,73.366-25.71-3.975-11.344C495.856,536.945,492.941,535.539,491.135,536.294Z" fill="#e6eff5" style="mix-blend-mode: multiply;isolation: isolate"/>
              <path id="Trazado_189293" data-name="Trazado 189293" d="M466.222,438.8l-79.008,27.687,6.556,9.671,73.367-25.71Z" fill="#3c9ea0"/>
              <path id="Trazado_189294" data-name="Trazado 189294" d="M501.636,548.9l-73.366,25.71.913,11.649,78.07-27.358Z" fill="#3c9ea0"/>
              <path id="Trazado_189295" data-name="Trazado 189295" d="M448.2,503.394c-15.293-4.1-31.232,13.054-28.926,23.365,1.011,4.524,3.662,8.3,6.244,11.513,3.85,4.8,8.449,13.283,18.464,14.88,6.274,1,15.232,1.813,20.531-2.818s6.872-12.4,5.731-20.354C468.908,521.384,457.541,505.9,448.2,503.394Zm-13.121,33.844c-1.887,1.051-4.782,2.26-6.949,1.63a2.026,2.026,0,0,1-1.57-1.912,2.065,2.065,0,0,1-.236-1.437,7.773,7.773,0,0,1,5.17-6.14c2.1-.855,4.771-1.192,6.469.62C440.222,532.415,437.2,536.053,435.074,537.238Zm28.091,1c-1.23,2.833-1.6,5.15-4.069,7.01a10.548,10.548,0,0,1-8.223,2.215c-2.958-.593-3.252-3.213-.879-4.622.808-.481,3.269-3.383,4.063-4.045,1.506-1.251,3.051-1.709,4.079-3.054C459.966,533.345,464.373,535.457,463.165,538.236ZM457.831,514c-.133,1.932-1.968,4.262-3.168,5.714-1.49,1.805-3.606,3.434-6.062,2.56a2.392,2.392,0,0,1-.888-.539,2.021,2.021,0,0,1-1.236-2.221,10.243,10.243,0,0,1,4.688-8.007C453.44,510.073,458.084,510.328,457.831,514Z" fill="#ece6c9"/>
              <g id="Grupo_130091" data-name="Grupo 130091">
                <path id="Trazado_189296" data-name="Trazado 189296" d="M433.081,583.136l-3.189-9.1,2.824-.989Z" fill="#d9d9d9" style="mix-blend-mode: multiply;isolation: isolate"/>
                <path id="Trazado_189297" data-name="Trazado 189297" d="M438.3,581.307l-3.188-9.1,2.821-.988Z" fill="#d9d9d9" style="mix-blend-mode: multiply;isolation: isolate"/>
                <path id="Trazado_189298" data-name="Trazado 189298" d="M443.52,579.479l-3.188-9.1,2.822-.988Z" fill="#d9d9d9" style="mix-blend-mode: multiply;isolation: isolate"/>
                <path id="Trazado_189299" data-name="Trazado 189299" d="M449.093,577.524l-3.543-8.971,2.822-.988Z" fill="#d9d9d9" style="mix-blend-mode: multiply;isolation: isolate"/>
                <path id="Trazado_189300" data-name="Trazado 189300" d="M454.578,575.6l-3.808-8.878,2.822-.989Z" fill="#d9d9d9" style="mix-blend-mode: multiply;isolation: isolate"/>
                <path id="Trazado_189301" data-name="Trazado 189301" d="M460.222,573.624l-4.234-8.729,2.82-.988Z" fill="#d9d9d9" style="mix-blend-mode: multiply;isolation: isolate"/>
                <path id="Trazado_189302" data-name="Trazado 189302" d="M465.805,571.669l-4.6-8.6,2.822-.989Z" fill="#d9d9d9" style="mix-blend-mode: multiply;isolation: isolate"/>
                <path id="Trazado_189303" data-name="Trazado 189303" d="M471.023,569.841l-4.6-8.6,2.819-.988Z" fill="#d9d9d9" style="mix-blend-mode: multiply;isolation: isolate"/>
                <path id="Trazado_189304" data-name="Trazado 189304" d="M476.918,567.775l-5.273-8.367,2.821-.989Z" fill="#d9d9d9" style="mix-blend-mode: multiply;isolation: isolate"/>
                <path id="Trazado_189305" data-name="Trazado 189305" d="M481.461,566.183l-4.6-8.6,2.825-.989Z" fill="#d9d9d9" style="mix-blend-mode: multiply;isolation: isolate"/>
                <path id="Trazado_189306" data-name="Trazado 189306" d="M486.681,564.353l-4.6-8.6,2.822-.987Z" fill="#d9d9d9" style="mix-blend-mode: multiply;isolation: isolate"/>
                <path id="Trazado_189307" data-name="Trazado 189307" d="M491.9,562.525l-4.6-8.6,2.822-.989Z" fill="#d9d9d9" style="mix-blend-mode: multiply;isolation: isolate"/>
                <path id="Trazado_189308" data-name="Trazado 189308" d="M498,560.386l-5.485-8.293,2.821-.988Z" fill="#d9d9d9" style="mix-blend-mode: multiply;isolation: isolate"/>
                <path id="Trazado_189309" data-name="Trazado 189309" d="M503.747,558.372l-6.009-8.108,2.822-.988Z" fill="#d9d9d9" style="mix-blend-mode: multiply;isolation: isolate"/>
              </g>
              <g id="Grupo_130092" data-name="Grupo 130092">
                <path id="Trazado_189310" data-name="Trazado 189310" d="M462.6,441.829l3.187,9.095-2.822.988Z" fill="#d9d9d9" style="mix-blend-mode: multiply;isolation: isolate"/>
                <path id="Trazado_189311" data-name="Trazado 189311" d="M457.38,443.659l3.188,9.092-2.822.989Z" fill="#d9d9d9" style="mix-blend-mode: multiply;isolation: isolate"/>
                <path id="Trazado_189312" data-name="Trazado 189312" d="M452.161,445.487l3.188,9.095-2.821.988Z" fill="#d9d9d9" style="mix-blend-mode: multiply;isolation: isolate"/>
                <path id="Trazado_189313" data-name="Trazado 189313" d="M446.59,447.439l3.539,8.97-2.821.988Z" fill="#d9d9d9" style="mix-blend-mode: multiply;isolation: isolate"/>
                <path id="Trazado_189314" data-name="Trazado 189314" d="M441.1,449.361l3.81,8.877-2.822.989Z" fill="#d9d9d9" style="mix-blend-mode: multiply;isolation: isolate"/>
                <path id="Trazado_189315" data-name="Trazado 189315" d="M435.459,451.339l4.234,8.729-2.823.989Z" fill="#d9d9d9" style="mix-blend-mode: multiply;isolation: isolate"/>
                <path id="Trazado_189316" data-name="Trazado 189316" d="M429.877,453.295l4.6,8.6-2.821.989Z" fill="#d9d9d9" style="mix-blend-mode: multiply;isolation: isolate"/>
                <path id="Trazado_189317" data-name="Trazado 189317" d="M424.657,455.125l4.6,8.6-2.823.989Z" fill="#d9d9d9" style="mix-blend-mode: multiply;isolation: isolate"/>
                <path id="Trazado_189318" data-name="Trazado 189318" d="M418.763,457.19l5.272,8.365-2.822.988Z" fill="#d9d9d9" style="mix-blend-mode: multiply;isolation: isolate"/>
                <path id="Trazado_189319" data-name="Trazado 189319" d="M414.219,458.782l4.6,8.6-2.821.989Z" fill="#d9d9d9" style="mix-blend-mode: multiply;isolation: isolate"/>
                <path id="Trazado_189320" data-name="Trazado 189320" d="M409,460.611l4.6,8.6-2.821.989Z" fill="#d9d9d9" style="mix-blend-mode: multiply;isolation: isolate"/>
                <path id="Trazado_189321" data-name="Trazado 189321" d="M403.781,462.441l4.6,8.6-2.822.989Z" fill="#d9d9d9" style="mix-blend-mode: multiply;isolation: isolate"/>
                <path id="Trazado_189322" data-name="Trazado 189322" d="M397.677,464.578l5.483,8.291-2.82.988Z" fill="#d9d9d9" style="mix-blend-mode: multiply;isolation: isolate"/>
                <path id="Trazado_189323" data-name="Trazado 189323" d="M391.933,466.59l6.009,8.107-2.82.989Z" fill="#d9d9d9" style="mix-blend-mode: multiply;isolation: isolate"/>
              </g>
              <g id="Grupo_130095" data-name="Grupo 130095">
                <g id="Grupo_130093" data-name="Grupo 130093">
                  <path id="Trazado_189324" data-name="Trazado 189324" d="M428.679,486.992a6.07,6.07,0,0,1-7.47-8.337,5.845,5.845,0,0,1,3.471-3.076l2.113-.74a5.944,5.944,0,0,1,5.312.615,3.188,3.188,0,0,1,1.378,1.712,2.68,2.68,0,0,1-1.678,3.492,3.505,3.505,0,0,1-2.088-.1,3.481,3.481,0,0,0-2.057-.112q-1.482.519-1.261,1.149c.059.17.247.2.562.088l1.513-.53a6.046,6.046,0,1,1,4,11.411l-2.112.74a5.935,5.935,0,0,1-5.271-.595,3.226,3.226,0,0,1-1.421-1.731,2.59,2.59,0,0,1,.121-2.08,2.671,2.671,0,0,1,1.569-1.38,3.564,3.564,0,0,1,2.083.085,3.53,3.53,0,0,0,2.05.1c.989-.347,1.413-.718,1.273-1.118-.066-.189-.247-.232-.541-.129Z" fill="#ece6c9"/>
                  <path id="Trazado_189325" data-name="Trazado 189325" d="M438.969,475.138l2.129-4.427a2.789,2.789,0,1,1,5.026,2.418l-2.782,5.787,5.785,2.782a2.706,2.706,0,0,1,1.438,1.586,2.656,2.656,0,0,1-.12,2.133,2.735,2.735,0,0,1-1.61,1.414,2.677,2.677,0,0,1-2.124-.1l-4.429-2.13.5,1.417a2.653,2.653,0,0,1-.121,2.132,2.738,2.738,0,0,1-1.611,1.413,2.735,2.735,0,0,1-3.534-1.7L433.2,475.565a2.727,2.727,0,0,1,.1-2.14A2.652,2.652,0,0,1,434.895,472a2.8,2.8,0,0,1,3.576,1.721Z" fill="#ece6c9"/>
                  <path id="Trazado_189326" data-name="Trazado 189326" d="M455.957,481.4a2.736,2.736,0,0,1-1.7,3.533,2.735,2.735,0,0,1-2.14-.1,2.654,2.654,0,0,1-1.425-1.591l-4.309-12.3a2.8,2.8,0,0,1,1.721-3.577,2.652,2.652,0,0,1,2.131.122,2.733,2.733,0,0,1,1.413,1.611Z" fill="#ece6c9"/>
                  <path id="Trazado_189327" data-name="Trazado 189327" d="M453.417,472.837a6.915,6.915,0,1,1,13.052-4.574l2.949,8.416a2.652,2.652,0,0,1-.12,2.133,2.734,2.734,0,0,1-1.611,1.412,2.738,2.738,0,0,1-3.534-1.7l-2.95-8.416a1.369,1.369,0,0,0-1.7-.821,1.314,1.314,0,0,0-.821,1.705l2.95,8.416a2.647,2.647,0,0,1-.12,2.131,2.735,2.735,0,0,1-1.611,1.413,2.735,2.735,0,0,1-3.533-1.7Z" fill="#ece6c9"/>
                </g>
                <g id="Grupo_130094" data-name="Grupo 130094">
                  <path id="Trazado_189328" data-name="Trazado 189328" d="M447.728,490.846c-.148-.42-.394-.636-.713-.523-1.059.37-1.072,3.828-.419,5.691.4,1.143.9,1.27,1.7.989a4.072,4.072,0,0,0,2.379-2.739l.571-.2c-.416,1.883-1.3,3.945-3.531,4.728a2.5,2.5,0,0,1-3.557-1.752c-.682-1.949-.986-6.369,2.424-7.565,1.495-.524,2.135.119,2.406.891.289.824.027,1.368-.46,1.539a1.147,1.147,0,0,1-.659,0A3.173,3.173,0,0,0,447.728,490.846Z" fill="#ece6c9"/>
                  <path id="Trazado_189329" data-name="Trazado 189329" d="M456.85,486.047l.792,6.136a2.45,2.45,0,0,0,.121.56.661.661,0,0,0,.941.481c.656-.229.85-1.127.808-2.056l.707-.248c0,3.074-1.382,3.974-2.29,4.292a1.633,1.633,0,0,1-2.187-.969,3.224,3.224,0,0,1-1.961,2.424c-1.142.4-2.482.078-3.182-1.922-.8-2.268-.667-6.368,2.257-7.393.958-.335,1.49-.109,1.66.379l.042.118-.128-.956ZM453,493.638c.453,1.294,1,1.122,1.3,1.017a1.793,1.793,0,0,0,.876-1.968l-.524-4.079a.691.691,0,0,0-.912-.4C452.314,488.711,452.449,492.059,453,493.638Z" fill="#ece6c9"/>
                  <path id="Trazado_189330" data-name="Trazado 189330" d="M461.179,484.528l.147,1.119a3.469,3.469,0,0,1,1.668-1.754,1.319,1.319,0,0,1,.82,2.505c-.941.33-.859-.945-1.362-.768s-.719.534-1,1.068l.892,6.856-2.418.848-1.162-9.026Z" fill="#ece6c9"/>
                  <path id="Trazado_189331" data-name="Trazado 189331" d="M469.643,489.316a3.632,3.632,0,0,0,1.671-1.586,2.864,2.864,0,0,1-2.035,3.506,2.493,2.493,0,0,1-3.54-1.758c-.678-1.932-1-6.364,2.44-7.571,1.494-.523,2.118.125,2.413.966.682,1.948-.648,4.073-2.623,4.9.043.172.091.362.144.515C468.484,489.344,469.055,489.522,469.643,489.316Zm-1.019-6.566c-.839.3-1.025,2.453-.819,4.173a2.956,2.956,0,0,0,1.482-3.632C469.14,482.871,468.944,482.638,468.624,482.75Z" fill="#ece6c9"/>
                </g>
              </g>
            </g>
            <g id="Grupo_130104" data-name="Grupo 130104">
              <g id="Grupo_130099" data-name="Grupo 130099">
                <g id="Grupo_130098" data-name="Grupo 130098">
                  <path id="Trazado_189332" data-name="Trazado 189332" d="M670.571,546.09a15.31,15.31,0,0,0-14.782-19,15.134,15.134,0,0,0-5.336.92,5.03,5.03,0,0,0-4.735-4.395,10.787,10.787,0,0,0-21.278-2.284A26.855,26.855,0,0,0,576.7,515.3a6.238,6.238,0,0,0-8.894,1.986,26.587,26.587,0,1,0,6.437,45.178,12.263,12.263,0,0,0,19.96-3.943,6.91,6.91,0,0,0,9.735,1.405c1.576,3.927,4.071,5.763,8.568,5.8,4.421.038,6.191-5.258,10.3-1.194-.955,4.984,9.568,7.166,10.89,1.664,3.887-8.4,10.549-1.756,14.87-10.116a15.38,15.38,0,0,0,6.949,1.74,15.2,15.2,0,0,0,8.321-2.379,6.279,6.279,0,1,0,6.733-9.355Z" fill="#fff"/>
                  <g id="Grupo_130097" data-name="Grupo 130097" style="mix-blend-mode: multiply;isolation: isolate">
                    <path id="Trazado_189333" data-name="Trazado 189333" d="M629.627,514.456c-.162.094-.3.2-.457.3.059.17.135.328.2.489C629.429,514.976,629.543,514.72,629.627,514.456Z" fill="#c3e6fa"/>
                    <path id="Trazado_189334" data-name="Trazado 189334" d="M674.083,552.434a6.27,6.27,0,0,1-5.329-3.069A15.326,15.326,0,0,1,653.49,550c-4.325,8.362-10.982,1.726-14.867,10.12a12.7,12.7,0,0,0-.642,1.715c3.523-1.349,7.609.005,10.587-5.748a15.38,15.38,0,0,0,6.949,1.74,15.2,15.2,0,0,0,8.321-2.379,6.272,6.272,0,0,0,11.669-3.16v-.008A6.2,6.2,0,0,1,674.083,552.434Z" fill="#c3e6fa"/>
                    <path id="Trazado_189335" data-name="Trazado 189335" d="M617.425,559.647s-6.993-1.874-8.569-5.8a6.906,6.906,0,0,1-9.738-1.4,12.26,12.26,0,0,1-19.956,3.944,26.553,26.553,0,0,1-39.591-34.119,26.555,26.555,0,0,0,34.669,40.2,12.263,12.263,0,0,0,19.96-3.943,6.91,6.91,0,0,0,9.735,1.405c1.576,3.927,4.071,5.763,8.568,5.8,4.421.038,6.191-5.258,10.3-1.194C623.694,558.556,617.425,559.647,617.425,559.647Z" fill="#c3e6fa"/>
                  </g>
                  <path id="Trazado_189336" data-name="Trazado 189336" d="M644.318,500.876a3.809,3.809,0,1,1-3.776-3.837A3.81,3.81,0,0,1,644.318,500.876Z" fill="#bee4fa"/>
                  <path id="Trazado_189337" data-name="Trazado 189337" d="M620.095,500.375a3.811,3.811,0,1,1-3.776-3.846A3.814,3.814,0,0,1,620.095,500.375Z" fill="#bee4fa"/>
                  <path id="Trazado_189338" data-name="Trazado 189338" d="M664.58,514.848a7.622,7.622,0,1,1-7.552-7.693A7.615,7.615,0,0,1,664.58,514.848Z" fill="#bee4fa"/>
                  <path id="Trazado_189339" data-name="Trazado 189339" d="M618.9,538.3a10.518,10.518,0,0,0-20.085-4.472,7.6,7.6,0,0,0-13.376,4.888" fill="#fff"/>
                  <path id="Trazado_189340" data-name="Trazado 189340" d="M593.1,534.439a7.576,7.576,0,0,1,5.682,2.667,10.514,10.514,0,0,1,19.593,1.2l.525-.007a10.518,10.518,0,0,0-20.085-4.472,7.6,7.6,0,0,0-13.376,4.888l.779-.005A7.605,7.605,0,0,1,593.1,534.439Z" fill="#c3e6fa" style="mix-blend-mode: multiply;isolation: isolate"/>
                  <path id="Trazado_189341" data-name="Trazado 189341" d="M567.8,517.287c4.35,1.7,10.178,8.773,9.929,13.194l.49.184c2.115-5.42-1.408-14.068-6.828-16.185A8.876,8.876,0,0,0,567.8,517.287Z" fill="#c3e6fa" style="mix-blend-mode: multiply;isolation: isolate"/>
                  <path id="Trazado_189342" data-name="Trazado 189342" d="M658.907,496.888a2.335,2.335,0,1,1-2.315-2.359A2.335,2.335,0,0,1,658.907,496.888Z" fill="#bee4fa"/>
                  <path id="Trazado_189343" data-name="Trazado 189343" d="M619.79,485.662a1.906,1.906,0,1,1-1.888-1.919A1.907,1.907,0,0,1,619.79,485.662Z" fill="#bee4fa"/>
                  <path id="Trazado_189344" data-name="Trazado 189344" d="M608.441,495.952a4,4,0,1,1-3.967-4.038A4.005,4.005,0,0,1,608.441,495.952Z" fill="#bee4fa"/>
                  <path id="Trazado_189345" data-name="Trazado 189345" d="M625.36,488.8a2,2,0,1,1-1.864,2.129A2.007,2.007,0,0,1,625.36,488.8Z" fill="#bee4fa"/>
                  <path id="Trazado_189346" data-name="Trazado 189346" d="M625.153,504.178a2.857,2.857,0,1,1-2.661,3.041A2.859,2.859,0,0,1,625.153,504.178Z" fill="#bee4fa"/>
                  <path id="Trazado_189347" data-name="Trazado 189347" d="M598.816,533.826a10.4,10.4,0,0,1,1.86,4.359" fill="none"/>
                  <path id="Trazado_189348" data-name="Trazado 189348" d="M567.8,517.287c8.6,4.579,9.39,12.114,9.39,12.114" fill="none"/>
                  <line id="Línea_361" data-name="Línea 361" x1="0.207" y2="2.744" transform="translate(645.511 523.616)" fill="none"/>
                  <path id="Trazado_189349" data-name="Trazado 189349" d="M670.571,546.09a7.78,7.78,0,0,0-5.738,1.313" fill="none"/>
                  <path id="Trazado_189350" data-name="Trazado 189350" d="M663.283,514.319a5.058,5.058,0,1,1-5.016-5.1A5.063,5.063,0,0,1,663.283,514.319Z" fill="#fff"/>
                  <path id="Trazado_189351" data-name="Trazado 189351" d="M643.3,500.872a2.381,2.381,0,1,1-2.358-2.4A2.385,2.385,0,0,1,643.3,500.872Z" fill="#fff"/>
                  <path id="Trazado_189352" data-name="Trazado 189352" d="M658.119,497.084a1.131,1.131,0,1,1-1.121-1.14A1.129,1.129,0,0,1,658.119,497.084Z" fill="#fff"/>
                  <path id="Trazado_189353" data-name="Trazado 189353" d="M607.5,495.563a2.25,2.25,0,1,1-2.231-2.271A2.25,2.25,0,0,1,607.5,495.563Z" fill="#fff"/>
                  <path id="Trazado_189354" data-name="Trazado 189354" d="M619.3,500.3a2.266,2.266,0,1,1-2.245-2.289A2.271,2.271,0,0,1,619.3,500.3Z" fill="#fff"/>
                  <path id="Trazado_189355" data-name="Trazado 189355" d="M625.484,505.156a1.657,1.657,0,1,1-1.542,1.763A1.649,1.649,0,0,1,625.484,505.156Z" fill="#fff"/>
                  <path id="Trazado_189356" data-name="Trazado 189356" d="M625.431,489.842a.642.642,0,1,1-.6.679A.637.637,0,0,1,625.431,489.842Z" fill="#fff"/>
                  <path id="Trazado_189357" data-name="Trazado 189357" d="M619.128,485.872a1.072,1.072,0,1,1-2.144-.019,1.072,1.072,0,1,1,2.144.019Z" fill="#fff"/>
                </g>
              </g>
              <g id="Grupo_130100" data-name="Grupo 130100">
                <path id="Trazado_189358" data-name="Trazado 189358" d="M546.68,377.362H511.241c-4,0-7.273,2.088-7.273,6.125V406.5H540.74V389.454h5.94Z" fill="#545c7b"/>
                <path id="Trazado_189359" data-name="Trazado 189359" d="M515.443,399.285c-6.488-.426-6.488-5.94-5.166-12.165.789-3.7,6.921-6.754,8.946-9.758h-7.982c-4,0-7.273,2.088-7.273,6.125V406.5H540.74v-.137C535.341,406.147,521.509,399.68,515.443,399.285Z" fill="#d1d1d1" style="mix-blend-mode: multiply;isolation: isolate"/>
                <path id="Trazado_189360" data-name="Trazado 189360" d="M546.68,408.9c0-4.1-2.651-6.642-5.94-6.642H503.968c-3.746,0-5.94,2.264-5.94,6.642v3.686c0,6.92,4.331,12.583,9.623,12.583h29.406c5.294,0,9.623-5.663,9.623-12.583Z" fill="#d9d9d9"/>
                <path id="Trazado_189361" data-name="Trazado 189361" d="M554.893,574.647c0,3.667-3.547,5.947-7.947,5.947H497.74c-5.015,0-7.948-2.026-7.948-5.947v-3.3c0-6.2,5.794-11.265,12.875-11.265h39.352c7.081,0,12.874,5.07,12.874,11.265Z" fill="#888887"/>
                <path id="Trazado_189362" data-name="Trazado 189362" d="M503.789,415.407a1.372,1.372,0,0,1-1.325,1.415h0a1.372,1.372,0,0,1-1.324-1.415V406.5a1.372,1.372,0,0,1,1.324-1.415h0a1.372,1.372,0,0,1,1.325,1.415Z" fill="#bcbcbb"/>
                <path id="Trazado_189363" data-name="Trazado 189363" d="M510.277,415.407a1.371,1.371,0,0,1-1.322,1.415h0a1.373,1.373,0,0,1-1.327-1.415V406.5a1.373,1.373,0,0,1,1.327-1.415h0a1.371,1.371,0,0,1,1.322,1.415Z" fill="#bcbcbb"/>
                <path id="Trazado_189364" data-name="Trazado 189364" d="M516.767,415.407a1.372,1.372,0,0,1-1.324,1.415h0a1.371,1.371,0,0,1-1.325-1.415V406.5a1.371,1.371,0,0,1,1.325-1.415h0a1.372,1.372,0,0,1,1.324,1.415Z" fill="#bcbcbb"/>
                <path id="Trazado_189365" data-name="Trazado 189365" d="M523.256,415.407a1.372,1.372,0,0,1-1.326,1.415h0a1.372,1.372,0,0,1-1.324-1.415V406.5a1.372,1.372,0,0,1,1.324-1.415h0a1.372,1.372,0,0,1,1.326,1.415Z" fill="#bcbcbb"/>
                <path id="Trazado_189366" data-name="Trazado 189366" d="M529.745,415.407a1.372,1.372,0,0,1-1.326,1.415h0a1.372,1.372,0,0,1-1.324-1.415V406.5a1.372,1.372,0,0,1,1.324-1.415h0a1.372,1.372,0,0,1,1.326,1.415Z" fill="#bcbcbb"/>
                <path id="Trazado_189367" data-name="Trazado 189367" d="M536.3,415.407a1.372,1.372,0,0,1-1.325,1.415h0a1.371,1.371,0,0,1-1.324-1.415V406.5a1.371,1.371,0,0,1,1.324-1.415h0A1.372,1.372,0,0,1,536.3,406.5Z" fill="#bcbcbb"/>
                <path id="Trazado_189368" data-name="Trazado 189368" d="M542.79,415.407a1.371,1.371,0,0,1-1.323,1.415h0a1.373,1.373,0,0,1-1.326-1.415V406.5a1.373,1.373,0,0,1,1.326-1.415h0a1.371,1.371,0,0,1,1.323,1.415Z" fill="#bcbcbb"/>
                <path id="Rectángulo_40985" data-name="Rectángulo 40985" d="M9.622,0H68.446a9.622,9.622,0,0,1,9.622,9.622V153.305a9.62,9.62,0,0,1-9.62,9.62H9.62A9.62,9.62,0,0,1,0,153.305V9.622A9.622,9.622,0,0,1,9.622,0Z" transform="translate(483.32 412.72)" fill="#d4d4d3"/>
                <path id="Trazado_189369" data-name="Trazado 189369" d="M511.328,569.421a9.651,9.651,0,0,1-9.622-9.623V439.591c0-25.881,33.271-26.871,33.271-26.871H492.943a9.651,9.651,0,0,0-9.623,9.621V566.023a9.653,9.653,0,0,0,9.623,9.623h58.825a9.651,9.651,0,0,0,8.986-6.225Z" fill="#d1d1d1" style="mix-blend-mode: multiply;isolation: isolate"/>
                <path id="Trazado_189370" data-name="Trazado 189370" d="M492.544,566.023V422.341a9.65,9.65,0,0,1,9.622-9.621h-9.223a9.651,9.651,0,0,0-9.623,9.621V566.023a9.653,9.653,0,0,0,9.623,9.623h9.223A9.652,9.652,0,0,1,492.544,566.023Z" fill="#d1d1d1" style="mix-blend-mode: multiply;isolation: isolate"/>
                <rect id="Rectángulo_40986" data-name="Rectángulo 40986" width="47.265" height="84.008" transform="translate(511.345 452.179)" fill="#72bbc5"/>
                <rect id="Rectángulo_40987" data-name="Rectángulo 40987" width="47.265" height="3.819" transform="translate(511.345 458.543)" fill="#a3daf7"/>
                <rect id="Rectángulo_40988" data-name="Rectángulo 40988" width="47.265" height="3.82" transform="translate(511.345 466.604)" fill="#a3daf7"/>
                <rect id="Rectángulo_40989" data-name="Rectángulo 40989" width="47.265" height="3.82" transform="translate(511.345 520.913)" fill="#a3daf7"/>
                <rect id="Rectángulo_40990" data-name="Rectángulo 40990" width="8.213" height="149.455" transform="translate(546.68 422.655)" fill="#fff" style="mix-blend-mode: soft-light;isolation: isolate"/>
                <rect id="Rectángulo_40991" data-name="Rectángulo 40991" width="4.107" height="149.455" transform="translate(538.683 422.655)" fill="#fff" style="mix-blend-mode: soft-light;isolation: isolate"/>
              </g>
              <g id="Grupo_130103" data-name="Grupo 130103">
                <g id="Grupo_130102" data-name="Grupo 130102">
                  <path id="Trazado_189371" data-name="Trazado 189371" d="M528.207,572.6a8.881,8.881,0,0,0-8.557-11.034,8.744,8.744,0,0,0-3.1.531,2.915,2.915,0,0,0-2.744-2.554,6.257,6.257,0,0,0-12.34-1.342,15.575,15.575,0,0,0-27.687-3.539,3.616,3.616,0,0,0-5.162,1.144,15.42,15.42,0,1,0,3.7,26.21,7.112,7.112,0,0,0,11.58-2.27,4.014,4.014,0,0,0,5.647.825,4.789,4.789,0,0,0,4.964,3.371c2.565.027,3.6-3.044,5.979-.683-.559,2.888,5.544,4.164,6.317.975,2.259-4.867,6.118-1.011,8.632-5.857a8.864,8.864,0,0,0,8.856-.356,3.643,3.643,0,1,0,3.915-5.421Z" fill="#fff"/>
                  <g id="Grupo_130101" data-name="Grupo 130101" style="mix-blend-mode: multiply;isolation: isolate">
                    <path id="Trazado_189372" data-name="Trazado 189372" d="M504.484,554.214c-.1.054-.177.117-.265.177.034.1.078.19.113.283C504.37,554.516,504.436,554.367,504.484,554.214Z" fill="#c3e6fa"/>
                    <path id="Trazado_189373" data-name="Trazado 189373" d="M530.24,576.28a3.627,3.627,0,0,1-3.088-1.783,8.9,8.9,0,0,1-8.855.353c-2.517,4.846-6.373.991-8.633,5.857a7.307,7.307,0,0,0-.374.994c2.045-.78,4.414.009,6.146-3.326a8.864,8.864,0,0,0,8.856-.356,3.64,3.64,0,0,0,6.773-1.824v-.006A3.47,3.47,0,0,1,530.24,576.28Z" fill="#c3e6fa"/>
                    <path id="Trazado_189374" data-name="Trazado 189374" d="M497.369,580.416s-4.054-1.093-4.966-3.374a4,4,0,0,1-5.646-.822,7.114,7.114,0,0,1-11.581,2.27,15.4,15.4,0,0,1-22.933-19.823,15.4,15.4,0,0,0,20.074,23.347,7.112,7.112,0,0,0,11.58-2.27,4.014,4.014,0,0,0,5.647.825,4.789,4.789,0,0,0,4.964,3.371c2.565.027,3.6-3.044,5.979-.683C501.005,579.788,497.369,580.416,497.369,580.416Z" fill="#c3e6fa"/>
                  </g>
                  <path id="Trazado_189375" data-name="Trazado 189375" d="M513.017,546.35a2.209,2.209,0,1,1-2.187-2.23A2.209,2.209,0,0,1,513.017,546.35Z" fill="#bee4fa"/>
                  <path id="Trazado_189376" data-name="Trazado 189376" d="M498.967,546.039a2.21,2.21,0,1,1-2.187-2.235A2.21,2.21,0,0,1,498.967,546.039Z" fill="#bee4fa"/>
                  <path id="Trazado_189377" data-name="Trazado 189377" d="M524.759,554.47A4.422,4.422,0,1,1,520.385,550,4.419,4.419,0,0,1,524.759,554.47Z" fill="#bee4fa"/>
                  <path id="Trazado_189378" data-name="Trazado 189378" d="M498.242,568.035a6.1,6.1,0,0,0-11.646-2.612,4.407,4.407,0,0,0-7.762,2.825" fill="#fff"/>
                  <path id="Trazado_189379" data-name="Trazado 189379" d="M483.28,565.774a4.392,4.392,0,0,1,3.294,1.552,6.1,6.1,0,0,1,11.364.712l.3,0a6.1,6.1,0,0,0-11.646-2.612,4.407,4.407,0,0,0-7.762,2.825l.452,0A4.408,4.408,0,0,1,483.28,565.774Z" fill="#c3e6fa" style="mix-blend-mode: multiply;isolation: isolate"/>
                  <path id="Trazado_189380" data-name="Trazado 189380" d="M468.62,555.8c2.525.984,5.9,5.095,5.75,7.66l.284.108c1.23-3.14-.807-8.16-3.947-9.392A5.156,5.156,0,0,0,468.62,555.8Z" fill="#c3e6fa" style="mix-blend-mode: multiply;isolation: isolate"/>
                  <path id="Trazado_189381" data-name="Trazado 189381" d="M521.482,544.048a1.354,1.354,0,1,1-1.338-1.371A1.351,1.351,0,0,1,521.482,544.048Z" fill="#bee4fa"/>
                  <path id="Trazado_189382" data-name="Trazado 189382" d="M498.8,537.5a1.105,1.105,0,1,1-1.091-1.116A1.1,1.1,0,0,1,498.8,537.5Z" fill="#bee4fa"/>
                  <path id="Trazado_189383" data-name="Trazado 189383" d="M492.21,543.46a2.322,2.322,0,1,1-2.3-2.343A2.32,2.32,0,0,1,492.21,543.46Z" fill="#bee4fa"/>
                  <path id="Trazado_189384" data-name="Trazado 189384" d="M502.032,539.33a1.161,1.161,0,1,1-1.083,1.234A1.163,1.163,0,0,1,502.032,539.33Z" fill="#bee4fa"/>
                  <path id="Trazado_189385" data-name="Trazado 189385" d="M501.9,548.247a1.657,1.657,0,1,1-1.545,1.762A1.659,1.659,0,0,1,501.9,548.247Z" fill="#bee4fa"/>
                  <path id="Trazado_189386" data-name="Trazado 189386" d="M486.6,565.423a6.028,6.028,0,0,1,1.076,2.529" fill="none"/>
                  <path id="Trazado_189387" data-name="Trazado 189387" d="M468.62,555.8a9.855,9.855,0,0,1,5.437,7.034" fill="none"/>
                  <line id="Línea_362" data-name="Línea 362" x1="0.122" y2="1.591" transform="translate(513.688 559.541)" fill="none"/>
                  <path id="Trazado_189388" data-name="Trazado 189388" d="M528.207,572.6a4.508,4.508,0,0,0-3.33.755" fill="none"/>
                  <path id="Trazado_189389" data-name="Trazado 189389" d="M524.006,554.162a2.935,2.935,0,1,1-2.9-2.961A2.938,2.938,0,0,1,524.006,554.162Z" fill="#fff"/>
                  <path id="Trazado_189390" data-name="Trazado 189390" d="M512.429,546.347a1.381,1.381,0,1,1-1.365-1.4A1.384,1.384,0,0,1,512.429,546.347Z" fill="#fff"/>
                  <path id="Trazado_189391" data-name="Trazado 189391" d="M521.026,544.161a.656.656,0,1,1-.649-.662A.657.657,0,0,1,521.026,544.161Z" fill="#fff"/>
                  <path id="Trazado_189392" data-name="Trazado 189392" d="M491.667,543.235a1.305,1.305,0,1,1-1.292-1.318A1.3,1.3,0,0,1,491.667,543.235Z" fill="#fff"/>
                  <path id="Trazado_189393" data-name="Trazado 189393" d="M498.507,545.994a1.314,1.314,0,1,1-1.3-1.332A1.315,1.315,0,0,1,498.507,545.994Z" fill="#fff"/>
                  <path id="Trazado_189394" data-name="Trazado 189394" d="M502.088,548.816a.961.961,0,1,1-.9,1.022A.956.956,0,0,1,502.088,548.816Z" fill="#fff"/>
                  <path id="Trazado_189395" data-name="Trazado 189395" d="M502.071,539.933a.373.373,0,1,1-.346.392A.368.368,0,0,1,502.071,539.933Z" fill="#fff"/>
                  <path id="Trazado_189396" data-name="Trazado 189396" d="M498.419,537.624a.622.622,0,1,1-1.243-.012.622.622,0,1,1,1.243.012Z" fill="#fff"/>
                </g>
              </g>
            </g>
            <g id="Grupo_130107" data-name="Grupo 130107">
              <g id="Grupo_130105" data-name="Grupo 130105">
                <path id="Trazado_189397" data-name="Trazado 189397" d="M606.334,555.316H556.558l-9.333-103.441h66.108Z" fill="#8dcbd7"/>
                <rect id="Rectángulo_40992" data-name="Rectángulo 40992" width="66.108" height="9.331" transform="translate(547.225 442.544)" fill="#a0d1d8"/>
              </g>
              <g id="Grupo_130106" data-name="Grupo 130106" style="mix-blend-mode: multiply;isolation: isolate">
                <path id="Trazado_189398" data-name="Trazado 189398" d="M572.345,535.5c-13.3-15.035-14.825-40.457-13.6-59.5a67.631,67.631,0,0,1,5.959-24.125H547.225l9.333,103.441h49.776l.888-13.138C594.82,545.535,581.82,546.211,572.345,535.5Z" fill="#dde5e9"/>
                <path id="Trazado_189399" data-name="Trazado 189399" d="M569.705,442.544h-22.48v9.331h17.481A83.066,83.066,0,0,1,569.705,442.544Z" fill="#dde5e9"/>
              </g>
              <path id="Trazado_189400" data-name="Trazado 189400" d="M600.306,586.425h-37.72c-4.279,0-6.028-2.528-6.028-5.25V555.316h49V581.37C605.555,583.9,604.389,586.425,600.306,586.425Z" fill="#46323f"/>
              <path id="Trazado_189401" data-name="Trazado 189401" d="M580.376,580.01c-4.278,0-6.028-2.528-6.028-5.25V555.316h-17.79v25.859c0,2.722,1.749,5.25,6.028,5.25h37.72c4.083,0,5.249-2.528,5.249-5.055v-1.36Z" fill="#dde5e9" style="mix-blend-mode: multiply;isolation: isolate"/>
              <path id="Trazado_189402" data-name="Trazado 189402" d="M556.558,580.01v1.165c0,2.722,1.749,5.25,6.028,5.25h37.72c4.083,0,5.249-2.528,5.249-5.055v-1.36Z" fill="#503949"/>
              <path id="Trazado_189403" data-name="Trazado 189403" d="M579.262,580.01a6.561,6.561,0,1,1,13.122,0Z" fill="#503949"/>
              <path id="Trazado_189404" data-name="Trazado 189404" d="M550.832,451.875h-2.2l1.1-7.873Z" fill="#c8d0d5" style="mix-blend-mode: multiply;isolation: isolate"/>
              <path id="Trazado_189405" data-name="Trazado 189405" d="M556.835,451.875h-2.2l1.1-7.873Z" fill="#c8d0d5" style="mix-blend-mode: multiply;isolation: isolate"/>
              <path id="Trazado_189406" data-name="Trazado 189406" d="M562.836,451.875h-2.2l1.1-7.873Z" fill="#c8d0d5" style="mix-blend-mode: multiply;isolation: isolate"/>
              <path id="Trazado_189407" data-name="Trazado 189407" d="M568.838,451.875h-2.2l1.1-7.873Z" fill="#c8d0d5" style="mix-blend-mode: multiply;isolation: isolate"/>
              <path id="Trazado_189408" data-name="Trazado 189408" d="M574.84,451.875h-2.2l1.1-7.873Z" fill="#c8d0d5" style="mix-blend-mode: multiply;isolation: isolate"/>
              <path id="Trazado_189409" data-name="Trazado 189409" d="M580.842,451.875h-2.2l1.1-7.873Z" fill="#c8d0d5" style="mix-blend-mode: multiply;isolation: isolate"/>
              <path id="Trazado_189410" data-name="Trazado 189410" d="M586.845,451.875h-2.2l1.1-7.873Z" fill="#c8d0d5" style="mix-blend-mode: multiply;isolation: isolate"/>
              <path id="Trazado_189411" data-name="Trazado 189411" d="M592.846,451.875h-2.2l1.1-7.873Z" fill="#c8d0d5" style="mix-blend-mode: multiply;isolation: isolate"/>
              <path id="Trazado_189412" data-name="Trazado 189412" d="M598.847,451.875h-2.2l1.1-7.873Z" fill="#c8d0d5" style="mix-blend-mode: multiply;isolation: isolate"/>
              <path id="Trazado_189413" data-name="Trazado 189413" d="M604.85,451.875h-2.2l1.1-7.873Z" fill="#c8d0d5" style="mix-blend-mode: multiply;isolation: isolate"/>
              <path id="Trazado_189414" data-name="Trazado 189414" d="M610.851,451.875h-2.2l1.1-7.873Z" fill="#c8d0d5" style="mix-blend-mode: multiply;isolation: isolate"/>
            </g>
          </g>
          <g id="Grupo_130114" data-name="Grupo 130114">
            <g id="Grupo_130109" data-name="Grupo 130109">
              <path id="Trazado_189415" data-name="Trazado 189415" d="M663.724,483.318s5.5-.243,6.925-1.761,3.091-6.442,3.091-6.442-.181,4.867,1.763,6.924,6.44,3.09,6.44,3.09-5.237-.414-6.923,1.763a27.016,27.016,0,0,0-3.09,6.441s.018-5.178-1.763-6.923S663.724,483.318,663.724,483.318Z" fill="#fff"/>
              <path id="Trazado_189416" data-name="Trazado 189416" d="M640.107,496.943s2.384,1.117,3.329.791a12.532,12.532,0,0,0,2.74-2.048s-1.161,2.024-.789,3.329a7.525,7.525,0,0,0,2.043,2.739s-2.126-1.337-3.325-.788a12.966,12.966,0,0,0-2.741,2.046s1.156-2.192.788-3.328A9.544,9.544,0,0,0,640.107,496.943Z" fill="#fff"/>
              <path id="Trazado_189417" data-name="Trazado 189417" d="M674.249,504.236s2.387,1.118,3.33.792a12.513,12.513,0,0,0,2.741-2.049s-1.159,2.025-.79,3.329a7.512,7.512,0,0,0,2.042,2.74s-2.125-1.338-3.323-.788a12.963,12.963,0,0,0-2.742,2.045s1.158-2.192.789-3.327A9.567,9.567,0,0,0,674.249,504.236Z" fill="#fff"/>
              <path id="Trazado_189418" data-name="Trazado 189418" d="M676.353,448.8s1.038-.857,1.089-1.364a6.343,6.343,0,0,0-.345-1.713s.683.976,1.363,1.09a3.9,3.9,0,0,0,1.715-.348s-1.081.691-1.091,1.367a6.553,6.553,0,0,0,.347,1.711s-.761-1.013-1.362-1.09A4.9,4.9,0,0,0,676.353,448.8Z" fill="#fff"/>
              <path id="Trazado_189419" data-name="Trazado 189419" d="M670.632,462.47s.767-.034.969-.246a3.765,3.765,0,0,0,.43-.9,1.628,1.628,0,0,0,.244.964,2.194,2.194,0,0,0,.9.432s-.731-.059-.967.245a3.811,3.811,0,0,0-.428.9s0-.722-.245-.968A2.875,2.875,0,0,0,670.632,462.47Z" fill="#fff"/>
              <path id="Trazado_189420" data-name="Trazado 189420" d="M657.378,514.244s1.038-.86,1.092-1.367a6.445,6.445,0,0,0-.347-1.714s.682.976,1.366,1.091a3.856,3.856,0,0,0,1.711-.35s-1.082.693-1.091,1.366a6.631,6.631,0,0,0,.348,1.714s-.761-1.014-1.365-1.089A4.874,4.874,0,0,0,657.378,514.244Z" fill="#fff"/>
              <path id="Trazado_189421" data-name="Trazado 189421" d="M666.526,531.367s.767-.033.966-.246a3.6,3.6,0,0,0,.43-.9,1.667,1.667,0,0,0,.246.965,2.2,2.2,0,0,0,.9.431s-.73-.058-.967.247a3.7,3.7,0,0,0-.43.9s0-.72-.246-.964A2.775,2.775,0,0,0,666.526,531.367Z" fill="#fff"/>
              <path id="Trazado_189422" data-name="Trazado 189422" d="M692.657,476.04s.539.547.828.554a3.6,3.6,0,0,0,.96-.283s-.522.437-.553.83a2.192,2.192,0,0,0,.285.956s-.446-.582-.831-.552a3.85,3.85,0,0,0-.954.286s.538-.485.55-.831A2.855,2.855,0,0,0,692.657,476.04Z" fill="#fff"/>
            </g>
            <g id="Grupo_130110" data-name="Grupo 130110">
              <path id="Trazado_189423" data-name="Trazado 189423" d="M554.309,396.373s1.607-5.261.654-7.113-5.036-5.068-5.036-5.068,4.525,1.8,7.112.654,5.069-5.035,5.069-5.035-2.143,4.795-.656,7.114a27.148,27.148,0,0,0,5.038,5.068s-4.875-1.749-7.117-.657S554.309,396.373,554.309,396.373Z" fill="#fff"/>
              <path id="Trazado_189424" data-name="Trazado 189424" d="M519.558,413.124s1.848-1.876,1.854-2.873a12.379,12.379,0,0,0-1.011-3.268s1.52,1.767,2.872,1.858a7.541,7.541,0,0,0,3.268-1.012s-1.973,1.557-1.858,2.873a13.041,13.041,0,0,0,1.014,3.267s-1.682-1.823-2.874-1.859A9.587,9.587,0,0,0,519.558,413.124Z" fill="#fff"/>
              <path id="Trazado_189425" data-name="Trazado 189425" d="M507.825,355.277s-.46-1.266-.92-1.486a6.291,6.291,0,0,0-1.73-.244s1.145-.316,1.482-.923a3.882,3.882,0,0,0,.245-1.731s.288,1.25.922,1.483a6.618,6.618,0,0,0,1.734.246s-1.211.379-1.486.924A4.889,4.889,0,0,0,507.825,355.277Z" fill="#fff"/>
              <path id="Trazado_189426" data-name="Trazado 189426" d="M493.008,379.521s.226-.735.088-.992a3.513,3.513,0,0,0-.7-.708,1.649,1.649,0,0,0,.993.091,2.186,2.186,0,0,0,.707-.7s-.3.67-.091.994a3.81,3.81,0,0,0,.7.707s-.679-.245-.994-.093A2.792,2.792,0,0,0,493.008,379.521Z" fill="#fff"/>
              <path id="Trazado_189427" data-name="Trazado 189427" d="M566.539,431.032s1.849-1.874,1.855-2.87a12.381,12.381,0,0,0-1.012-3.269s1.523,1.769,2.873,1.856a7.524,7.524,0,0,0,3.267-1.01s-1.975,1.559-1.855,2.872a12.921,12.921,0,0,0,1.011,3.268s-1.681-1.824-2.873-1.857A9.534,9.534,0,0,0,566.539,431.032Z" fill="#fff"/>
              <path id="Trazado_189428" data-name="Trazado 189428" d="M579.99,384.993s-.463-1.265-.925-1.485a6.338,6.338,0,0,0-1.73-.245s1.15-.317,1.484-.923a3.894,3.894,0,0,0,.245-1.731s.289,1.252.918,1.484a6.629,6.629,0,0,0,1.736.247s-1.209.377-1.484.922A4.906,4.906,0,0,0,579.99,384.993Z" fill="#fff"/>
              <path id="Trazado_189429" data-name="Trazado 189429" d="M544.832,404.922s-.463-1.262-.921-1.483a6.374,6.374,0,0,0-1.733-.245s1.152-.318,1.482-.922a3.807,3.807,0,0,0,.247-1.732s.29,1.251.925,1.485a6.573,6.573,0,0,0,1.732.245s-1.213.38-1.489.923A4.92,4.92,0,0,0,544.832,404.922Z" fill="#fff"/>
              <path id="Trazado_189430" data-name="Trazado 189430" d="M577.85,407.543s.224-.736.093-.995a3.672,3.672,0,0,0-.705-.706,1.646,1.646,0,0,0,1,.09,2.216,2.216,0,0,0,.706-.7s-.3.668-.092.992a3.753,3.753,0,0,0,.7.708,1.778,1.778,0,0,0-.993-.092A2.809,2.809,0,0,0,577.85,407.543Z" fill="#fff"/>
              <path id="Trazado_189431" data-name="Trazado 189431" d="M534.655,353.7s.693-.325.8-.6a3.68,3.68,0,0,0,.048-1s.242.636.6.8a2.191,2.191,0,0,0,1,.052s-.7.23-.794.6a3.726,3.726,0,0,0-.057,1s-.275-.669-.6-.8A2.834,2.834,0,0,0,534.655,353.7Z" fill="#fff"/>
              <path id="Trazado_189432" data-name="Trazado 189432" d="M572.793,358.663s.692-.326.794-.6a3.512,3.512,0,0,0,.053-.994s.238.636.6.8a2.21,2.21,0,0,0,1,.052s-.7.228-.8.6a3.946,3.946,0,0,0-.052.995s-.276-.666-.6-.795A2.779,2.779,0,0,0,572.793,358.663Z" fill="#fff"/>
            </g>
            <g id="Grupo_130111" data-name="Grupo 130111">
              <path id="Trazado_189433" data-name="Trazado 189433" d="M641.038,429.783s1.607-5.262.652-7.114-5.034-5.067-5.034-5.067,4.523,1.8,7.11.653,5.069-5.035,5.069-5.035-2.143,4.8-.654,7.114a27.152,27.152,0,0,0,5.035,5.069s-4.874-1.749-7.115-.657S641.038,429.783,641.038,429.783Z" fill="#fff"/>
              <path id="Trazado_189434" data-name="Trazado 189434" d="M606.286,446.534s1.849-1.877,1.852-2.874a12.337,12.337,0,0,0-1.007-3.268s1.52,1.768,2.87,1.859a7.553,7.553,0,0,0,3.27-1.012s-1.975,1.557-1.861,2.872a13.082,13.082,0,0,0,1.014,3.268s-1.681-1.823-2.874-1.859A9.579,9.579,0,0,0,606.286,446.534Z" fill="#fff"/>
              <path id="Trazado_189435" data-name="Trazado 189435" d="M594.554,388.686s-.463-1.265-.921-1.486a6.325,6.325,0,0,0-1.731-.243s1.145-.317,1.481-.923a3.849,3.849,0,0,0,.247-1.731s.287,1.251.921,1.483a6.631,6.631,0,0,0,1.734.246s-1.21.379-1.485.924A4.873,4.873,0,0,0,594.554,388.686Z" fill="#fff"/>
              <path id="Trazado_189436" data-name="Trazado 189436" d="M579.735,412.932s.227-.736.091-.994a3.577,3.577,0,0,0-.7-.707,1.659,1.659,0,0,0,.994.091,2.2,2.2,0,0,0,.707-.7s-.3.669-.091.994a3.784,3.784,0,0,0,.7.7s-.68-.244-.994-.092A2.836,2.836,0,0,0,579.735,412.932Z" fill="#fff"/>
              <path id="Trazado_189437" data-name="Trazado 189437" d="M653.266,464.442s1.849-1.875,1.858-2.87a12.4,12.4,0,0,0-1.014-3.269s1.522,1.77,2.874,1.857a7.54,7.54,0,0,0,3.266-1.011s-1.973,1.559-1.856,2.872a12.851,12.851,0,0,0,1.011,3.267s-1.679-1.824-2.871-1.856A9.542,9.542,0,0,0,653.266,464.442Z" fill="#fff"/>
              <path id="Trazado_189438" data-name="Trazado 189438" d="M666.718,418.4s-.463-1.265-.926-1.485a6.317,6.317,0,0,0-1.728-.245s1.151-.316,1.483-.922a3.865,3.865,0,0,0,.245-1.731s.29,1.252.918,1.484a6.679,6.679,0,0,0,1.735.245s-1.209.377-1.482.922A4.9,4.9,0,0,0,666.718,418.4Z" fill="#fff"/>
              <path id="Trazado_189439" data-name="Trazado 189439" d="M631.56,438.332s-.464-1.263-.921-1.484a6.358,6.358,0,0,0-1.733-.244s1.152-.318,1.483-.923a3.823,3.823,0,0,0,.246-1.73s.29,1.251.927,1.484a6.576,6.576,0,0,0,1.731.246s-1.212.379-1.489.921A4.908,4.908,0,0,0,631.56,438.332Z" fill="#fff"/>
              <path id="Trazado_189440" data-name="Trazado 189440" d="M664.58,440.954s.223-.737.092-1a3.748,3.748,0,0,0-.705-.707,1.641,1.641,0,0,0,.995.09,2.228,2.228,0,0,0,.706-.7s-.3.669-.093.994a3.831,3.831,0,0,0,.7.707s-.676-.244-.993-.091A2.792,2.792,0,0,0,664.58,440.954Z" fill="#fff"/>
              <path id="Trazado_189441" data-name="Trazado 189441" d="M621.383,387.114s.693-.325.8-.6a3.587,3.587,0,0,0,.051-1s.239.637.6.8a2.171,2.171,0,0,0,1,.052s-.7.23-.794.6a3.763,3.763,0,0,0-.057,1s-.273-.669-.6-.8A2.834,2.834,0,0,0,621.383,387.114Z" fill="#fff"/>
              <path id="Trazado_189442" data-name="Trazado 189442" d="M659.519,392.074s.7-.327.8-.6a3.584,3.584,0,0,0,.051-1s.241.636.6.8a2.2,2.2,0,0,0,1,.053s-.7.227-.8.6a3.933,3.933,0,0,0-.051,1s-.277-.667-.6-.8A2.773,2.773,0,0,0,659.519,392.074Z" fill="#fff"/>
            </g>
            <g id="Grupo_130112" data-name="Grupo 130112">
              <path id="Trazado_189443" data-name="Trazado 189443" d="M450.653,385.227s-4.132-3.63-4.3-5.706,1.62-6.96,1.62-6.96-2.9,3.911-5.709,4.3-6.958-1.62-6.958-1.62,4.343,2.954,4.3,5.707a27.11,27.11,0,0,1-1.623,6.959s3.227-4.048,5.712-4.3S450.653,385.227,450.653,385.227Z" fill="#fff"/>
              <path id="Trazado_189444" data-name="Trazado 189444" d="M470.234,392.07s-2.562-.622-3.091-1.467a12.434,12.434,0,0,1-.856-3.311s-.364,2.3-1.47,3.09a7.536,7.536,0,0,1-3.309.855s2.5.289,3.092,1.468a13.2,13.2,0,0,1,.855,3.31s.466-2.433,1.466-3.087A9.55,9.55,0,0,1,470.234,392.07Z" fill="#fff"/>
              <path id="Trazado_189445" data-name="Trazado 189445" d="M453.181,355.244s-.27-1.316.006-1.748a6.347,6.347,0,0,1,1.341-1.118,2.875,2.875,0,0,1-1.746,0,3.847,3.847,0,0,1-1.116-1.346s.409,1.218-.007,1.749a6.6,6.6,0,0,1-1.342,1.118s1.227-.313,1.749.005A4.9,4.9,0,0,1,453.181,355.244Z" fill="#fff"/>
              <path id="Trazado_189446" data-name="Trazado 189446" d="M469.411,367.494s-.578-.5-.6-.8a3.51,3.51,0,0,1,.228-.97s-.4.546-.8.6a2.2,2.2,0,0,1-.972-.227s.607.414.6.8a3.879,3.879,0,0,1-.228.97s.451-.565.8-.6A2.8,2.8,0,0,1,469.411,367.494Z" fill="#fff"/>
              <path id="Trazado_189447" data-name="Trazado 189447" d="M420.536,422.008s-2.558-.621-3.087-1.467a12.432,12.432,0,0,1-.859-3.311s-.36,2.3-1.467,3.091a7.524,7.524,0,0,1-3.309.856s2.5.29,3.088,1.467a12.915,12.915,0,0,1,.858,3.313s.468-2.436,1.466-3.091A9.563,9.563,0,0,1,420.536,422.008Z" fill="#fff"/>
              <path id="Trazado_189448" data-name="Trazado 189448" d="M402.92,414.435s-.271-1.32,0-1.747a6.43,6.43,0,0,1,1.345-1.119,2.887,2.887,0,0,1-1.745-.005,3.843,3.843,0,0,1-1.118-1.344s.406,1.217-.006,1.748a6.682,6.682,0,0,1-1.345,1.119s1.228-.316,1.747.005A4.849,4.849,0,0,1,402.92,414.435Z" fill="#fff"/>
              <path id="Trazado_189449" data-name="Trazado 189449" d="M435.335,410s-.271-1.319.005-1.747a6.307,6.307,0,0,1,1.344-1.12,2.9,2.9,0,0,1-1.749,0,3.845,3.845,0,0,1-1.117-1.344s.41,1.217-.006,1.745a6.624,6.624,0,0,1-1.344,1.12s1.23-.313,1.749.006A4.843,4.843,0,0,1,435.335,410Z" fill="#fff"/>
              <path id="Trazado_189450" data-name="Trazado 189450" d="M418.016,391.894s-.577-.507-.6-.8a3.585,3.585,0,0,1,.226-.971s-.4.548-.794.6a2.211,2.211,0,0,1-.974-.227s.607.41.6.8a3.729,3.729,0,0,1-.226.969s.452-.565.8-.6A2.812,2.812,0,0,1,418.016,391.894Z" fill="#fff"/>
              <path id="Trazado_189451" data-name="Trazado 189451" d="M409.884,366.441s-.764.088-.995-.092a3.725,3.725,0,0,1-.566-.819,1.654,1.654,0,0,1-.089.994,2.187,2.187,0,0,1-.822.566s.714-.17,1,.093a3.786,3.786,0,0,1,.567.819s-.114-.713.092-.993A2.769,2.769,0,0,1,409.884,366.441Z" fill="#fff"/>
              <path id="Trazado_189452" data-name="Trazado 189452" d="M395.538,390.969s-.761.089-.992-.087a3.775,3.775,0,0,1-.568-.822,1.636,1.636,0,0,1-.088.992,2.179,2.179,0,0,1-.823.568s.715-.174.994.09a3.8,3.8,0,0,1,.568.82s-.114-.713.092-.992A2.764,2.764,0,0,1,395.538,390.969Z" fill="#fff"/>
            </g>
            <g id="Grupo_130113" data-name="Grupo 130113">
              <path id="Trazado_189453" data-name="Trazado 189453" d="M415.58,529.808s-2.28-5.009-1.572-6.969,4.335-5.676,4.335-5.676-4.252,2.37-6.968,1.572-5.682-4.337-5.682-4.337,2.747,4.478,1.577,6.969a27.18,27.18,0,0,1-4.336,5.678s4.6-2.366,6.968-1.571S415.58,529.808,415.58,529.808Z" fill="#fff"/>
              <path id="Trazado_189454" data-name="Trazado 189454" d="M417.687,491.636s-2.078-1.618-2.215-2.607a12.564,12.564,0,0,1,.579-3.371s-1.275,1.951-2.6,2.216a7.559,7.559,0,0,1-3.374-.58s2.162,1.289,2.216,2.607a12.9,12.9,0,0,1-.577,3.371s1.428-2.024,2.606-2.214A9.594,9.594,0,0,1,417.687,491.636Z" fill="#fff"/>
              <path id="Trazado_189455" data-name="Trazado 189455" d="M411.877,442.672s.3-1.313.725-1.59a6.386,6.386,0,0,1,1.684-.468,2.892,2.892,0,0,1-1.593-.722,3.85,3.85,0,0,1-.468-1.685s-.124,1.28-.723,1.592a6.576,6.576,0,0,1-1.68.467s1.248.218,1.589.721A4.867,4.867,0,0,1,411.877,442.672Z" fill="#fff"/>
              <path id="Trazado_189456" data-name="Trazado 189456" d="M429.721,464.792s-.317-.7-.221-.974a3.626,3.626,0,0,1,.606-.792,1.658,1.658,0,0,1-.976.219,2.223,2.223,0,0,1-.79-.606s.383.625.218.974a3.8,3.8,0,0,1-.605.793s.643-.331.974-.221A2.809,2.809,0,0,1,429.721,464.792Z" fill="#fff"/>
              <path id="Trazado_189457" data-name="Trazado 189457" d="M398.638,508.73s-2.082-1.622-2.215-2.609a12.554,12.554,0,0,1,.58-3.371s-1.277,1.953-2.607,2.217a7.556,7.556,0,0,1-3.373-.581s2.161,1.288,2.217,2.607a13.058,13.058,0,0,1-.578,3.37s1.423-2.027,2.605-2.214A9.578,9.578,0,0,1,398.638,508.73Z" fill="#fff"/>
              <path id="Trazado_189458" data-name="Trazado 189458" d="M420.565,506.539s.294-1.313.721-1.59a6.342,6.342,0,0,1,1.683-.468,2.88,2.88,0,0,1-1.588-.723,3.841,3.841,0,0,1-.469-1.684s-.124,1.278-.725,1.593a6.663,6.663,0,0,1-1.681.466s1.246.217,1.592.724A4.884,4.884,0,0,1,420.565,506.539Z" fill="#fff"/>
              <path id="Trazado_189459" data-name="Trazado 189459" d="M384.935,473.954s.3-1.315.721-1.593a6.4,6.4,0,0,1,1.689-.465,2.913,2.913,0,0,1-1.6-.724,3.865,3.865,0,0,1-.464-1.683s-.124,1.277-.721,1.591a6.647,6.647,0,0,1-1.685.467s1.247.219,1.591.722A4.9,4.9,0,0,1,384.935,473.954Z" fill="#fff"/>
              <path id="Trazado_189460" data-name="Trazado 189460" d="M387.64,523.815s-.319-.7-.221-.975a3.653,3.653,0,0,1,.607-.792,1.656,1.656,0,0,1-.973.219,2.2,2.2,0,0,1-.794-.605s.385.622.219.973a3.634,3.634,0,0,1-.605.791s.643-.328.971-.218A2.745,2.745,0,0,1,387.64,523.815Z" fill="#fff"/>
              <path id="Trazado_189461" data-name="Trazado 189461" d="M376.142,454.7s-.732-.234-.87-.491a3.562,3.562,0,0,1-.181-.98s-.155.664-.491.867a2.2,2.2,0,0,1-.98.184s.721.133.87.488a3.885,3.885,0,0,1,.177.981s.189-.7.491-.868A2.851,2.851,0,0,1,376.142,454.7Z" fill="#fff"/>
              <path id="Trazado_189462" data-name="Trazado 189462" d="M408.739,464.073s-.732-.235-.868-.49a3.568,3.568,0,0,1-.182-.98s-.154.662-.49.867a2.178,2.178,0,0,1-.982.182s.721.134.869.49a3.761,3.761,0,0,1,.179.982s.19-.7.491-.867A2.743,2.743,0,0,1,408.739,464.073Z" fill="#fff"/>
            </g>
          </g>
          <g id="Grupo_130130" data-name="Grupo 130130">
            <g id="Grupo_130125" data-name="Grupo 130125">
              <path id="Trazado_189463" data-name="Trazado 189463" d="M242,387.324c0-4.979-1.223-6.612-4.506-6.612H207.587c-4.555,0-6.7,1.289-6.7,6.612v5.94c0,8.409-3.041,15.292,3.391,15.292h35.742c6.433,0,1.977-6.883,1.977-15.292Z" fill="#b5b5b5"/>
              <path id="Trazado_189464" data-name="Trazado 189464" d="M238.7,380.712v-5c0-4.979-.954-6.612-3.516-6.612H211.826c-3.557,0-5.229,1.289-5.229,6.612v5Z" fill="#c7c7c7"/>
              <path id="Trazado_189465" data-name="Trazado 189465" d="M211.4,378.393v-5a10.758,10.758,0,0,1,.667-4.292h-.244c-3.557,0-5.229,1.289-5.229,6.612v5h32.1v-2.319Z" fill="#dfdfdf" style="mix-blend-mode: multiply;isolation: isolate"/>
              <path id="Trazado_189466" data-name="Trazado 189466" d="M231.131,369.1V358.816c0-4.978-1.864-4.64-3.217-4.64h-9.955c-1.88,0-3.8.86-3.8,4.64V369.1Z" fill="#d9d9d9"/>
              <path id="Trazado_189467" data-name="Trazado 189467" d="M247.479,575.543a6.285,6.285,0,0,1-6.474,6.614H200.93c-4.083,0-6.473-2.253-6.473-6.614v-3.667c0-6.89,4.719-12.529,10.487-12.529h32.05c5.767,0,10.485,5.639,10.485,12.529Z" fill="#076680"/>
              <path id="Trazado_189468" data-name="Trazado 189468" d="M207.476,398.76a1.669,1.669,0,0,1-1.611,1.72h0a1.668,1.668,0,0,1-1.61-1.72V387.932a1.667,1.667,0,0,1,1.61-1.72h0a1.667,1.667,0,0,1,1.611,1.72Z" fill="#ddd" style="mix-blend-mode: multiply;isolation: isolate"/>
              <path id="Trazado_189469" data-name="Trazado 189469" d="M215.36,398.76a1.669,1.669,0,0,1-1.608,1.72h0a1.669,1.669,0,0,1-1.611-1.72V387.932a1.667,1.667,0,0,1,1.611-1.72h0a1.667,1.667,0,0,1,1.608,1.72Z" fill="#ddd" style="mix-blend-mode: multiply;isolation: isolate"/>
              <path id="Trazado_189470" data-name="Trazado 189470" d="M223.248,398.76a1.669,1.669,0,0,1-1.612,1.72h0a1.668,1.668,0,0,1-1.609-1.72V387.932a1.666,1.666,0,0,1,1.609-1.72h0a1.667,1.667,0,0,1,1.612,1.72Z" fill="#ddd" style="mix-blend-mode: multiply;isolation: isolate"/>
              <path id="Trazado_189471" data-name="Trazado 189471" d="M231.131,398.76a1.668,1.668,0,0,1-1.608,1.72h0a1.668,1.668,0,0,1-1.609-1.72V387.932a1.666,1.666,0,0,1,1.609-1.72h0a1.666,1.666,0,0,1,1.608,1.72Z" fill="#ddd" style="mix-blend-mode: multiply;isolation: isolate"/>
              <path id="Trazado_189472" data-name="Trazado 189472" d="M239.1,398.76a1.668,1.668,0,0,1-1.608,1.72h0a1.669,1.669,0,0,1-1.611-1.72V387.932a1.667,1.667,0,0,1,1.611-1.72h0a1.666,1.666,0,0,1,1.608,1.72Z" fill="#ddd" style="mix-blend-mode: multiply;isolation: isolate"/>
              <path id="Trazado_189473" data-name="Trazado 189473" d="M252.769,565.955c0,5.883-3.525,10.7-7.835,10.7H197.023c-4.309,0-7.835-4.814-7.835-10.7V406.192c0-5.885,3.526-10.7,7.835-10.7h47.911c4.31,0,7.835,4.814,7.835,10.7Z" fill="#61b9d9"/>
              <rect id="Rectángulo_40993" data-name="Rectángulo 40993" width="56.048" height="90.237" transform="translate(194.457 447.573)" fill="#c3e6fa"/>
              <rect id="Rectángulo_40994" data-name="Rectángulo 40994" width="6.69" height="166.181" transform="translate(240.789 406.54)" fill="#fff" style="mix-blend-mode: soft-light;isolation: isolate"/>
              <rect id="Rectángulo_40995" data-name="Rectángulo 40995" width="3.346" height="166.181" transform="translate(234.278 406.54)" fill="#fff" style="mix-blend-mode: soft-light;isolation: isolate"/>
              <path id="Trazado_189474" data-name="Trazado 189474" d="M212,569.733c-4.309,0-7.837-4.814-7.837-10.7V425.371c0-28.778,27.1-29.878,27.1-29.878H197.023c-4.309,0-7.835,4.814-7.835,10.7V565.955c0,5.883,3.526,10.7,7.835,10.7h47.911c3.335,0,6.194-2.888,7.319-6.919Z" fill="#c5dae6" style="mix-blend-mode: multiply;isolation: isolate"/>
              <path id="Trazado_189475" data-name="Trazado 189475" d="M196.7,565.955V406.192c0-5.885,3.524-10.7,7.837-10.7h-7.513c-4.309,0-7.835,4.814-7.835,10.7V565.955c0,5.883,3.526,10.7,7.835,10.7h7.513C200.223,576.652,196.7,571.838,196.7,565.955Z" fill="#c5dae6" style="mix-blend-mode: multiply;isolation: isolate"/>
              <path id="Trazado_189476" data-name="Trazado 189476" d="M226.051,361.8a3.365,3.365,0,1,1-3.366-3.365A3.367,3.367,0,0,1,226.051,361.8Z" fill="#ababaa"/>
              <path id="Trazado_189477" data-name="Trazado 189477" d="M223.934,361.8a1.248,1.248,0,1,1-1.249-1.248A1.249,1.249,0,0,1,223.934,361.8Z" fill="#616160"/>
              <path id="Trazado_189478" data-name="Trazado 189478" d="M235.882,371.443a1.118,1.118,0,0,1-1.116,1.119H214.233a1.12,1.12,0,0,1-1.122-1.119h0a1.121,1.121,0,0,1,1.122-1.117h20.533a1.118,1.118,0,0,1,1.116,1.117Z" fill="#d9d9d9"/>
              <g id="Grupo_130116" data-name="Grupo 130116">
                <g id="Grupo_130115" data-name="Grupo 130115">
                  <path id="Trazado_189479" data-name="Trazado 189479" d="M222.685,361.8l1.074-.6a.058.058,0,0,1,.078.022.057.057,0,0,1-.022.078l-.005,0Z" fill="#fff"/>
                  <path id="Trazado_189480" data-name="Trazado 189480" d="M225.846,360.07l2.09-1.132a.226.226,0,0,1,.214.4l-.014.007-2.162.985a.144.144,0,0,1-.128-.257Z" fill="#fff"/>
                  <path id="Trazado_189481" data-name="Trazado 189481" d="M230.038,357.834l2.1-1.1a.328.328,0,0,1,.3.581l-.013.007-2.148,1.013a.278.278,0,0,1-.247-.5Z" fill="#fff"/>
                  <path id="Trazado_189482" data-name="Trazado 189482" d="M234.245,355.628l2.114-1.08a.4.4,0,0,1,.366.716l-.008,0-2.135,1.038a.378.378,0,0,1-.337-.677Z" fill="#fff"/>
                  <path id="Trazado_189483" data-name="Trazado 189483" d="M238.478,353.476,240.6,352.4a.435.435,0,1,1,.393.776l-.005,0-2.133,1.044a.418.418,0,0,1-.373-.749Z" fill="#fff"/>
                  <path id="Trazado_189484" data-name="Trazado 189484" d="M242.714,351.329l2.125-1.059a.453.453,0,0,1,.4.811h0l-2.127,1.057a.452.452,0,0,1-.4-.809Z" fill="#fff"/>
                  <path id="Trazado_189485" data-name="Trazado 189485" d="M246.972,349.227l2.133-1.043a.42.42,0,0,1,.374.751l-2.119,1.073a.436.436,0,0,1-.393-.778Z" fill="#fff"/>
                  <path id="Trazado_189486" data-name="Trazado 189486" d="M251.239,347.141l2.135-1.038a.38.38,0,0,1,.339.68l-2.116,1.079a.4.4,0,0,1-.365-.718Z" fill="#fff"/>
                  <path id="Trazado_189487" data-name="Trazado 189487" d="M255.522,345.09l2.148-1.013a.279.279,0,0,1,.248.5l-2.1,1.1a.329.329,0,1,1-.306-.583Z" fill="#fff"/>
                  <path id="Trazado_189488" data-name="Trazado 189488" d="M259.819,343.066l2.162-.984a.144.144,0,0,1,.129.258l-2.089,1.132a.227.227,0,0,1-.216-.4Z" fill="#fff"/>
                  <path id="Trazado_189489" data-name="Trazado 189489" d="M264.146,341.1l1.125-.5-1.074.6a.057.057,0,1,1-.056-.1Z" fill="#fff"/>
                </g>
              </g>
              <g id="Grupo_130118" data-name="Grupo 130118">
                <g id="Grupo_130117" data-name="Grupo 130117">
                  <path id="Trazado_189490" data-name="Trazado 189490" d="M222.685,361.8l1.146-.448a.057.057,0,0,1,.074.033.058.058,0,0,1-.032.075h-.006Z" fill="#fff"/>
                  <path id="Trazado_189491" data-name="Trazado 189491" d="M226.026,360.523l2.2-.829a.226.226,0,1,1,.16.423l-.015.005-2.25.673a.143.143,0,0,1-.179-.1A.145.145,0,0,1,226.026,360.523Z" fill="#fff"/>
                  <path id="Trazado_189492" data-name="Trazado 189492" d="M230.43,358.894l2.208-.8a.328.328,0,0,1,.223.617l-.013.005-2.24.7a.278.278,0,0,1-.178-.526Z" fill="#fff"/>
                  <path id="Trazado_189493" data-name="Trazado 189493" d="M234.844,357.3l2.216-.774a.4.4,0,1,1,.265.759l-.007,0-2.232.729a.378.378,0,0,1-.242-.716Z" fill="#fff"/>
                  <path id="Trazado_189494" data-name="Trazado 189494" d="M239.279,355.755l2.217-.767a.435.435,0,1,1,.285.823h-.006l-2.229.736a.418.418,0,0,1-.267-.793Z" fill="#fff"/>
                  <path id="Trazado_189495" data-name="Trazado 189495" d="M243.715,354.221l2.223-.752a.453.453,0,0,1,.29.858h0l-2.223.75a.452.452,0,0,1-.289-.856Z" fill="#fff"/>
                  <path id="Trazado_189496" data-name="Trazado 189496" d="M248.166,352.733,250.4,352a.419.419,0,0,1,.268.794l-2.218.768a.436.436,0,0,1-.286-.824Z" fill="#fff"/>
                  <path id="Trazado_189497" data-name="Trazado 189497" d="M252.624,351.263l2.23-.73a.38.38,0,0,1,.244.72l-2.216.772a.4.4,0,1,1-.265-.759Z" fill="#fff"/>
                  <path id="Trazado_189498" data-name="Trazado 189498" d="M257.094,349.829l2.239-.7a.279.279,0,0,1,.179.528l-2.207.8a.33.33,0,1,1-.224-.62Z" fill="#fff"/>
                  <path id="Trazado_189499" data-name="Trazado 189499" d="M261.573,348.423l2.25-.672a.145.145,0,0,1,.093.274l-2.2.829a.227.227,0,1,1-.161-.425Z" fill="#fff"/>
                  <path id="Trazado_189500" data-name="Trazado 189500" d="M266.074,347.081l1.183-.338-1.145.449a.06.06,0,0,1-.076-.034.058.058,0,0,1,.033-.075Z" fill="#fff"/>
                </g>
              </g>
              <g id="Grupo_130120" data-name="Grupo 130120">
                <g id="Grupo_130119" data-name="Grupo 130119">
                  <path id="Trazado_189501" data-name="Trazado 189501" d="M222.685,361.8l1.212-.208a.053.053,0,1,1,.017.1h0Z" fill="#fff"/>
                  <path id="Trazado_189502" data-name="Trazado 189502" d="M226.427,361.187l2.53-.406a.223.223,0,1,1,.07.441l-.014,0-2.551.241a.14.14,0,0,1-.035-.278Z" fill="#fff"/>
                  <path id="Trazado_189503" data-name="Trazado 189503" d="M231.491,360.4l2.534-.373a.327.327,0,1,1,.1.647l-.013,0-2.546.273a.277.277,0,0,1-.07-.549Z" fill="#fff"/>
                  <path id="Trazado_189504" data-name="Trazado 189504" d="M236.559,359.659l2.538-.347a.4.4,0,0,1,.109.8H239.2l-2.544.3a.378.378,0,0,1-.1-.749Z" fill="#fff"/>
                  <path id="Trazado_189505" data-name="Trazado 189505" d="M241.635,358.973l2.539-.34a.435.435,0,1,1,.115.862h-.006l-2.542.306a.418.418,0,0,1-.106-.829Z" fill="#fff"/>
                  <path id="Trazado_189506" data-name="Trazado 189506" d="M246.713,358.294l2.54-.325a.453.453,0,0,1,.115.9h0l-2.54.322a.451.451,0,1,1-.114-.895Z" fill="#fff"/>
                  <path id="Trazado_189507" data-name="Trazado 189507" d="M251.8,357.663l2.543-.307a.419.419,0,0,1,.1.832l-2.539.34a.436.436,0,0,1-.115-.865Z" fill="#fff"/>
                  <path id="Trazado_189508" data-name="Trazado 189508" d="M256.881,357.05l2.543-.3a.379.379,0,0,1,.1.752l-2.537.346a.4.4,0,0,1-.109-.8Z" fill="#fff"/>
                  <path id="Trazado_189509" data-name="Trazado 189509" d="M261.972,356.477l2.547-.272a.278.278,0,0,1,.07.551l-2.535.372a.328.328,0,1,1-.095-.649Z" fill="#fff"/>
                  <path id="Trazado_189510" data-name="Trazado 189510" d="M267.066,355.934l2.552-.24a.141.141,0,0,1,.035.28l-2.53.406a.225.225,0,0,1-.071-.444Z" fill="#fff"/>
                  <path id="Trazado_189511" data-name="Trazado 189511" d="M272.169,355.458l1.225-.1-1.211.208a.054.054,0,0,1-.062-.044.053.053,0,0,1,.044-.061Z" fill="#fff"/>
                </g>
              </g>
              <g id="Grupo_130122" data-name="Grupo 130122">
                <g id="Grupo_130121" data-name="Grupo 130121">
                  <path id="Trazado_189512" data-name="Trazado 189512" d="M222.685,361.8l1.19.31a.056.056,0,1,1-.028.108l-.006,0Z" fill="#fff"/>
                  <path id="Trazado_189513" data-name="Trazado 189513" d="M226.218,362.749l2.342.639a.225.225,0,0,1-.118.434l-.015-.005-2.293-.8a.142.142,0,0,1,.084-.272Z" fill="#fff"/>
                  <path id="Trazado_189514" data-name="Trazado 189514" d="M230.893,364.055l2.332.67a.328.328,0,1,1-.181.63l-.013,0-2.3-.766a.277.277,0,0,1,.164-.53Z" fill="#fff"/>
                  <path id="Trazado_189515" data-name="Trazado 189515" d="M235.557,365.395l2.325.7a.4.4,0,1,1-.23.769l-.008,0-2.31-.74a.378.378,0,0,1,.223-.722Z" fill="#fff"/>
                  <path id="Trazado_189516" data-name="Trazado 189516" d="M240.2,366.792l2.322.7a.435.435,0,1,1-.251.833l-.007,0-2.312-.733a.418.418,0,0,1,.248-.8Z" fill="#fff"/>
                  <path id="Trazado_189517" data-name="Trazado 189517" d="M244.849,368.2l2.317.717a.453.453,0,1,1-.267.865h0l-2.318-.719a.452.452,0,0,1,.268-.863Z" fill="#fff"/>
                  <path id="Trazado_189518" data-name="Trazado 189518" d="M249.479,369.646l2.312.734a.419.419,0,0,1-.248.8l-2.323-.7a.436.436,0,0,1,.253-.835Z" fill="#fff"/>
                  <path id="Trazado_189519" data-name="Trazado 189519" d="M254.1,371.114l2.311.739a.38.38,0,0,1-.225.726l-2.324-.7a.4.4,0,1,1,.23-.771Z" fill="#fff"/>
                  <path id="Trazado_189520" data-name="Trazado 189520" d="M258.717,372.619l2.3.766a.279.279,0,0,1-.166.533l-2.332-.67a.329.329,0,1,1,.182-.633Z" fill="#fff"/>
                  <path id="Trazado_189521" data-name="Trazado 189521" d="M263.321,374.153l2.293.8a.143.143,0,0,1-.085.273l-2.341-.638a.226.226,0,1,1,.118-.437Z" fill="#fff"/>
                  <path id="Trazado_189522" data-name="Trazado 189522" d="M267.9,375.751l1.157.417-1.19-.31a.056.056,0,0,1-.04-.069.057.057,0,0,1,.069-.04Z" fill="#fff"/>
                </g>
              </g>
              <g id="Grupo_130124" data-name="Grupo 130124">
                <g id="Grupo_130123" data-name="Grupo 130123">
                  <path id="Trazado_189523" data-name="Trazado 189523" d="M222.685,361.8l1.229.031a.061.061,0,0,1,.059.063.06.06,0,0,1-.062.059H223.9Z" fill="#fff"/>
                  <path id="Trazado_189524" data-name="Trazado 189524" d="M226.4,361.928l2.484.1a.241.241,0,1,1-.019.481h-.017l-2.471-.272a.154.154,0,0,1-.137-.171A.156.156,0,0,1,226.4,361.928Z" fill="#fff"/>
                  <path id="Trazado_189525" data-name="Trazado 189525" d="M231.365,362.162l2.483.131a.353.353,0,0,1-.038.7h-.015l-2.474-.243a.3.3,0,0,1,.044-.591Z" fill="#fff"/>
                  <path id="Trazado_189526" data-name="Trazado 189526" d="M236.329,362.437l2.479.169a.414.414,0,0,1-.057.826h-.006l-2.476-.206a.4.4,0,0,1,.06-.788Z" fill="#fff"/>
                  <path id="Trazado_189527" data-name="Trazado 189527" d="M241.287,362.774l2.479.17a.451.451,0,0,1-.061.9H243.7l-2.476-.205a.433.433,0,0,1,.065-.863Z" fill="#fff"/>
                  <path id="Trazado_189528" data-name="Trazado 189528" d="M246.244,363.129l2.476.206a.433.433,0,0,1-.065.863l-2.479-.168a.452.452,0,0,1,.061-.9Z" fill="#fff"/>
                  <path id="Trazado_189529" data-name="Trazado 189529" d="M251.2,363.541l2.476.205a.4.4,0,0,1-.06.789l-2.479-.168a.414.414,0,0,1,.057-.827Z" fill="#fff"/>
                  <path id="Trazado_189530" data-name="Trazado 189530" d="M256.148,363.975l2.473.243a.3.3,0,0,1-.044.594l-2.483-.131a.354.354,0,0,1,.037-.707Z" fill="#fff"/>
                  <path id="Trazado_189531" data-name="Trazado 189531" d="M261.1,364.462l2.471.271a.156.156,0,0,1-.023.311l-2.485-.1a.242.242,0,0,1,.02-.483Z" fill="#fff"/>
                  <path id="Trazado_189532" data-name="Trazado 189532" d="M266.037,365.015l1.22.154-1.23-.032a.061.061,0,1,1,0-.122Z" fill="#fff"/>
                </g>
              </g>
            </g>
            <g id="Grupo_130127" data-name="Grupo 130127">
              <path id="Trazado_189533" data-name="Trazado 189533" d="M326.13,575.067c0,4.845-4.3,7.853-9.64,7.853H256.821c-6.079,0-9.637-2.674-9.637-7.853V570.71c0-8.182,7.026-14.878,15.611-14.878h47.721c8.589,0,15.614,6.7,15.614,14.878Z" fill="#d7501f"/>
              <g id="Grupo_130126" data-name="Grupo 130126">
                <path id="Trazado_189534" data-name="Trazado 189534" d="M334.176,481.288c-.084-.967-.139-1.969-.139-3v-5.683c0-4.765-.92-6.328-3.393-6.328H244.958c-3.429,0-5.043,1.233-5.043,6.328v5.683c0,1.027-.037,2.029-.093,3Z" fill="#b5b5b5"/>
                <path id="Trazado_189535" data-name="Trazado 189535" d="M244.827,481.288v-8.1c0-.91-.537-1.645-1.2-1.645s-1.2.735-1.2,1.645v8.1Z" fill="#ddd" style="mix-blend-mode: multiply;isolation: isolate"/>
                <path id="Trazado_189536" data-name="Trazado 189536" d="M250.712,481.288v-8.1c0-.91-.538-1.645-1.2-1.645s-1.2.735-1.2,1.645v8.1Z" fill="#ddd" style="mix-blend-mode: multiply;isolation: isolate"/>
                <path id="Trazado_189537" data-name="Trazado 189537" d="M256.6,481.288v-8.1c0-.91-.538-1.645-1.2-1.645s-1.2.735-1.2,1.645v8.1Z" fill="#ddd" style="mix-blend-mode: multiply;isolation: isolate"/>
                <path id="Trazado_189538" data-name="Trazado 189538" d="M262.481,481.288v-8.1c0-.91-.538-1.645-1.2-1.645s-1.2.735-1.2,1.645v8.1Z" fill="#ddd" style="mix-blend-mode: multiply;isolation: isolate"/>
                <path id="Trazado_189539" data-name="Trazado 189539" d="M268.428,481.288v-8.1c0-.91-.537-1.645-1.2-1.645s-1.2.735-1.2,1.645v8.1Z" fill="#ddd" style="mix-blend-mode: multiply;isolation: isolate"/>
                <path id="Trazado_189540" data-name="Trazado 189540" d="M273.79,481.288v-8.1c0-.91-.539-1.645-1.2-1.645s-1.2.735-1.2,1.645v8.1Z" fill="#ddd" style="mix-blend-mode: multiply;isolation: isolate"/>
                <path id="Trazado_189541" data-name="Trazado 189541" d="M279.675,481.288v-8.1c0-.91-.538-1.645-1.2-1.645s-1.2.735-1.2,1.645v8.1Z" fill="#ddd" style="mix-blend-mode: multiply;isolation: isolate"/>
                <path id="Trazado_189542" data-name="Trazado 189542" d="M285.559,481.288v-8.1c0-.91-.54-1.645-1.2-1.645s-1.2.735-1.2,1.645v8.1Z" fill="#ddd" style="mix-blend-mode: multiply;isolation: isolate"/>
                <path id="Trazado_189543" data-name="Trazado 189543" d="M291.444,481.288v-8.1c0-.91-.539-1.645-1.2-1.645s-1.2.735-1.2,1.645v8.1Z" fill="#ddd" style="mix-blend-mode: multiply;isolation: isolate"/>
                <path id="Trazado_189544" data-name="Trazado 189544" d="M297.39,481.288v-8.1c0-.91-.538-1.645-1.2-1.645s-1.2.735-1.2,1.645v8.1Z" fill="#ddd" style="mix-blend-mode: multiply;isolation: isolate"/>
                <path id="Trazado_189545" data-name="Trazado 189545" d="M302.751,481.288v-8.1c0-.91-.538-1.645-1.2-1.645s-1.2.735-1.2,1.645v8.1Z" fill="#ddd" style="mix-blend-mode: multiply;isolation: isolate"/>
                <path id="Trazado_189546" data-name="Trazado 189546" d="M308.635,481.288v-8.1c0-.91-.537-1.645-1.2-1.645s-1.2.735-1.2,1.645v8.1Z" fill="#ddd" style="mix-blend-mode: multiply;isolation: isolate"/>
                <path id="Trazado_189547" data-name="Trazado 189547" d="M314.52,481.288v-8.1c0-.91-.539-1.645-1.2-1.645s-1.2.735-1.2,1.645v8.1Z" fill="#ddd" style="mix-blend-mode: multiply;isolation: isolate"/>
                <path id="Trazado_189548" data-name="Trazado 189548" d="M320.4,481.288v-8.1c0-.91-.539-1.645-1.2-1.645s-1.2.735-1.2,1.645v8.1Z" fill="#ddd" style="mix-blend-mode: multiply;isolation: isolate"/>
                <path id="Trazado_189549" data-name="Trazado 189549" d="M326.35,481.288v-8.1c0-.91-.536-1.645-1.2-1.645s-1.2.735-1.2,1.645v8.1Z" fill="#ddd" style="mix-blend-mode: multiply;isolation: isolate"/>
                <path id="Trazado_189550" data-name="Trazado 189550" d="M331.713,481.288v-8.1c0-.91-.538-1.645-1.2-1.645s-1.2.735-1.2,1.645v8.1Z" fill="#ddd" style="mix-blend-mode: multiply;isolation: isolate"/>
              </g>
              <path id="Trazado_189551" data-name="Trazado 189551" d="M239.336,486.434v77.244c0,6.989,5.253,12.707,11.669,12.707h71.333c6.417,0,11.669-5.718,11.669-12.707V486.434Z" fill="#f49b21"/>
              <rect id="Rectángulo_40996" data-name="Rectángulo 40996" width="83.451" height="57.682" transform="translate(247.184 494.868)" fill="#e6e5d5"/>
              <rect id="Rectángulo_40997" data-name="Rectángulo 40997" width="9.961" height="82.851" transform="translate(316.169 488.864)" fill="#fff" style="mix-blend-mode: soft-light;isolation: isolate"/>
              <rect id="Rectángulo_40998" data-name="Rectángulo 40998" width="4.979" height="82.851" transform="translate(306.473 488.864)" fill="#fff" style="mix-blend-mode: soft-light;isolation: isolate"/>
              <path id="Trazado_189552" data-name="Trazado 189552" d="M261.632,555.46V508.515c0-9.836,3.35-16.938,8.109-22.081h-30.4v77.244c0,6.989,5.253,12.707,11.669,12.707h71.333a11.784,11.784,0,0,0,10.9-8.219H273.3C266.882,568.166,261.632,562.449,261.632,555.46Z" fill="#e6d5ce" style="mix-blend-mode: multiply;isolation: isolate"/>
              <path id="Trazado_189553" data-name="Trazado 189553" d="M250.521,563.678V486.434H239.336v77.244c0,6.989,5.253,12.707,11.669,12.707h11.184C255.772,576.385,250.521,570.667,250.521,563.678Z" fill="#e6d5ce" style="mix-blend-mode: multiply;isolation: isolate"/>
              <path id="Trazado_189554" data-name="Trazado 189554" d="M336.581,484.506c0,1.774-1.1,3.215-2.464,3.215H239.562c-1.361,0-2.463-1.441-2.463-3.215h0c0-1.778,1.1-3.218,2.463-3.218h94.555c1.361,0,2.464,1.44,2.464,3.218Z" fill="#f49b21"/>
              <path id="Trazado_189555" data-name="Trazado 189555" d="M237.191,485.332a2.677,2.677,0,0,0,2.371,2.389h94.555a2.681,2.681,0,0,0,2.372-2.389Z" fill="#e6d5ce" style="mix-blend-mode: multiply;isolation: isolate"/>
              <path id="Trazado_189556" data-name="Trazado 189556" d="M330.492,482.754a1.057,1.057,0,0,1-.986,1.116H262.054a1.057,1.057,0,0,1-.985-1.116h0a1.057,1.057,0,0,1,.985-1.117h67.452a1.057,1.057,0,0,1,.986,1.117Z" fill="#fff" style="mix-blend-mode: soft-light;isolation: isolate"/>
            </g>
            <g id="Grupo_130129" data-name="Grupo 130129">
              <path id="Trazado_189557" data-name="Trazado 189557" d="M308.15,512.824c-3.005-11.426,18.141-9.657,18.141-9.657a6.844,6.844,0,0,1-1.062-5.216c1.174-7.35,16.459-1.749,18.9-7.217,1.213-2.724-.238-11.372-3.62-12.842,4.783-2.181,24.363-.5,25.44,16.527,2.113.124,3.888-.152,5.571,1.563,1.315,1.341,2.866,4.6,1.7,6.518,7.025-.6,6.526,7.871,6.7,14.04Z" fill="#ece6c9"/>
              <path id="Trazado_189558" data-name="Trazado 189558" d="M358.56,494.419c2.116.124,3.889-.152,5.576,1.563,1.313,1.341,2.863,4.6,1.694,6.518,6.882-.59,6.544,7.528,6.694,13.658l7.392.382c-.177-6.169.322-14.642-6.7-14.04,1.169-1.914-.382-5.177-1.7-6.518-1.683-1.715-3.458-1.439-5.571-1.563-.993-15.718-17.749-18.358-24.082-16.954C349.111,478.645,357.853,483.2,358.56,494.419Z" fill="#cfcab2"/>
              <path id="Trazado_189559" data-name="Trazado 189559" d="M374.478,583.779c0,3.707-3.29,6.009-7.373,6.009h-45.65c-4.651,0-7.374-2.047-7.374-6.009v-3.333c0-6.26,5.375-11.382,11.944-11.382h36.509c6.571,0,11.944,5.122,11.944,11.382Z" fill="#c2305e"/>
              <path id="Trazado_189560" data-name="Trazado 189560" d="M308.08,515.971v59.1c0,5.346,4.015,9.721,8.924,9.721h54.575c4.909,0,8.927-4.375,8.927-9.721v-59.1Z" fill="#e9547a"/>
              <rect id="Rectángulo_40999" data-name="Rectángulo 40999" width="63.846" height="44.13" transform="translate(314.081 522.422)" fill="#e6e5d5"/>
              <rect id="Rectángulo_41000" data-name="Rectángulo 41000" width="7.619" height="63.385" transform="translate(366.859 517.829)" fill="#fff" style="mix-blend-mode: soft-light;isolation: isolate"/>
              <rect id="Rectángulo_41001" data-name="Rectángulo 41001" width="3.811" height="63.385" transform="translate(359.44 517.829)" fill="#fff" style="mix-blend-mode: soft-light;isolation: isolate"/>
              <path id="Trazado_189561" data-name="Trazado 189561" d="M325.136,568.778V532.865c0-7.526,2.564-12.96,6.2-16.894H308.08v59.1c0,5.346,4.015,9.721,8.924,9.721h54.575a9.019,9.019,0,0,0,8.337-6.289H334.062C329.154,578.5,325.136,574.125,325.136,568.778Z" fill="#e5d4de" style="mix-blend-mode: multiply;isolation: isolate"/>
              <path id="Trazado_189562" data-name="Trazado 189562" d="M316.635,575.067v-59.1H308.08v59.1c0,5.346,4.015,9.721,8.924,9.721h8.558C320.653,584.788,316.635,580.413,316.635,575.067Z" fill="#e5d4de" style="mix-blend-mode: multiply;isolation: isolate"/>
              <path id="Trazado_189563" data-name="Trazado 189563" d="M382.475,514.494a2.232,2.232,0,0,1-1.887,2.461H308.25a2.23,2.23,0,0,1-1.883-2.461h0a2.23,2.23,0,0,1,1.883-2.459h72.338a2.232,2.232,0,0,1,1.887,2.459Z" fill="#e9547a"/>
              <path id="Trazado_189564" data-name="Trazado 189564" d="M306.437,515.128a2.047,2.047,0,0,0,1.813,1.827h72.338a2.05,2.05,0,0,0,1.816-1.827Z" fill="#e5d4de" style="mix-blend-mode: multiply;isolation: isolate"/>
              <path id="Trazado_189565" data-name="Trazado 189565" d="M377.816,513.155a.809.809,0,0,1-.754.854h-51.6a.81.81,0,0,1-.756-.854h0a.81.81,0,0,1,.756-.854h51.6a.809.809,0,0,1,.754.854Z" fill="#fff" style="mix-blend-mode: soft-light;isolation: isolate"/>
              <g id="Grupo_130128" data-name="Grupo 130128">
                <path id="Trazado_189566" data-name="Trazado 189566" d="M429.066,533.218c12.8,29.189-4.265,45.808-12.979,49.63l-9.312,4.086c-15.514,6.8-34.123-4.7-43.051-25.055s-4.787-41.838,10.723-48.644c2.7-1.183,7.463-3.247,10.083-4.394S414.79,500.67,429.066,533.218Z" fill="#b22c56"/>
                <path id="Trazado_189567" data-name="Trazado 189567" d="M428.014,533.678c8.709,19.854,3.191,41.465-12.322,48.27s-35.148-3.774-43.857-23.628-3.192-41.463,12.321-48.268S419.308,513.825,428.014,533.678Z" fill="#e9547a"/>
                <path id="Trazado_189568" data-name="Trazado 189568" d="M423.657,535.59c6.989,15.929,2.293,33.385-10.483,38.99s-28.8-2.766-35.786-18.7-2.294-33.385,10.484-38.99S416.67,519.661,423.657,535.59Z" fill="none" stroke="#fff" stroke-miterlimit="10" stroke-width="1"/>
                <path id="Trazado_189569" data-name="Trazado 189569" d="M420.446,563.385c-15.513,6.8-35.149-3.774-43.857-23.627a47.819,47.819,0,0,1-4.122-19.142c-5.893,9.915-6.549,24.214-.632,37.7,8.709,19.854,28.343,30.432,43.857,23.628,10.527-4.617,16.443-16.052,16.443-29.127A25.515,25.515,0,0,1,420.446,563.385Z" fill="#e5d4de" style="mix-blend-mode: multiply;isolation: isolate"/>
              </g>
              <path id="Trazado_189570" data-name="Trazado 189570" d="M346.4,481.581a1.415,1.415,0,0,0-2.442,1.427c.736,1.541,1.206,3.131,1.864,4.689.837,1.986-.413,3.5-.82,5.27-.085.373.185.867.623.818,2.139-.231,2.544-3.089,2.621-4.824A11.833,11.833,0,0,0,346.4,481.581Z" fill="#ebe9e2"/>
              <path id="Trazado_189571" data-name="Trazado 189571" d="M336.313,495.336a9.98,9.98,0,0,0-3.589.036,8.7,8.7,0,0,0-3.416,1.014,3.789,3.789,0,0,0-.358,5.989,1.011,1.011,0,0,0,1.708-.706c-.026-.793-.72-1.945-.07-2.6.523-.529,1.742-.508,2.421-.542a16.817,16.817,0,0,0,3.56-.22C338.326,497.817,337.755,495.743,336.313,495.336Z" fill="#ebe9e2"/>
              <path id="Trazado_189572" data-name="Trazado 189572" d="M327.313,504.807c-4.162-1.537-16.04-1.825-15.77,4.954a.4.4,0,0,0,.746.2c3.433-4.851,9.673-3.289,14.716-2.874C328.393,507.2,328.462,505.23,327.313,504.807Z" fill="#ebe9e2"/>
              <path id="Trazado_189573" data-name="Trazado 189573" d="M359.393,499.637c-1.683-1.469-4.543-1.586-6.617-1.085a4.047,4.047,0,0,0-2.349,1.649,12.321,12.321,0,0,0-6.445-.423c-2.767.54-5.975,3.861-3.757,6.634a.833.833,0,0,0,1.3-.168c.388-.77.4-1.764.945-2.442a3.981,3.981,0,0,1,2.727-1.132c2.254-.212,3.8.76,5.752,1.6,1.277.552,3-.665,2.087-2.087a4.315,4.315,0,0,0-.387-.454,2.316,2.316,0,0,1,1.31-.495,7.76,7.76,0,0,1,4.006.845C359.332,502.651,360.453,500.562,359.393,499.637Z" fill="#ebe9e2"/>
            </g>
          </g>
          <g id="Grupo_130136" data-name="Grupo 130136">
            <g id="Grupo_130131" data-name="Grupo 130131">
              <path id="Trazado_189574" data-name="Trazado 189574" d="M429.563,511.027s5.5-.244,6.924-1.762,3.091-6.443,3.091-6.443-.181,4.868,1.763,6.926,6.44,3.089,6.44,3.089-5.237-.414-6.922,1.764a26.973,26.973,0,0,0-3.09,6.441s.017-5.178-1.764-6.923S429.563,511.027,429.563,511.027Z" fill="#fff"/>
              <path id="Trazado_189575" data-name="Trazado 189575" d="M405.945,524.652s2.384,1.116,3.329.791a12.494,12.494,0,0,0,2.74-2.049s-1.16,2.025-.789,3.329a7.533,7.533,0,0,0,2.042,2.74s-2.125-1.337-3.324-.788a12.967,12.967,0,0,0-2.741,2.046s1.157-2.192.787-3.328A9.513,9.513,0,0,0,405.945,524.652Z" fill="#fff"/>
              <path id="Trazado_189576" data-name="Trazado 189576" d="M440.087,531.945s2.387,1.117,3.331.792a12.521,12.521,0,0,0,2.74-2.05s-1.16,2.026-.79,3.329a7.5,7.5,0,0,0,2.043,2.739s-2.125-1.336-3.323-.786a12.926,12.926,0,0,0-2.742,2.046s1.158-2.193.789-3.328A9.567,9.567,0,0,0,440.087,531.945Z" fill="#fff"/>
              <path id="Trazado_189577" data-name="Trazado 189577" d="M442.192,476.514s1.036-.859,1.088-1.364a6.353,6.353,0,0,0-.344-1.714s.682.977,1.363,1.09a3.881,3.881,0,0,0,1.714-.348s-1.082.692-1.091,1.368a6.6,6.6,0,0,0,.347,1.711s-.761-1.014-1.361-1.091A4.92,4.92,0,0,0,442.192,476.514Z" fill="#fff"/>
              <path id="Trazado_189578" data-name="Trazado 189578" d="M436.47,490.179s.767-.034.968-.246a3.7,3.7,0,0,0,.431-.9,1.629,1.629,0,0,0,.244.964,2.188,2.188,0,0,0,.9.433s-.732-.059-.967.245a3.827,3.827,0,0,0-.428.9s0-.723-.246-.967A2.873,2.873,0,0,0,436.47,490.179Z" fill="#fff"/>
              <path id="Trazado_189579" data-name="Trazado 189579" d="M423.217,541.953s1.038-.861,1.091-1.368a6.4,6.4,0,0,0-.348-1.713s.683.975,1.367,1.09a3.851,3.851,0,0,0,1.711-.35s-1.082.694-1.09,1.367a6.615,6.615,0,0,0,.346,1.713s-.76-1.014-1.365-1.088A4.866,4.866,0,0,0,423.217,541.953Z" fill="#fff"/>
              <path id="Trazado_189580" data-name="Trazado 189580" d="M432.365,559.075s.766-.033.965-.246a3.607,3.607,0,0,0,.431-.9,1.663,1.663,0,0,0,.245.965,2.171,2.171,0,0,0,.9.432s-.729-.058-.967.246a3.762,3.762,0,0,0-.43.9s0-.721-.246-.964A2.792,2.792,0,0,0,432.365,559.075Z" fill="#fff"/>
              <path id="Trazado_189581" data-name="Trazado 189581" d="M458.5,503.749s.539.547.827.554a3.6,3.6,0,0,0,.959-.283s-.521.436-.552.829a2.212,2.212,0,0,0,.285.957s-.446-.582-.83-.552a3.762,3.762,0,0,0-.954.286s.537-.486.549-.832A2.836,2.836,0,0,0,458.5,503.749Z" fill="#fff"/>
            </g>
            <g id="Grupo_130132" data-name="Grupo 130132">
              <path id="Trazado_189582" data-name="Trazado 189582" d="M313.442,415.335s1.608-5.262.654-7.113-5.036-5.069-5.036-5.069,4.525,1.8,7.113.656,5.067-5.037,5.067-5.037-2.143,4.795-.656,7.114a27.157,27.157,0,0,0,5.039,5.069s-4.875-1.749-7.117-.657S313.442,415.335,313.442,415.335Z" fill="#fff"/>
              <path id="Trazado_189583" data-name="Trazado 189583" d="M278.691,432.086s1.848-1.876,1.854-2.873a12.342,12.342,0,0,0-1.011-3.268s1.52,1.767,2.872,1.858a7.545,7.545,0,0,0,3.268-1.011s-1.973,1.555-1.859,2.871a13.068,13.068,0,0,0,1.014,3.267s-1.68-1.822-2.874-1.857A9.569,9.569,0,0,0,278.691,432.086Z" fill="#fff"/>
              <path id="Trazado_189584" data-name="Trazado 189584" d="M266.958,374.238s-.461-1.265-.92-1.485a6.279,6.279,0,0,0-1.73-.243s1.144-.318,1.483-.924a3.9,3.9,0,0,0,.245-1.731s.287,1.25.921,1.483a6.618,6.618,0,0,0,1.734.246s-1.211.379-1.487.924A4.9,4.9,0,0,0,266.958,374.238Z" fill="#fff"/>
              <path id="Trazado_189585" data-name="Trazado 189585" d="M252.14,398.483s.228-.735.09-.993a3.564,3.564,0,0,0-.7-.708,1.651,1.651,0,0,0,.992.093,2.188,2.188,0,0,0,.709-.7s-.3.669-.092.993a3.843,3.843,0,0,0,.7.707s-.679-.245-.993-.093A2.811,2.811,0,0,0,252.14,398.483Z" fill="#fff"/>
              <path id="Trazado_189586" data-name="Trazado 189586" d="M325.672,449.994s1.849-1.875,1.856-2.87a12.4,12.4,0,0,0-1.013-3.268s1.523,1.767,2.872,1.856a7.537,7.537,0,0,0,3.268-1.012s-1.975,1.559-1.856,2.873a12.92,12.92,0,0,0,1.011,3.268s-1.68-1.824-2.872-1.856A9.548,9.548,0,0,0,325.672,449.994Z" fill="#fff"/>
              <path id="Trazado_189587" data-name="Trazado 189587" d="M339.123,403.955s-.463-1.264-.926-1.485a6.34,6.34,0,0,0-1.729-.246s1.15-.316,1.484-.921a3.9,3.9,0,0,0,.245-1.731s.289,1.252.918,1.484a6.638,6.638,0,0,0,1.736.245s-1.209.377-1.484.922A4.889,4.889,0,0,0,339.123,403.955Z" fill="#fff"/>
              <path id="Trazado_189588" data-name="Trazado 189588" d="M303.965,423.884s-.463-1.262-.921-1.483a6.374,6.374,0,0,0-1.733-.245s1.152-.318,1.482-.923a3.808,3.808,0,0,0,.246-1.73s.291,1.25.926,1.484a6.585,6.585,0,0,0,1.731.246s-1.211.379-1.488.921A4.926,4.926,0,0,0,303.965,423.884Z" fill="#fff"/>
              <path id="Trazado_189589" data-name="Trazado 189589" d="M336.983,426.505s.224-.735.092-.995a3.721,3.721,0,0,0-.7-.707,1.654,1.654,0,0,0,.995.092,2.244,2.244,0,0,0,.707-.7s-.3.668-.093.992a3.727,3.727,0,0,0,.7.707s-.677-.244-.993-.09A2.776,2.776,0,0,0,336.983,426.505Z" fill="#fff"/>
              <path id="Trazado_189590" data-name="Trazado 189590" d="M293.789,372.666s.693-.325.8-.6a3.681,3.681,0,0,0,.048-1s.241.638.6.8a2.191,2.191,0,0,0,1,.052s-.7.23-.794.6a3.747,3.747,0,0,0-.056,1s-.276-.668-.6-.8A2.812,2.812,0,0,0,293.789,372.666Z" fill="#fff"/>
              <path id="Trazado_189591" data-name="Trazado 189591" d="M331.926,377.626s.691-.327.793-.6a3.531,3.531,0,0,0,.054-.995s.238.637.6.8a2.21,2.21,0,0,0,1,.052s-.7.228-.8.6a3.894,3.894,0,0,0-.052.995s-.276-.666-.6-.8A2.781,2.781,0,0,0,331.926,377.626Z" fill="#fff"/>
            </g>
            <g id="Grupo_130133" data-name="Grupo 130133">
              <path id="Trazado_189592" data-name="Trazado 189592" d="M400.193,446.859s1.606-5.261.651-7.113-5.033-5.068-5.033-5.068,4.523,1.8,7.11.654,5.068-5.036,5.068-5.036-2.142,4.8-.653,7.115a27.168,27.168,0,0,0,5.035,5.068s-4.875-1.749-7.115-.657S400.193,446.859,400.193,446.859Z" fill="#fff"/>
              <path id="Trazado_189593" data-name="Trazado 189593" d="M365.44,463.609s1.85-1.875,1.853-2.872a12.366,12.366,0,0,0-1.008-3.268s1.521,1.768,2.871,1.859a7.547,7.547,0,0,0,3.269-1.012s-1.974,1.556-1.861,2.872a13.057,13.057,0,0,0,1.016,3.267s-1.683-1.823-2.875-1.859A9.607,9.607,0,0,0,365.44,463.609Z" fill="#fff"/>
              <path id="Trazado_189594" data-name="Trazado 189594" d="M367.331,416.535s-1.229-.551-1.706-.377a6.3,6.3,0,0,0-1.382,1.07,2.883,2.883,0,0,0,.372-1.7,3.873,3.873,0,0,0-1.069-1.385s1.1.667,1.706.375a6.578,6.578,0,0,0,1.385-1.071s-.572,1.132-.374,1.709A4.873,4.873,0,0,0,367.331,416.535Z" fill="#fff"/>
              <path id="Trazado_189595" data-name="Trazado 189595" d="M350.716,448.729s.227-.736.091-.993a3.577,3.577,0,0,0-.7-.707,1.671,1.671,0,0,0,.995.091,2.2,2.2,0,0,0,.706-.7s-.3.669-.091.993a3.746,3.746,0,0,0,.7.7,1.8,1.8,0,0,0-.994-.091A2.853,2.853,0,0,0,350.716,448.729Z" fill="#fff"/>
              <path id="Trazado_189596" data-name="Trazado 189596" d="M412.42,481.518s1.85-1.874,1.859-2.869a12.431,12.431,0,0,0-1.013-3.271s1.521,1.77,2.872,1.858a7.545,7.545,0,0,0,3.267-1.011s-1.973,1.559-1.856,2.872a12.821,12.821,0,0,0,1.012,3.268s-1.679-1.824-2.872-1.858A9.59,9.59,0,0,0,412.42,481.518Z" fill="#fff"/>
              <path id="Trazado_189597" data-name="Trazado 189597" d="M425.873,435.479s-.463-1.264-.926-1.484a6.3,6.3,0,0,0-1.729-.246s1.151-.316,1.484-.922a3.881,3.881,0,0,0,.245-1.731s.289,1.252.918,1.484a6.679,6.679,0,0,0,1.735.245s-1.21.378-1.482.923A4.893,4.893,0,0,0,425.873,435.479Z" fill="#fff"/>
              <path id="Trazado_189598" data-name="Trazado 189598" d="M390.715,455.408s-.464-1.263-.921-1.484a6.4,6.4,0,0,0-1.733-.244s1.151-.317,1.483-.924a3.811,3.811,0,0,0,.245-1.729s.291,1.251.927,1.484a6.609,6.609,0,0,0,1.731.245s-1.211.379-1.488.922A4.933,4.933,0,0,0,390.715,455.408Z" fill="#fff"/>
              <path id="Trazado_189599" data-name="Trazado 189599" d="M423.734,458.03s.223-.737.092-1a3.706,3.706,0,0,0-.7-.706,1.65,1.65,0,0,0,1,.09,2.232,2.232,0,0,0,.7-.7s-.3.67-.094.994a3.783,3.783,0,0,0,.7.707s-.678-.244-.994-.091A2.784,2.784,0,0,0,423.734,458.03Z" fill="#fff"/>
              <path id="Trazado_189600" data-name="Trazado 189600" d="M380.537,404.19s.694-.325.8-.6a3.574,3.574,0,0,0,.05-1s.24.637.6.8a2.181,2.181,0,0,0,1,.051s-.7.23-.795.6a3.746,3.746,0,0,0-.056,1s-.274-.669-.6-.8A2.823,2.823,0,0,0,380.537,404.19Z" fill="#fff"/>
              <path id="Trazado_189601" data-name="Trazado 189601" d="M418.673,409.15s.7-.327.8-.6a3.577,3.577,0,0,0,.051-.995s.241.636.6.8a2.211,2.211,0,0,0,1,.054s-.7.226-.8.6a3.943,3.943,0,0,0-.052.995s-.277-.667-.6-.8A2.779,2.779,0,0,0,418.673,409.15Z" fill="#fff"/>
            </g>
            <g id="Grupo_130134" data-name="Grupo 130134">
              <path id="Trazado_189602" data-name="Trazado 189602" d="M224.478,350.124s-4.131-3.631-4.294-5.707,1.62-6.959,1.62-6.959-2.9,3.912-5.71,4.3-6.957-1.62-6.957-1.62,4.342,2.952,4.3,5.705a27.126,27.126,0,0,1-1.624,6.96s3.227-4.048,5.712-4.3S224.478,350.124,224.478,350.124Z" fill="#fff"/>
              <path id="Trazado_189603" data-name="Trazado 189603" d="M244.059,356.967s-2.562-.623-3.091-1.468a12.434,12.434,0,0,1-.856-3.311s-.363,2.3-1.47,3.09a7.539,7.539,0,0,1-3.308.856s2.5.288,3.09,1.468a13.183,13.183,0,0,1,.856,3.309s.467-2.432,1.466-3.087A9.589,9.589,0,0,1,244.059,356.967Z" fill="#fff"/>
              <path id="Trazado_189604" data-name="Trazado 189604" d="M227.006,320.141s-.27-1.318.006-1.748a6.314,6.314,0,0,1,1.342-1.118,2.892,2.892,0,0,1-1.747,0,3.865,3.865,0,0,1-1.116-1.347s.409,1.218-.008,1.748a6.563,6.563,0,0,1-1.341,1.119s1.227-.313,1.749,0A4.935,4.935,0,0,1,227.006,320.141Z" fill="#fff"/>
              <path id="Trazado_189605" data-name="Trazado 189605" d="M243.236,332.392s-.578-.506-.6-.8a3.5,3.5,0,0,1,.228-.97s-.405.545-.8.6a2.2,2.2,0,0,1-.972-.226s.606.413.6.8a3.926,3.926,0,0,1-.228.972s.451-.565.8-.6A2.791,2.791,0,0,1,243.236,332.392Z" fill="#fff"/>
              <path id="Trazado_189606" data-name="Trazado 189606" d="M194.361,386.9s-2.558-.62-3.087-1.466a12.405,12.405,0,0,1-.86-3.311s-.359,2.3-1.466,3.09a7.524,7.524,0,0,1-3.309.856s2.5.291,3.088,1.469a12.889,12.889,0,0,1,.858,3.311s.468-2.435,1.466-3.091A9.592,9.592,0,0,1,194.361,386.9Z" fill="#fff"/>
              <path id="Trazado_189607" data-name="Trazado 189607" d="M176.745,379.331s-.271-1.319,0-1.748a6.456,6.456,0,0,1,1.345-1.118,2.9,2.9,0,0,1-1.745,0,3.853,3.853,0,0,1-1.118-1.345s.406,1.218-.006,1.748a6.662,6.662,0,0,1-1.345,1.118s1.228-.314,1.747.006A4.835,4.835,0,0,1,176.745,379.331Z" fill="#fff"/>
              <path id="Trazado_189608" data-name="Trazado 189608" d="M209.16,374.892s-.27-1.319,0-1.747a6.318,6.318,0,0,1,1.344-1.119,2.893,2.893,0,0,1-1.749,0,3.859,3.859,0,0,1-1.116-1.344s.41,1.217-.007,1.746a6.623,6.623,0,0,1-1.344,1.118s1.23-.312,1.749.006A4.892,4.892,0,0,1,209.16,374.892Z" fill="#fff"/>
              <path id="Trazado_189609" data-name="Trazado 189609" d="M191.842,356.791s-.577-.507-.6-.8a3.575,3.575,0,0,1,.226-.97s-.4.547-.794.6a2.215,2.215,0,0,1-.974-.226s.607.41.6.8a3.717,3.717,0,0,1-.226.969s.452-.564.8-.6A2.807,2.807,0,0,1,191.842,356.791Z" fill="#fff"/>
              <path id="Trazado_189610" data-name="Trazado 189610" d="M183.71,331.339s-.764.087-1-.093a3.75,3.75,0,0,1-.566-.818,1.651,1.651,0,0,1-.089.993,2.194,2.194,0,0,1-.822.567s.714-.172.995.091a3.834,3.834,0,0,1,.567.82s-.114-.714.093-.994A2.77,2.77,0,0,1,183.71,331.339Z" fill="#fff"/>
              <path id="Trazado_189611" data-name="Trazado 189611" d="M169.363,355.866s-.761.088-.992-.088a3.777,3.777,0,0,1-.568-.821,1.638,1.638,0,0,1-.087.991,2.153,2.153,0,0,1-.823.568s.714-.173.993.09a3.757,3.757,0,0,1,.568.821s-.114-.713.092-.992A2.784,2.784,0,0,1,169.363,355.866Z" fill="#fff"/>
            </g>
            <g id="Grupo_130135" data-name="Grupo 130135">
              <path id="Trazado_189612" data-name="Trazado 189612" d="M189.406,494.7s-2.281-5.009-1.574-6.97,4.336-5.675,4.336-5.675-4.252,2.371-6.968,1.571-5.682-4.336-5.682-4.336,2.747,4.478,1.577,6.967a27.126,27.126,0,0,1-4.336,5.68s4.6-2.366,6.969-1.571S189.406,494.7,189.406,494.7Z" fill="#fff"/>
              <path id="Trazado_189613" data-name="Trazado 189613" d="M191.512,456.533s-2.078-1.618-2.214-2.607a12.572,12.572,0,0,1,.578-3.37s-1.275,1.951-2.6,2.215a7.571,7.571,0,0,1-3.375-.581s2.162,1.289,2.216,2.607a12.916,12.916,0,0,1-.577,3.373s1.428-2.026,2.606-2.215A9.547,9.547,0,0,1,191.512,456.533Z" fill="#fff"/>
              <path id="Trazado_189614" data-name="Trazado 189614" d="M185.7,407.568s.3-1.311.724-1.589a6.386,6.386,0,0,1,1.684-.468,2.9,2.9,0,0,1-1.593-.723,3.85,3.85,0,0,1-.468-1.685s-.124,1.28-.723,1.591a6.55,6.55,0,0,1-1.68.468s1.248.219,1.589.722A4.9,4.9,0,0,1,185.7,407.568Z" fill="#fff"/>
              <path id="Trazado_189615" data-name="Trazado 189615" d="M203.546,429.689s-.317-.7-.221-.975a3.678,3.678,0,0,1,.606-.792,1.657,1.657,0,0,1-.975.22,2.2,2.2,0,0,1-.79-.605s.382.623.218.972a3.779,3.779,0,0,1-.606.792s.642-.331.974-.22A2.844,2.844,0,0,1,203.546,429.689Z" fill="#fff"/>
              <path id="Trazado_189616" data-name="Trazado 189616" d="M172.463,473.625s-2.082-1.619-2.215-2.607a12.554,12.554,0,0,1,.58-3.371s-1.278,1.952-2.607,2.216a7.545,7.545,0,0,1-3.373-.581s2.161,1.289,2.217,2.608a13.062,13.062,0,0,1-.579,3.37s1.424-2.027,2.606-2.215A9.609,9.609,0,0,1,172.463,473.625Z" fill="#fff"/>
              <path id="Trazado_189617" data-name="Trazado 189617" d="M194.39,471.435s.294-1.314.721-1.59a6.391,6.391,0,0,1,1.683-.468,2.875,2.875,0,0,1-1.588-.723,3.835,3.835,0,0,1-.469-1.683s-.124,1.278-.725,1.591a6.611,6.611,0,0,1-1.681.468s1.247.218,1.592.723A4.86,4.86,0,0,1,194.39,471.435Z" fill="#fff"/>
              <path id="Trazado_189618" data-name="Trazado 189618" d="M158.76,438.85s.3-1.313.721-1.592a6.412,6.412,0,0,1,1.689-.466,2.91,2.91,0,0,1-1.6-.724,3.87,3.87,0,0,1-.463-1.684s-.124,1.279-.721,1.592a6.6,6.6,0,0,1-1.685.469s1.247.217,1.59.72A4.887,4.887,0,0,1,158.76,438.85Z" fill="#fff"/>
              <path id="Trazado_189619" data-name="Trazado 189619" d="M161.465,488.711s-.319-.7-.221-.975a3.662,3.662,0,0,1,.608-.791,1.652,1.652,0,0,1-.973.218,2.188,2.188,0,0,1-.795-.6s.385.622.219.972a3.683,3.683,0,0,1-.6.792s.643-.329.971-.22A2.8,2.8,0,0,1,161.465,488.711Z" fill="#fff"/>
              <path id="Trazado_189620" data-name="Trazado 189620" d="M149.967,419.6s-.732-.234-.87-.491a3.591,3.591,0,0,1-.181-.978s-.155.662-.492.865a2.175,2.175,0,0,1-.979.184s.721.134.87.489a3.892,3.892,0,0,1,.177.981s.189-.7.491-.869A2.851,2.851,0,0,1,149.967,419.6Z" fill="#fff"/>
              <path id="Trazado_189621" data-name="Trazado 189621" d="M182.564,428.97s-.731-.234-.868-.489a3.591,3.591,0,0,1-.182-.981s-.154.663-.49.868a2.186,2.186,0,0,1-.982.181s.721.134.87.489a3.794,3.794,0,0,1,.178.982s.19-.7.492-.868A2.765,2.765,0,0,1,182.564,428.97Z" fill="#fff"/>
            </g>
          </g>
        </g>
      </g>
    </g>
  </g>
</svg>
