<svg xmlns="http://www.w3.org/2000/svg" width="504.165" height="500.298" viewBox="0 0 504.165 500.298">
  <g id="Grupo_132615" data-name="Grupo 132615" transform="translate(-43.504 -45.774)">
    <rect id="Rectángulo_41021" data-name="Rectángulo 41021" width="85.898" height="85.898" transform="translate(117.883 49.31) rotate(45)" fill="#fff" stroke="#e30613" stroke-miterlimit="10" stroke-width="5"/>
    <rect id="Rectángulo_41022" data-name="Rectángulo 41022" width="85.898" height="85.898" transform="translate(308.62 49.31) rotate(45)" fill="#fff" stroke="#e30613" stroke-miterlimit="10" stroke-width="5"/>
    <path id="Trazado_191661" data-name="Trazado 191661" d="M89.7,102.406,89.007,81.4l6.016-13.027Zm19.065-21.157,1.135-9.5L92.156,104.344ZM123.473,92.7l-6.564-1.155L95.2,107.8Zm-7.646-7.062-5.339,2.034-11.4,11.4Zm-13.17-26.2L95.023,90.4l7.634-26.338ZM84.522,85.64l-1.3,3.885.463,14.23ZM78.1,100.067l-1.346-2.584,1.906,12.158Zm18.683,10.184,32.9-7.844-8.876-1.716Zm36.4-.048-8.765-.828s-17.453,2.036-17.678,2.262Zm-3.5,5.055H94.838l44.619,5.476Zm-26.119,3.722,31.548,7.691-9.331-4.084Zm1.227,6.875,8.4.816-15.826-6.537Zm-14.46-4.314A11.7,11.7,0,0,0,88.007,123c0,.975,2.11,2.188,2.623,2.188s2.625-2.457,2.625-2.918S91.017,121.357,90.332,121.54ZM96.112,91c-.261-.378-2.36.524-2.816,1.064a11.69,11.69,0,0,0-1.08,2.527c.556.8,2.98.594,3.4.3S96.374,91.374,96.112,91Zm-10.18,25.4c.313.877,2.724.223,2.946,0a3.762,3.762,0,0,0-.485-2.663C87.889,113.232,85.731,115.834,85.932,116.4Zm25.1,6.635c-.023-.444-2.107-.139-2.249.207-.22.536,1.169,1.237,1.363,1.227A2.34,2.34,0,0,0,111.035,123.035Zm3.815-15.7c-.023-.444-2.106-.139-2.249.207-.22.536,1.169,1.237,1.363,1.227A2.338,2.338,0,0,0,114.85,107.334Zm-8.017-11.771c-.554-.316-2.538,1.851-2.287,2.245.39.615,2.789-.14,3-.329S107.387,95.88,106.833,95.563Zm-13.392,20.7c-1.3,0-1.628,1.213-.325,1.893S94.627,116.262,93.44,116.262Zm-12.8-10.6c1.155.582,1.339-1.618.288-1.618C79.779,104.045,79.487,105.082,80.642,105.663Zm5.7-14.464c1.3.682,1.511-1.893.325-1.893C85.362,89.306,85.034,90.519,86.337,91.2Zm5.613,17.562c-.568-.568-1.934.421-2.355,0s-.079-2.327-.968-2.327c-1.321,0-1.464,3.869-.788,4.545S92.519,109.329,91.951,108.761Zm-5.877-4.894c0,.649,2.136.622,2.758,0s-.54-2.056-1.569-2.056C86.452,101.811,86.074,103.219,86.074,103.868Zm14.455,6.635c-.482.435.971,2,1.849,2.048s1.164-1.78.475-2.542C102.309,109.406,101.011,110.068,100.529,110.5ZM83.689,117.4c-.473-1.317.716-2.948,2.659-3.69a8.1,8.1,0,0,0-2.955-2.419,3.848,3.848,0,0,1-2.946,2.168.843.843,0,0,1-.1.684.963.963,0,0,1-1.684-.856,3.853,3.853,0,0,1-2.236-2,8.082,8.082,0,1,0,7.86,14.084,2.215,2.215,0,0,1-.784-2.283,1.2,1.2,0,0,1,.068-1.315,1.262,1.262,0,0,1,1.008-.6.827.827,0,0,1,.111-.291.925.925,0,0,1,1.29-.207.989.989,0,0,1,.326.374,1.058,1.058,0,0,1,.181.2,1.983,1.983,0,0,1,.537.206,2.048,2.048,0,0,1,.319.327,8.073,8.073,0,0,0,.67-3.214C86.062,119.2,84.155,118.7,83.689,117.4Z" transform="translate(11.808 4.228)" fill="#1d1d1b"/>
    <path id="Trazado_191662" data-name="Trazado 191662" d="M222.051,88.463a16.476,16.476,0,0,0,.173,7.521c.952-6.764,4.218-5.006,2.647-13.545,1.129.408,4.923,3.176,6.808,8.19,0-11.523,3.481-15.236,11.39-18.218-3.413,7.831.785,9.4,2.109,17.807,1.4-2.99,1.607-7.551,1.241-10.465a19.463,19.463,0,0,1,6.217,18.113c.887-1.577,1.254-2.918,1.254-6.016,6.992,6.992,4.61,27.761-9.728,30.946a13.3,13.3,0,0,0,1.309-6.93,8.086,8.086,0,0,1-4.158,2.608c1.657-2.538,2.8-4.875,1.341-8.641a9.008,9.008,0,0,1-3.258,5.385c.733-6.768-1.135-6.175-1.682-10.477-2.586,2.5-.662,6.193-3.853,10.234a14.566,14.566,0,0,0-1.661-4.969c-.933.932-1.917,4.354-1.2,8.346a5.323,5.323,0,0,1-2.756-3.877c-1.25,3.808.265,6.7,1.09,8.726A21.135,21.135,0,0,1,222.051,88.463Zm26.955,12.816a6.615,6.615,0,0,1-.9,3.978,12.387,12.387,0,0,0-4.443-11.979,13.283,13.283,0,0,1-.887,6.922c-.947-5.558-3.947-6.6-1.508-11.777-5.652,1.971-8.139,4.427-8.139,12.049a10.377,10.377,0,0,0-4.864-5.418c1.121,5.649-1.212,4.487-1.892,8.959a10.1,10.1,0,0,1-.125-4.974c-7.676,7.221-6.766,15.7,1.917,22.974-.89-2.022-1.96-5.815.088-9.414a8.129,8.129,0,0,0,2.147,4.65c-.774-3.994.643-7.419,1.651-8.353a13.055,13.055,0,0,1,1.878,4.814c2.337-3.947.747-7.639,4.165-10.3.4,4.427,2.555,4.841,1.835,10.625,1.606-1.606,2.211-3.659,2.673-5.92,1.577,3.765,1.879,6.474.089,9.012,2.106-.811,2.537-1.987,3.3-2.922.72,3.071.371,5.75-.67,7.408C253.229,116.888,254,105.9,249.006,101.279Zm6.461,24.7H218.012v2.433h37.455Z" transform="translate(71.88 9.638)" fill="#1d1d1b"/>
    <rect id="Rectángulo_41023" data-name="Rectángulo 41023" width="85.898" height="85.898" transform="translate(483.394 49.31) rotate(45)" fill="#fff" stroke="#e30613" stroke-miterlimit="10" stroke-width="5"/>
    <rect id="Rectángulo_41024" data-name="Rectángulo 41024" width="85.898" height="85.898" transform="translate(117.883 222.503) rotate(45)" fill="#fff" stroke="#e30613" stroke-miterlimit="10" stroke-width="5"/>
    <rect id="Rectángulo_41025" data-name="Rectángulo 41025" width="85.898" height="85.898" transform="translate(308.62 222.503) rotate(45)" fill="#fff" stroke="#e30613" stroke-miterlimit="10" stroke-width="5"/>
    <rect id="Rectángulo_41026" data-name="Rectángulo 41026" width="85.898" height="85.898" transform="translate(483.394 222.503) rotate(45)" fill="#fff" stroke="#e30613" stroke-miterlimit="10" stroke-width="5"/>
    <text id="PELIGRO_DE_EXPLOSIVOS" data-name="PELIGRO DE EXPLOSIVOS" transform="translate(43.504 198.736)" fill="#e30613" font-size="11" font-family="Roboto-Bold, Roboto" font-weight="700"><tspan x="0" y="0">PELIGRO DE EXPLOSIVOS</tspan></text>
    <text id="INFLAMABLE" transform="translate(303.356 198.736)" fill="#e30613" font-size="11" font-family="Roboto-Bold, Roboto" font-weight="700"><tspan x="-33.33" y="0">INFLAMABLE</tspan></text>
    <text id="CARBURANTE" transform="translate(478.294 198.736)" fill="#e30613" font-size="11" font-family="Roboto-Bold, Roboto" font-weight="700"><tspan x="-35.53" y="0">CARBURANTE</tspan></text>
    <text id="GASES_BAJO_PRESIÓN" data-name="GASES BAJO PRESIÓN" transform="translate(108.276 371.93)" fill="#e30613" font-size="11" font-family="Roboto-Bold, Roboto" font-weight="700"><tspan x="-56.939" y="0">GASES BAJO PRESIÓN</tspan></text>
    <text id="CORROSIÓN" transform="translate(304.19 371.93)" fill="#e30613" font-size="11" font-family="Roboto-Bold, Roboto" font-weight="700"><tspan x="-30.878" y="0">CORROSIÓN</tspan></text>
    <text id="TOXICIDAD" transform="translate(478.798 371.93)" fill="#e30613" font-size="11" font-family="Roboto-Bold, Roboto" font-weight="700"><tspan x="-28.214" y="0">TOXICIDAD</tspan></text>
    <path id="Trazado_191663" data-name="Trazado 191663" d="M81.937,216.254c-2.824.847-4.877,1.591-5.031,4.64l1.643,6.528c.815,2.351,2.157,2.744,4.373,2.246l37.363-9.874a3.121,3.121,0,0,0,2.521-2.711c.14-2.293,1.13-2.7,2.813-3.2l6.2-1.463c3.625.509,1.583-6.95-1.267-4.463l-5.924,1.311c-2.625.5-3.62.181-4.433-1.086-.591-.918-3.373-.721-5.744-.1Z" transform="translate(13.935 65.974)" fill="#1d1d1b"/>
    <path id="Trazado_191664" data-name="Trazado 191664" d="M374.757,94.1c2-.1,2.715-2.089,4.359-2.436,4.555,11.125-1.3,26.769-13.35,34.516h10.158a8.476,8.476,0,0,1,.237,5.052H344.789a9.376,9.376,0,0,1-.018-4.733h10.137c-11.523-9.424-15.235-21.6-13.9-36.041l3.935,2.464c.18-4.033.387-7.657-.543-11.52,2.836.787,3.169,4.046,6.2,5.1-1.375-4.578.062-8.558.923-12.759,3.143,1.383,2.446,5.375,5.091,7.185,3.084-5.066,1.326-11.027,3.42-16.757,2.031,5.944,5.357,10.925,4.518,17.154,2.891-1.171,3.213-1.678,3.824-5.738,2.789,2.042,3.1,2.979,3.52,10.637,1.59.838,1.851-1.651,3.4-1.281C377.271,88,375.023,91,374.757,94.1Zm-2.945,17.453a11.243,11.243,0,0,0-22.484-.252c-.033,6.033,5.426,11.614,11.322,11.573C366.155,122.835,371.76,117.15,371.812,111.552Zm-8.36-15.53c-1.086-3.414-.8-7.155-4.427-10.089.755,4.015-2.837,6.39-2.005,10.089Zm7.442,3.714c-1.022-3.092-1.759-5.319-2.6-7.854a13.454,13.454,0,0,0-2.972,4.753C366.876,97.5,368.4,98.347,370.894,99.737Zm-18.833-7.075c-.415,2.083-1.823,3.8-.619,6.135l3.933-1.838C354.3,95.5,354.375,93.466,352.061,92.663Zm-2.229,7.627-4.468-2.653c.655,2.358,1.148,4.137,1.728,6.223C348.149,102.481,348.941,101.451,349.831,100.29Zm25.033,5.194a10.238,10.238,0,0,0,.472-6.36c-1.28.73-2.381,1.081-2.8,2.418Z" transform="translate(124.006 6.2)" fill="#282426"/>
    <path id="Trazado_191665" data-name="Trazado 191665" d="M222.785,207.079a2.317,2.317,0,0,0,2.955,1.407l18.5-6.557.034.092a1.028,1.028,0,0,0,1.937-.687l-2.538-7.158a1.046,1.046,0,0,0-1.334-.636,1.013,1.013,0,0,0-.615,1.292l.038.108-18.5,6.559a2.318,2.318,0,0,0-1.409,2.955Zm.813-4.634,18.5-6.557,1.805,5.093-18.5,6.559a1.31,1.31,0,0,1-1.671-.8l-.931-2.626A1.312,1.312,0,0,1,223.6,202.445Zm-.435,1.543a.928.928,0,0,1,.563-1.182l5.466-1.937h13.883l-17.8,6.309a.928.928,0,0,1-1.182-.564Zm20.522,9.4c0-1.447,2.618-5.132,2.618-5.132s2.619,3.685,2.619,5.132a2.618,2.618,0,0,1-5.237,0Zm17.623,17.057A2.307,2.307,0,0,1,259,232.757H242.284V234.3H256.7a2.307,2.307,0,0,1,0,4.614H242.284v1.543h9.267a2.306,2.306,0,1,1,0,4.613H217.095v.351h-.006a1.06,1.06,0,0,1-2.117,0h-.006V221.635h.006a1.06,1.06,0,0,1,2.117,0h.006v.351h3.8l14.247-9.712a3.241,3.241,0,1,1,3.651,5.357l-6.389,4.355h11.438a2.6,2.6,0,0,0,4.932,0H256.7a2.306,2.306,0,0,1,0,4.613H242.284v1.545H259A2.306,2.306,0,0,1,261.308,230.45Z" transform="translate(71.532 60.146)" fill="#1d1d1b"/>
    <path id="Trazado_191666" data-name="Trazado 191666" d="M350.1,224.233c2.028,0,3.139-.981,3.628-.873.531.118.659.809.659,1.8h.024v4.809a1.124,1.124,0,0,0,2.2,0v-1.83h.969v1.83a1.123,1.123,0,0,0,2.2,0v-1.83h.969v1.83a1.109,1.109,0,0,0,1.074.882h0l.013,0h.011a1.188,1.188,0,0,0,.778-.308.862.862,0,0,0,.322-.581v-1.83h.968v1.83a.858.858,0,0,0,.323.581,1.181,1.181,0,0,0,.777.308,1.113,1.113,0,0,0,1.1-.889v-1.83h.969v1.83a.862.862,0,0,0,.322.581,1.134,1.134,0,0,0,1.553,0,.858.858,0,0,0,.323-.581v-4.809a2.6,2.6,0,0,1,.33-1.611.606.606,0,0,1,.327-.191.941.941,0,0,1,.487.091,7.7,7.7,0,0,0,3.141.782c1.97,0,4.382-2.119,5.7-5.5.119-.309.23-.626.33-.955a14.446,14.446,0,0,0,.469-2.08,15.258,15.258,0,0,0,.17-2.286c0-1.23.021-2.439.023-3.615a21,21,0,0,0-1.069-7.928,8.94,8.94,0,0,0-.666-1.3c-2.446-3.931-7.948-6.129-16.673-6.129h-.024c-8.724,0-14.227,2.2-16.673,6.129-2.062,3.316-1.711,7.928-1.711,12.845C343.434,219.752,347.234,224.233,350.1,224.233Zm19.135-14.5c4.261-.772,6.634-1.234,7,2.014a12.262,12.262,0,0,1-.047,3.08,10.948,10.948,0,0,1-.266,1.291,9.29,9.29,0,0,1-.645,1.729,4.723,4.723,0,0,1-3.121,2.788,3.358,3.358,0,0,1-1.237-.128c-.361-.086-.77-.207-1.2-.357a19.114,19.114,0,0,1-2.051-.849c-1.845-.89-3.577-2.093-3.815-3.211C362.549,209.989,364.521,210.586,369.234,209.733Zm-6.7,9.524c.855,0,3.641,3.371,3.641,4.416s-3.641,1.685-3.641,0Zm-1.41,4.416c0,1.685-3.641,1.043-3.641,0s2.786-4.416,3.641-4.416Zm-13.694-11.926c.361-3.248,2.735-2.786,7-2.014,4.712.853,6.685.257,5.388,6.356-.475,2.235-6.93,4.816-8.306,4.545C348.706,220.082,346.966,215.937,347.431,211.746Zm17.59,25.861c-.349.044-.707.082-1.08.111-.663.05-1.363.077-2.1.077h-.024c-5.861-.006-9.559-1.7-9.45-3.866l.276-9.219.748-.453.679,10.3.339.258v-1.83a1.124,1.124,0,0,1,2.2,0v1.83h.969v-1.83a1.123,1.123,0,0,1,2.2,0v1.83h.969v-1.83a1.109,1.109,0,0,1,1.078-.884l.02,0a1.209,1.209,0,0,1,1.013.6.628.628,0,0,1,.086.293v1.83h.968v-1.83a.628.628,0,0,1,.086-.293,1.21,1.21,0,0,1,1.013-.6,1.179,1.179,0,0,1,.883.436.782.782,0,0,1,.215.452v1.83h.969v-1.83a.628.628,0,0,1,.086-.293,1.159,1.159,0,0,1,2.025,0,.628.628,0,0,1,.086.293v1.83l.339-.258.679-10.3.747.453.278,9.217h0a2.042,2.042,0,0,1-.547,1.441c-.021.026-.038.054-.061.079a6.893,6.893,0,0,1-3.258,1.695c-.291.079-.6.15-.92.217C366.057,237.458,365.554,237.542,365.021,237.607Zm17.04,5.405a1.655,1.655,0,0,1-.38.427,1.938,1.938,0,0,1-.351.22c-.7.337-1.372.128-1.678.327a.339.339,0,0,0-.122.137c-.086.183,0,.359.149.57.1.14.221.3.333.482a2.385,2.385,0,0,1,.157.3,1.9,1.9,0,0,1,.162.76h0a2.305,2.305,0,0,1-1.929,2.046,2.2,2.2,0,0,1-1.865-.425c-.143-.115-.276-.232-.4-.35a8.686,8.686,0,0,1-1.91-3.376c-.041-.091-.085-.177-.13-.261a2.073,2.073,0,0,0-.315-.442,1.446,1.446,0,0,0-.431-.315l-7.785-3.761h0a11.661,11.661,0,0,0,4.826-1.616l4.505,2.177a1.682,1.682,0,0,0,1.056.112,7.787,7.787,0,0,0,1.025-.278,7.113,7.113,0,0,1,2.6-.429,5.776,5.776,0,0,1,1.013.142,2.129,2.129,0,0,1,1.28.881A2.518,2.518,0,0,1,382.061,243.012Zm-28.779-5.282a11.623,11.623,0,0,0,4.817,1.618l-7.79,3.764c-1.351.652-.893,2.9-3.186,4.743a2.4,2.4,0,0,1-3.794-1.621c.008-1.183,1.035-1.627.8-2.112s-1.219.044-2.15-.685a2.4,2.4,0,0,1,1.087-3.979c2.868-.652,4.345,1.105,5.7.453Zm-13.465-7.612a2.4,2.4,0,0,1-1.088-3.979c.932-.73,1.916-.2,2.15-.686s-.791-.927-.8-2.11a2.4,2.4,0,0,1,3.794-1.621c2.293,1.841,1.834,4.091,3.186,4.743l4.11,1.985-.118,3.89-5.538-2.676C344.163,229.012,342.686,230.771,339.818,230.119Zm45.8-2.416a2.5,2.5,0,0,1-1.138,2.161,2.155,2.155,0,0,1-.638.255,7.114,7.114,0,0,1-4.056-.425,2.2,2.2,0,0,0-1.64-.028l-5.513,2.663-.116-3.89,4.084-1.973a1.686,1.686,0,0,0,.744-.757c.5-.911.69-2.341,2.042-3.638.122-.118.255-.234.4-.349a2.4,2.4,0,0,1,3.794,1.621c-.008,1.183-1.033,1.627-.8,2.11s1.217-.044,2.15.686a1.6,1.6,0,0,1,.38.425A2.2,2.2,0,0,1,385.618,227.7Z" transform="translate(122.878 60.544)" fill="#1d1d1b"/>
    <rect id="Rectángulo_41027" data-name="Rectángulo 41027" width="85.898" height="85.898" transform="translate(117.883 393.645) rotate(45)" fill="#fff" stroke="#e30613" stroke-miterlimit="10" stroke-width="5"/>
    <rect id="Rectángulo_41028" data-name="Rectángulo 41028" width="85.898" height="85.898" transform="translate(308.62 393.645) rotate(45)" fill="#fff" stroke="#e30613" stroke-miterlimit="10" stroke-width="5"/>
    <rect id="Rectángulo_41029" data-name="Rectángulo 41029" width="85.898" height="85.898" transform="translate(483.394 393.645) rotate(45)" fill="#fff" stroke="#e30613" stroke-miterlimit="10" stroke-width="5"/>
    <text id="QUÍMICO_NOCIVO" data-name="QUÍMICO NOCIVO" transform="translate(110.865 543.072)" fill="#e30613" font-size="11" font-family="Roboto-Bold, Roboto" font-weight="700"><tspan x="-44.448" y="0">QUÍMICO NOCIVO</tspan></text>
    <text id="DAÑO_AL_MEDIO_AMBIENTE" data-name="DAÑO AL MEDIO AMBIENTE" transform="translate(297.84 543.072)" fill="#e30613" font-size="11" font-family="Roboto-Bold, Roboto" font-weight="700"><tspan x="-69.736" y="0">DAÑO AL MEDIO AMBIENTE</tspan></text>
    <text id="PELIGRO_PARA_LA_SALUD" data-name="PELIGRO PARA LA SALUD" transform="translate(472.282 543.072)" fill="#e30613" font-size="11" font-family="Roboto-Bold, Roboto" font-weight="700"><tspan x="-64.287" y="0">PELIGRO PARA LA SALUD</tspan></text>
    <path id="Trazado_191667" data-name="Trazado 191667" d="M104.611,363.683a6.662,6.662,0,1,1-6.7-6.625A6.677,6.677,0,0,1,104.611,363.683ZM93.2,350.36l-1.471-32.24H104.1l-1.472,32.24Z" transform="translate(19.935 112.145)" fill="#1d1d1b"/>
    <g id="Grupo_132613" data-name="Grupo 132613" transform="translate(277.393 418.586)">
      <path id="Trazado_191668" data-name="Trazado 191668" d="M270.846,340.286l-6.282,1.909c-.2-1.489.245-2.773.242-4.257a11.1,11.1,0,0,0-7.141.877,7.426,7.426,0,0,0-2.355,1.563,5.727,5.727,0,0,1-4.674,1.678c-5.795-.106-11.591-.04-17.563-.04.037-2.542-.2-5.261.83-7.313s2.809-4.239,5.524-4.722a3.435,3.435,0,0,0,1.959-1.172c.945-.978,1.879-1.967,3.108-3.255a9.844,9.844,0,0,0-3.162,2.107c-.835.652-1.623,1.146-2.7.662a1.361,1.361,0,0,0-1.559.385c-.988.848-2.028,1.637-3.455,2.776.714-5.263-1.378-10.467,2.316-14.922-.771-.238-1.019.72-1.881.672-.194-2.165-.391-4.373-.59-6.581-.907,6.618-1.6,13.259-4.811,19.42-.36-.965-.744-1.944-1.094-2.935-1.4-3.961-2.737-7.949-4.222-11.88-.663-1.753.255-3.292.368-5.38l-1.7,2.834-2.236-1.973-.356.18c2.307,2.945,2.524,6.443,3.006,9.954-1.08-.034-1.728-1.183-2.812-.836.044.1.061.231.123.257a5.191,5.191,0,0,1,3.32,5.011,54.216,54.216,0,0,0,.855,5.547l-8.611-4.13c-.959.547-1.5,1.549-2.371,2.232a.694.694,0,0,0,.894.194c1.545-1.11,2.69-.228,3.92.646,2.012,1.433,4.057,2.826,6.148,4.141a2.033,2.033,0,0,1,1.077,2.035c-.068,1.943-.021,3.889-.021,5.944h-16.4v1.078h16.4c0,2.758-.152,5.489.05,8.194.153,2.049-.486,3.21-2.438,3.863a33.817,33.817,0,0,0-3.94,1.933,11.573,11.573,0,0,0,4.281-.339c2-.421,3.6-.3,4.689,1.651a9.526,9.526,0,0,0,.932,1.195c1.827-1.118,2.263-3.533,4.586-3.668,1.866-.109,3.727-.319,5.959-.516-1.949-1.563-3.594-2.925-5.288-4.222a2.111,2.111,0,0,1-.944-1.977c.089-1.987.028-3.981.028-6.056h19.312c-.809,1.307-1.478,2.99-2.7,3.37-1.158.361-2.7-.5-4.161-.849-.6,2.435-1.569,4.851-1.7,7.313-.108,2.014-1.292,2.749-2.528,3.658a21.1,21.1,0,0,1-6.791,3.111c.126.682.857.439,1.189,1.013l-14.676,7.4c-.886-1.322-2.133-.767-3.322-.531-2.938.58-5.87,1.185-8.806,1.767-.041.007-.088.006-.13.011v.356H271v-3.254h-4.8c.663-1.271,1.23-2.357,1.861-3.567l-8.142-1.012,8.588-4.076c-1.383-.568-2.686-.353-4.366-.774l3.214-.77c-2.449-2.877-1.078-5.249.743-7.66A16.223,16.223,0,0,0,270.846,340.286Zm-26,12.593v0h0l0,0a19.07,19.07,0,0,1,1.237-4.3c.062-.207.12-.415.17-.628a5.875,5.875,0,0,1,2.575.249,44.522,44.522,0,0,1-3.96,4.712l-.146.215c-.028-.044-.078-.086-.078-.13C244.644,352.841,244.72,352.8,244.849,352.879Zm14.951,3.363,4.762-2.907c.208.77.38,1.4.577,2.127A14.764,14.764,0,0,1,259.8,356.242Zm3.543-3.833c-3.464,2.816-7.67,4.055-11.747,5.565-2.961,1.1-5.944,2.137-8.1,4.844a22.739,22.739,0,0,0-6.03-3.065c6.651-2.338,10.219-7.484,13.728-12.7a21.46,21.46,0,0,1,5.839-6.338,10.3,10.3,0,0,1,6.216-1.711,46.4,46.4,0,0,1-.626,5.151l6.812-2.178C268.036,346.044,266.626,349.742,263.344,352.409Z" transform="translate(-208.541 -309.879)" fill="#020202"/>
      <circle id="Elipse_4747" data-name="Elipse 4747" cx="0.742" cy="0.742" r="0.742" transform="translate(55.691 36.002)" fill="#020202"/>
    </g>
    <g id="Grupo_132614" data-name="Grupo 132614" transform="translate(459.681 421.761)">
      <path id="Trazado_191669" data-name="Trazado 191669" d="M365.715,334.44c-2.756,4.58-4.926,9.322-8.86,13.048-3.122-4.145-5.112-8.529-7.379-12.912a7.836,7.836,0,0,0,1.895-.351c1.312-.622,1.182-2.012-.306-3.121a10.355,10.355,0,1,1,12.254-.4c-.813.659-2.141,1.069-1.623,2.583.507,1.478,1.779,1.1,2.866,1.154C364.862,334.452,365.163,334.44,365.715,334.44Z" transform="translate(-333.24 -312.119)" fill="#020202"/>
      <path id="Trazado_191670" data-name="Trazado 191670" d="M356.2,341.112c.567-.007.847.747,1.616.587-.326-.816-1.267-.767-1.7-1.5,6.931-.577,13.738.4,20.7.716v24.758c-4.273,0-8.539-.007-12.8.006-1.076,0-1.11-.914-1.352-1.552a120.392,120.392,0,0,1-4.327-15.191,64.653,64.653,0,0,0-2.486-7.483Z" transform="translate(-329.379 -300.479)" fill="#020202"/>
      <path id="Trazado_191671" data-name="Trazado 191671" d="M337.168,339.763c3.622-.116,7.029.806,10.415.13,3.125-.624,6,.429,9.512.774l-4.484,2.44.215.463c1.519-.289,2.673-1.465,4.363-2.2a39.2,39.2,0,0,0-2.812,8.194,84.625,84.625,0,0,1-3.6,14.4,2.368,2.368,0,0,1-2.7,1.885c-3.631-.143-7.27-.045-10.918-.045Z" transform="translate(-337.168 -300.613)" fill="#020202"/>
      <path id="Trazado_191672" data-name="Trazado 191672" d="M357.045,341.6a18.539,18.539,0,0,1,3.792,7.94c1.311,5.146,2.635,10.294,4.477,15.443H347.4a66.383,66.383,0,0,0,4.379-15.085,15.98,15.98,0,0,1,4.335-8.489l.183,2.205C357.255,343.1,356.6,342.245,357.045,341.6Z" transform="translate(-332.9 -299.898)" fill="#020202"/>
      <path id="Trazado_191673" data-name="Trazado 191673" d="M337.511,342.065c.408-3.082.462-6.041,1.575-8.791,1.635-4.036,7.27-6.557,11.566-5.317.526.152.668.544.87.9a91.682,91.682,0,0,1,6.2,11.777c.58,1.468.238,2.005-1.318,2.157C350.12,343.4,343.938,342.065,337.511,342.065Zm19.257-.419c.14.079.279.163.425.231.014.007.075-.086.113-.133l-.391-.237c-.1-.37-.325-.461-.662-.291C356.3,341.527,356.538,341.58,356.768,341.645Z" transform="translate(-337.025 -305.645)" fill="#020202"/>
      <path id="Trazado_191674" data-name="Trazado 191674" d="M376.226,344a56.983,56.983,0,0,0-12.383-1.464c-2.191.043-4.388-.21-6.754-.339,1.2-1.317,3.264-1.244,4.324-3.06-1.888.346-3.041,1.616-4.6,2.106,1.147-5.076,4.378-8.882,7.124-12.955.247-.366.584-.383.974-.424a8.914,8.914,0,0,1,9.837,6.922C375.389,337.653,375.694,340.6,376.226,344Z" transform="translate(-328.972 -305.574)" fill="#020202"/>
      <path id="Trazado_191675" data-name="Trazado 191675" d="M355.888,341.207c-.15-.193-.286-.408-.024-.588.05-.034.254.157.385.245Z" transform="translate(-329.43 -300.231)" fill="#020202"/>
      <path id="Trazado_191676" data-name="Trazado 191676" d="M351.249,337.673c-.228-.065-.468-.118-.513-.429.337-.17.557-.079.662.291C351.35,337.581,351.3,337.627,351.249,337.673Z" transform="translate(-331.508 -301.672)" fill="#fdfdfd"/>
      <path id="Trazado_191677" data-name="Trazado 191677" d="M351.246,337.424l.391.237c-.038.047-.1.14-.113.133-.146-.068-.285-.152-.425-.231C351.149,337.518,351.2,337.471,351.246,337.424Z" transform="translate(-331.356 -301.563)" fill="#fdfdfd"/>
    </g>
  </g>
</svg>
