<svg xmlns="http://www.w3.org/2000/svg" width="25" height="25" viewBox="0 0 25 25">
  <g id="Grupo_134635" data-name="Grupo 134635" transform="translate(-443 -7837)">
    <g id="Grupo_132600" data-name="Grupo 132600" transform="translate(341.8 7645.8)">
      <path id="Trazado_191634" data-name="Trazado 191634" d="M101.2,191.2h25v25h-25Zm17.312,18.478,1.127-1.129-4.851-4.859,4.84-4.849-1.112-1.116-4.849,4.862-4.839-4.855-1.138,1.139,4.872,4.883-4.815,4.826,1.092,1.093,4.834-4.847Z" fill="#d5374d"/>
      <path id="Trazado_191635" data-name="Trazado 191635" d="M221.55,313.6l-6.272-6.288-6.265,6.282-1.416-1.417,6.24-6.255-6.314-6.328L209,298.116l6.272,6.292,6.285-6.3L223,299.552l-6.272,6.284,6.287,6.3Z" transform="translate(-101.593 -102.15)" fill="#fffefe"/>
    </g>
  </g>
</svg>
