<svg xmlns="http://www.w3.org/2000/svg" width="56.323" height="76.058" viewBox="0 0 56.323 76.058">
  <g id="Grupo_132607" data-name="Grupo 132607" transform="translate(-164.198 -204)">
    <path id="Trazado_191637" data-name="Trazado 191637" d="M195.3,204.483l.335-.483h38.4q5.357,5.392,10.72,10.777a1.68,1.68,0,0,1,.541,1.3q-.018,29.365-.01,58.729c0,.392.069.808-.492,1.125h-5.418a1.5,1.5,0,0,1-1,.207q-20.86.005-41.72,0c-1.325,0-1.559-.268-1.56-1.736q0-21.124,0-42.247c0-7.524-.023-15.048.018-22.571C195.121,207.884,195.287,206.184,195.3,204.483Z" transform="translate(-24.772)" fill="#040506"/>
    <path id="Trazado_191638" data-name="Trazado 191638" d="M164.485,293.97a1.819,1.819,0,0,1-.287-1.027q.013-35.253.009-70.506c0-.9.183-1.083,1.07-1.086.914,0,1.827,0,2.741,0,.416,0,.725.122.8.582.191.551-.166.716-.588.784a11.8,11.8,0,0,1-1.628.043,1.974,1.974,0,0,0-.785.117c-.258.644-.3,68.7,0,69.666h47.67a3.347,3.347,0,0,0,.528-1.479c.029-.142.087-.383.7-.4.225.013.385.309.385.309v3Z" transform="translate(0 -13.913)" fill="#050506"/>
    <path id="Trazado_191639" data-name="Trazado 191639" d="M219.734,278.7c-.352,0-.7.128-.7.4v1.681H170.458V210.621h2.909a.738.738,0,0,0,.469-.65h1.514c.249-1.2-.1-2.39.2-3.536.008,2.845.022,5.69.023,8.535q.011,30.843.021,61.686c0,.4-.141.867.455,1.2h42.764l.926.029Z" transform="translate(-5.02 -1.952)" fill="#ff9d00"/>
    <path id="Trazado_191640" data-name="Trazado 191640" d="M239.066,210.187c0,3.284,0,6.523,0,9.763,0,.37-.054.758.469,1.059h10.42v58.614H202.462V210.187Z" transform="translate(-30.685 -4.962)" fill="#ffdba9"/>
    <path id="Trazado_191641" data-name="Trazado 191641" d="M393.374,224.583v-8.391l8.4,8.391Z" transform="translate(-183.784 -9.777)" fill="#84888d"/>
    <path id="Trazado_191642" data-name="Trazado 191642" d="M246.117,338.355c-.493-.36-.908-.652-1.311-.958a4.929,4.929,0,0,1-1.163-6.789q.527-.8,1.114-1.57a4.8,4.8,0,0,1,6.48-1.2q5.534,3.768,10.929,7.739a4.828,4.828,0,0,1,1.1,6.457c-.43.69-.926,1.338-1.391,2a13.817,13.817,0,0,1-20.37,18.176c-.172.023-.2.176-.27.3a6.448,6.448,0,0,1-11.814-.9q-2.417-6.475-4.74-12.985a6.42,6.42,0,0,1,11.833-4.979c.353.811.638,1.651,1,2.606A14.121,14.121,0,0,1,246.117,338.355Z" transform="translate(-48.152 -98.683)" fill="#050506"/>
    <path id="Trazado_191643" data-name="Trazado 191643" d="M268.252,224.963h18.121c.279.253.408.494.238.819-.185.354-.513.331-.836.331h-13.86c-1.062,0-2.125.019-3.187-.007C268,226.088,267.836,225.714,268.252,224.963Z" transform="translate(-83.265 -16.811)" fill="#0a0a08"/>
    <path id="Trazado_191644" data-name="Trazado 191644" d="M268.091,295.951H255.9c-.276-.225-.442-.454-.285-.79a.7.7,0,0,1,.74-.372c3.73,0,7.461,0,11.191.006C268.333,294.8,268.519,295.161,268.091,295.951Z" transform="translate(-73.261 -72.807)" fill="#070706"/>
    <path id="Trazado_191645" data-name="Trazado 191645" d="M237.394,318.045c.265.227.422.456.26.79a.661.661,0,0,1-.672.355q-4.1,0-8.206,0a.711.711,0,0,1-.726-.4c-.148-.31.021-.513.259-.75Z" transform="translate(-51.16 -91.457)" fill="#0a0a08"/>
    <path id="Trazado_191646" data-name="Trazado 191646" d="M260.262,246.45A.584.584,0,0,1,260,245.7a.7.7,0,0,1,.733-.38q3.915.007,7.83,0a.758.758,0,0,1,.685.315.677.677,0,0,1-.2.816Z" transform="translate(-76.786 -33.135)" fill="#080807"/>
    <path id="Trazado_191647" data-name="Trazado 191647" d="M233.728,226.094a.785.785,0,0,1,.118-.925h4.99c.43.6.31,1.075-.327,1.093-1.431.04-2.864.016-4.3,0A1.656,1.656,0,0,1,233.728,226.094Z" transform="translate(-55.681 -16.976)" fill="#0c0b09"/>
    <path id="Trazado_191648" data-name="Trazado 191648" d="M254.622,341.7H250.16a.6.6,0,0,1-.252-.766c.134-.331.416-.38.726-.38,1.156,0,2.312-.014,3.468.006C254.874,340.577,255.053,340.963,254.622,341.7Z" transform="translate(-68.691 -109.508)" fill="#090907"/>
    <path id="Trazado_191649" data-name="Trazado 191649" d="M228.831,295.9a.708.708,0,0,1-.322-.891c.07-.058.154-.188.256-.2a17.364,17.364,0,0,1,3.6-.044c.325.018.469.347.405.681s-.317.461-.651.459C231.009,295.893,229.9,295.9,228.831,295.9Z" transform="translate(-51.539 -72.725)" fill="#080807"/>
    <path id="Trazado_191650" data-name="Trazado 191650" d="M316.027,246.373h-3.464a.661.661,0,0,1-.273-.8,5.96,5.96,0,0,1,3.933-.078A.718.718,0,0,1,316.027,246.373Z" transform="translate(-118.733 -33.037)" fill="#0a0908"/>
    <path id="Trazado_191651" data-name="Trazado 191651" d="M228.3,341.611c-.4-.379-.439-.719-.023-1.023a4.623,4.623,0,0,1,2.907.212.66.66,0,0,1-.283.811Z" transform="translate(-51.154 -109.414)" fill="#0b0a08"/>
    <path id="Trazado_191652" data-name="Trazado 191652" d="M287.259,317.843c.461.723.281,1.107-.489,1.145-.244.012-.49.012-.735,0-.768-.036-.95-.4-.524-1.136A7.084,7.084,0,0,1,287.259,317.843Z" transform="translate(-97.104 -91.255)" fill="#0e0d0a"/>
    <path id="Trazado_191653" data-name="Trazado 191653" d="M332.516,432.754l8.758-19.023c2.033,1.66,4.157,2.051,6.438.667,2.491,3.317,3.069,9.531-.542,14.3A12.45,12.45,0,0,1,332.516,432.754Z" transform="translate(-134.98 -168.191)" fill="#fff"/>
    <path id="Trazado_191654" data-name="Trazado 191654" d="M300.906,412.063a11.161,11.161,0,0,1-2.761-1.874c.6-2.947-1.039-5.364-1.868-7.965-.528-1.655-1.2-3.263-1.822-4.929a12.753,12.753,0,0,1,9.227-8.808l6.088,4.312Z" transform="translate(-104.458 -147.947)" fill="#fff"/>
    <path id="Trazado_191655" data-name="Trazado 191655" d="M337.939,349.439a4.178,4.178,0,0,1-2.334-.762c-3.4-2.4-6.807-4.8-10.195-7.226a3.732,3.732,0,0,1-.918-5.513,8.034,8.034,0,0,1,1.621-2.006,3.639,3.639,0,0,1,4.344-.158q5.278,3.679,10.505,7.43a3.717,3.717,0,0,1,.89,5.307,10.153,10.153,0,0,1-1.546,1.974A4.012,4.012,0,0,1,337.939,349.439Z" transform="translate(-127.882 -103.552)" fill="#57ac7a"/>
    <path id="Trazado_191656" data-name="Trazado 191656" d="M245.442,454.655c3.176-1.168,6.327-2.328,9.48-3.487a2.6,2.6,0,0,1,.3-.061c.727,2.557,2.184,4.881,2.446,7.559A5.161,5.161,0,0,1,247.732,461c-.794-1.97-1.487-3.982-2.22-5.977A2.308,2.308,0,0,1,245.442,454.655Z" transform="translate(-65.152 -198.164)" fill="#e65c79"/>
    <path id="Trazado_191657" data-name="Trazado 191657" d="M232.788,410.714c-.771-2.354-1.907-4.558-2.4-6.965a5.086,5.086,0,0,1,3.573-5.86,5.189,5.189,0,0,1,6.264,2.7,9.542,9.542,0,0,1,.368.882c.674,1.84,1.342,3.682,2.041,5.6Z" transform="translate(-53 -155.289)" fill="#a6daec"/>
    <path id="Trazado_191658" data-name="Trazado 191658" d="M363.568,359.206c.365-.1.6-.1.82.11a.694.694,0,0,1-.072.865c-1.031,1.439-2.051,2.887-3.092,4.318-.428.588-.811.522-1.229-.275Z" transform="translate(-157.016 -124.413)" fill="#060806"/>
  </g>
</svg>
