<svg xmlns="http://www.w3.org/2000/svg" width="610" height="350" viewBox="0 0 610 350">
  <g id="Grupo_134635" data-name="Grupo 134635" transform="translate(-705 -2516)">
    <rect id="Rectángulo_40933" data-name="Rectángulo 40933" width="610" height="350" transform="translate(705 2516)" fill="#fff"/>
    <g id="Grupo_130058" data-name="Grupo 130058" transform="translate(589.055 2245.056)">
      <g id="bg">
        <rect id="Rectángulo_40950" data-name="Rectángulo 40950" width="610" height="350" transform="translate(115.945 270.945)" fill="#00bcd4" opacity="0.35" style="isolation: isolate"/>
      </g>
      <g id="Modo_de_aislamiento" data-name="Modo de aislamiento">
        <g id="Grupo_130038" data-name="Grupo 130038">
          <g id="Grupo_130027" data-name="Grupo 130027" opacity="0.7" style="mix-blend-mode: multiply;isolation: isolate">
            <path id="Trazado_189045" data-name="Trazado 189045" d="M527.17,482.223l-.082-.066a5.257,5.257,0,0,0-6.7.119l-.544-.566,1.754-2.38a5.963,5.963,0,0,0,.425-.712,5.612,5.612,0,0,0,.032-5.617c-.076-.136-.175-.258-.263-.388a5.641,5.641,0,0,0-.343-.477,5.487,5.487,0,0,0-.505-.494c-.087-.079-.156-.17-.249-.244l-.088-.071c-.009-.007-.019-.011-.028-.018s-.03-.03-.047-.043l-.093-.069c-4.2-3.374-7.313.4-7.909,1.212l-.119.149c-.258-.3-.509-.592-.768-.9l2.144-2.9a5.941,5.941,0,0,0,1.155-3.3,5.623,5.623,0,0,0-2.094-4.777l-.088-.07a5.631,5.631,0,0,0-7.915.878l-.849,1.062c-.228-.354-.417-.7-.638-1.051l12.411-16.846a4.183,4.183,0,0,0,3.922,1.849c6.025,0,5.1-6.307,3.239-11.656,2.262-3.5,2.262-7.569-.131-9.332l-.092-.069c-2.531-1.864-6.746-.438-9.414,3.186L478.051,476.46a7.8,7.8,0,0,1-1.393.365c.391-.52.734-.987,1.145-1.529,12.917-17.014,11.3-24.141,8.671-26.794-2.216-2.233-3.5-.463-3.5-.463l-22.124,30.992-.873,2.337c-.605,7.372,2.015,25,2.015,25l-.944,1.314,0,0-4.888,6.7-2.161-1.568-19.8,27.3,32.485,23.565,19.8-27.3-1.525-1.106,4.851-6.679c1.827-.967,13.887-5.915,15.113-7.58l15.31-20.783,4.322-5.734a5.243,5.243,0,0,0,.458-.754l2.756-3.742c.088-.119.148-.248.227-.371l0,0A5.26,5.26,0,0,0,527.17,482.223Z" fill="gray"/>
            <path id="Trazado_189046" data-name="Trazado 189046" d="M647.917,532.4l-.125-7.987h-.019c.906-1.9,7.513-12.98,7.5-15.031l-.319-38.316c-.028-3.183-2.273-5.746-5.017-5.724h-.1c-2.224.017-4.717,1.02-5.087,4.031-.449-.069-.537-.089-1.042-.171l-.024-2.941a5.724,5.724,0,0,0-5.661-5.782h-.113c-5.963-.2-5.569,5.876-5.569,5.876-.391-.089-.764-.169-1.158-.262l-.026-3.588a5.743,5.743,0,0,0-5.708-5.776l-.114,0a5.743,5.743,0,0,0-5.613,5.869l.007.832c-.422-.152-.793-.326-1.2-.484l-.16-19.17a4.266,4.266,0,0,0-4.129-4.233c-6.378-.2-13.918-.495-18.418-.573a35.252,35.252,0,0,0-8.038,2.7c-.365.3-.782.657-1.21,1.072a4.208,4.208,0,0,0-.9,4.766c-13.471-12.744-31.354-20.077-33.4-19.174-1.544.681-4.818,4.422-7.145,7.245l-11.6-8.05L529.033,434,534,437.445h0l6.607,4.585c-1.852,3.186-4.369,7.8-4.47,9.543-.154,2.641,18.241,21.977,39.077,28.313a7.932,7.932,0,0,0-1.173.386c-2.854,1.284-1.992,2.757-1.992,2.757l26.472,30.434a9.312,9.312,0,0,0,1.75,1.561l12.1,8.313.1,4.923.074,4.689-2.218.034.526,33.542,39.913-.625-.525-33.541Zm-48.139-39.751c-3.94-4.014-12.648-11.616-20.113-12.886a35.632,35.632,0,0,0,8.96-8.931h0l.017-.027.019-.027a33.942,33.942,0,0,0,5.6-13.292,57.5,57.5,0,0,0-6.367-7.767,4.2,4.2,0,0,0,.781.281l4.355.319,10.6.779a4.272,4.272,0,0,1,3.4,4.144l.289,34.714C607.018,490.391,601.118,494.011,599.778,492.645Z" fill="gray"/>
          </g>
          <g id="Grupo_130037" data-name="Grupo 130037">
            <g id="Grupo_130031" data-name="Grupo 130031">
              <g id="Grupo_130028" data-name="Grupo 130028">
                <rect id="Rectángulo_40951" data-name="Rectángulo 40951" width="7.872" height="18.722" transform="translate(526.842 431.808) rotate(-55.24)" fill="#aeaeae"/>
                <rect id="Rectángulo_40952" data-name="Rectángulo 40952" width="7.872" height="12.676" transform="translate(531.808 435.255) rotate(-55.24)" fill="#595959"/>
              </g>
              <g id="Grupo_130029" data-name="Grupo 130029">
                <path id="Trazado_189047" data-name="Trazado 189047" d="M550.073,426.145c-2.425,1.07-9.133,9.7-9.7,10.442l0,0-.017.027-.02.026,0,0c-.492.792-6.234,10.1-6.386,12.743-.162,2.765,19.987,23.853,41.995,29.146a33.935,33.935,0,0,0,10.494-9.892h0l.018-.027.018-.026h0a33.96,33.96,0,0,0,5.6-13.292C579.41,436.526,552.607,425.028,550.073,426.145Z" fill="#1a2121"/>
                <rect id="Rectángulo_40953" data-name="Rectángulo 40953" width="23.465" height="21.954" transform="matrix(0.57, -0.822, 0.822, 0.57, 539.472, 450.285)" fill="#fff"/>
                <rect id="Rectángulo_40954" data-name="Rectángulo 40954" width="19.692" height="18.424" transform="matrix(0.57, -0.822, 0.822, 0.57, 541.998, 449.741)" fill="#13e0d6"/>
                <path id="Trazado_189048" data-name="Trazado 189048" d="M568.035,460.262a4.044,4.044,0,1,1-5.628,1.016A4.044,4.044,0,0,1,568.035,460.262Z" fill="#fc0"/>
                <path id="Trazado_189049" data-name="Trazado 189049" d="M576.8,447.631a4.044,4.044,0,1,1-5.628,1.016A4.042,4.042,0,0,1,576.8,447.631Z" fill="#e94c40"/>
              </g>
              <g id="Grupo_130030" data-name="Grupo 130030">
                <path id="Trazado_189050" data-name="Trazado 189050" d="M550.377,446.074l-1.517,2.185a.354.354,0,0,1-.391.137l-.86-.251a.355.355,0,0,1-.192-.542l1.84-2.652a.355.355,0,0,1,.576-.011l.537.719A.354.354,0,0,1,550.377,446.074Z"/>
                <path id="Trazado_189051" data-name="Trazado 189051" d="M554.281,440.448l-1.516,2.186a.356.356,0,0,1-.392.138l-.86-.251a.356.356,0,0,1-.192-.544l1.84-2.651a.355.355,0,0,1,.576-.01l.537.717A.356.356,0,0,1,554.281,440.448Z"/>
                <path id="Trazado_189052" data-name="Trazado 189052" d="M554.67,449.053l-1.516,2.186a.356.356,0,0,1-.392.138l-.86-.252a.355.355,0,0,1-.191-.543l1.84-2.651a.355.355,0,0,1,.576-.011l.536.718A.353.353,0,0,1,554.67,449.053Z"/>
                <path id="Trazado_189053" data-name="Trazado 189053" d="M549.009,448.667l2.183,1.522a.354.354,0,0,1,.136.391l-.253.86a.356.356,0,0,1-.544.191l-2.648-1.847a.354.354,0,0,1-.007-.575l.718-.535A.354.354,0,0,1,549.009,448.667Z"/>
                <path id="Trazado_189054" data-name="Trazado 189054" d="M553,442.918l2.182,1.522a.354.354,0,0,1,.138.391l-.253.86a.357.357,0,0,1-.544.192l-2.648-1.847a.355.355,0,0,1-.009-.575l.72-.536A.354.354,0,0,1,553,442.918Z"/>
                <path id="Trazado_189055" data-name="Trazado 189055" d="M554.6,440.6l2.19,1.512a.354.354,0,0,0,.415-.008l.717-.539a.356.356,0,0,0-.012-.576l-2.656-1.834a.356.356,0,0,0-.543.193l-.249.861A.357.357,0,0,0,554.6,440.6Z"/>
                <path id="Trazado_189056" data-name="Trazado 189056" d="M557.327,445.938l2.183,1.522a.359.359,0,0,1,.137.392l-.254.86a.356.356,0,0,1-.544.19l-2.647-1.847a.353.353,0,0,1-.008-.574l.718-.536A.354.354,0,0,1,557.327,445.938Z"/>
                <path id="Trazado_189057" data-name="Trazado 189057" d="M558.934,443.623l2.188,1.513a.356.356,0,0,0,.415-.008l.717-.539a.355.355,0,0,0-.012-.575l-2.656-1.835a.355.355,0,0,0-.542.193l-.249.86A.351.351,0,0,0,558.934,443.623Z"/>
                <path id="Trazado_189058" data-name="Trazado 189058" d="M555.187,449.022l2.189,1.511a.356.356,0,0,0,.415-.008l.716-.538a.355.355,0,0,0-.011-.576l-2.655-1.834a.354.354,0,0,0-.542.192l-.251.862A.356.356,0,0,0,555.187,449.022Z"/>
                <path id="Trazado_189059" data-name="Trazado 189059" d="M556.123,453.3l1.517-2.185a.353.353,0,0,1,.391-.139l.86.252a.355.355,0,0,1,.193.543l-1.841,2.652a.354.354,0,0,1-.575.009l-.538-.717A.354.354,0,0,1,556.123,453.3Z"/>
                <path id="Trazado_189060" data-name="Trazado 189060" d="M560.027,447.674l1.516-2.186a.356.356,0,0,1,.392-.138l.86.252a.355.355,0,0,1,.191.543l-1.839,2.651a.356.356,0,0,1-.577.011l-.536-.718A.354.354,0,0,1,560.027,447.674Z"/>
                <path id="Trazado_189061" data-name="Trazado 189061" d="M557.166,442.693l-1.277,1.839a.316.316,0,0,0-.033.31l.23.485a.259.259,0,0,0,.213.149l.533.045a.317.317,0,0,0,.281-.139l1.276-1.84a.318.318,0,0,0,.033-.311l-.23-.484a.254.254,0,0,0-.212-.147l-.535-.045A.309.309,0,0,0,557.166,442.693Z"/>
                <rect id="Rectángulo_40955" data-name="Rectángulo 40955" width="0.918" height="0.92" transform="translate(559.179 450.019) rotate(-55.218)"/>
              </g>
            </g>
            <g id="Grupo_130035" data-name="Grupo 130035">
              <g id="Grupo_130032" data-name="Grupo 130032">
                <path id="Trazado_189062" data-name="Trazado 189062" d="M487.612,526.394c1.827-.968,13.887-5.916,15.114-7.58L525.571,487.8c1.9-2.578,1.639-5.995-.582-7.63l-.081-.06c-1.8-1.326-4.41-2.024-6.523.175-.319-.325-.378-.4-.735-.766l1.754-2.38a5.754,5.754,0,0,0-1.067-8.064l-.092-.068c-4.674-3.759-8.022,1.369-8.022,1.369-.26-.306-.513-.6-.774-.909l2.143-2.9a5.774,5.774,0,0,0-1.109-8.088l-.093-.069a5.775,5.775,0,0,0-8.054,1.339l-.5.673c-.247-.377-.442-.741-.677-1.116l19.191-26.05c2.668-3.623,2.781-8.071.251-9.935l-.093-.068c-2.531-1.864-6.745-.438-9.414,3.185L475.861,474.27a7.893,7.893,0,0,1-1.393.364c.39-.52.733-.986,1.145-1.529,12.916-17.014,11.3-24.14,8.67-26.794-2.216-2.232-3.5-.462-3.5-.462L458.658,476.84c-.294.789-.579,1.55-.872,2.337-.605,7.373,2.015,25,2.015,25L448.8,519.482l28.71,20.826Z" fill="#ffd7be"/>
                <rect id="Rectángulo_40956" data-name="Rectángulo 40956" width="29.974" height="35.53" transform="translate(441.179 529.696) rotate(-53.872)" fill="#eacfbb" style="mix-blend-mode: multiply;isolation: isolate"/>
                <rect id="Rectángulo_40957" data-name="Rectángulo 40957" width="33.725" height="40.131" transform="matrix(0.587, -0.809, 0.809, 0.587, 432, 537.913)" fill="#293a80"/>
              </g>
              <g id="Grupo_130033" data-name="Grupo 130033" style="mix-blend-mode: multiply;isolation: isolate">
                <path id="Trazado_189063" data-name="Trazado 189063" d="M487.574,488.757l-.09-.069a5.626,5.626,0,0,1-1.107-7.884L498.4,464.846a5.629,5.629,0,0,1,7.885-1.107l.091.069c1.743,1.313.675,3.652,4.1,6.841.714.665-1.3,1.267-1.855,2.008L496.6,488.614C494.723,491.1,490.057,490.629,487.574,488.757Z" fill="#eacfbb"/>
                <path id="Trazado_189064" data-name="Trazado 189064" d="M495.728,499.247l-.092-.068a5.631,5.631,0,0,1-1.106-7.886l12.029-15.957a5.63,5.63,0,0,1,7.885-1.107l.091.068a10.289,10.289,0,0,1,3.115,5.222l.735.766-14.592,19.087C501.921,501.855,498.211,501.119,495.728,499.247Z" fill="#eacfbb"/>
                <path id="Trazado_189065" data-name="Trazado 189065" d="M503.756,508.236l-.085-.064a5.26,5.26,0,0,1-1.033-7.366l11.235-14.9a5.259,5.259,0,0,1,7.366-1.034l.084.064a5.259,5.259,0,0,1,1.034,7.365l-11.234,14.9A5.261,5.261,0,0,1,503.756,508.236Z" fill="#eacfbb"/>
              </g>
              <g id="Grupo_130034" data-name="Grupo 130034">
                <path id="Trazado_189066" data-name="Trazado 189066" d="M491.134,482.883l-.089-.071a5.63,5.63,0,0,1-.879-7.914l12.484-15.6a5.632,5.632,0,0,1,7.915-.879l.088.071a5.63,5.63,0,0,1,.879,7.915L499.048,482A5.63,5.63,0,0,1,491.134,482.883Z" fill="#feddbd"/>
                <path id="Trazado_189067" data-name="Trazado 189067" d="M498.982,493.6l-.09-.07a5.632,5.632,0,0,1-.879-7.915l12.485-15.6a5.63,5.63,0,0,1,7.915-.878l.088.07a5.631,5.631,0,0,1,.878,7.915l-12.484,15.6A5.63,5.63,0,0,1,498.982,493.6Z" fill="#feddbd"/>
                <path id="Trazado_189068" data-name="Trazado 189068" d="M506.748,502.821l-.084-.066a5.263,5.263,0,0,1-.82-7.394l11.661-14.574a5.26,5.26,0,0,1,7.392-.82l.082.066a5.26,5.26,0,0,1,.822,7.393L514.14,502A5.261,5.261,0,0,1,506.748,502.821Z" fill="#feddbd"/>
              </g>
            </g>
            <path id="Trazado_189069" data-name="Trazado 189069" d="M517.5,425.3s-10.453,19.005,0,19.005S517.5,425.3,517.5,425.3Z" fill="#ec3b18"/>
            <g id="Grupo_130036" data-name="Grupo 130036">
              <path id="Trazado_189070" data-name="Trazado 189070" d="M645.572,522.238c.878-1.86,7.523-12.994,7.507-15.05l-.318-38.316c-.028-3.184-2.274-5.747-5.018-5.725h-.1c-2.223.017-4.717,1.02-5.087,4.032-.448-.07-.536-.089-1.042-.171l-.024-2.942a5.724,5.724,0,0,0-5.66-5.782l-.114,0c-5.963-.2-5.569,5.876-5.569,5.876-.39-.09-.763-.17-1.158-.262l-.025-3.588a5.742,5.742,0,0,0-5.709-5.776h-.113a5.744,5.744,0,0,0-5.614,5.87l.007.831c-.421-.152-.793-.326-1.2-.483l-.16-19.171a4.265,4.265,0,0,0-4.128-4.233c-6.378-.2-13.918-.495-18.419-.572a35.258,35.258,0,0,0-8.037,2.7c-.365.3-.783.658-1.211,1.073a4.278,4.278,0,0,0,2.106,7.251l4.354.319,10.6.779a4.272,4.272,0,0,1,3.4,4.144l.289,34.715c-.294.438-6.194,4.058-7.533,2.693-5-5.091-17.671-16-25.739-12.372-2.854,1.283-1.991,2.757-1.991,2.757l26.472,30.433a9.209,9.209,0,0,0,1.749,1.561l12.1,8.313.373,18.747,35.277-.553Z" fill="#ffd7be"/>
              <rect id="Rectángulo_40958" data-name="Rectángulo 40958" width="35.379" height="29.974" transform="translate(610.226 522.775) rotate(-0.901)" fill="#eacfbb" style="mix-blend-mode: multiply;isolation: isolate"/>
              <rect id="Rectángulo_40959" data-name="Rectángulo 40959" width="39.919" height="33.546" transform="matrix(1, -0.016, 0.016, 1, 608.135, 530.794)" fill="#293a80"/>
            </g>
          </g>
        </g>
        <g id="Grupo_130050" data-name="Grupo 130050">
          <path id="Trazado_189071" data-name="Trazado 189071" d="M322.731,414.471l-50.582-.123v-1.994a34.617,34.617,0,0,0-34.579-34.579h-.664a34.618,34.618,0,0,0-34.581,34.579v7.575a15.62,15.62,0,0,0-4.4,12.154l3.845,45.229H179.117a1.6,1.6,0,0,0-1.512,1.675v85.862a1.6,1.6,0,0,0,1.512,1.677h47.448a1.6,1.6,0,0,0,1.513-1.677v-5.292l85.822.211c9.546.024,17.461-6.68,18.154-15.372l8.921-111.96C341.745,422.765,333.348,414.5,322.731,414.471ZM236.906,381.2h.664a31.193,31.193,0,0,1,31.158,31.158v1.986l-52.656-.129a19.266,19.266,0,0,0-10.325,2.918v-4.775A31.193,31.193,0,0,1,236.906,381.2Z" fill="gray" opacity="0.7" style="mix-blend-mode: multiply;isolation: isolate"/>
          <g id="Grupo_130049" data-name="Grupo 130049">
            <g id="Grupo_130040" data-name="Grupo 130040">
              <path id="Trazado_189072" data-name="Trazado 189072" d="M311.66,557.528l-88.215-.217c-9.546-.023-17.5-6.765-18.237-15.461l-9.523-112.006c-.822-9.672,7.531-17.9,18.147-17.873l106.659.261c10.617.026,19.014,8.294,18.245,17.964l-8.921,111.96C329.121,550.848,321.207,557.552,311.66,557.528Z" fill="#fff"/>
              <path id="Trazado_189073" data-name="Trazado 189073" d="M304.862,546.758l-75.189-.184c-8.138-.019-14.915-5.765-15.544-13.178l-8.117-95.468c-.7-8.244,6.418-15.256,15.468-15.235l90.91.224c9.05.022,16.206,7.069,15.55,15.311l-7.6,95.428C319.745,541.067,313,546.78,304.862,546.758Z" fill="#f24f49"/>
              <rect id="Rectángulo_40960" data-name="Rectángulo 40960" width="4.82" height="52.611" transform="translate(264.89 484.727)" fill="#fff"/>
              <path id="Rectángulo_40961" data-name="Rectángulo 40961" d="M2.161,0H59.546a2.161,2.161,0,0,1,2.161,2.161V25.116a2.161,2.161,0,0,1-2.161,2.161H2.162A2.162,2.162,0,0,1,0,25.115V2.161A2.161,2.161,0,0,1,2.161,0Z" transform="translate(236.446 432.237)" fill="#fff"/>
              <path id="Trazado_189074" data-name="Trazado 189074" d="M292.482,456.17H242.118a1.78,1.78,0,0,1-1.9-1.632V437.215a1.78,1.78,0,0,1,1.9-1.632h50.364a1.781,1.781,0,0,1,1.9,1.632v17.323A1.781,1.781,0,0,1,292.482,456.17Z" fill="#13e0d6"/>
              <g id="Grupo_130039" data-name="Grupo 130039">
                <path id="Trazado_189075" data-name="Trazado 189075" d="M277.173,439.809h-3.651a.487.487,0,0,1-.462-.332l-.389-1.166a.488.488,0,0,1,.461-.642h4.43a.488.488,0,0,1,.462.642l-.389,1.166A.489.489,0,0,1,277.173,439.809Z"/>
                <path id="Trazado_189076" data-name="Trazado 189076" d="M288.493,439.809h-3.651a.488.488,0,0,1-.462-.332l-.389-1.166a.488.488,0,0,1,.463-.642h4.428a.489.489,0,0,1,.463.642l-.39,1.166A.487.487,0,0,1,288.493,439.809Z"/>
                <path id="Trazado_189077" data-name="Trazado 189077" d="M277.173,446.981h-3.651a.485.485,0,0,1-.462-.333l-.389-1.165a.487.487,0,0,1,.461-.641h4.43a.487.487,0,0,1,.462.641l-.389,1.165A.487.487,0,0,1,277.173,446.981Z"/>
                <path id="Trazado_189078" data-name="Trazado 189078" d="M273.177,440.3l-.008,3.65a.486.486,0,0,1-.333.462l-1.168.387a.487.487,0,0,1-.64-.464l.01-4.429a.488.488,0,0,1,.642-.462l1.166.392A.489.489,0,0,1,273.177,440.3Z"/>
                <path id="Trazado_189079" data-name="Trazado 189079" d="M284.7,440.3l-.008,3.65a.487.487,0,0,1-.334.462l-1.168.387a.487.487,0,0,1-.64-.464l.01-4.429a.488.488,0,0,1,.642-.462l1.166.392A.49.49,0,0,1,284.7,440.3Z"/>
                <path id="Trazado_189080" data-name="Trazado 189080" d="M288.571,440.3l.009,3.65a.487.487,0,0,0,.334.462l1.167.387a.489.489,0,0,0,.641-.464l-.01-4.429a.489.489,0,0,0-.642-.462l-1.166.392A.491.491,0,0,0,288.571,440.3Z"/>
                <path id="Trazado_189081" data-name="Trazado 189081" d="M284.687,447.539l-.008,3.652a.485.485,0,0,1-.334.46l-1.167.387a.486.486,0,0,1-.64-.464l.008-4.429a.488.488,0,0,1,.642-.46l1.167.392A.487.487,0,0,1,284.687,447.539Z"/>
                <path id="Trazado_189082" data-name="Trazado 189082" d="M288.554,447.539l.008,3.652a.484.484,0,0,0,.334.46l1.167.387a.487.487,0,0,0,.64-.464l-.009-4.429a.488.488,0,0,0-.642-.46l-1.166.392A.487.487,0,0,0,288.554,447.539Z"/>
                <path id="Trazado_189083" data-name="Trazado 189083" d="M277.613,447.539l.008,3.652a.483.483,0,0,0,.333.46l1.168.387a.487.487,0,0,0,.64-.464l-.01-4.429a.487.487,0,0,0-.642-.46l-1.165.392A.485.485,0,0,0,277.613,447.539Z"/>
                <path id="Trazado_189084" data-name="Trazado 189084" d="M273.522,451.942h3.651a.487.487,0,0,1,.462.332l.389,1.168a.487.487,0,0,1-.462.641h-4.43a.487.487,0,0,1-.461-.641l.389-1.168A.485.485,0,0,1,273.522,451.942Z"/>
                <path id="Trazado_189085" data-name="Trazado 189085" d="M267.6,439.809h-3.651a.488.488,0,0,1-.462-.332l-.388-1.166a.487.487,0,0,1,.461-.642h4.429a.488.488,0,0,1,.462.642l-.389,1.166A.487.487,0,0,1,267.6,439.809Z"/>
                <path id="Trazado_189086" data-name="Trazado 189086" d="M267.6,446.981h-3.651a.486.486,0,0,1-.462-.333l-.388-1.165a.486.486,0,0,1,.461-.641h4.429a.487.487,0,0,1,.462.641l-.389,1.165A.485.485,0,0,1,267.6,446.981Z"/>
                <path id="Trazado_189087" data-name="Trazado 189087" d="M263.608,440.3l-.008,3.65a.49.49,0,0,1-.334.462l-1.168.387a.487.487,0,0,1-.639-.464l.008-4.429a.489.489,0,0,1,.643-.462l1.165.392A.491.491,0,0,1,263.608,440.3Z"/>
                <path id="Trazado_189088" data-name="Trazado 189088" d="M268.043,447.539l.007,3.652a.487.487,0,0,0,.335.46l1.168.387a.487.487,0,0,0,.64-.464l-.01-4.429a.488.488,0,0,0-.642-.46l-1.166.392A.487.487,0,0,0,268.043,447.539Z"/>
                <path id="Trazado_189089" data-name="Trazado 189089" d="M263.952,451.942H267.6a.485.485,0,0,1,.462.332l.389,1.168a.487.487,0,0,1-.462.641h-4.429a.486.486,0,0,1-.461-.641l.388-1.168A.486.486,0,0,1,263.952,451.942Z"/>
                <path id="Trazado_189090" data-name="Trazado 189090" d="M284.842,451.942h3.651a.485.485,0,0,1,.462.332l.39,1.168a.488.488,0,0,1-.463.641h-4.428a.487.487,0,0,1-.463-.641l.389-1.168A.486.486,0,0,1,284.842,451.942Z"/>
                <rect id="Rectángulo_40962" data-name="Rectángulo 40962" width="1.261" height="1.262" transform="translate(280.448 452.821)"/>
              </g>
            </g>
            <path id="Trazado_189091" data-name="Trazado 189091" d="M240.494,459.669H198.221l6.987,82.181c.739,8.7,8.691,15.438,18.237,15.461l19.115.047v-95.4A2.185,2.185,0,0,0,240.494,459.669Z" fill="#75b6de" opacity="0.55" style="mix-blend-mode: multiply;isolation: isolate"/>
            <g id="Grupo_130047" data-name="Grupo 130047">
              <g id="Grupo_130041" data-name="Grupo 130041">
                <path id="Trazado_189092" data-name="Trazado 189092" d="M224.325,475.072H176.877a1.6,1.6,0,0,0-1.513,1.676v85.861a1.6,1.6,0,0,0,1.513,1.678h47.448a1.6,1.6,0,0,0,1.513-1.678V476.748A1.6,1.6,0,0,0,224.325,475.072Z" fill="#1a2121"/>
                <rect id="Rectángulo_40963" data-name="Rectángulo 40963" width="41.288" height="68.092" transform="translate(179.958 484.344)" fill="#f3f3f3"/>
                <path id="Trazado_189093" data-name="Trazado 189093" d="M204.848,479.385a.589.589,0,1,0,.587.589A.588.588,0,0,0,204.848,479.385Z" fill="#d6d6d6"/>
                <path id="Trazado_189094" data-name="Trazado 189094" d="M202.345,556.644h-3.487a.436.436,0,0,0-.373.479v.709a.436.436,0,0,0,.373.479h3.487a.435.435,0,0,0,.372-.479v-.709A.436.436,0,0,0,202.345,556.644Z" fill="#d6d6d6"/>
                <path id="Trazado_189095" data-name="Trazado 189095" d="M202.17,479.385h-5.677a.6.6,0,1,0,0,1.177h5.677a.6.6,0,1,0,0-1.177Z" fill="#d6d6d6"/>
              </g>
              <g id="Grupo_130043" data-name="Grupo 130043">
                <path id="Trazado_189096" data-name="Trazado 189096" d="M205.21,493.121H202a.424.424,0,0,1-.4-.29l-.343-1.026a.428.428,0,0,1,.406-.562h3.888a.427.427,0,0,1,.406.562l-.341,1.026A.427.427,0,0,1,205.21,493.121Z"/>
                <path id="Trazado_189097" data-name="Trazado 189097" d="M215.148,493.121h-3.206a.424.424,0,0,1-.4-.29L211.2,491.8a.428.428,0,0,1,.406-.562h3.888a.427.427,0,0,1,.406.562l-.342,1.026A.426.426,0,0,1,215.148,493.121Z"/>
                <path id="Trazado_189098" data-name="Trazado 189098" d="M205.21,499.419H202a.428.428,0,0,1-.4-.293l-.343-1.024a.427.427,0,0,1,.406-.562h3.888a.427.427,0,0,1,.406.562l-.341,1.024A.431.431,0,0,1,205.21,499.419Z"/>
                <path id="Trazado_189099" data-name="Trazado 189099" d="M201.7,493.55l-.006,3.205a.428.428,0,0,1-.293.4l-1.026.339a.426.426,0,0,1-.561-.406l.008-3.887a.427.427,0,0,1,.564-.4l1.024.343A.43.43,0,0,1,201.7,493.55Z"/>
                <path id="Trazado_189100" data-name="Trazado 189100" d="M211.822,493.55l-.008,3.205a.425.425,0,0,1-.293.4l-1.024.339a.428.428,0,0,1-.563-.406l.009-3.887a.427.427,0,0,1,.563-.4l1.024.343A.429.429,0,0,1,211.822,493.55Z"/>
                <path id="Trazado_189101" data-name="Trazado 189101" d="M215.217,493.55l.006,3.205a.425.425,0,0,0,.293.4l1.026.339a.426.426,0,0,0,.561-.406l-.009-3.887a.426.426,0,0,0-.563-.4l-1.024.343A.427.427,0,0,0,215.217,493.55Z"/>
                <path id="Trazado_189102" data-name="Trazado 189102" d="M211.8,499.909l-.006,3.2a.424.424,0,0,1-.293.4l-1.025.34a.427.427,0,0,1-.562-.407l.009-3.887a.427.427,0,0,1,.563-.4l1.024.344A.426.426,0,0,1,211.8,499.909Z"/>
                <path id="Trazado_189103" data-name="Trazado 189103" d="M215.2,499.909l.008,3.2a.424.424,0,0,0,.293.4l1.025.34a.428.428,0,0,0,.562-.407l-.009-3.887a.427.427,0,0,0-.563-.4l-1.024.344A.429.429,0,0,0,215.2,499.909Z"/>
                <path id="Trazado_189104" data-name="Trazado 189104" d="M205.6,499.909l.006,3.2a.428.428,0,0,0,.294.4l1.025.34a.426.426,0,0,0,.561-.407l-.007-3.887a.428.428,0,0,0-.563-.4l-1.025.344A.43.43,0,0,0,205.6,499.909Z"/>
                <path id="Trazado_189105" data-name="Trazado 189105" d="M202,503.771h3.206a.431.431,0,0,1,.406.293l.341,1.026a.427.427,0,0,1-.406.562h-3.888a.428.428,0,0,1-.406-.562l.343-1.026A.428.428,0,0,1,202,503.771Z"/>
                <path id="Trazado_189106" data-name="Trazado 189106" d="M196.808,493.121h-3.2a.424.424,0,0,1-.406-.29l-.341-1.026a.427.427,0,0,1,.4-.562h3.889a.427.427,0,0,1,.4.562l-.342,1.026A.424.424,0,0,1,196.808,493.121Z"/>
                <path id="Trazado_189107" data-name="Trazado 189107" d="M196.808,499.419h-3.2a.428.428,0,0,1-.406-.293l-.341-1.024a.426.426,0,0,1,.4-.562h3.889a.427.427,0,0,1,.4.562l-.342,1.024A.428.428,0,0,1,196.808,499.419Z"/>
                <path id="Trazado_189108" data-name="Trazado 189108" d="M193.3,493.55l-.006,3.205a.427.427,0,0,1-.293.4l-1.025.339a.427.427,0,0,1-.562-.406l.009-3.887a.426.426,0,0,1,.563-.4l1.023.343A.427.427,0,0,1,193.3,493.55Z"/>
                <path id="Trazado_189109" data-name="Trazado 189109" d="M197.2,499.909l.007,3.2a.424.424,0,0,0,.293.4l1.025.34a.428.428,0,0,0,.562-.407l-.009-3.887a.427.427,0,0,0-.563-.4l-1.023.344A.428.428,0,0,0,197.2,499.909Z"/>
                <path id="Trazado_189110" data-name="Trazado 189110" d="M193.6,503.771h3.2a.428.428,0,0,1,.406.293l.342,1.026a.427.427,0,0,1-.4.562h-3.889a.427.427,0,0,1-.4-.562l.341-1.026A.428.428,0,0,1,193.6,503.771Z"/>
                <path id="Trazado_189111" data-name="Trazado 189111" d="M211.942,503.771h3.206a.43.43,0,0,1,.4.293l.342,1.026a.427.427,0,0,1-.406.562H211.6a.428.428,0,0,1-.406-.562l.342-1.026A.428.428,0,0,1,211.942,503.771Z"/>
                <rect id="Rectángulo_40964" data-name="Rectángulo 40964" width="1.108" height="1.109" transform="translate(208.084 504.544)"/>
                <g id="Grupo_130042" data-name="Grupo 130042">
                  <path id="Trazado_189112" data-name="Trazado 189112" d="M194.647,511.031h-3.808a.184.184,0,0,1-.179-.265l.48-1.061a.235.235,0,0,1,.212-.126h2.783a.237.237,0,0,1,.212.126l.48,1.061A.185.185,0,0,1,194.647,511.031Z"/>
                  <path id="Trazado_189113" data-name="Trazado 189113" d="M199.15,509.579h-3.808a.184.184,0,0,0-.179.266l.48,1.059a.229.229,0,0,0,.212.127h2.782a.232.232,0,0,0,.212-.127l.479-1.059A.184.184,0,0,0,199.15,509.579Z"/>
                  <path id="Trazado_189114" data-name="Trazado 189114" d="M203.525,511.031h-3.808a.184.184,0,0,1-.179-.265l.48-1.061a.235.235,0,0,1,.212-.126h2.782a.237.237,0,0,1,.213.126l.479,1.061A.184.184,0,0,1,203.525,511.031Z"/>
                  <path id="Trazado_189115" data-name="Trazado 189115" d="M208.027,509.579h-3.808a.184.184,0,0,0-.178.266l.48,1.059a.23.23,0,0,0,.212.127h2.781a.23.23,0,0,0,.212-.127l.48-1.059A.184.184,0,0,0,208.027,509.579Z"/>
                  <path id="Trazado_189116" data-name="Trazado 189116" d="M212.4,511.031H208.6a.184.184,0,0,1-.179-.265l.48-1.061a.235.235,0,0,1,.211-.126h2.783a.235.235,0,0,1,.212.126l.48,1.061A.184.184,0,0,1,212.4,511.031Z"/>
                  <path id="Trazado_189117" data-name="Trazado 189117" d="M216.9,509.579H213.1a.185.185,0,0,0-.179.266l.48,1.059a.231.231,0,0,0,.212.127h2.782a.23.23,0,0,0,.212-.127l.481-1.059A.185.185,0,0,0,216.9,509.579Z"/>
                </g>
              </g>
              <g id="Grupo_130046" data-name="Grupo 130046">
                <path id="Trazado_189118" data-name="Trazado 189118" d="M215.148,520.27h-3.206a.427.427,0,0,1-.4-.293l-.342-1.024a.429.429,0,0,1,.406-.564h3.888a.428.428,0,0,1,.406.564l-.342,1.024A.429.429,0,0,1,215.148,520.27Z"/>
                <path id="Trazado_189119" data-name="Trazado 189119" d="M211.822,520.7l-.008,3.205a.426.426,0,0,1-.293.405l-1.024.341a.43.43,0,0,1-.563-.407l.009-3.889a.428.428,0,0,1,.563-.405l1.024.344A.429.429,0,0,1,211.822,520.7Z"/>
                <path id="Trazado_189120" data-name="Trazado 189120" d="M215.217,520.7l.006,3.205a.426.426,0,0,0,.293.405l1.026.341a.428.428,0,0,0,.561-.407l-.009-3.889a.428.428,0,0,0-.563-.405l-1.024.344A.427.427,0,0,0,215.217,520.7Z"/>
                <path id="Trazado_189121" data-name="Trazado 189121" d="M211.8,527.055l-.006,3.2a.426.426,0,0,1-.293.405l-1.025.341a.428.428,0,0,1-.562-.406l.009-3.89a.428.428,0,0,1,.563-.4l1.024.343A.426.426,0,0,1,211.8,527.055Z"/>
                <path id="Trazado_189122" data-name="Trazado 189122" d="M215.2,527.055l.008,3.2a.426.426,0,0,0,.293.405l1.025.341a.429.429,0,0,0,.562-.406l-.009-3.89a.428.428,0,0,0-.563-.4l-1.024.343A.429.429,0,0,0,215.2,527.055Z"/>
                <path id="Trazado_189123" data-name="Trazado 189123" d="M211.942,530.92h3.206a.427.427,0,0,1,.4.291l.342,1.026a.428.428,0,0,1-.406.562H211.6a.428.428,0,0,1-.406-.562l.342-1.026A.425.425,0,0,1,211.942,530.92Z"/>
                <rect id="Rectángulo_40965" data-name="Rectángulo 40965" width="1.108" height="1.107" transform="translate(208.084 531.69)"/>
                <g id="Grupo_130044" data-name="Grupo 130044">
                  <path id="Trazado_189124" data-name="Trazado 189124" d="M194.647,538.79h-3.808a.185.185,0,0,1-.179-.267l.48-1.059a.231.231,0,0,1,.212-.126h2.783a.233.233,0,0,1,.212.126l.48,1.059A.186.186,0,0,1,194.647,538.79Z"/>
                  <path id="Trazado_189125" data-name="Trazado 189125" d="M199.15,537.338h-3.808a.183.183,0,0,0-.179.264l.48,1.061a.234.234,0,0,0,.212.127h2.782a.238.238,0,0,0,.212-.127l.479-1.061A.183.183,0,0,0,199.15,537.338Z"/>
                  <path id="Trazado_189126" data-name="Trazado 189126" d="M203.525,538.79h-3.808a.185.185,0,0,1-.179-.267l.48-1.059a.231.231,0,0,1,.212-.126h2.782a.234.234,0,0,1,.213.126l.479,1.059A.185.185,0,0,1,203.525,538.79Z"/>
                  <path id="Trazado_189127" data-name="Trazado 189127" d="M208.027,537.338h-3.808a.183.183,0,0,0-.178.264l.48,1.061a.235.235,0,0,0,.212.127h2.781a.235.235,0,0,0,.212-.127l.48-1.061A.183.183,0,0,0,208.027,537.338Z"/>
                  <path id="Trazado_189128" data-name="Trazado 189128" d="M212.4,538.79H208.6a.185.185,0,0,1-.179-.267l.48-1.059a.232.232,0,0,1,.211-.126h2.783a.231.231,0,0,1,.212.126l.48,1.059A.185.185,0,0,1,212.4,538.79Z"/>
                  <path id="Trazado_189129" data-name="Trazado 189129" d="M216.9,537.338H213.1a.184.184,0,0,0-.179.264l.48,1.061a.237.237,0,0,0,.212.127h2.782a.235.235,0,0,0,.212-.127l.481-1.061A.184.184,0,0,0,216.9,537.338Z"/>
                </g>
                <g id="Grupo_130045" data-name="Grupo 130045">
                  <path id="Trazado_189130" data-name="Trazado 189130" d="M205.334,520.607h-3.119a.416.416,0,0,1-.394-.285l-.332-1a.417.417,0,0,1,.394-.549h3.784a.418.418,0,0,1,.395.549l-.333,1A.417.417,0,0,1,205.334,520.607Z"/>
                  <path id="Trazado_189131" data-name="Trazado 189131" d="M205.4,521.023l.007,3.116a.416.416,0,0,0,.285.394l1,.33a.414.414,0,0,0,.546-.4l-.007-3.781a.417.417,0,0,0-.549-.394l-1,.335A.416.416,0,0,0,205.4,521.023Z"/>
                  <path id="Trazado_189132" data-name="Trazado 189132" d="M202.083,527.208l-.007,3.119a.416.416,0,0,1-.285.394l-1,.33a.416.416,0,0,1-.547-.4l.008-3.784a.415.415,0,0,1,.549-.391l1,.332A.418.418,0,0,1,202.083,527.208Z"/>
                  <path id="Trazado_189133" data-name="Trazado 189133" d="M202.215,530.968h3.119a.417.417,0,0,1,.4.285l.333,1a.417.417,0,0,1-.395.547h-3.784a.416.416,0,0,1-.394-.547l.332-1A.416.416,0,0,1,202.215,530.968Z"/>
                  <path id="Trazado_189134" data-name="Trazado 189134" d="M205.1,524.883h-2.624a.371.371,0,0,0-.321.177l-.312.545a.3.3,0,0,0,0,.3l.312.545a.369.369,0,0,0,.321.174H205.1a.372.372,0,0,0,.322-.174l.313-.545a.306.306,0,0,0,0-.3l-.313-.545A.374.374,0,0,0,205.1,524.883Z"/>
                  <path id="Trazado_189135" data-name="Trazado 189135" d="M196.083,519.828l-.018,4.344a.579.579,0,0,0,.314.549l1.108.466c.3.125.609-.153.611-.549l.022-5.267c0-.4-.306-.676-.607-.551l-1.111.459A.588.588,0,0,0,196.083,519.828Z"/>
                  <path id="Trazado_189136" data-name="Trazado 189136" d="M196.024,527.225l-.019,4.393a.586.586,0,0,0,.313.555l1.109.473c.3.126.61-.156.611-.556l.023-5.328c0-.4-.307-.682-.607-.558l-1.111.466A.59.59,0,0,0,196.024,527.225Z"/>
                </g>
              </g>
            </g>
            <g id="Grupo_130048" data-name="Grupo 130048">
              <path id="Trazado_189137" data-name="Trazado 189137" d="M200.085,475.072h3.422V410.114a31.193,31.193,0,0,1,31.159-31.157h.664a31.193,31.193,0,0,1,31.159,31.157v2.015h3.421v-2.015a34.617,34.617,0,0,0-34.58-34.578h-.664a34.618,34.618,0,0,0-34.581,34.578Z" fill="#1a2121"/>
            </g>
          </g>
        </g>
        <g id="Grupo_130057" data-name="Grupo 130057">
          <path id="Trazado_189138" data-name="Trazado 189138" d="M541.223,342.861l-7.109-11.531c-5.023-8.145-14.774-11.343-21.353-6.827L438.5,379.661a1.654,1.654,0,0,0-.422,2.2l.014.026a1.63,1.63,0,0,1,.218.609c.008.052,0,.1,0,.158a1.674,1.674,0,0,1-.033.474,1.639,1.639,0,0,1-.52.886l-38.273,32.747-16.164,9.968c-1.814,1.118-2.194,3.794-.849,5.974l.049.08c1.345,2.181,3.9,3.043,5.719,1.924l15.952-9.836.01.017,46.68-19.59a1.643,1.643,0,0,1,1.027-.067,1.7,1.7,0,0,1,.438.184,1.523,1.523,0,0,1,.138.073,1.612,1.612,0,0,1,.448.467l.015.026a1.656,1.656,0,0,0,2.154.609l82.628-41.582C544.725,361.155,546.247,351.006,541.223,342.861Z" fill="gray" opacity="0.7" style="mix-blend-mode: multiply;isolation: isolate"/>
          <g id="Grupo_130056" data-name="Grupo 130056">
            <path id="Trazado_189139" data-name="Trazado 189139" d="M409.027,418.634l-22.8,14.056c-1.814,1.118-4.375.257-5.719-1.924l-.049-.081c-1.345-2.18-.965-4.855.849-5.974l22.794-14.056c1.815-1.118,4.375-.257,5.72,1.924l.049.081C411.221,414.841,410.841,417.515,409.027,418.634Z" fill="#293a80"/>
            <path id="Trazado_189140" data-name="Trazado 189140" d="M510.746,322.488l-74.257,55.158a1.655,1.655,0,0,0-.422,2.2l.015.025A1.655,1.655,0,0,1,435.75,382l-38.466,32.913,4.91,7.962,46.68-19.59a1.654,1.654,0,0,1,2.05.657l.015.025a1.656,1.656,0,0,0,2.154.61l82.629-41.583c6.988-3.849,8.51-14,3.487-22.144l-7.11-11.531C527.077,321.17,517.326,317.972,510.746,322.488Z" fill="#fbfeff"/>
            <path id="Trazado_189141" data-name="Trazado 189141" d="M510.746,322.488l-74.257,55.158a1.655,1.655,0,0,0-.422,2.2l.015.025a1.651,1.651,0,0,1,.183,1.3l13.576,22.016a1.651,1.651,0,0,1,1.083.749l.015.025a1.656,1.656,0,0,0,2.154.61l82.629-41.583c6.988-3.849,8.51-14,3.487-22.144l-7.11-11.531C527.077,321.17,517.326,317.972,510.746,322.488Z" fill="#293a80"/>
            <g id="Grupo_130051" data-name="Grupo 130051">
              <path id="Trazado_189142" data-name="Trazado 189142" d="M527.082,340.366a13.621,13.621,0,1,1-18.743-4.445A13.618,13.618,0,0,1,527.082,340.366Z" fill="#fff"/>
              <path id="Trazado_189143" data-name="Trazado 189143" d="M524.157,342.171a10.183,10.183,0,1,1-14.013-3.323A10.181,10.181,0,0,1,524.157,342.171Z" fill="#13e0d6"/>
            </g>
            <g id="Grupo_130052" data-name="Grupo 130052">
              <path id="Trazado_189144" data-name="Trazado 189144" d="M500.993,369.488l-36.7,22.626a3.235,3.235,0,0,1-4.374-1.3l-8.108-13.147a3.237,3.237,0,0,1,.806-4.492l36.694-22.626a3.237,3.237,0,0,1,4.375,1.3L501.8,365A3.235,3.235,0,0,1,500.993,369.488Z" fill="#fff"/>
              <path id="Trazado_189145" data-name="Trazado 189145" d="M498.3,368.742l-33.457,20.631a2.774,2.774,0,0,1-3.818-.9l-6.615-10.727a2.776,2.776,0,0,1,.906-3.818l33.457-20.631a2.776,2.776,0,0,1,3.818.906l6.614,10.727A2.773,2.773,0,0,1,498.3,368.742Z" fill="#9bc9d3"/>
            </g>
            <g id="Grupo_130053" data-name="Grupo 130053">
              <path id="Trazado_189146" data-name="Trazado 189146" d="M462.986,374.156l-2.66,1.64a.414.414,0,0,1-.486-.035l-.808-.675a.417.417,0,0,1,.049-.675l3.227-1.99a.417.417,0,0,1,.624.26l.241,1.024A.417.417,0,0,1,462.986,374.156Z"/>
              <path id="Trazado_189147" data-name="Trazado 189147" d="M470.741,369.375l-2.661,1.639a.414.414,0,0,1-.485-.035l-.809-.674a.418.418,0,0,1,.049-.676l3.228-1.99a.417.417,0,0,1,.624.26l.241,1.025A.417.417,0,0,1,470.741,369.375Z"/>
              <path id="Trazado_189148" data-name="Trazado 189148" d="M466.209,379.381l-2.661,1.641a.417.417,0,0,1-.486-.035l-.807-.676a.416.416,0,0,1,.048-.674l3.227-1.99a.416.416,0,0,1,.624.259l.242,1.026A.417.417,0,0,1,466.209,379.381Z"/>
              <path id="Trazado_189149" data-name="Trazado 189149" d="M463.98,374.032l1.646,2.657a.415.415,0,0,0,.451.186l1.023-.243a.416.416,0,0,0,.259-.625l-2-3.223a.417.417,0,0,0-.675-.047l-.673.809A.415.415,0,0,0,463.98,374.032Z"/>
              <path id="Trazado_189150" data-name="Trazado 189150" d="M468.2,371.43l1.635,2.665a.417.417,0,0,1-.036.485l-.678.806a.416.416,0,0,1-.674-.049l-1.983-3.231a.416.416,0,0,1,.261-.624l1.025-.24A.42.42,0,0,1,468.2,371.43Z"/>
              <path id="Trazado_189151" data-name="Trazado 189151" d="M471.116,369.855l2.057,3.327a.524.524,0,0,0,.5.27l1.068-.172c.288-.047.393-.408.206-.711l-2.5-4.034c-.187-.3-.556-.37-.726-.132l-.629.881A.523.523,0,0,0,471.116,369.855Z"/>
              <path id="Trazado_189152" data-name="Trazado 189152" d="M474.6,375.534l2.08,3.365a.533.533,0,0,0,.506.275l1.071-.169c.289-.046.392-.409.2-.714l-2.523-4.082c-.189-.307-.56-.376-.729-.137l-.627.886A.534.534,0,0,0,474.6,375.534Z"/>
              <path id="Trazado_189153" data-name="Trazado 189153" d="M467.233,379.31l1.647,2.657a.417.417,0,0,0,.45.186l1.025-.244a.417.417,0,0,0,.258-.625l-2-3.222a.416.416,0,0,0-.674-.047l-.675.809A.42.42,0,0,0,467.233,379.31Z"/>
              <path id="Trazado_189154" data-name="Trazado 189154" d="M465.776,384.635l2.66-1.64a.417.417,0,0,1,.487.035l.807.675a.416.416,0,0,1-.049.674l-3.227,1.99a.416.416,0,0,1-.624-.259l-.241-1.025A.418.418,0,0,1,465.776,384.635Z"/>
              <path id="Trazado_189155" data-name="Trazado 189155" d="M478.543,364.563l-2.66,1.641a.419.419,0,0,1-.486-.035l-.808-.676a.417.417,0,0,1,.049-.675l3.227-1.989a.416.416,0,0,1,.624.259l.241,1.025A.417.417,0,0,1,478.543,364.563Z"/>
              <path id="Trazado_189156" data-name="Trazado 189156" d="M476.033,366.671l1.764,2.874a.451.451,0,0,1-.02.514l-.663.828a.424.424,0,0,1-.692-.076l-2.139-3.488a.424.424,0,0,1,.245-.651l1.039-.216A.45.45,0,0,1,476.033,366.671Z"/>
              <path id="Trazado_189157" data-name="Trazado 189157" d="M478.85,364.934l1.775,2.866a.451.451,0,0,0,.468.214l1.037-.222a.423.423,0,0,0,.242-.652l-2.153-3.478a.423.423,0,0,0-.692-.073l-.66.831A.452.452,0,0,0,478.85,364.934Z"/>
              <path id="Trazado_189158" data-name="Trazado 189158" d="M479.1,371.667l1.751,2.856a.443.443,0,0,1-.02.51l-.665.827a.423.423,0,0,1-.69-.074l-2.125-3.465a.423.423,0,0,1,.246-.648l1.038-.217A.444.444,0,0,1,479.1,371.667Z"/>
              <path id="Trazado_189159" data-name="Trazado 189159" d="M481.914,369.93l1.764,2.848a.445.445,0,0,0,.465.211l1.036-.224a.423.423,0,0,0,.244-.649l-2.14-3.456a.422.422,0,0,0-.689-.071l-.661.83A.444.444,0,0,0,481.914,369.93Z"/>
              <path id="Trazado_189160" data-name="Trazado 189160" d="M481.333,375.042l2.661-1.64a.415.415,0,0,1,.485.035l.808.675a.417.417,0,0,1-.048.674l-3.227,1.99a.416.416,0,0,1-.625-.258l-.241-1.026A.416.416,0,0,1,481.333,375.042Z"/>
              <rect id="Rectángulo_40966" data-name="Rectángulo 40966" width="1.08" height="1.08" transform="translate(478.776 377.503) rotate(-31.627)"/>
            </g>
            <g id="Grupo_130054" data-name="Grupo 130054">
              <path id="Trazado_189161" data-name="Trazado 189161" d="M483.665,359.991l-1.078.664a.168.168,0,0,1-.2-.013l-.328-.274a.169.169,0,0,1,.02-.274l1.308-.807a.169.169,0,0,1,.253.105l.1.416A.171.171,0,0,1,483.665,359.991Z"/>
              <path id="Trazado_189162" data-name="Trazado 189162" d="M482.533,360.916l.716,1.166a.182.182,0,0,1-.009.207l-.269.336a.171.171,0,0,1-.28-.031l-.868-1.414a.171.171,0,0,1,.1-.263l.422-.088A.181.181,0,0,1,482.533,360.916Z"/>
              <path id="Trazado_189163" data-name="Trazado 189163" d="M483.926,360.056l.72,1.163a.182.182,0,0,0,.189.086l.422-.089a.173.173,0,0,0,.1-.265l-.873-1.411a.172.172,0,0,0-.281-.029l-.267.337A.182.182,0,0,0,483.926,360.056Z"/>
              <path id="Trazado_189164" data-name="Trazado 189164" d="M483.5,362.132l1.079-.665a.169.169,0,0,1,.2.014l.327.274a.168.168,0,0,1-.02.273l-1.309.807a.168.168,0,0,1-.253-.1l-.1-.416A.168.168,0,0,1,483.5,362.132Z"/>
            </g>
            <g id="Grupo_130055" data-name="Grupo 130055">
              <path id="Trazado_189165" data-name="Trazado 189165" d="M489.48,357.1l-1.935,1.192a.3.3,0,0,1-.352-.025l-.588-.491a.3.3,0,0,1,.036-.49l2.345-1.447a.3.3,0,0,1,.454.189l.175.745A.3.3,0,0,1,489.48,357.1Z"/>
              <path id="Trazado_189166" data-name="Trazado 189166" d="M487.45,358.755l1.283,2.09a.329.329,0,0,1-.015.373l-.483.6a.306.306,0,0,1-.5-.056l-1.556-2.535a.308.308,0,0,1,.178-.473l.755-.157A.328.328,0,0,1,487.45,358.755Z"/>
              <path id="Trazado_189167" data-name="Trazado 189167" d="M489.177,360.935l1.933-1.192a.3.3,0,0,1,.354.026l.587.49a.3.3,0,0,1-.035.491L489.67,362.2a.3.3,0,0,1-.453-.188l-.176-.745A.3.3,0,0,1,489.177,360.935Z"/>
            </g>
          </g>
        </g>
      </g>
    </g>
  </g>
</svg>
