<svg xmlns="http://www.w3.org/2000/svg" xmlns:xlink="http://www.w3.org/1999/xlink" width="610" height="350" viewBox="0 0 610 350">
  <defs>
    <linearGradient id="linear-gradient" x1="0.418" y1="0.558" x2="-0.068" y2="0.732" gradientUnits="objectBoundingBox">
      <stop offset="0" stop-color="#d8dee8"/>
      <stop offset="0.996" stop-color="#97a6b7"/>
    </linearGradient>
    <linearGradient id="linear-gradient-2" x1="-0.043" y1="0.21" x2="0.238" y2="0.434" gradientUnits="objectBoundingBox">
      <stop offset="0" stop-color="#aa80f9"/>
      <stop offset="0.996" stop-color="#6165d7"/>
    </linearGradient>
    <linearGradient id="linear-gradient-3" x1="0.527" y1="0.541" x2="-0.284" y2="0.877" gradientUnits="objectBoundingBox">
      <stop offset="0.004" stop-color="#e38ddd"/>
      <stop offset="1" stop-color="#9571f6"/>
    </linearGradient>
    <clipPath id="clip-path">
      <path id="Trazado_189626" data-name="Trazado 189626" d="M526.164,517.773c-22.833,4.055-52.407,5.516-82.108-4.1-7.58-2.454-54.406-17.614-52.06-41.28.827-8.336,7.056-10.687,8.332-21.812,1.512-13.183-6.267-18.319-13.084-33.271-4.068-8.922-15.973-35.032-3.367-52.747,7.533-10.586,23.478-17.695,36.441-16.494,19.015,1.762,27.89,21.057,42.409,54,12.871,29.207,11.495,37.146,21.087,57.99C490.933,475.533,503.3,496.4,526.164,517.773Z" fill="url(#linear-gradient)"/>
    </clipPath>
    <clipPath id="clip-path-2">
      <path id="Trazado_189632" data-name="Trazado 189632" d="M415.688,556.775c11.849-11.424,27.436-29.928,34.252-55.886,8.939-34.044-5.064-51-4.287-108.439.491-36.321,1.2-61.663,19.32-75.458,14.2-10.81,37.394-13.235,51.621-3.585,11.829,8.024,18.843,25.334,21.08,37.728,1.823,10.1.568,17.47,6.476,22.724,6.037,5.369,12.434,2.2,18.065,6.158,11.42,8.033,5.238,35.238,4.239,39.635-11.114,48.911-55.589,82.4-75.165,96.771A303.9,303.9,0,0,1,415.688,556.775Z" fill="url(#linear-gradient-2)"/>
    </clipPath>
    <clipPath id="clip-path-3">
      <path id="Trazado_189637" data-name="Trazado 189637" d="M431.1,545.923c22.195,6.721,51.39,11.662,82.019,5.618,7.816-1.542,56.1-11.071,56.567-34.848.163-8.376-5.746-11.446-5.7-22.644.055-13.268,8.385-17.451,16.92-31.494,5.092-8.379,19.994-32.9,9.567-51.981-6.231-11.4-21.225-20.341-34.24-20.679-19.09-.494-30.18,17.619-48.485,48.622-16.228,27.484-15.8,35.529-27.783,55.1C471.071,508.136,456.326,527.394,431.1,545.923Z" fill="url(#linear-gradient-3)"/>
    </clipPath>
    <linearGradient id="linear-gradient-7" x1="0.504" y1="-0.708" x2="0.49" y2="2.594" gradientUnits="objectBoundingBox">
      <stop offset="0" stop-color="#ffc444"/>
      <stop offset="0.996" stop-color="#f36f56"/>
    </linearGradient>
    <linearGradient id="linear-gradient-8" x1="0.503" y1="-0.47" x2="0.489" y2="4.055" xlink:href="#linear-gradient-7"/>
    <linearGradient id="linear-gradient-9" x1="0.521" y1="-0.708" x2="0.447" y2="2.199" xlink:href="#linear-gradient-7"/>
    <linearGradient id="linear-gradient-10" x1="0.525" y1="-0.617" x2="0.464" y2="2.146" xlink:href="#linear-gradient-7"/>
    <linearGradient id="linear-gradient-11" x1="0.748" y1="-1.158" x2="0.39" y2="1.237" xlink:href="#linear-gradient-7"/>
    <linearGradient id="linear-gradient-12" x1="0.611" y1="-0.111" x2="0.367" y2="0.983" xlink:href="#linear-gradient-7"/>
    <clipPath id="clip-path-4">
      <path id="Trazado_189644" data-name="Trazado 189644" d="M437.209,498.165s27.762,1.458,48.565-6.67l50.379-119.156-37.3-19.789L421.224,484.224Z" fill="none"/>
    </clipPath>
    <linearGradient id="linear-gradient-13" x1="1.297" y1="-0.696" x2="0.154" y2="1.016" xlink:href="#linear-gradient-7"/>
    <linearGradient id="linear-gradient-14" x1="1.415" y1="-0.695" x2="0.081" y2="1.006" xlink:href="#linear-gradient-7"/>
    <linearGradient id="linear-gradient-15" x1="20.084" y1="-0.21" x2="19.556" y2="1.428" xlink:href="#linear-gradient-7"/>
    <linearGradient id="linear-gradient-16" x1="-12.011" y1="12.812" x2="-10.479" y2="14.552" gradientUnits="objectBoundingBox">
      <stop offset="0" stop-color="#ff9085"/>
      <stop offset="1" stop-color="#fb6fbb"/>
    </linearGradient>
    <linearGradient id="linear-gradient-17" x1="-12.08" y1="20.37" x2="-11.142" y2="20.37" xlink:href="#linear-gradient-16"/>
    <linearGradient id="linear-gradient-18" x1="4.223" y1="-7.771" x2="5.901" y2="-5.908" xlink:href="#linear-gradient-16"/>
    <linearGradient id="linear-gradient-19" x1="4.347" y1="-10.995" x2="5.363" y2="-10.995" xlink:href="#linear-gradient-16"/>
    <linearGradient id="linear-gradient-20" x1="-16.513" y1="132.931" x2="-17.367" y2="134.529" gradientUnits="objectBoundingBox">
      <stop offset="0" stop-color="#311944"/>
      <stop offset="1" stop-color="#a03976"/>
    </linearGradient>
    <linearGradient id="linear-gradient-21" x1="-49.606" y1="74.804" x2="-50.085" y2="73.943" xlink:href="#linear-gradient-16"/>
    <linearGradient id="linear-gradient-22" x1="0.865" y1="0.019" x2="-0.033" y2="1.712" xlink:href="#linear-gradient-3"/>
    <linearGradient id="linear-gradient-23" x1="0" y1="0.5" x2="1" y2="0.5" xlink:href="#linear-gradient-2"/>
    <linearGradient id="linear-gradient-24" x1="0.482" y1="0.781" x2="0.744" y2="-3.264" xlink:href="#linear-gradient-2"/>
    <linearGradient id="linear-gradient-25" x1="0.629" y1="-0.629" x2="0.213" y2="3.013" xlink:href="#linear-gradient-3"/>
    <linearGradient id="linear-gradient-26" x1="0.485" y1="-0.045" x2="0.637" y2="3.105" xlink:href="#linear-gradient"/>
    <linearGradient id="linear-gradient-27" x1="0.382" y1="0.516" x2="1.414" y2="-0.949" xlink:href="#linear-gradient"/>
    <linearGradient id="linear-gradient-30" x1="0" y1="0.5" x2="1" y2="0.5" xlink:href="#linear-gradient"/>
  </defs>
  <g id="Grupo_130175" data-name="Grupo 130175" transform="translate(-115.945 -278.396)">
    <g id="bg">
      <rect id="Rect치ngulo_41002" data-name="Rect치ngulo 41002" width="610" height="350" transform="translate(115.945 278.396)" fill="#00bcd4" opacity="0.35" style="isolation: isolate"/>
    </g>
    <g id="Illustration">
      <g id="Grupo_130174" data-name="Grupo 130174">
        <g id="Grupo_130142" data-name="Grupo 130142">
          <g id="Grupo_130141" data-name="Grupo 130141" opacity="0.5" style="mix-blend-mode: soft-light;isolation: isolate">
            <path id="Trazado_189622" data-name="Trazado 189622" d="M526.164,517.773c-22.833,4.055-52.407,5.516-82.108-4.1-7.58-2.454-54.406-17.614-52.06-41.28.827-8.336,7.056-10.687,8.332-21.812,1.512-13.183-6.267-18.319-13.084-33.271-4.068-8.922-15.973-35.032-3.367-52.747,7.533-10.586,23.478-17.695,36.441-16.494,19.015,1.762,27.89,21.057,42.409,54,12.871,29.207,11.495,37.146,21.087,57.99C490.933,475.533,503.3,496.4,526.164,517.773Z" fill="url(#linear-gradient)"/>
            <g id="Grupo_130140" data-name="Grupo 130140" clip-path="url(#clip-path)">
              <g id="Grupo_130139" data-name="Grupo 130139">
                <path id="Trazado_189623" data-name="Trazado 189623" d="M564.58,523.8a120.072,120.072,0,0,1-12.1-.61c-31.912-3.227-61.289-19.684-87.314-48.914-27.047-30.376-43.7-66.951-52.916-92.284-6.414-17.639-8.161-38.061-5.192-60.7l.858.113c-2.95,22.5-1.218,42.782,5.148,60.29,9.186,25.262,25.794,61.73,52.749,92,25.877,29.062,55.065,45.423,86.754,48.628,23.785,2.407,48.051-2.369,72.126-14.191l.381.778C604.92,518.811,584.624,523.8,564.58,523.8Z" fill="#fff"/>
                <path id="Trazado_189624" data-name="Trazado 189624" d="M435.139,431.21l-.383-.2c-53.791-27.864-58.5-69.585-58.661-81.708,0-.249,0-.408-.011-.472l.859-.113c.011.085.013.213.018.573.16,11.972,4.81,53.107,57.8,80.749a118.848,118.848,0,0,0,8.5-24.428c3.148-13.485,5.358-33.709-1.988-53.474l.813-.3c7.423,19.975,5.192,40.389,2.014,54a117.288,117.288,0,0,1-8.764,24.995Z" fill="#fff"/>
                <path id="Trazado_189625" data-name="Trazado 189625" d="M431.364,479.982a68.994,68.994,0,0,1-28.254-5.708c-13.16-5.86-19.459-14.248-19.522-14.332l.7-.515c.062.083,6.254,8.315,19.225,14.076,21.6,9.592,45.143,5.124,61.171-.358.765-2.994,8.692-35.794.8-76.61l-8.357-43.22.851-.165,8.356,43.221c8.28,42.823-.779,76.883-.871,77.223l-.061.221-.216.074A105.641,105.641,0,0,1,431.364,479.982Z" fill="#fff"/>
              </g>
            </g>
          </g>
        </g>
        <g id="Grupo_130151" data-name="Grupo 130151">
          <g id="Grupo_130146" data-name="Grupo 130146">
            <g id="Grupo_130145" data-name="Grupo 130145" opacity="0.3" style="mix-blend-mode: soft-light;isolation: isolate">
              <path id="Trazado_189627" data-name="Trazado 189627" d="M415.688,556.775c11.849-11.424,27.436-29.928,34.252-55.886,8.939-34.044-5.064-51-4.287-108.439.491-36.321,1.2-61.663,19.32-75.458,14.2-10.81,37.394-13.235,51.621-3.585,11.829,8.024,18.843,25.334,21.08,37.728,1.823,10.1.568,17.47,6.476,22.724,6.037,5.369,12.434,2.2,18.065,6.158,11.42,8.033,5.238,35.238,4.239,39.635-11.114,48.911-55.589,82.4-75.165,96.771A303.9,303.9,0,0,1,415.688,556.775Z" fill="url(#linear-gradient-2)"/>
              <g id="Grupo_130144" data-name="Grupo 130144" clip-path="url(#clip-path-2)">
                <g id="Grupo_130143" data-name="Grupo 130143">
                  <path id="Trazado_189628" data-name="Trazado 189628" d="M402.071,565.906l-.318-.8c20.738-8.2,38.546-17.89,52.928-28.793,21.213-16.08,34.307-34.375,38.919-54.379,3.612-15.665,2.039-31.816-.139-54.171a303.309,303.309,0,0,0-7.088-41.356c-3.274-14.393-5.861-25.761-4.391-42.322,1.492-16.807,6.8-33.567,15.777-49.813l.758.419c-8.918,16.14-14.191,32.785-15.672,49.471-1.458,16.425,1.115,27.734,4.373,42.053a304,304,0,0,1,7.105,41.462c1.08,11.084,2.012,20.655,2.231,29.533a98.421,98.421,0,0,1-2.109,24.919C489.786,502.33,476.584,520.793,455.2,537,440.759,547.949,422.883,557.675,402.071,565.906Z" fill="#fff"/>
                  <path id="Trazado_189629" data-name="Trazado 189629" d="M492.571,415.076l-.451-.189a85.114,85.114,0,0,1-24.1-17.207c-11.108-11.127-24.581-30.628-25.686-60.344l.866-.032c1.094,29.419,14.42,48.724,25.408,59.738a85.973,85.973,0,0,0,23.4,16.846c9.311-32.485,26.393-53,39.116-64.5,13.864-12.537,25.706-17.39,25.824-17.438l.324.8c-.117.047-11.843,4.858-25.6,17.3-12.69,11.484-29.752,32-38.971,64.549Z" fill="#fff"/>
                  <path id="Trazado_189630" data-name="Trazado 189630" d="M495.979,463.424l-.181-.258a246.55,246.55,0,0,0-27.452-31.79c-15.275-14.587-50.636-19.249-50.991-19.294l.11-.86c.358.046,36,4.743,51.479,19.527a247.82,247.82,0,0,1,27.379,31.66c19.2-6.129,38.675-32.811,51.665-54.176A432.947,432.947,0,0,0,571.975,362.5l.794.346a433.458,433.458,0,0,1-24.036,45.826c-13.136,21.608-32.9,48.629-52.453,54.657Z" fill="#fff"/>
                  <path id="Trazado_189631" data-name="Trazado 189631" d="M460.532,532.219l.418-.75c5.086-9.121,6.9-18.592,5.394-28.152-1.207-7.66-4.539-15.4-9.9-23.01A93.713,93.713,0,0,0,435.1,459.044l.483-.719a94.634,94.634,0,0,1,21.551,21.463c5.445,7.72,8.83,15.586,10.062,23.382a43.62,43.62,0,0,1-5.076,27.959,224.346,224.346,0,0,0,40.2-10.525c21.309-7.647,51.649-22.072,75.177-47.365l45.674-49.1.634.59-45.673,49.1c-23.653,25.427-54.135,39.918-75.541,47.6a219.106,219.106,0,0,1-41.206,10.683Z" fill="#fff"/>
                </g>
              </g>
            </g>
          </g>
          <g id="Grupo_130150" data-name="Grupo 130150">
            <g id="Grupo_130149" data-name="Grupo 130149" opacity="0.5" style="mix-blend-mode: soft-light;isolation: isolate">
              <path id="Trazado_189633" data-name="Trazado 189633" d="M431.1,545.923c22.195,6.721,51.39,11.662,82.019,5.618,7.816-1.542,56.1-11.071,56.567-34.848.163-8.376-5.746-11.446-5.7-22.644.055-13.268,8.385-17.451,16.92-31.494,5.092-8.379,19.994-32.9,9.567-51.981-6.231-11.4-21.225-20.341-34.24-20.679-19.09-.494-30.18,17.619-48.485,48.622-16.228,27.484-15.8,35.529-27.783,55.1C471.071,508.136,456.326,527.394,431.1,545.923Z" fill="url(#linear-gradient-3)"/>
              <g id="Grupo_130148" data-name="Grupo 130148" clip-path="url(#clip-path-3)">
                <g id="Grupo_130147" data-name="Grupo 130147">
                  <path id="Trazado_189634" data-name="Trazado 189634" d="M406.337,548.213c-.67,0-1.336-.006-2.008-.018-24.066-.421-47.753-8.073-70.4-22.742l.471-.728c22.512,14.581,46.045,22.186,69.948,22.6.663.011,1.329.017,1.991.017,31.145,0,61.375-12.8,89.895-38.068,30.339-26.881,51.134-61.134,63.237-85.136,8.387-16.633,12.5-36.572,12.227-59.261l.866-.011c.276,22.83-3.869,42.9-12.319,59.662C548.1,448.6,527.248,482.954,496.8,509.927,468.125,535.337,437.7,548.211,406.337,548.213Z" fill="#fff"/>
                  <path id="Trazado_189635" data-name="Trazado 189635" d="M531.705,470.706l-.153-.4a117.262,117.262,0,0,1-5.753-25.854c-1.55-13.888-1.357-34.422,8.372-53.382l.771.4c-9.626,18.76-9.818,39.1-8.285,52.865a118.9,118.9,0,0,0,5.557,25.26c55.886-21.194,65.359-61.493,66.93-73.363.048-.356.065-.484.086-.567l.84.216-.42-.108.42.106c-.015.063-.034.221-.067.467-1.591,12.02-11.191,52.894-67.894,74.215Z" fill="#fff"/>
                  <path id="Trazado_189636" data-name="Trazado 189636" d="M538.759,520.119c-11.364,0-25.429-2.616-41.923-10.577l-.207-.1-.034-.227c-.051-.347-5.028-35.238,8.248-76.786l13.4-41.932.825.264-13.4,41.932c-12.654,39.6-8.653,73.106-8.247,76.169,15.27,7.335,38.126,14.551,60.7,7.574,13.561-4.19,20.681-11.634,20.752-11.708l.631.593c-.072.076-7.316,7.662-21.076,11.927A66.258,66.258,0,0,1,538.759,520.119Z" fill="#fff"/>
                </g>
              </g>
            </g>
          </g>
        </g>
        <g id="Grupo_130157" data-name="Grupo 130157">
          <g id="Grupo_130153" data-name="Grupo 130153">
            <g id="Grupo_130152" data-name="Grupo 130152">
              <path id="Trazado_189638" data-name="Trazado 189638" d="M428.707,544.668c-33.353.06-60.548,1.247-60.882,7.042-.361,5.68,26.841,13.873,60.883,13.821,34.035.056,61.248-8.142,60.886-13.821C489.264,545.915,462.07,544.728,428.707,544.668Z" fill="url(#linear-gradient-7)"/>
              <rect id="Rect치ngulo_41003" data-name="Rect치ngulo 41003" width="121.779" height="15.222" transform="translate(367.818 537.057)" fill="url(#linear-gradient-8)"/>
            </g>
            <path id="Trazado_189639" data-name="Trazado 189639" d="M496.316,537.061l-.031.031a96.738,96.738,0,0,1-18.038,10.244s-15.162,6.728-50.173,8.692c-35.012-1.964-50.005-8.692-50.005-8.692-46.612-20.5-49.017-59.352-48.2-73.676a49.31,49.31,0,0,1,.593-5.48l97.607,32.545L526,468.18S533.809,509.737,496.316,537.061Z" fill="url(#linear-gradient-9)"/>
            <ellipse id="Elipse_4740" data-name="Elipse 4740" cx="97.804" cy="38.437" rx="97.804" ry="38.437" transform="translate(330.65 430.946)" fill="url(#linear-gradient-10)"/>
            <ellipse id="Elipse_4741" data-name="Elipse 4741" cx="90.193" cy="29.874" rx="90.193" ry="29.874" transform="translate(338.261 438.557)" fill="url(#linear-gradient-11)"/>
            <path id="Trazado_189640" data-name="Trazado 189640" d="M496.285,537.092a96.738,96.738,0,0,1-18.038,10.244s-15.162,6.728-50.173,8.692c-35.012-1.964-50.005-8.692-50.005-8.692-46.612-20.5-49.017-59.352-48.2-73.676a66.17,66.17,0,0,0,1.8,9.712c2.618,11.462,9.59,19.652,20.018,24.964,7.153,3.654,15.176,5.054,22.544,8.16a64.093,64.093,0,0,1,19.2,12.573c7,6.622,12.222,15.345,21.782,18.678,4.445,1.538,9.454,1.675,14.081,2.36a105.73,105.73,0,0,0,41-2.055A92.492,92.492,0,0,0,496.285,537.092Z" opacity="0.2" fill="url(#linear-gradient-12)" style="mix-blend-mode: multiply;isolation: isolate"/>
          </g>
          <g id="Grupo_130156" data-name="Grupo 130156">
            <g id="Grupo_130155" data-name="Grupo 130155" clip-path="url(#clip-path-4)">
              <g id="Grupo_130154" data-name="Grupo 130154">
                <path id="Trazado_189641" data-name="Trazado 189641" d="M520.9,390.608l-41.74,109.8a11.078,11.078,0,0,1-3.135,4.46c-4.415,3.775-14.858,10.793-27.31,5.922-.38-.152-.731-.289-1.1-.441-10.473-4.6-12.209-13.122-12.27-18.039a10.891,10.891,0,0,1,1.675-5.967l62.564-100.3,6.667,1.431Z" fill="url(#linear-gradient-13)"/>
                <path id="Trazado_189642" data-name="Trazado 189642" d="M506.849,396.392c-.5,9.073-6.028,13.685-13.411,17.719-7.4,4.065-12.224,10.519-15.131,18.389a47.951,47.951,0,0,0-2.756,13.791c-.639,11.052-1.156,20.551-7.306,30.232a36.658,36.658,0,0,1-15.7,13.883c-3.911,1.766-7.9,4.963-8.463,9.6a12.837,12.837,0,0,0,3.532,10.337c-10.473-4.6-12.209-13.122-12.27-18.039a10.891,10.891,0,0,1,1.675-5.967l62.564-100.3,6.667,1.431C507.184,390.364,506.97,394.307,506.849,396.392Z" opacity="0.3" fill="url(#linear-gradient-14)" style="mix-blend-mode: multiply;isolation: isolate"/>
                <path id="Trazado_189643" data-name="Trazado 189643" d="M528.086,388.991a9.133,9.133,0,0,1-11.624,5.633l-14.38-4.993a9.133,9.133,0,0,1-5.632-11.624h0a9.133,9.133,0,0,1,11.624-5.633l14.38,4.993a9.133,9.133,0,0,1,5.632,11.624Z" fill="url(#linear-gradient-15)"/>
              </g>
            </g>
          </g>
        </g>
        <g id="Grupo_130160" data-name="Grupo 130160">
          <g id="Grupo_130158" data-name="Grupo 130158">
            <path id="Trazado_189645" data-name="Trazado 189645" d="M483.569,544.683l-23.616,8.5a63.259,63.259,0,0,1,14.16,28.764l20.249-7.291a15.977,15.977,0,0,0,9.592-20.385h0A15.978,15.978,0,0,0,483.569,544.683Z" fill="#fff"/>
            <path id="Trazado_189646" data-name="Trazado 189646" d="M485.654,564.5c-2.529,3.726-7.227,4.362-10.591,3.814-7.688-1.806-17.581-3.874-22.8,1.173-6.219,6.1-13.218,10.025-21.969,10.055.106.378.22.755.355,1.13a15.977,15.977,0,0,0,20.385,9.591l43.329-15.6a15.919,15.919,0,0,0,7.345-24.544A44.963,44.963,0,0,0,485.654,564.5Z" fill="#d8dee8" opacity="0.49" style="mix-blend-mode: multiply;isolation: isolate"/>
            <path id="Trazado_189647" data-name="Trazado 189647" d="M459.953,553.186l-19.714,7.1a15.977,15.977,0,0,0-9.591,20.385h0a15.977,15.977,0,0,0,20.385,9.591l23.08-8.311A63.259,63.259,0,0,0,459.953,553.186Z" fill="url(#linear-gradient-16)"/>
            <path id="Trazado_189648" data-name="Trazado 189648" d="M469.062,567.036c-6.292-1.117-12.87-1.351-16.8,2.449-6.219,6.1-13.218,10.025-21.969,10.055q.074.261.154.522c.064.2.128.406.2.608a15.977,15.977,0,0,0,20.385,9.591l23.08-8.311A67.914,67.914,0,0,0,469.062,567.036Z" opacity="0.3" fill="url(#linear-gradient-17)" style="mix-blend-mode: multiply;isolation: isolate"/>
          </g>
          <g id="Grupo_130159" data-name="Grupo 130159">
            <path id="Trazado_189649" data-name="Trazado 189649" d="M538.131,558.514,513.338,554.6a63.254,63.254,0,0,1-1.436,32.029l21.259,3.357a15.976,15.976,0,0,0,18.22-13.25h0A15.977,15.977,0,0,0,538.131,558.514Z" fill="#fff"/>
            <path id="Trazado_189650" data-name="Trazado 189650" d="M530.419,576.886c-4.01,2.048-8.433.344-11.118-1.756-5.869-5.284-13.545-11.859-20.55-9.949-8.385,2.349-16.411,2.425-24.1-1.762-.09.382-.171.767-.233,1.161a15.977,15.977,0,0,0,13.25,18.22l45.489,7.184a15.92,15.92,0,0,0,18.253-17.977A44.973,44.973,0,0,0,530.419,576.886Z" fill="#d8dee8" opacity="0.49" style="mix-blend-mode: multiply;isolation: isolate"/>
            <path id="Trazado_189651" data-name="Trazado 189651" d="M513.338,554.6l-20.7-3.268a15.976,15.976,0,0,0-18.22,13.25h0a15.977,15.977,0,0,0,13.25,18.22l24.23,3.827A63.254,63.254,0,0,0,513.338,554.6Z" fill="url(#linear-gradient-18)"/>
            <path id="Trazado_189652" data-name="Trazado 189652" d="M514.655,571.123c-4.977-4.008-10.63-7.38-15.9-5.942-8.385,2.349-16.411,2.425-24.1-1.762q-.061.264-.117.531c-.042.209-.082.418-.116.63a15.977,15.977,0,0,0,13.25,18.22l24.23,3.827A67.975,67.975,0,0,0,514.655,571.123Z" opacity="0.3" fill="url(#linear-gradient-19)" style="mix-blend-mode: multiply;isolation: isolate"/>
          </g>
        </g>
        <g id="Grupo_130165" data-name="Grupo 130165">
          <g id="Grupo_130161" data-name="Grupo 130161">
            <path id="Trazado_189653" data-name="Trazado 189653" d="M288.633,313.761c25.087-21.82,64.488-19.494,88.039,4.2,23,23.144,23,58.888,0,80.778-23.551,22.411-62.952,22.588-88.039-.6C262.921,374.375,262.921,336.126,288.633,313.761Z" fill="url(#linear-gradient-20)"/>
          </g>
          <g id="Grupo_130162" data-name="Grupo 130162">
            <path id="Trazado_189654" data-name="Trazado 189654" d="M291.293,310.821c25.087-21.82,64.488-19.5,88.039,4.2,23,23.144,23,58.888,0,80.778-23.551,22.412-62.952,22.589-88.039-.6C265.581,371.434,265.581,333.185,291.293,310.821Z" fill="url(#linear-gradient-21)"/>
          </g>
          <g id="Grupo_130163" data-name="Grupo 130163" opacity="0.5" style="mix-blend-mode: soft-light;isolation: isolate">
            <path id="Trazado_189655" data-name="Trazado 189655" d="M297.583,317.164c21.417-18.629,55.055-16.643,75.162,3.587,19.637,19.758,19.637,50.274,0,68.962C352.638,408.846,319,409,297.583,389.2,275.632,368.911,275.632,336.257,297.583,317.164Z" fill="#fff"/>
          </g>
          <path id="Trazado_189656" data-name="Trazado 189656" d="M294.924,321.52c21.417-18.628,55.054-16.643,75.161,3.587,15.862,15.96,18.9,38.936,9.141,57.029,12.843-18.625,10.684-44.114-6.481-61.385-20.107-20.23-53.745-22.216-75.162-3.587a48.4,48.4,0,0,0-10.92,13.6A49.092,49.092,0,0,1,294.924,321.52Z" fill="#fff" opacity="0.3" style="mix-blend-mode: soft-light;isolation: isolate"/>
          <g id="Grupo_130164" data-name="Grupo 130164">
            <path id="Trazado_189657" data-name="Trazado 189657" d="M353.269,338.562c-12.237,1.765-22.219,8.157-28.39,19.017a20.7,20.7,0,0,0-.434,20.521,21.97,21.97,0,0,0,5.517,7.64c.136.113.274.22.414.324.064.047.135.081.2.127.052-6.79,1.2-18.381,8.166-21.77-2.78,5.107-4.984,15.516-4.787,23.314,6,1.558,13.6-1.6,18.052-5.051a24.31,24.31,0,0,0,7.094-10.069c4.086-9.849-1.981-20.64,2.117-30.432.6-1.441.975-3.461,2.3-4.437C360.094,337.9,356.665,338.072,353.269,338.562Z" fill="#fff"/>
            <path id="Trazado_189658" data-name="Trazado 189658" d="M325.413,342.536c.526.967,1.237,2.5,2.047,4.422a43.242,43.242,0,0,0-6.284,8.516,26.433,26.433,0,0,0-3.5,11.943,23.372,23.372,0,0,0,.227,3.967.727.727,0,0,1-.1-.071c-3.284-2.545-5.516-6.284-7.094-10.066-4.081-9.853,1.99-20.644-2.119-30.44-.6-1.436-.966-3.455-2.289-4.436,3.412.157,6.853.327,10.237.811a38.229,38.229,0,0,1,22.606,11.231,39.594,39.594,0,0,0-10.336,7.18A10.261,10.261,0,0,0,325.413,342.536Z" fill="#fff"/>
          </g>
        </g>
        <g id="Grupo_130167" data-name="Grupo 130167">
          <path id="Trazado_189659" data-name="Trazado 189659" d="M322.681,475.383V434.418H296.108v40.965a9.46,9.46,0,0,1-6.253,8.906c-24.442,8.791-42.06,32.912-42.06,55.145,0,27.818,27.579,42.138,61.6,42.138s61.6-14.32,61.6-42.138c0-22.233-17.618-46.354-42.06-55.145A9.46,9.46,0,0,1,322.681,475.383Z" fill="url(#linear-gradient-22)"/>
          <path id="Trazado_189660" data-name="Trazado 189660" d="M258.341,520.174a30.525,30.525,0,0,0-6.132,18.017c0,22.069,25.6,39.959,57.186,39.959s57.185-17.89,57.185-39.959a30.525,30.525,0,0,0-6.132-18.017Z" fill="url(#linear-gradient-23)"/>
          <ellipse id="Elipse_4742" data-name="Elipse 4742" cx="51.031" cy="4.429" rx="51.031" ry="4.429" transform="translate(258.364 515.745)" fill="url(#linear-gradient-24)"/>
          <g id="Grupo_130166" data-name="Grupo 130166" opacity="0.3" style="mix-blend-mode: soft-light;isolation: isolate">
            <path id="Trazado_189661" data-name="Trazado 189661" d="M314.729,563.253c-6.88-.023-21.082-.071-32.007-10.669-6.612-6.414-14.854-19.439-10.871-30.2,6.042-16.318,35.412-14.444,37.443-27.981.924-6.156-5.043-7.249-6.442-17.916-1.542-11.762,4.926-16.432,4.831-27.177a30.2,30.2,0,0,0-4.326-14.9h-7.249v40.965a9.46,9.46,0,0,1-6.253,8.906c-24.442,8.791-42.06,32.912-42.06,55.145,0,27.818,27.579,42.138,61.6,42.138s61.6-14.32,61.6-42.138a43.84,43.84,0,0,0-.269-4.788C361.179,545.313,341.232,563.342,314.729,563.253Z" fill="#fff"/>
          </g>
          <path id="Trazado_189662" data-name="Trazado 189662" d="M321.574,439.45H297.216a4.227,4.227,0,0,1-4.228-4.227h0A4.227,4.227,0,0,1,297.216,431h24.358a4.227,4.227,0,0,1,4.227,4.227h0A4.227,4.227,0,0,1,321.574,439.45Z" fill="url(#linear-gradient-25)"/>
        </g>
        <g id="Grupo_130173" data-name="Grupo 130173">
          <g id="Grupo_130168" data-name="Grupo 130168">
            <path id="Trazado_189663" data-name="Trazado 189663" d="M377.164,591.677a99.246,99.246,0,0,0-24.709,0H332.689v9.288c0,5.556,14.381,10.061,32.12,10.061s32.12-4.505,32.12-10.061v-9.288Z" fill="url(#linear-gradient-26)"/>
            <ellipse id="Elipse_4743" data-name="Elipse 4743" cx="32.12" cy="10.06" rx="32.12" ry="10.06" transform="translate(332.689 581.617)" fill="#fff"/>
            <path id="Trazado_189664" data-name="Trazado 189664" d="M364.809,598.99c-8.308,0-16.083-1-21.891-2.821-6.107-1.913-7.481-3.935-7.481-4.492s1.374-2.579,7.481-4.491c5.808-1.819,13.583-2.821,21.891-2.821s16.083,1,21.891,2.821c6.107,1.912,7.482,3.934,7.482,4.491s-1.375,2.579-7.482,4.492C380.892,597.988,373.118,598.99,364.809,598.99Z" fill="#d8dee8" opacity="0.3" style="mix-blend-mode: multiply;isolation: isolate"/>
            <path id="Trazado_189665" data-name="Trazado 189665" d="M364.809,598.988c-8.308,0-16.083-1.075-21.891-3.027-6.107-2.053-7.481-4.223-7.481-4.822s1.374-2.768,7.481-4.821c5.808-1.952,13.583-3.028,21.891-3.028s16.083,1.076,21.891,3.028c6.107,2.053,7.482,4.223,7.482,4.821s-1.375,2.769-7.482,4.822C380.892,597.913,373.118,598.988,364.809,598.988Z" fill="#d8dee8" opacity="0.3" style="mix-blend-mode: multiply;isolation: isolate"/>
            <path id="Trazado_189666" data-name="Trazado 189666" d="M347.092,595.042a1.6,1.6,0,0,1-1.62-1.137,1.425,1.425,0,0,1,1.326-1.613l33.453-5.142a1.652,1.652,0,0,1,1.918,1.115,1.425,1.425,0,0,1-1.326,1.613L347.39,595.02A2.008,2.008,0,0,1,347.092,595.042Z" fill="#d8dee8"/>
          </g>
          <g id="Grupo_130169" data-name="Grupo 130169">
            <path id="Trazado_189667" data-name="Trazado 189667" d="M374.651,579.774a99.253,99.253,0,0,0-24.71,0H330.176v9.288c0,5.556,14.38,10.06,32.12,10.06s32.12-4.5,32.12-10.06v-9.288Z" fill="url(#linear-gradient-27)"/>
            <ellipse id="Elipse_4744" data-name="Elipse 4744" cx="32.12" cy="10.06" rx="32.12" ry="10.06" transform="translate(330.176 569.714)" fill="#fff"/>
            <path id="Trazado_189668" data-name="Trazado 189668" d="M362.3,587.086c-8.309,0-16.083-1-21.891-2.821-6.107-1.912-7.482-3.934-7.482-4.491s1.375-2.579,7.482-4.492c5.808-1.819,13.582-2.821,21.891-2.821s16.083,1,21.891,2.821c6.107,1.913,7.481,3.935,7.481,4.492s-1.374,2.579-7.481,4.491C378.379,586.084,370.6,587.086,362.3,587.086Z" fill="#d8dee8" opacity="0.3" style="mix-blend-mode: multiply;isolation: isolate"/>
            <path id="Trazado_189669" data-name="Trazado 189669" d="M362.3,587.085c-8.309,0-16.083-1.075-21.891-3.028-6.107-2.053-7.482-4.223-7.482-4.821s1.375-2.768,7.482-4.821c5.808-1.952,13.582-3.028,21.891-3.028s16.083,1.076,21.891,3.028c6.107,2.053,7.481,4.223,7.481,4.821s-1.374,2.768-7.481,4.821C378.379,586.01,370.6,587.085,362.3,587.085Z" fill="#d8dee8" opacity="0.3" style="mix-blend-mode: multiply;isolation: isolate"/>
            <path id="Trazado_189670" data-name="Trazado 189670" d="M344.579,583.139a1.6,1.6,0,0,1-1.62-1.137,1.424,1.424,0,0,1,1.325-1.613l33.453-5.142a1.651,1.651,0,0,1,1.918,1.115,1.424,1.424,0,0,1-1.325,1.613l-33.453,5.141A1.889,1.889,0,0,1,344.579,583.139Z" fill="#d8dee8"/>
          </g>
          <g id="Grupo_130170" data-name="Grupo 130170">
            <path id="Trazado_189671" data-name="Trazado 189671" d="M377.164,570.113a99.246,99.246,0,0,0-24.709,0H332.689V579.4c0,5.556,14.381,10.06,32.12,10.06s32.12-4.5,32.12-10.06v-9.288Z" fill="url(#linear-gradient-27)"/>
            <ellipse id="Elipse_4745" data-name="Elipse 4745" cx="32.12" cy="10.06" rx="32.12" ry="10.06" transform="translate(332.689 560.052)" fill="#fff"/>
            <path id="Trazado_189672" data-name="Trazado 189672" d="M364.809,577.425c-8.308,0-16.083-1-21.891-2.821-6.107-1.913-7.481-3.934-7.481-4.491s1.374-2.579,7.481-4.492c5.808-1.819,13.583-2.821,21.891-2.821s16.083,1,21.891,2.821c6.107,1.913,7.482,3.934,7.482,4.492s-1.375,2.578-7.482,4.491C380.892,576.423,373.118,577.425,364.809,577.425Z" fill="#d8dee8" opacity="0.3" style="mix-blend-mode: multiply;isolation: isolate"/>
            <path id="Trazado_189673" data-name="Trazado 189673" d="M364.809,577.424c-8.308,0-16.083-1.075-21.891-3.028-6.107-2.053-7.481-4.223-7.481-4.821s1.374-2.768,7.481-4.821c5.808-1.953,13.583-3.028,21.891-3.028s16.083,1.075,21.891,3.028c6.107,2.053,7.482,4.223,7.482,4.821s-1.375,2.768-7.482,4.821C380.892,576.349,373.118,577.424,364.809,577.424Z" fill="#d8dee8" opacity="0.3" style="mix-blend-mode: multiply;isolation: isolate"/>
            <path id="Trazado_189674" data-name="Trazado 189674" d="M347.092,573.478a1.6,1.6,0,0,1-1.62-1.137,1.425,1.425,0,0,1,1.326-1.614l33.453-5.141a1.651,1.651,0,0,1,1.918,1.114,1.425,1.425,0,0,1-1.326,1.614l-33.453,5.141A2.01,2.01,0,0,1,347.092,573.478Z" fill="#d8dee8"/>
          </g>
          <g id="Grupo_130171" data-name="Grupo 130171">
            <path id="Trazado_189675" data-name="Trazado 189675" d="M374.651,557.714a99.253,99.253,0,0,0-24.71,0H330.176V567c0,5.556,14.38,10.06,32.12,10.06s32.12-4.5,32.12-10.06v-9.288Z" fill="url(#linear-gradient-27)"/>
            <ellipse id="Elipse_4746" data-name="Elipse 4746" cx="32.12" cy="10.06" rx="32.12" ry="10.06" transform="translate(330.176 547.653)" fill="#fff"/>
            <path id="Trazado_189676" data-name="Trazado 189676" d="M362.3,565.026c-8.309,0-16.083-1-21.891-2.821-6.107-1.913-7.481-3.934-7.481-4.491s1.374-2.579,7.481-4.492c5.808-1.819,13.582-2.821,21.891-2.821s16.083,1,21.891,2.821c6.107,1.913,7.481,3.934,7.481,4.492s-1.374,2.578-7.481,4.491C378.379,564.024,370.6,565.026,362.3,565.026Z" fill="#d8dee8" opacity="0.3" style="mix-blend-mode: multiply;isolation: isolate"/>
            <path id="Trazado_189677" data-name="Trazado 189677" d="M362.3,565.025c-8.309,0-16.083-1.076-21.891-3.028-6.107-2.053-7.481-4.223-7.481-4.821s1.374-2.768,7.481-4.821c5.808-1.953,13.582-3.028,21.891-3.028s16.083,1.075,21.891,3.028c6.107,2.053,7.481,4.223,7.481,4.821s-1.374,2.768-7.481,4.821C378.379,563.949,370.6,565.025,362.3,565.025Z" fill="#d8dee8" opacity="0.3" style="mix-blend-mode: multiply;isolation: isolate"/>
            <path id="Trazado_189678" data-name="Trazado 189678" d="M344.579,561.079a1.6,1.6,0,0,1-1.62-1.137,1.425,1.425,0,0,1,1.325-1.614l33.453-5.141a1.65,1.65,0,0,1,1.918,1.114,1.423,1.423,0,0,1-1.325,1.613l-33.453,5.142A2.021,2.021,0,0,1,344.579,561.079Z" fill="#d8dee8"/>
          </g>
          <g id="Grupo_130172" data-name="Grupo 130172">
            <path id="Trazado_189679" data-name="Trazado 189679" d="M438.28,584.005c2.362,13.694-9.416,25.285-23.336,26.6a28.568,28.568,0,0,1-30.255-23.165c-2.438-14.139,7.885-28.864,22.13-29.75C420.815,556.816,435.918,570.311,438.28,584.005Z" fill="url(#linear-gradient-30)"/>
            <path id="Trazado_189680" data-name="Trazado 189680" d="M439.048,580.589A22.868,22.868,0,0,1,418.3,607.742a28.568,28.568,0,0,1-30.255-23.165c-2.438-14.139,7.321-26.331,21.566-27.217C423.6,556.489,436.686,566.9,439.048,580.589Z" fill="#fff"/>
            <path id="Trazado_189681" data-name="Trazado 189681" d="M415.83,605.623a26.077,26.077,0,0,1-16.575-6.132,25.673,25.673,0,0,1-9.011-15.294,20.628,20.628,0,0,1,19.5-24.606c.5-.031,1-.047,1.5-.047,12.282,0,23.526,9.411,25.6,21.425a20.633,20.633,0,0,1-18.758,24.548C417.341,605.587,416.581,605.623,415.83,605.623Z" fill="#d8dee8" opacity="0.3" style="mix-blend-mode: multiply;isolation: isolate"/>
            <path id="Trazado_189682" data-name="Trazado 189682" d="M410.331,561.552a2.047,2.047,0,0,0-1.929,2.441l6.341,36.768a2.56,2.56,0,0,0,2.708,2.08,2.1,2.1,0,0,0,1.913-2.494l-6.322-36.662A2.637,2.637,0,0,0,410.331,561.552Z" fill="#d8dee8"/>
            <path id="Trazado_189683" data-name="Trazado 189683" d="M419.364,600.347l-6.322-36.662a2.637,2.637,0,0,0-2.711-2.133,2.13,2.13,0,0,0-1.144.411c.074-.012.149-.022.227-.027a2.638,2.638,0,0,1,2.711,2.134l6.322,36.661a2.105,2.105,0,0,1-.816,2.084A2.1,2.1,0,0,0,419.364,600.347Z" fill="#d8dee8" opacity="0.3" style="mix-blend-mode: multiply;isolation: isolate"/>
          </g>
        </g>
      </g>
    </g>
  </g>
</svg>
