<svg xmlns="http://www.w3.org/2000/svg" width="506.414" height="333.627" viewBox="0 0 506.414 333.627">
  <g id="Grupo_132617" data-name="Grupo 132617" transform="translate(-72.069 -125.366)">
    <g id="Capa_1" data-name="Capa 1" transform="translate(72.776 126.073)">
      <rect id="Rectángulo_41030" data-name="Rectángulo 41030" width="113.999" height="113.999" transform="translate(80.61 0) rotate(45)" fill="none" stroke="#1d1d1b" stroke-miterlimit="10" stroke-width="1" stroke-dasharray="3"/>
      <rect id="Rectángulo_41031" data-name="Rectángulo 41031" width="113.999" height="113.999" transform="translate(166.169 170.993) rotate(45)" fill="none" stroke="#1d1d1b" stroke-miterlimit="10" stroke-width="1" stroke-dasharray="3"/>
      <rect id="Rectángulo_41032" data-name="Rectángulo 41032" width="113.999" height="113.999" transform="translate(337.409 170.993) rotate(45)" fill="none" stroke="#1d1d1b" stroke-miterlimit="10" stroke-width="1" stroke-dasharray="3"/>
      <rect id="Rectángulo_41033" data-name="Rectángulo 41033" width="113.999" height="113.999" transform="translate(252.963 0) rotate(45)" fill="none" stroke="#1d1d1b" stroke-miterlimit="10" stroke-width="1" stroke-dasharray="3"/>
      <rect id="Rectángulo_41034" data-name="Rectángulo 41034" width="113.999" height="113.999" transform="translate(424.39) rotate(45)" fill="none" stroke="#1d1d1b" stroke-miterlimit="10" stroke-width="1" stroke-dasharray="3"/>
      <rect id="Rectángulo_41035" data-name="Rectángulo 41035" width="100.067" height="100.067" transform="translate(80.61 9.852) rotate(45)" fill="#fff" stroke="#1d1d1b" stroke-miterlimit="10" stroke-width="1"/>
      <rect id="Rectángulo_41036" data-name="Rectángulo 41036" width="100.067" height="100.067" transform="translate(166.169 180.845) rotate(45)" fill="#fff" stroke="#1d1d1b" stroke-miterlimit="10" stroke-width="1"/>
      <rect id="Rectángulo_41037" data-name="Rectángulo 41037" width="100.067" height="100.067" transform="translate(337.409 180.845) rotate(45)" fill="#fff" stroke="#1d1d1b" stroke-miterlimit="10" stroke-width="1"/>
      <rect id="Rectángulo_41038" data-name="Rectángulo 41038" width="100.067" height="100.067" transform="translate(252.963 9.852) rotate(45)" fill="#fff" stroke="#1d1d1b" stroke-miterlimit="10" stroke-width="1"/>
      <rect id="Rectángulo_41039" data-name="Rectángulo 41039" width="100.067" height="100.067" transform="translate(424.39 9.852) rotate(45)" fill="#fff" stroke="#1d1d1b" stroke-miterlimit="10" stroke-width="1"/>
      <path id="Trazado_191678" data-name="Trazado 191678" d="M170.961,283.04c0-.29.03-.571.044-.858a9.524,9.524,0,0,1,4.037,1.106,14.141,14.141,0,0,0,6.87,11.885,9.5,9.5,0,0,1-1.076,4.059A18.218,18.218,0,0,1,170.961,283.04Zm11.358-12.381a14.132,14.132,0,0,1,13.754,0,9.5,9.5,0,0,0,2.964-2.955,18.15,18.15,0,0,0-19.684,0A9.52,9.52,0,0,0,182.319,270.658Zm14.161,24.515a9.491,9.491,0,0,0,1.076,4.061,18.225,18.225,0,0,0,9.875-16.194c0-.29-.03-.571-.044-.858a9.518,9.518,0,0,0-4.037,1.106A14.139,14.139,0,0,1,196.48,295.173Zm20.29-7.564a9.677,9.677,0,0,0-4.476-6.193c-5.129-2.961-12.186-.338-15.763,5.858s-2.32,13.62,2.808,16.582a9.684,9.684,0,0,0,7.6.78c-4.669,2.73-10.148,3.137-14.611.562a12.764,12.764,0,0,1-3.136-2.574,12.726,12.726,0,0,1-3.134,2.574c-4.463,2.576-9.942,2.168-14.611-.562a9.68,9.68,0,0,0,7.6-.78c5.129-2.962,6.386-10.385,2.809-16.582s-10.636-8.818-15.763-5.858a9.671,9.671,0,0,0-4.476,6.193c-.031-5.408,2.356-10.357,6.819-12.934a12.762,12.762,0,0,1,3.8-1.429,12.755,12.755,0,0,1-.661-4c0-5.153,3.092-9.694,7.792-12.372a9.678,9.678,0,0,0-3.125,6.973c0,5.922,5.8,10.723,12.954,10.723s12.956-4.8,12.956-10.723a9.678,9.678,0,0,0-3.125-6.973c4.7,2.678,7.79,7.22,7.79,12.372a12.753,12.753,0,0,1-.66,4,12.779,12.779,0,0,1,3.8,1.429C214.415,277.252,216.8,282.2,216.771,287.609Zm-23.289-4.569a4.287,4.287,0,1,0-4.287,4.287A4.286,4.286,0,0,0,193.482,283.04Z" transform="translate(-23.027 -52.83)" fill="#020202"/>
      <rect id="Rectángulo_41040" data-name="Rectángulo 41040" width="50.98" height="50.98" transform="translate(252.963 9.852) rotate(45)" fill="#666" stroke="#1d1d1b" stroke-miterlimit="10" stroke-width="1"/>
      <path id="Trazado_191679" data-name="Trazado 191679" d="M342.107,177.059c1.728,0,2.677-.836,3.092-.744.454.1.562.69.562,1.537h.022v4.1a.958.958,0,0,0,1.874,0v-1.56h.825v1.56a.958.958,0,0,0,1.874,0v-1.56h.825v1.56a.944.944,0,0,0,.916.75h0l.011,0v0h.008l0,0a1.009,1.009,0,0,0,.663-.262.734.734,0,0,0,.275-.495v-1.56h.825v1.56a.728.728,0,0,0,.275.495,1.009,1.009,0,0,0,.663.262.95.95,0,0,0,.936-.757v-1.56h.825v1.56a.734.734,0,0,0,.275.495.968.968,0,0,0,1.324,0,.728.728,0,0,0,.275-.495v-4.1a2.208,2.208,0,0,1,.282-1.373.511.511,0,0,1,.279-.164.811.811,0,0,1,.415.078,6.555,6.555,0,0,0,2.677.666c1.679,0,3.735-1.8,4.856-4.691q.152-.393.281-.813a12.235,12.235,0,0,0,.4-1.774,13.293,13.293,0,0,0,.143-1.948c0-1.048.019-2.079.019-3.081a17.907,17.907,0,0,0-.909-6.758,7.66,7.66,0,0,0-.568-1.109c-2.086-3.351-6.775-5.224-14.211-5.224h-.02c-7.436,0-12.126,1.874-14.211,5.224-1.758,2.825-1.459,6.758-1.459,10.948C336.425,173.24,339.665,177.059,342.107,177.059Zm16.309-12.36c3.632-.658,5.653-1.051,5.962,1.718a10.438,10.438,0,0,1-.041,2.624,9.175,9.175,0,0,1-.226,1.1,8.118,8.118,0,0,1-.549,1.474,4.035,4.035,0,0,1-2.661,2.376,2.9,2.9,0,0,1-1.053-.109c-.309-.073-.657-.176-1.026-.3a16.4,16.4,0,0,1-1.747-.724c-1.572-.758-3.05-1.785-3.253-2.738C352.718,164.918,354.4,165.428,358.416,164.7Zm-5.709,8.118c.728,0,3.1,2.873,3.1,3.764s-3.1,1.437-3.1,0Zm-1.2,3.764c0,1.437-3.1.889-3.1,0s2.374-3.764,3.1-3.764Zm-11.673-10.165c.309-2.769,2.331-2.376,5.962-1.718,4.017.729,5.7.218,4.594,5.418-.406,1.906-5.908,4.1-7.079,3.875C340.92,173.522,339.436,169.989,339.832,166.417Zm14.993,22.042c-.3.037-.6.069-.92.094-.566.042-1.162.066-1.789.066h-.02c-5,0-8.148-1.446-8.054-3.3l.236-7.858.638-.385.577,8.781.289.22v-1.56a.958.958,0,0,1,1.873,0v1.56h.827v-1.56a.958.958,0,0,1,1.874,0v1.56h.825v-1.56a.944.944,0,0,1,.919-.753l.017,0a1.033,1.033,0,0,1,.864.507.534.534,0,0,1,.073.25v1.56h.825v-1.56a.534.534,0,0,1,.073-.25,1.03,1.03,0,0,1,.864-.507,1,1,0,0,1,.752.373.662.662,0,0,1,.184.384v1.56h.825v-1.56a.534.534,0,0,1,.073-.25.989.989,0,0,1,1.727,0,.534.534,0,0,1,.073.25v1.56l.289-.22.579-8.781.636.385.237,7.858h0a1.748,1.748,0,0,1-.465,1.229c-.02.022-.033.045-.053.067a5.862,5.862,0,0,1-2.777,1.445c-.248.069-.512.129-.785.186C355.708,188.331,355.279,188.4,354.825,188.459Zm14.523,4.607a1.387,1.387,0,0,1-.324.363,1.6,1.6,0,0,1-.3.187c-.6.287-1.17.108-1.43.279a.28.28,0,0,0-.1.117c-.075.156,0,.306.125.485.084.12.189.253.285.41a2.31,2.31,0,0,1,.134.256,1.624,1.624,0,0,1,.137.647h0a1.966,1.966,0,0,1-1.644,1.746,1.877,1.877,0,0,1-1.59-.363c-.122-.1-.236-.2-.34-.3a7.389,7.389,0,0,1-1.629-2.877c-.036-.078-.072-.151-.111-.223a1.857,1.857,0,0,0-.268-.376,1.256,1.256,0,0,0-.367-.27l-6.636-3.2h0a9.945,9.945,0,0,0,4.112-1.377l3.841,1.855a1.434,1.434,0,0,0,.9.1,6.8,6.8,0,0,0,.874-.237,6.06,6.06,0,0,1,2.218-.367,5.15,5.15,0,0,1,.863.12,1.824,1.824,0,0,1,1.09.752A2.149,2.149,0,0,1,369.348,193.066Zm-24.529-4.5a9.9,9.9,0,0,0,4.106,1.379l-6.641,3.207c-1.15.557-.76,2.474-2.714,4.043a2.043,2.043,0,0,1-3.234-1.382c.008-1.008.881-1.385.682-1.8s-1.037.037-1.831-.583a2.044,2.044,0,0,1,.927-3.393c2.444-.555,3.7.944,4.855.387Zm-11.477-6.488a2.044,2.044,0,0,1-.927-3.393c.794-.621,1.633-.17,1.833-.583s-.675-.789-.682-1.8a2.044,2.044,0,0,1,3.234-1.382c1.953,1.569,1.563,3.488,2.714,4.043l3.5,1.693-.1,3.315-4.72-2.281C337.046,181.133,335.787,182.631,333.343,182.076Zm39.037-2.059a2.131,2.131,0,0,1-.969,1.842,1.858,1.858,0,0,1-.543.217,6.057,6.057,0,0,1-3.457-.362,1.871,1.871,0,0,0-1.4-.025l-4.7,2.27-.1-3.315,3.48-1.682a1.437,1.437,0,0,0,.635-.646,8.88,8.88,0,0,1,1.741-3.1c.1-.1.217-.2.34-.3a2.045,2.045,0,0,1,3.234,1.382c-.008,1.009-.883,1.387-.683,1.8s1.039-.037,1.833.583a1.415,1.415,0,0,1,.324.363A1.874,1.874,0,0,1,372.379,180.016Z" transform="translate(72.285 -111.745)" fill="#1d1d1b"/>
      <text id="VENENO" transform="translate(58.241 101.896)" font-size="12" font-family="RobotoCondensed-Bold, Roboto" font-weight="700" letter-spacing="-0.025em"><tspan x="0" y="0">VENENO</tspan></text>
      <text id="_6" data-name="6" transform="translate(78.102 142.596)" fill="#1d1d1b" font-size="8" font-family="RobotoCondensed-Bold, Roboto" font-weight="700" letter-spacing="-0.025em"><tspan x="0" y="0">6</tspan></text>
      <path id="Trazado_191680" data-name="Trazado 191680" d="M121.177,177.293c1.822,0,2.82-.881,3.26-.785.477.106.591.727.591,1.619h.022v4.321a1.01,1.01,0,0,0,1.975,0V180.8h.87v1.644a1.01,1.01,0,0,0,1.975,0V180.8h.87v1.644a1,1,0,0,0,.966.792h0l.011,0v0l.008,0,0,0a1.066,1.066,0,0,0,.7-.276.771.771,0,0,0,.29-.523V180.8h.87v1.644a.774.774,0,0,0,.289.523,1.073,1.073,0,0,0,.7.276,1,1,0,0,0,.986-.8V180.8h.872v1.644a.774.774,0,0,0,.289.523,1.021,1.021,0,0,0,1.4,0,.771.771,0,0,0,.29-.523v-4.321a2.339,2.339,0,0,1,.3-1.448.549.549,0,0,1,.295-.172.857.857,0,0,1,.438.081,6.885,6.885,0,0,0,2.82.7c1.771,0,3.937-1.9,5.12-4.945.106-.276.206-.563.3-.856a13.11,13.11,0,0,0,.421-1.87,13.845,13.845,0,0,0,.153-2.054c0-1.1.019-2.192.02-3.248a18.893,18.893,0,0,0-.959-7.123,8.024,8.024,0,0,0-.6-1.17c-2.2-3.533-7.142-5.508-14.98-5.508h-.022c-7.84,0-12.784,1.975-14.982,5.508-1.853,2.978-1.537,7.123-1.537,11.541C115.188,173.267,118.6,177.293,121.177,177.293Zm17.192-13.03c3.828-.693,5.961-1.108,6.285,1.811a11.05,11.05,0,0,1-.041,2.766,10.126,10.126,0,0,1-.24,1.161,8.363,8.363,0,0,1-.579,1.554,4.25,4.25,0,0,1-2.8,2.505,3.038,3.038,0,0,1-1.111-.115c-.324-.076-.691-.186-1.081-.32a17.521,17.521,0,0,1-1.842-.763c-1.658-.8-3.215-1.881-3.429-2.886C132.362,164.494,134.135,165.03,138.369,164.263Zm-6.018,8.558c.768,0,3.271,3.029,3.271,3.969s-3.271,1.515-3.271,0Zm-1.267,3.969c0,1.515-3.271.938-3.271,0s2.5-3.969,3.271-3.969Zm-12.3-10.715c.324-2.919,2.457-2.5,6.285-1.811,4.235.768,6.007.231,4.842,5.713-.426,2.008-6.227,4.326-7.463,4.084C119.924,173.563,118.361,169.84,118.779,166.074Zm15.8,23.236c-.314.039-.635.073-.969.1q-.9.07-1.886.07h-.022c-5.268,0-8.589-1.524-8.491-3.474l.248-8.283.672-.407.61,9.257.3.232v-1.644a1.01,1.01,0,0,1,1.975,0V186.8h.87v-1.644a1.01,1.01,0,0,1,1.975,0V186.8h.87v-1.644a1,1,0,0,1,.969-.8l.019,0a1.085,1.085,0,0,1,.909.535.564.564,0,0,1,.078.264V186.8h.87v-1.644a.561.561,0,0,1,.076-.264,1.09,1.09,0,0,1,.911-.535,1.053,1.053,0,0,1,.792.393.69.69,0,0,1,.193.406V186.8h.872v-1.644a.546.546,0,0,1,.078-.264,1.04,1.04,0,0,1,1.819,0,.564.564,0,0,1,.078.264V186.8l.3-.232.61-9.257.671.407.25,8.283h0a1.834,1.834,0,0,1-.491,1.295c-.019.023-.034.048-.055.072a6.181,6.181,0,0,1-2.926,1.523c-.262.072-.541.136-.828.2Q135.3,189.221,134.583,189.31Zm15.311,4.858a1.426,1.426,0,0,1-.342.382,1.612,1.612,0,0,1-.315.2c-.627.3-1.232.115-1.507.295a.3.3,0,0,0-.109.125c-.08.162,0,.321.133.51.087.126.2.267.3.434a2.073,2.073,0,0,1,.142.268,1.738,1.738,0,0,1,.145.683h0a2.07,2.07,0,0,1-1.733,1.839,1.982,1.982,0,0,1-1.677-.382c-.128-.1-.248-.207-.357-.314a7.817,7.817,0,0,1-1.718-3.033c-.037-.083-.076-.161-.117-.236a1.906,1.906,0,0,0-.282-.4,1.315,1.315,0,0,0-.387-.284l-6.995-3.379h0a10.488,10.488,0,0,0,4.335-1.451l4.048,1.955a1.523,1.523,0,0,0,.95.1,7.563,7.563,0,0,0,.92-.25,6.353,6.353,0,0,1,2.337-.385,5.268,5.268,0,0,1,.911.126,1.926,1.926,0,0,1,1.15.791A2.266,2.266,0,0,1,149.894,194.167Zm-25.858-4.747a10.446,10.446,0,0,0,4.329,1.454l-7,3.382c-1.214.587-.8,2.608-2.863,4.262a2.154,2.154,0,0,1-3.409-1.457c.008-1.062.928-1.46.719-1.9s-1.1.039-1.933-.616a2.154,2.154,0,0,1,.978-3.575c2.577-.585,3.9.994,5.117.407Zm-12.1-6.839A2.155,2.155,0,0,1,110.96,179c.838-.654,1.722-.179,1.933-.615s-.711-.833-.719-1.9a2.155,2.155,0,0,1,3.409-1.459c2.061,1.655,1.649,3.677,2.863,4.263l3.692,1.783-.106,3.5-4.976-2.4C115.843,181.588,114.516,183.167,111.938,182.582Zm41.152-2.172a2.247,2.247,0,0,1-1.022,1.942,1.94,1.94,0,0,1-.573.229,6.391,6.391,0,0,1-3.646-.382,1.974,1.974,0,0,0-1.473-.025l-4.953,2.391-.106-3.494,3.671-1.772a1.522,1.522,0,0,0,.669-.682c.451-.819.619-2.1,1.835-3.267.109-.106.229-.211.357-.315a2.156,2.156,0,0,1,3.41,1.459c-.008,1.062-.93,1.46-.719,1.9s1.094-.039,1.931.615a1.457,1.457,0,0,1,.342.384A1.969,1.969,0,0,1,153.09,180.41Z" transform="translate(-51.74 -112.385)" fill="#fff" stroke="#1d1d1b" stroke-miterlimit="10" stroke-width="0.25"/>
      <text id="RIESGO" transform="translate(232.651 97.714)" font-size="12" font-family="RobotoCondensed-Bold, Roboto" font-weight="700" letter-spacing="-0.025em"><tspan x="0" y="0">RIESGO</tspan></text>
      <text id="SUSTANCIA" transform="translate(135.265 268.266)" fill="#1d1d1b" font-size="12" font-family="RobotoCondensed-Bold, Roboto" font-weight="700" letter-spacing="-0.05em"><tspan x="0" y="0">SUSTANCIA</tspan></text>
      <text id="NOCIVO" transform="translate(316.69 272.846)" fill="#1d1d1b" font-size="12" font-family="RobotoCondensed-Bold, Roboto" font-weight="700" letter-spacing="-0.05em"><tspan x="0" y="0">NOCIVO</tspan></text>
      <text id="TÓXICO" transform="translate(402.683 102.423)" font-size="12" font-family="RobotoCondensed-Bold, Roboto" font-weight="700" letter-spacing="-0.025em"><tspan x="0" y="0">TÓXICO</tspan></text>
      <text id="_6-2" data-name="6" transform="translate(249.992 142.596)" fill="#1d1d1b" font-size="8" font-family="RobotoCondensed-Bold, Roboto" font-weight="700" letter-spacing="-0.025em"><tspan x="0" y="0">6</tspan></text>
      <text id="_6-3" data-name="6" transform="translate(163.919 313.661)" fill="#1d1d1b" font-size="8" font-family="RobotoCondensed-Bold, Roboto" font-weight="700" letter-spacing="-0.025em"><tspan x="0" y="0">6</tspan></text>
      <text id="_6-4" data-name="6" transform="translate(335.159 313.661)" fill="#1d1d1b" font-size="8" font-family="RobotoCondensed-Bold, Roboto" font-weight="700" letter-spacing="-0.025em"><tspan x="0" y="0">6</tspan></text>
      <text id="_6-5" data-name="6" transform="translate(421.211 142.596)" fill="#1d1d1b" font-size="8" font-family="RobotoCondensed-Bold, Roboto" font-weight="700" letter-spacing="-0.025em"><tspan x="0" y="0">6</tspan></text>
      <path id="Trazado_191681" data-name="Trazado 191681" d="M232.308,162.716c1.2,0,1.864-.582,2.154-.518.315.07.392.48.392,1.07h.014v2.856a.668.668,0,0,0,1.306,0v-1.087h.574v1.087a.668.668,0,0,0,1.306,0v-1.087h.574v1.087a.659.659,0,0,0,.638.523h0l.008,0v0h0l0,0a.7.7,0,0,0,.46-.183.512.512,0,0,0,.192-.345v-1.087h.576v1.087a.509.509,0,0,0,.19.345.706.706,0,0,0,.462.183.661.661,0,0,0,.652-.527v-1.087h.576v1.087a.515.515,0,0,0,.19.345.675.675,0,0,0,.923,0,.509.509,0,0,0,.19-.345v-2.856a1.535,1.535,0,0,1,.2-.956.345.345,0,0,1,.193-.114.569.569,0,0,1,.29.055,4.576,4.576,0,0,0,1.864.463c1.17,0,2.6-1.257,3.382-3.267.072-.183.137-.373.2-.566a8.775,8.775,0,0,0,.279-1.236,9.309,9.309,0,0,0,.1-1.359c0-.729.012-1.448.014-2.145a12.506,12.506,0,0,0-.635-4.708,5.469,5.469,0,0,0-.395-.774c-1.452-2.334-4.72-3.639-9.9-3.639l-.008,0-.008,0c-5.179,0-8.447,1.306-9.9,3.639-1.225,1.969-1.016,4.708-1.016,7.627C228.351,160.056,230.608,162.716,232.308,162.716Zm11.361-8.609c2.53-.459,3.939-.733,4.153,1.2a7.223,7.223,0,0,1-.027,1.828,6.6,6.6,0,0,1-.159.766,5.606,5.606,0,0,1-.382,1.028,2.8,2.8,0,0,1-1.853,1.654,1.973,1.973,0,0,1-.735-.075c-.214-.051-.457-.123-.714-.212a11.346,11.346,0,0,1-1.217-.5c-1.1-.529-2.125-1.243-2.265-1.906C239.7,154.26,240.871,154.614,243.67,154.107Zm-3.978,5.655c.509,0,2.162,2,2.162,2.622s-2.162,1-2.162,0Zm-.836,2.622c0,1-2.162.619-2.162,0s1.654-2.622,2.162-2.622Zm-8.131-7.081c.214-1.93,1.622-1.655,4.153-1.2,2.8.507,3.97.153,3.2,3.775-.282,1.326-4.115,2.858-4.931,2.7C231.482,160.253,230.447,157.791,230.725,155.3Zm10.442,15.355c-.206.025-.42.048-.641.066-.393.03-.81.045-1.245.045h-.016c-3.48,0-5.675-1.008-5.61-2.3L233.82,163l.445-.27.4,6.117.2.154v-1.087a.667.667,0,0,1,1.3,0V169h.576v-1.087a.668.668,0,0,1,1.306,0V169h.574v-1.087a.659.659,0,0,1,.641-.524l.012,0a.713.713,0,0,1,.6.354.371.371,0,0,1,.051.173V169h.576v-1.087a.354.354,0,0,1,.051-.173.714.714,0,0,1,.6-.354.7.7,0,0,1,.524.259.462.462,0,0,1,.128.268V169h.576v-1.087a.371.371,0,0,1,.051-.173.686.686,0,0,1,1.2,0,.354.354,0,0,1,.051.173V169l.2-.154.4-6.117.443.27.165,5.472h0a1.21,1.21,0,0,1-.324.856c-.014.016-.023.031-.037.047a4.072,4.072,0,0,1-1.933,1.006c-.173.048-.357.09-.548.129C241.784,170.569,241.484,170.619,241.167,170.658Zm10.118,3.209a1,1,0,0,1-.226.254,1.255,1.255,0,0,1-.207.129c-.415.2-.814.075-1,.193a.207.207,0,0,0-.072.083c-.051.108,0,.212.087.339.059.083.131.176.2.285a1.361,1.361,0,0,1,.094.178,1.13,1.13,0,0,1,.1.451h0a1.368,1.368,0,0,1-1.147,1.215,1.309,1.309,0,0,1-1.108-.251c-.084-.069-.164-.139-.236-.207a5.189,5.189,0,0,1-1.136-2c-.025-.055-.05-.106-.076-.156a1.3,1.3,0,0,0-.187-.262.889.889,0,0,0-.256-.187l-4.622-2.232h0a6.923,6.923,0,0,0,2.866-.959l2.674,1.292a1,1,0,0,0,.629.067,4.652,4.652,0,0,0,.607-.165,4.205,4.205,0,0,1,1.546-.254,3.472,3.472,0,0,1,.6.084,1.256,1.256,0,0,1,.76.523A1.5,1.5,0,0,1,251.285,173.867ZM234.2,170.73a6.881,6.881,0,0,0,2.859.963l-4.625,2.234c-.8.387-.53,1.724-1.891,2.817a1.425,1.425,0,0,1-2.254-.964c.006-.7.615-.964.476-1.253s-.724.027-1.276-.406a1.424,1.424,0,0,1,.646-2.363c1.7-.387,2.58.657,3.382.268Zm-7.995-4.518a1.424,1.424,0,0,1-.646-2.363c.552-.434,1.137-.12,1.276-.407s-.47-.551-.476-1.253a1.424,1.424,0,0,1,2.254-.962c1.36,1.094,1.089,2.429,1.891,2.816l2.44,1.179-.069,2.309-3.288-1.588C228.783,165.555,227.906,166.6,226.2,166.212Zm27.193-1.435a1.491,1.491,0,0,1-.675,1.284,1.32,1.32,0,0,1-.379.151,4.236,4.236,0,0,1-2.409-.253,1.307,1.307,0,0,0-.973-.017l-3.273,1.58-.069-2.309,2.424-1.172a1,1,0,0,0,.443-.449,6.158,6.158,0,0,1,1.212-2.159,2.852,2.852,0,0,1,.237-.207,1.423,1.423,0,0,1,2.253.962c-.006.7-.615.966-.476,1.253s.724-.027,1.276.407a.972.972,0,0,1,.226.253A1.3,1.3,0,0,1,253.4,164.777Z" transform="translate(12.548 -115.462)" fill="#fff" stroke="#1d1d1b" stroke-miterlimit="10" stroke-width="0.25"/>
      <rect id="Rectángulo_41041" data-name="Rectángulo 41041" width="100.067" height="100.067" transform="translate(252.5 9.852) rotate(45)" fill="none" stroke="#1d1d1b" stroke-miterlimit="10" stroke-width="1"/>
      <rect id="Rectángulo_41042" data-name="Rectángulo 41042" width="113.999" height="113.999" transform="translate(252.5 0) rotate(45)" fill="none" stroke="#1d1d1b" stroke-miterlimit="10" stroke-width="1" stroke-dasharray="3"/>
      <g id="Grupo_132616" data-name="Grupo 132616" transform="translate(324.939 199.001)">
        <path id="Trazado_191682" data-name="Trazado 191682" d="M293.177,312.714a2.043,2.043,0,0,1-1.379-2.2c.033-3,.011-6,.011-9v-.655a12.915,12.915,0,0,1-3.086-.554,11.031,11.031,0,0,1-7.624-10.456c-.014-.789,0-1.577,0-2.365,0-1.608.161-1.864,1.611-2.521a11.353,11.353,0,0,1-1.337-3.343A22.517,22.517,0,0,1,281.14,276a1.661,1.661,0,0,1,1.485-1.552.182.182,0,0,0,0-.246,11.277,11.277,0,0,1-1.527-6.006c.008-.827-.011-1.654,0-2.48a1.771,1.771,0,0,1,1.884-1.88,12.817,12.817,0,0,1,5.209.758,1.368,1.368,0,0,0,.271.039,15.424,15.424,0,0,1,.2-3.635,13.051,13.051,0,0,1,3.579-6.775,1.71,1.71,0,0,1,2.6.042,13.039,13.039,0,0,1,3.784,9.539c0,.248-.009.5-.014.747a.541.541,0,0,0,.036.1,22.693,22.693,0,0,1,2.3-.63,16.481,16.481,0,0,1,3.277-.173,1.7,1.7,0,0,1,1.752,1.816,28.591,28.591,0,0,1-.192,5.061,11.552,11.552,0,0,1-1.393,3.63c.087.183.267.145.4.2a1.535,1.535,0,0,1,1.151,1.379,23.161,23.161,0,0,1-.257,5.856,11.159,11.159,0,0,1-1.324,3.206,6.616,6.616,0,0,1,.8.342,1.435,1.435,0,0,1,.789,1.207,22.278,22.278,0,0,1-.359,6.248,11.05,11.05,0,0,1-9.956,8.048c-.1.006-.19.017-.281.027-.154.2-.089.417-.089.619,0,3-.033,6,.012,9a2.11,2.11,0,0,1-1.306,2.245Z" transform="translate(-281.075 -253.641)"/>
        <path id="Trazado_191683" data-name="Trazado 191683" d="M281.991,268.3c5.733-.512,10.856,5.733,10.155,12.378C286.788,281.647,280.807,274.356,281.991,268.3Z" transform="translate(-280.647 -245.446)" fill="#fff"/>
        <path id="Trazado_191684" data-name="Trazado 191684" d="M292.164,287.73a10.833,10.833,0,0,1-10.229-12.52C287.412,274.335,292.93,281.05,292.164,287.73Z" transform="translate(-280.647 -241.607)" fill="#fff"/>
        <path id="Trazado_191685" data-name="Trazado 191685" d="M289.7,287.423a10.508,10.508,0,0,1,9.846-12.165C301.093,280.743,295.218,288,289.7,287.423Z" transform="translate(-276.299 -241.536)" fill="#fff"/>
        <path id="Trazado_191686" data-name="Trazado 191686" d="M300.247,268.043c.986,8.363-5.5,13.185-10.659,13.19C287.8,275.4,293.587,268.215,300.247,268.043Z" transform="translate(-276.492 -245.576)" fill="#fff"/>
        <path id="Trazado_191687" data-name="Trazado 191687" d="M299.745,261.324a10.575,10.575,0,0,1-9.964,12.279C288.135,268.257,294.1,260.908,299.745,261.324Z" transform="translate(-276.356 -249.348)" fill="#fff"/>
        <path id="Trazado_191688" data-name="Trazado 191688" d="M292.142,273.785a10.816,10.816,0,0,1-10.2-12.491C287.381,260.434,293.085,267.381,292.142,273.785Z" transform="translate(-280.647 -249.396)" fill="#fff"/>
        <path id="Trazado_191689" data-name="Trazado 191689" d="M290.476,271.124a10.8,10.8,0,0,1-.145-16.394A10.726,10.726,0,0,1,290.476,271.124Z" transform="translate(-277.962 -253.031)" fill="#fff"/>
      </g>
      <path id="Trazado_191690" data-name="Trazado 191690" d="M275.787,265.71c25.452,9.539,32.059,23.061,36.244,37.094" transform="translate(40.902 -47.882)" fill="none" stroke="#1d1d1b" stroke-linecap="round" stroke-linejoin="round" stroke-width="2"/>
      <path id="Trazado_191691" data-name="Trazado 191691" d="M316.118,265.71c-25.451,9.539-32.057,23.061-36.244,37.094" transform="translate(43.191 -47.882)" fill="none" stroke="#1d1d1b" stroke-linecap="round" stroke-linejoin="round" stroke-width="2"/>
    </g>
    <g id="_Capa_" data-name="&lt;Capa&gt;" transform="translate(212.2 224.687)">
      <text id="INHALACIÓN" transform="translate(86.273 10)" font-size="10" font-family="RobotoCondensed-Bold, Roboto" font-weight="700" letter-spacing="-0.025em"><tspan x="0" y="0">INHALACIÓN</tspan></text>
      <text id="INFECCIOSA" transform="translate(0 181.934)" fill="#1d1d1b" font-size="11" font-family="RobotoCondensed-Bold, Roboto" font-weight="700" letter-spacing="-0.05em"><tspan x="0" y="0">INFECCIOSA</tspan></text>
      <text id="EN_CASO_DE_DERRAME_O_AVERÍA_NOTIFICAR_A_LA_AUTORIDAD_COMPETENTE" data-name="EN CASO DE DERRAME
O AVERÍA NOTIFICAR A LA
AUTORIDAD COMPETENTE" transform="translate(26.146 191.587)" fill="#1d1d1b" font-size="3" font-family="RobotoCondensed-Bold, Roboto" font-weight="700" letter-spacing="-0.05em"><tspan x="-12.481" y="0">EN CASO DE DERRAME</tspan><tspan x="-14.419" y="4">O AVERÍA NOTIFICAR A LA</tspan><tspan x="-14.709" y="8">AUTORIDAD COMPETENTE</tspan></text>
    </g>
  </g>
</svg>
