<svg xmlns="http://www.w3.org/2000/svg" width="540.313" height="237.223" viewBox="0 0 540.313 237.223">
  <g id="Grupo_134636" data-name="Grupo 134636" transform="translate(-545.5 -1481.953)">
    <g id="Grupo_134605" data-name="Grupo 134605" transform="translate(291.527 1339.416)">
      <g id="Grupo_134604" data-name="Grupo 134604" transform="translate(306.18 142.537)">
        <rect id="Rectángulo_41186" data-name="Rectángulo 41186" width="2.614" height="113.494" transform="translate(0 0)" fill="#0a090a"/>
        <rect id="Rectángulo_41187" data-name="Rectángulo 41187" width="1.307" height="113.494" transform="translate(4.533 0)" fill="#0a090a"/>
        <rect id="Rectángulo_41188" data-name="Rectángulo 41188" width="1.797" height="113.494" transform="translate(8.004 0)" fill="#0a090a"/>
        <rect id="Rectángulo_41189" data-name="Rectángulo 41189" width="0.898" height="94.91" transform="translate(11.373 0)" fill="#0a090a"/>
        <rect id="Rectángulo_41190" data-name="Rectángulo 41190" width="3.431" height="94.91" transform="translate(14.344 0)" fill="#0a090a"/>
        <rect id="Rectángulo_41191" data-name="Rectángulo 41191" width="2.614" height="94.91" transform="translate(167.17 0)" fill="#0a090a"/>
        <rect id="Rectángulo_41192" data-name="Rectángulo 41192" width="1.307" height="94.91" transform="translate(174.582 0)" fill="#0a090a"/>
        <rect id="Rectángulo_41193" data-name="Rectángulo 41193" width="1.797" height="94.91" transform="translate(178.053 0)" fill="#0a090a"/>
        <rect id="Rectángulo_41194" data-name="Rectángulo 41194" width="0.899" height="94.91" transform="translate(181.422 0)" fill="#0a090a"/>
        <rect id="Rectángulo_41195" data-name="Rectángulo 41195" width="3.431" height="94.91" transform="translate(184.393 0)" fill="#0a090a"/>
        <rect id="Rectángulo_41196" data-name="Rectángulo 41196" width="2.123" height="94.91" transform="translate(20.205 0)" fill="#0a090a"/>
        <rect id="Rectángulo_41197" data-name="Rectángulo 41197" width="1.062" height="94.91" transform="translate(23.655 0)" fill="#0a090a"/>
        <rect id="Rectángulo_41198" data-name="Rectángulo 41198" width="0.755" height="94.91" transform="translate(31.435 0)" fill="#0a090a"/>
        <rect id="Rectángulo_41199" data-name="Rectángulo 41199" width="1.858" height="94.91" transform="translate(27.31 0)" fill="#0a090a"/>
        <rect id="Rectángulo_41200" data-name="Rectángulo 41200" width="2.614" height="94.91" transform="translate(33.589 0)" fill="#0a090a"/>
        <rect id="Rectángulo_41201" data-name="Rectángulo 41201" width="1.062" height="94.91" transform="translate(74.621 0)" fill="#0a090a"/>
        <rect id="Rectángulo_41202" data-name="Rectángulo 41202" width="0.756" height="94.91" transform="translate(84.785 0)" fill="#0a090a"/>
        <rect id="Rectángulo_41203" data-name="Rectángulo 41203" width="3.104" height="94.91" transform="translate(78.276 0)" fill="#0a090a"/>
        <rect id="Rectángulo_41204" data-name="Rectángulo 41204" width="2.614" height="94.91" transform="translate(86.939 0)" fill="#0a090a"/>
        <rect id="Rectángulo_41205" data-name="Rectángulo 41205" width="1.307" height="94.91" transform="translate(40.041 0)" fill="#0a090a"/>
        <rect id="Rectángulo_41206" data-name="Rectángulo 41206" width="1.797" height="94.91" transform="translate(45.432 0)" fill="#0a090a"/>
        <rect id="Rectángulo_41207" data-name="Rectángulo 41207" width="0.898" height="94.91" transform="translate(48.801 0)" fill="#0a090a"/>
        <rect id="Rectángulo_41208" data-name="Rectángulo 41208" width="2.205" height="94.91" transform="translate(51.772 0)" fill="#0a090a"/>
        <rect id="Rectángulo_41209" data-name="Rectángulo 41209" width="3.757" height="94.91" transform="translate(55.999 0)" fill="#0a090a"/>
        <rect id="Rectángulo_41210" data-name="Rectángulo 41210" width="1.062" height="94.91" transform="translate(61.083 0)" fill="#0a090a"/>
        <rect id="Rectángulo_41211" data-name="Rectángulo 41211" width="1.797" height="94.91" transform="translate(93.141 0)" fill="#0a090a"/>
        <rect id="Rectángulo_41212" data-name="Rectángulo 41212" width="0.899" height="94.91" transform="translate(96.51 0)" fill="#0a090a"/>
        <rect id="Rectángulo_41213" data-name="Rectángulo 41213" width="2.205" height="94.91" transform="translate(99.481 0)" fill="#0a090a"/>
        <rect id="Rectángulo_41214" data-name="Rectángulo 41214" width="3.757" height="94.91" transform="translate(103.708 0)" fill="#0a090a"/>
        <rect id="Rectángulo_41215" data-name="Rectángulo 41215" width="1.062" height="94.91" transform="translate(108.792 0)" fill="#0a090a"/>
        <rect id="Rectángulo_41216" data-name="Rectángulo 41216" width="0.755" height="94.91" transform="translate(69.823 0)" fill="#0a090a"/>
        <rect id="Rectángulo_41217" data-name="Rectángulo 41217" width="1.858" height="94.91" transform="translate(66.658 0)" fill="#0a090a"/>
        <rect id="Rectángulo_41218" data-name="Rectángulo 41218" width="1.307" height="94.91" transform="translate(192.122 0)" fill="#0a090a"/>
        <rect id="Rectángulo_41219" data-name="Rectángulo 41219" width="1.797" height="94.91" transform="translate(197.513 0)" fill="#0a090a"/>
        <rect id="Rectángulo_41220" data-name="Rectángulo 41220" width="0.898" height="94.91" transform="translate(200.882 0)" fill="#0a090a"/>
        <rect id="Rectángulo_41221" data-name="Rectángulo 41221" width="2.205" height="113.494" transform="translate(203.853 0)" fill="#0a090a"/>
        <rect id="Rectángulo_41222" data-name="Rectángulo 41222" width="3.757" height="113.494" transform="translate(208.079 0)" fill="#0a090a"/>
        <rect id="Rectángulo_41223" data-name="Rectángulo 41223" width="1.062" height="113.494" transform="translate(213.164 0)" fill="#0a090a"/>
        <rect id="Rectángulo_41224" data-name="Rectángulo 41224" width="1.062" height="94.91" transform="translate(133.474 94.91) rotate(180)" fill="#0a090a"/>
        <rect id="Rectángulo_41225" data-name="Rectángulo 41225" width="0.755" height="94.91" transform="translate(123.31 94.91) rotate(180)" fill="#0a090a"/>
        <rect id="Rectángulo_41226" data-name="Rectángulo 41226" width="3.103" height="94.91" transform="translate(129.818 94.91) rotate(180)" fill="#0a090a"/>
        <rect id="Rectángulo_41227" data-name="Rectángulo 41227" width="2.614" height="94.91" transform="translate(121.156 94.91) rotate(180)" fill="#0a090a"/>
        <rect id="Rectángulo_41228" data-name="Rectángulo 41228" width="1.797" height="94.91" transform="translate(162.662 94.91) rotate(180)" fill="#0a090a"/>
        <rect id="Rectángulo_41229" data-name="Rectángulo 41229" width="0.898" height="94.91" transform="translate(159.293 94.91) rotate(180)" fill="#0a090a"/>
        <rect id="Rectángulo_41230" data-name="Rectángulo 41230" width="2.205" height="94.91" transform="translate(156.322 94.91) rotate(180)" fill="#0a090a"/>
        <rect id="Rectángulo_41231" data-name="Rectángulo 41231" width="3.757" height="94.91" transform="translate(152.096 94.91) rotate(180)" fill="#0a090a"/>
        <rect id="Rectángulo_41232" data-name="Rectángulo 41232" width="1.062" height="94.91" transform="translate(147.011 94.91) rotate(180)" fill="#0a090a"/>
        <rect id="Rectángulo_41233" data-name="Rectángulo 41233" width="1.797" height="94.91" transform="translate(114.954 94.91) rotate(180)" fill="#0a090a"/>
        <rect id="Rectángulo_41234" data-name="Rectángulo 41234" width="0.755" height="94.91" transform="translate(138.272 94.91) rotate(180)" fill="#0a090a"/>
        <rect id="Rectángulo_41235" data-name="Rectángulo 41235" width="1.858" height="94.91" transform="translate(141.437 94.91) rotate(180)" fill="#0a090a"/>
        <rect id="Rectángulo_41236" data-name="Rectángulo 41236" width="1.062" height="94.91" transform="translate(249.12 0)" fill="#0a090a"/>
        <rect id="Rectángulo_41237" data-name="Rectángulo 41237" width="0.756" height="94.91" transform="translate(259.283 0)" fill="#0a090a"/>
        <rect id="Rectángulo_41238" data-name="Rectángulo 41238" width="3.104" height="94.91" transform="translate(252.775 0)" fill="#0a090a"/>
        <rect id="Rectángulo_41239" data-name="Rectángulo 41239" width="2.614" height="94.91" transform="translate(261.438 0)" fill="#0a090a"/>
        <rect id="Rectángulo_41240" data-name="Rectángulo 41240" width="1.797" height="113.494" transform="translate(219.931 0)" fill="#0a090a"/>
        <rect id="Rectángulo_41241" data-name="Rectángulo 41241" width="0.898" height="94.91" transform="translate(223.3 0)" fill="#0a090a"/>
        <rect id="Rectángulo_41242" data-name="Rectángulo 41242" width="2.205" height="94.91" transform="translate(226.271 0)" fill="#0a090a"/>
        <rect id="Rectángulo_41243" data-name="Rectángulo 41243" width="3.757" height="94.91" transform="translate(230.498 0)" fill="#0a090a"/>
        <rect id="Rectángulo_41244" data-name="Rectángulo 41244" width="1.062" height="94.91" transform="translate(235.582 0)" fill="#0a090a"/>
        <rect id="Rectángulo_41245" data-name="Rectángulo 41245" width="1.797" height="94.91" transform="translate(267.64 0)" fill="#0a090a"/>
        <rect id="Rectángulo_41246" data-name="Rectángulo 41246" width="0.898" height="94.91" transform="translate(271.009 0)" fill="#0a090a"/>
        <rect id="Rectángulo_41247" data-name="Rectángulo 41247" width="2.205" height="94.91" transform="translate(273.98 0)" fill="#0a090a"/>
        <rect id="Rectángulo_41248" data-name="Rectángulo 41248" width="3.757" height="94.91" transform="translate(278.206 0)" fill="#0a090a"/>
        <rect id="Rectángulo_41249" data-name="Rectángulo 41249" width="1.062" height="94.91" transform="translate(283.291 0)" fill="#0a090a"/>
        <rect id="Rectángulo_41250" data-name="Rectángulo 41250" width="0.756" height="94.91" transform="translate(244.321 0)" fill="#0a090a"/>
        <rect id="Rectángulo_41251" data-name="Rectángulo 41251" width="1.858" height="94.91" transform="translate(241.156 0)" fill="#0a090a"/>
        <rect id="Rectángulo_41252" data-name="Rectángulo 41252" width="1.062" height="94.91" transform="translate(307.972 94.91) rotate(180)" fill="#0a090a"/>
        <rect id="Rectángulo_41253" data-name="Rectángulo 41253" width="0.755" height="94.91" transform="translate(297.809 94.91) rotate(180)" fill="#0a090a"/>
        <rect id="Rectángulo_41254" data-name="Rectángulo 41254" width="3.103" height="94.91" transform="translate(304.317 94.91) rotate(180)" fill="#0a090a"/>
        <rect id="Rectángulo_41255" data-name="Rectángulo 41255" width="2.614" height="94.91" transform="translate(295.655 94.91) rotate(180)" fill="#0a090a"/>
        <rect id="Rectángulo_41256" data-name="Rectángulo 41256" width="0.898" height="94.91" transform="translate(333.792 94.91) rotate(180)" fill="#0a090a"/>
        <rect id="Rectángulo_41257" data-name="Rectángulo 41257" width="2.205" height="94.91" transform="translate(330.821 94.91) rotate(180)" fill="#0a090a"/>
        <rect id="Rectángulo_41258" data-name="Rectángulo 41258" width="3.757" height="94.91" transform="translate(326.594 94.91) rotate(180)" fill="#0a090a"/>
        <rect id="Rectángulo_41259" data-name="Rectángulo 41259" width="1.062" height="94.91" transform="translate(321.51 94.91) rotate(180)" fill="#0a090a"/>
        <rect id="Rectángulo_41260" data-name="Rectángulo 41260" width="1.797" height="94.91" transform="translate(289.452 94.91) rotate(180)" fill="#0a090a"/>
        <rect id="Rectángulo_41261" data-name="Rectángulo 41261" width="0.755" height="94.91" transform="translate(312.771 94.91) rotate(180)" fill="#0a090a"/>
        <rect id="Rectángulo_41262" data-name="Rectángulo 41262" width="1.858" height="94.91" transform="translate(315.936 94.91) rotate(180)" fill="#0a090a"/>
        <rect id="Rectángulo_41263" data-name="Rectángulo 41263" width="1.062" height="94.91" transform="translate(405.181 94.91) rotate(180)" fill="#0a090a"/>
        <rect id="Rectángulo_41264" data-name="Rectángulo 41264" width="0.756" height="94.91" transform="translate(395.017 94.91) rotate(180)" fill="#0a090a"/>
        <rect id="Rectángulo_41265" data-name="Rectángulo 41265" width="3.104" height="94.91" transform="translate(401.525 94.91) rotate(180)" fill="#0a090a"/>
        <rect id="Rectángulo_41266" data-name="Rectángulo 41266" width="2.614" height="94.91" transform="translate(392.863 94.91) rotate(180)" fill="#0a090a"/>
        <rect id="Rectángulo_41267" data-name="Rectángulo 41267" width="0.898" height="113.494" transform="translate(431 113.494) rotate(180)" fill="#0a090a"/>
        <rect id="Rectángulo_41268" data-name="Rectángulo 41268" width="2.205" height="113.494" transform="translate(428.029 113.494) rotate(180)" fill="#0a090a"/>
        <rect id="Rectángulo_41269" data-name="Rectángulo 41269" width="3.757" height="113.494" transform="translate(423.802 113.494) rotate(180)" fill="#0a090a"/>
        <rect id="Rectángulo_41270" data-name="Rectángulo 41270" width="1.062" height="113.494" transform="translate(418.718 113.494) rotate(180)" fill="#0a090a"/>
        <rect id="Rectángulo_41271" data-name="Rectángulo 41271" width="1.797" height="94.91" transform="translate(386.661 94.91) rotate(180)" fill="#0a090a"/>
        <rect id="Rectángulo_41272" data-name="Rectángulo 41272" width="0.899" height="94.91" transform="translate(383.291 94.91) rotate(180)" fill="#0a090a"/>
        <rect id="Rectángulo_41273" data-name="Rectángulo 41273" width="2.205" height="94.91" transform="translate(380.32 94.91) rotate(180)" fill="#0a090a"/>
        <rect id="Rectángulo_41274" data-name="Rectángulo 41274" width="3.757" height="94.91" transform="translate(376.094 94.91) rotate(180)" fill="#0a090a"/>
        <rect id="Rectángulo_41275" data-name="Rectángulo 41275" width="1.062" height="94.91" transform="translate(371.01 94.91) rotate(180)" fill="#0a090a"/>
        <rect id="Rectángulo_41276" data-name="Rectángulo 41276" width="0.755" height="94.91" transform="translate(409.979 94.91) rotate(180)" fill="#0a090a"/>
        <rect id="Rectángulo_41277" data-name="Rectángulo 41277" width="1.858" height="94.91" transform="translate(413.144 94.91) rotate(180)" fill="#0a090a"/>
        <rect id="Rectángulo_41278" data-name="Rectángulo 41278" width="1.062" height="94.91" transform="translate(346.328 0)" fill="#0a090a"/>
        <rect id="Rectángulo_41279" data-name="Rectángulo 41279" width="0.756" height="94.91" transform="translate(356.492 0)" fill="#0a090a"/>
        <rect id="Rectángulo_41280" data-name="Rectángulo 41280" width="3.104" height="94.91" transform="translate(349.983 0)" fill="#0a090a"/>
        <rect id="Rectángulo_41281" data-name="Rectángulo 41281" width="2.614" height="94.91" transform="translate(358.646 0)" fill="#0a090a"/>
        <rect id="Rectángulo_41282" data-name="Rectángulo 41282" width="1.797" height="94.91" transform="translate(364.848 0)" fill="#0a090a"/>
        <rect id="Rectángulo_41283" data-name="Rectángulo 41283" width="0.755" height="94.91" transform="translate(341.53 0)" fill="#0a090a"/>
        <rect id="Rectángulo_41284" data-name="Rectángulo 41284" width="1.858" height="94.91" transform="translate(338.364 0)" fill="#0a090a"/>
      </g>
      <text id="_7_702004_003508_" data-name="7  702004  003508   " transform="translate(270.473 275.53)" fill="#17100d" font-size="45" font-family="ArialMT, Arial" letter-spacing="0.09em"><tspan x="0" y="0" xml:space="preserve">7  702004  003508</tspan><tspan y="0" xml:space="preserve" letter-spacing="0.06em">   </tspan></text>
    </g>
    <path id="Trazado_195130" data-name="Trazado 195130" d="M6920-10146v19.333h133.333V-10146" transform="translate(-6373.5 11754)" fill="none" stroke="red" stroke-width="2"/>
    <path id="Trazado_195131" data-name="Trazado 195131" d="M6920-10146v19.333h115.5V-10146" transform="translate(-6237 11754)" fill="none" stroke="red" stroke-width="2"/>
    <path id="Trazado_195132" data-name="Trazado 195132" d="M6920-10146v19.333h144.5V-10146" transform="translate(-6091 11754)" fill="none" stroke="red" stroke-width="2"/>
    <path id="Trazado_195133" data-name="Trazado 195133" d="M6920-10146v19.333h27.167V-10146" transform="translate(-5943.5 11754)" fill="none" stroke="red" stroke-width="2"/>
    <g id="Grupo_134606" data-name="Grupo 134606" transform="translate(852.914 1605.4) rotate(90)">
      <path id="Trazado_195134" data-name="Trazado 195134" d="M65.263,227.706H58.312l9.449,11.6-9.449,11.6h6.951l9.449-11.6Z" transform="translate(-11.674)" fill="red"/>
      <rect id="Rectángulo_41286" data-name="Rectángulo 41286" width="35" height="5.724" transform="translate(21.933 236.448)" fill="red"/>
    </g>
    <g id="Grupo_134607" data-name="Grupo 134607" transform="translate(985.914 1605.4) rotate(90)">
      <path id="Trazado_195134-2" data-name="Trazado 195134" d="M65.263,227.706H58.312l9.449,11.6-9.449,11.6h6.951l9.449-11.6Z" transform="translate(-11.674)" fill="red"/>
      <rect id="Rectángulo_41286-2" data-name="Rectángulo 41286" width="35" height="5.724" transform="translate(21.933 236.448)" fill="red"/>
    </g>
    <g id="Grupo_134608" data-name="Grupo 134608" transform="translate(1145.914 1605.4) rotate(90)">
      <path id="Trazado_195134-3" data-name="Trazado 195134" d="M65.263,227.706H58.312l9.449,11.6-9.449,11.6h6.951l9.449-11.6Z" transform="translate(-11.674)" fill="red"/>
      <rect id="Rectángulo_41286-3" data-name="Rectángulo 41286" width="35" height="5.724" transform="translate(21.933 236.448)" fill="red"/>
    </g>
    <g id="Grupo_134609" data-name="Grupo 134609" transform="translate(1227.706 1605.4) rotate(90)">
      <path id="Trazado_195134-4" data-name="Trazado 195134" d="M65.263,227.706H58.312l9.449,11.6-9.449,11.6h6.951l9.449-11.6Z" transform="translate(-11.674)" fill="red"/>
      <rect id="Rectángulo_41286-4" data-name="Rectángulo 41286" width="35" height="5.724" transform="translate(21.933 236.448)" fill="red"/>
    </g>
    <path id="Trazado_195207" data-name="Trazado 195207" d="M4.052-4.342V0H.967V-12.8H6.073a5.948,5.948,0,0,1,2.6.541,4.074,4.074,0,0,1,1.749,1.538,4.2,4.2,0,0,1,.62,2.263A3.7,3.7,0,0,1,9.7-5.462,5.561,5.561,0,0,1,6.021-4.342Zm0-2.382H6.073A1.906,1.906,0,0,0,7.44-7.172a1.665,1.665,0,0,0,.47-1.266A2.059,2.059,0,0,0,7.427-9.87a1.712,1.712,0,0,0-1.318-.545H4.052ZM18.387-2.391H14.159L13.421,0h-3.3l4.693-12.8h2.9L22.447,0H19.134ZM14.9-4.772h2.751l-1.38-4.438ZM26.666,0H23.59V-12.8h3.076ZM25.5-16.225h3.129l-2.443,2.76-2.417,0ZM35.411-3.4a1.268,1.268,0,0,0-.479-1.055,5.954,5.954,0,0,0-1.683-.782,16.147,16.147,0,0,1-1.969-.782q-2.487-1.222-2.487-3.357a3.011,3.011,0,0,1,.62-1.876,4.008,4.008,0,0,1,1.753-1.266,6.823,6.823,0,0,1,2.549-.453,5.969,5.969,0,0,1,2.474.492,3.917,3.917,0,0,1,1.7,1.4A3.661,3.661,0,0,1,38.5-9H35.42a1.547,1.547,0,0,0-.479-1.213,1.867,1.867,0,0,0-1.3-.431,2.106,2.106,0,0,0-1.305.365,1.119,1.119,0,0,0-.479.927,1.127,1.127,0,0,0,.527.892,6.65,6.65,0,0,0,1.854.826,11.36,11.36,0,0,1,2.18.918,3.663,3.663,0,0,1,2.074,3.3A3.125,3.125,0,0,1,37.23-.782a5.629,5.629,0,0,1-3.472.958,6.888,6.888,0,0,1-2.817-.558,4.247,4.247,0,0,1-1.9-1.529,3.985,3.985,0,0,1-.637-2.237H31.5a1.963,1.963,0,0,0,.532,1.516,2.513,2.513,0,0,0,1.727.488,1.985,1.985,0,0,0,1.208-.33A1.088,1.088,0,0,0,35.411-3.4Z" transform="translate(594 1694)" fill="#12263f"/>
    <path id="Trazado_195206" data-name="Trazado 195206" d="M-21.683-4.333a4.673,4.673,0,0,1-.721,2.36,4.35,4.35,0,0,1-1.85,1.586,6.3,6.3,0,0,1-2.72.563,5.025,5.025,0,0,1-3.973-1.644A6.786,6.786,0,0,1-32.4-6.108v-.633a7.746,7.746,0,0,1,.655-3.292,4.961,4.961,0,0,1,1.885-2.18,5.26,5.26,0,0,1,2.848-.769,5.516,5.516,0,0,1,3.744,1.226,4.844,4.844,0,0,1,1.608,3.379h-3.076a2.292,2.292,0,0,0-.589-1.679,2.422,2.422,0,0,0-1.687-.51A1.843,1.843,0,0,0-28.7-9.7a5.536,5.536,0,0,0-.562,2.751v.905a6.126,6.126,0,0,0,.514,2.927,1.882,1.882,0,0,0,1.771.879,2.369,2.369,0,0,0,1.626-.5,2.126,2.126,0,0,0,.6-1.591Zm12.3-1.8a7.546,7.546,0,0,1-.694,3.313A5.132,5.132,0,0,1-12.054-.6a5.494,5.494,0,0,1-2.914.778,5.572,5.572,0,0,1-2.9-.751,5.123,5.123,0,0,1-1.973-2.149,7.329,7.329,0,0,1-.743-3.208v-.721a7.58,7.58,0,0,1,.69-3.318,5.119,5.119,0,0,1,1.978-2.219,5.533,5.533,0,0,1,2.931-.782,5.479,5.479,0,0,1,2.9.773A5.211,5.211,0,0,1-10.1-10a7.362,7.362,0,0,1,.716,3.274Zm-3.138-.536a5.381,5.381,0,0,0-.637-2.9,2.044,2.044,0,0,0-1.824-.989q-2.32,0-2.452,3.48l-.009.94a5.535,5.535,0,0,0,.624,2.892,2.041,2.041,0,0,0,1.854,1.011,2.016,2.016,0,0,0,1.8-.993,5.383,5.383,0,0,0,.642-2.856Zm-2.1-9.554H-11.5l-2.443,2.76-2.417,0ZM-7.8,0V-12.8h4.122a6.064,6.064,0,0,1,3.05.769A5.406,5.406,0,0,1,1.49-9.857a6.554,6.554,0,0,1,.769,3.142v.589a6.592,6.592,0,0,1-.743,3.151A5.429,5.429,0,0,1-.576-.8a5.93,5.93,0,0,1-3.01.8Zm3.085-10.415v8.042h1.072A2.4,2.4,0,0,0-1.6-3.318,4.63,4.63,0,0,0-.888-6.126V-6.68A4.592,4.592,0,0,0-1.6-9.475a2.442,2.442,0,0,0-2.074-.94ZM7.128,0H4.052V-12.8H7.128ZM19.749-1.582A4.96,4.96,0,0,1,17.666-.308,8.984,8.984,0,0,1,14.66.176a5.36,5.36,0,0,1-4.017-1.538,6.226,6.226,0,0,1-1.608-4.28L9.026-6.75a7.637,7.637,0,0,1,.668-3.3,4.96,4.96,0,0,1,1.912-2.171,5.407,5.407,0,0,1,2.878-.76A5.669,5.669,0,0,1,18.2-11.887,4.637,4.637,0,0,1,19.74-8.622H16.77a2.426,2.426,0,0,0-.686-1.529,2.212,2.212,0,0,0-1.494-.457,2.013,2.013,0,0,0-1.793.984,5.256,5.256,0,0,0-.642,2.813v.773A5.145,5.145,0,0,0,12.81-3.16a2.316,2.316,0,0,0,2.061.962,2.592,2.592,0,0,0,1.793-.536V-4.72H14.52V-6.838h5.229Zm12.63-4.553a7.546,7.546,0,0,1-.694,3.313A5.132,5.132,0,0,1,29.711-.6,5.494,5.494,0,0,1,26.8.176a5.572,5.572,0,0,1-2.9-.751,5.123,5.123,0,0,1-1.973-2.149,7.329,7.329,0,0,1-.743-3.208v-.721a7.58,7.58,0,0,1,.69-3.318,5.119,5.119,0,0,1,1.978-2.219,5.533,5.533,0,0,1,2.931-.782,5.479,5.479,0,0,1,2.9.773A5.211,5.211,0,0,1,31.663-10a7.362,7.362,0,0,1,.716,3.274Zm-3.138-.536a5.381,5.381,0,0,0-.637-2.9,2.044,2.044,0,0,0-1.824-.989q-2.32,0-2.452,3.48l-.009.94a5.535,5.535,0,0,0,.624,2.892A2.041,2.041,0,0,0,26.8-2.232a2.016,2.016,0,0,0,1.8-.993,5.383,5.383,0,0,0,.642-2.856ZM-32.55,19.568H-37.4v3.059h5.73V25h-8.815V12.2h8.833v2.382H-37.4v2.7h4.852Zm6.188-7.365,2.856,8.9,2.848-8.9H-16.6V25h-3.094V22.012l.3-6.117L-22.487,25h-2.039l-3.1-9.114.3,6.126V25h-3.085V12.2Zm14.81,8.455V25h-3.085V12.2h5.106a5.948,5.948,0,0,1,2.6.541,4.074,4.074,0,0,1,1.749,1.538,4.2,4.2,0,0,1,.62,2.263,3.7,3.7,0,0,1-1.34,2.993,5.561,5.561,0,0,1-3.678,1.121Zm0-2.382h2.021a1.906,1.906,0,0,0,1.367-.448,1.665,1.665,0,0,0,.47-1.266,2.059,2.059,0,0,0-.483-1.433A1.712,1.712,0,0,0-9.5,14.585h-2.057Zm13.386,2.2H.163V25H-2.922V12.2H2.114a5.621,5.621,0,0,1,3.56,1.01,3.421,3.421,0,0,1,1.283,2.853,4.155,4.155,0,0,1-.541,2.213A3.837,3.837,0,0,1,4.724,19.7L7.4,24.868V25h-3.3ZM.163,18.1H2.114a1.751,1.751,0,0,0,1.323-.463,1.788,1.788,0,0,0,.444-1.291,1.809,1.809,0,0,0-.448-1.3,1.735,1.735,0,0,0-1.318-.471H.163Zm16.594,1.468H11.9v3.059h5.73V25H8.82V12.2h8.833v2.382H11.9v2.7h4.852Zm8.736,2.03a1.268,1.268,0,0,0-.479-1.055,5.954,5.954,0,0,0-1.683-.782,16.147,16.147,0,0,1-1.969-.782q-2.487-1.222-2.487-3.357a3.011,3.011,0,0,1,.62-1.876,4.008,4.008,0,0,1,1.753-1.266,6.823,6.823,0,0,1,2.549-.453,5.969,5.969,0,0,1,2.474.492,3.917,3.917,0,0,1,1.7,1.4A3.661,3.661,0,0,1,28.578,16H25.5a1.547,1.547,0,0,0-.479-1.213,1.867,1.867,0,0,0-1.3-.431,2.106,2.106,0,0,0-1.305.365,1.074,1.074,0,0,0,.048,1.819,6.65,6.65,0,0,0,1.854.826,11.36,11.36,0,0,1,2.18.918,3.663,3.663,0,0,1,2.074,3.3,3.125,3.125,0,0,1-1.266,2.637,5.629,5.629,0,0,1-3.472.958,6.888,6.888,0,0,1-2.817-.558,4.247,4.247,0,0,1-1.9-1.529,3.985,3.985,0,0,1-.637-2.237h3.094a1.963,1.963,0,0,0,.532,1.516,2.513,2.513,0,0,0,1.727.488,1.985,1.985,0,0,0,1.208-.33A1.088,1.088,0,0,0,25.493,21.6Zm11.936,1.011H33.2L32.462,25h-3.3L33.86,12.2h2.9L41.489,25H38.175Zm-3.489-2.382H36.69l-1.38-4.438Z" transform="translate(749 1694)" fill="#12263f"/>
    <path id="Trazado_195205" data-name="Trazado 195205" d="M-21.683-4.333a4.673,4.673,0,0,1-.721,2.36,4.35,4.35,0,0,1-1.85,1.586,6.3,6.3,0,0,1-2.72.563,5.025,5.025,0,0,1-3.973-1.644A6.786,6.786,0,0,1-32.4-6.108v-.633a7.746,7.746,0,0,1,.655-3.292,4.961,4.961,0,0,1,1.885-2.18,5.26,5.26,0,0,1,2.848-.769,5.516,5.516,0,0,1,3.744,1.226,4.844,4.844,0,0,1,1.608,3.379h-3.076a2.292,2.292,0,0,0-.589-1.679,2.422,2.422,0,0,0-1.687-.51A1.843,1.843,0,0,0-28.7-9.7a5.536,5.536,0,0,0-.562,2.751v.905a6.126,6.126,0,0,0,.514,2.927,1.882,1.882,0,0,0,1.771.879,2.369,2.369,0,0,0,1.626-.5,2.126,2.126,0,0,0,.6-1.591Zm12.3-1.8a7.546,7.546,0,0,1-.694,3.313A5.132,5.132,0,0,1-12.054-.6a5.494,5.494,0,0,1-2.914.778,5.572,5.572,0,0,1-2.9-.751,5.123,5.123,0,0,1-1.973-2.149,7.329,7.329,0,0,1-.743-3.208v-.721a7.58,7.58,0,0,1,.69-3.318,5.119,5.119,0,0,1,1.978-2.219,5.533,5.533,0,0,1,2.931-.782,5.479,5.479,0,0,1,2.9.773A5.211,5.211,0,0,1-10.1-10a7.362,7.362,0,0,1,.716,3.274Zm-3.138-.536a5.381,5.381,0,0,0-.637-2.9,2.044,2.044,0,0,0-1.824-.989q-2.32,0-2.452,3.48l-.009.94a5.535,5.535,0,0,0,.624,2.892,2.041,2.041,0,0,0,1.854,1.011,2.016,2.016,0,0,0,1.8-.993,5.383,5.383,0,0,0,.642-2.856Zm-2.1-9.554H-11.5l-2.443,2.76-2.417,0ZM-7.8,0V-12.8h4.122a6.064,6.064,0,0,1,3.05.769A5.406,5.406,0,0,1,1.49-9.857a6.554,6.554,0,0,1,.769,3.142v.589a6.592,6.592,0,0,1-.743,3.151A5.429,5.429,0,0,1-.576-.8a5.93,5.93,0,0,1-3.01.8Zm3.085-10.415v8.042h1.072A2.4,2.4,0,0,0-1.6-3.318,4.63,4.63,0,0,0-.888-6.126V-6.68A4.592,4.592,0,0,0-1.6-9.475a2.442,2.442,0,0,0-2.074-.94ZM7.128,0H4.052V-12.8H7.128ZM19.749-1.582A4.96,4.96,0,0,1,17.666-.308,8.984,8.984,0,0,1,14.66.176a5.36,5.36,0,0,1-4.017-1.538,6.226,6.226,0,0,1-1.608-4.28L9.026-6.75a7.637,7.637,0,0,1,.668-3.3,4.96,4.96,0,0,1,1.912-2.171,5.407,5.407,0,0,1,2.878-.76A5.669,5.669,0,0,1,18.2-11.887,4.637,4.637,0,0,1,19.74-8.622H16.77a2.426,2.426,0,0,0-.686-1.529,2.212,2.212,0,0,0-1.494-.457,2.013,2.013,0,0,0-1.793.984,5.256,5.256,0,0,0-.642,2.813v.773A5.145,5.145,0,0,0,12.81-3.16a2.316,2.316,0,0,0,2.061.962,2.592,2.592,0,0,0,1.793-.536V-4.72H14.52V-6.838h5.229Zm12.63-4.553a7.546,7.546,0,0,1-.694,3.313A5.132,5.132,0,0,1,29.711-.6,5.494,5.494,0,0,1,26.8.176a5.572,5.572,0,0,1-2.9-.751,5.123,5.123,0,0,1-1.973-2.149,7.329,7.329,0,0,1-.743-3.208v-.721a7.58,7.58,0,0,1,.69-3.318,5.119,5.119,0,0,1,1.978-2.219,5.533,5.533,0,0,1,2.931-.782,5.479,5.479,0,0,1,2.9.773A5.211,5.211,0,0,1,31.663-10a7.362,7.362,0,0,1,.716,3.274Zm-3.138-.536a5.381,5.381,0,0,0-.637-2.9,2.044,2.044,0,0,0-1.824-.989q-2.32,0-2.452,3.48l-.009.94a5.535,5.535,0,0,0,.624,2.892A2.041,2.041,0,0,0,26.8-2.232a2.016,2.016,0,0,0,1.8-.993,5.383,5.383,0,0,0,.642-2.856ZM-43.233,20.658V25h-3.085V12.2h5.106a5.948,5.948,0,0,1,2.6.541,4.074,4.074,0,0,1,1.749,1.538,4.2,4.2,0,0,1,.62,2.263,3.7,3.7,0,0,1-1.34,2.993,5.561,5.561,0,0,1-3.678,1.121Zm0-2.382h2.021a1.906,1.906,0,0,0,1.367-.448,1.665,1.665,0,0,0,.47-1.266,2.059,2.059,0,0,0-.483-1.433,1.712,1.712,0,0,0-1.318-.545h-2.057Zm13.386,2.2h-1.67V25H-34.6V12.2h5.036a5.621,5.621,0,0,1,3.56,1.01,3.421,3.421,0,0,1,1.283,2.853,4.155,4.155,0,0,1-.541,2.213A3.837,3.837,0,0,1-26.956,19.7l2.672,5.167V25h-3.3Zm-1.67-2.373h1.951a1.751,1.751,0,0,0,1.323-.463,1.788,1.788,0,0,0,.444-1.291,1.809,1.809,0,0,0-.448-1.3,1.735,1.735,0,0,0-1.318-.471h-1.951Zm19.494.765a7.546,7.546,0,0,1-.694,3.313A5.132,5.132,0,0,1-14.691,24.4a5.494,5.494,0,0,1-2.914.778,5.572,5.572,0,0,1-2.9-.751,5.123,5.123,0,0,1-1.973-2.149,7.329,7.329,0,0,1-.743-3.208v-.721a7.58,7.58,0,0,1,.69-3.318,5.119,5.119,0,0,1,1.978-2.219,5.533,5.533,0,0,1,2.931-.782,5.479,5.479,0,0,1,2.9.773A5.211,5.211,0,0,1-12.74,15a7.362,7.362,0,0,1,.716,3.274Zm-3.138-.536a5.381,5.381,0,0,0-.637-2.9,2.044,2.044,0,0,0-1.824-.989q-2.32,0-2.452,3.48l-.009.94a5.535,5.535,0,0,0,.624,2.892A2.041,2.041,0,0,0-17.6,22.768a2.016,2.016,0,0,0,1.8-.993,5.383,5.383,0,0,0,.642-2.856ZM-10.433,25V12.2h4.122a6.064,6.064,0,0,1,3.05.769,5.406,5.406,0,0,1,2.114,2.171,6.554,6.554,0,0,1,.769,3.142v.589a6.592,6.592,0,0,1-.743,3.151A5.429,5.429,0,0,1-3.212,24.2a5.93,5.93,0,0,1-3.01.8Zm3.085-10.415v8.042h1.072a2.4,2.4,0,0,0,2.039-.945,4.63,4.63,0,0,0,.712-2.808V18.32a4.592,4.592,0,0,0-.712-2.795,2.442,2.442,0,0,0-2.074-.94ZM11.241,12.2v8.376a4.814,4.814,0,0,1-.606,2.465,3.929,3.929,0,0,1-1.74,1.586,6.131,6.131,0,0,1-2.681.545,5.3,5.3,0,0,1-3.683-1.213A4.326,4.326,0,0,1,1.16,20.641V12.2h3.1v8.5q.053,2.1,1.951,2.1a1.889,1.889,0,0,0,1.45-.527,2.465,2.465,0,0,0,.492-1.714V12.2ZM23.52,20.667a4.673,4.673,0,0,1-.721,2.36,4.35,4.35,0,0,1-1.85,1.586,6.3,6.3,0,0,1-2.72.563,5.025,5.025,0,0,1-3.973-1.644,6.786,6.786,0,0,1-1.45-4.641v-.633a7.746,7.746,0,0,1,.655-3.292,4.961,4.961,0,0,1,1.885-2.18,5.26,5.26,0,0,1,2.848-.769,5.516,5.516,0,0,1,3.744,1.226,4.844,4.844,0,0,1,1.608,3.379H20.47a2.292,2.292,0,0,0-.589-1.679,2.422,2.422,0,0,0-1.687-.51,1.843,1.843,0,0,0-1.687.861,5.536,5.536,0,0,0-.562,2.751v.905a6.126,6.126,0,0,0,.514,2.927,1.882,1.882,0,0,0,1.771.879,2.369,2.369,0,0,0,1.626-.5,2.126,2.126,0,0,0,.6-1.591Zm11.25-6.082H30.929V25H27.844V14.585H24.073V12.2h10.7Zm11.892,4.28a7.546,7.546,0,0,1-.694,3.313A5.132,5.132,0,0,1,43.994,24.4a5.494,5.494,0,0,1-2.914.778,5.572,5.572,0,0,1-2.9-.751,5.123,5.123,0,0,1-1.973-2.149,7.329,7.329,0,0,1-.743-3.208v-.721a7.58,7.58,0,0,1,.69-3.318,5.119,5.119,0,0,1,1.978-2.219,5.854,5.854,0,0,1,5.832-.009A5.211,5.211,0,0,1,45.945,15a7.362,7.362,0,0,1,.716,3.274Zm-3.138-.536a5.381,5.381,0,0,0-.637-2.9,2.044,2.044,0,0,0-1.824-.989q-2.32,0-2.452,3.48l-.009.94a5.535,5.535,0,0,0,.624,2.892,2.041,2.041,0,0,0,1.854,1.011,2.016,2.016,0,0,0,1.8-.993,5.383,5.383,0,0,0,.642-2.856Z" transform="translate(906 1694)" fill="#12263f"/>
    <path id="Trazado_195204" data-name="Trazado 195204" d="M.967,0V-12.8H5.089a6.064,6.064,0,0,1,3.05.769,5.406,5.406,0,0,1,2.114,2.171,6.554,6.554,0,0,1,.769,3.142v.589a6.592,6.592,0,0,1-.743,3.151A5.429,5.429,0,0,1,8.187-.8a5.93,5.93,0,0,1-3.01.8ZM4.052-10.415v8.042H5.124a2.4,2.4,0,0,0,2.039-.945,4.63,4.63,0,0,0,.712-2.808V-6.68a4.592,4.592,0,0,0-.712-2.795,2.442,2.442,0,0,0-2.074-.94ZM15.891,0H12.814V-12.8h3.076ZM14.722-16.225h3.129l-2.443,2.76-2.417,0ZM28.512-1.582A4.96,4.96,0,0,1,26.429-.308a8.984,8.984,0,0,1-3.006.483,5.36,5.36,0,0,1-4.017-1.538A6.226,6.226,0,0,1,17.8-5.643L17.789-6.75a7.637,7.637,0,0,1,.668-3.3,4.96,4.96,0,0,1,1.912-2.171,5.407,5.407,0,0,1,2.878-.76,5.669,5.669,0,0,1,3.713,1.094A4.637,4.637,0,0,1,28.5-8.622H25.532a2.426,2.426,0,0,0-.686-1.529,2.212,2.212,0,0,0-1.494-.457,2.013,2.013,0,0,0-1.793.984,5.256,5.256,0,0,0-.642,2.813v.773a5.145,5.145,0,0,0,.655,2.878,2.316,2.316,0,0,0,2.061.962,2.592,2.592,0,0,0,1.793-.536V-4.72H23.282V-6.838h5.229ZM33.592,0H30.516V-12.8h3.076Zm12.19-10.415H41.941V0H38.856V-10.415H35.086V-12.8h10.7Zm11.892,4.28a7.546,7.546,0,0,1-.694,3.313A5.132,5.132,0,0,1,55.006-.6a5.494,5.494,0,0,1-2.914.778,5.572,5.572,0,0,1-2.9-.751,5.123,5.123,0,0,1-1.973-2.149,7.329,7.329,0,0,1-.743-3.208v-.721a7.58,7.58,0,0,1,.69-3.318,5.119,5.119,0,0,1,1.978-2.219,5.533,5.533,0,0,1,2.931-.782,5.479,5.479,0,0,1,2.9.773A5.211,5.211,0,0,1,56.958-10a7.362,7.362,0,0,1,.716,3.274Zm-3.138-.536a5.381,5.381,0,0,0-.637-2.9,2.044,2.044,0,0,0-1.824-.989q-2.32,0-2.452,3.48l-.009.94a5.535,5.535,0,0,0,.624,2.892,2.041,2.041,0,0,0,1.854,1.011,2.016,2.016,0,0,0,1.8-.993,5.383,5.383,0,0,0,.642-2.856ZM5.933,21.52,8.481,12.2h3.445L7.62,25H4.245L-.026,12.2H3.393Zm14.862-1.951H15.943v3.059h5.73V25H12.858V12.2h8.833v2.382H15.943v2.7h4.852Zm6.891.905h-1.67V25H22.931V12.2h5.036a5.621,5.621,0,0,1,3.56,1.01,3.421,3.421,0,0,1,1.283,2.853,4.155,4.155,0,0,1-.541,2.213A3.837,3.837,0,0,1,30.577,19.7l2.672,5.167V25h-3.3ZM26.016,18.1h1.951a1.751,1.751,0,0,0,1.323-.463,1.788,1.788,0,0,0,.444-1.291,1.809,1.809,0,0,0-.448-1.3,1.735,1.735,0,0,0-1.318-.471H26.016ZM37.96,25H34.884V12.2H37.96Zm10.2-5.1H43.189V25H40.1V12.2h8.561v2.382H43.189v2.944h4.975ZM53.235,25H50.159V12.2h3.076Zm12.5-4.333a4.673,4.673,0,0,1-.721,2.36,4.35,4.35,0,0,1-1.85,1.586,6.3,6.3,0,0,1-2.72.563,5.025,5.025,0,0,1-3.973-1.644,6.786,6.786,0,0,1-1.45-4.641v-.633a7.746,7.746,0,0,1,.655-3.292,4.961,4.961,0,0,1,1.885-2.18,5.26,5.26,0,0,1,2.848-.769,5.516,5.516,0,0,1,3.744,1.226,4.844,4.844,0,0,1,1.608,3.379H62.684a2.292,2.292,0,0,0-.589-1.679,2.422,2.422,0,0,0-1.687-.51,1.843,1.843,0,0,0-1.687.861,5.536,5.536,0,0,0-.562,2.751v.905a6.126,6.126,0,0,0,.514,2.927,1.882,1.882,0,0,0,1.771.879,2.369,2.369,0,0,0,1.626-.5,2.126,2.126,0,0,0,.6-1.591Zm8.728,1.942H70.233L69.5,25H66.2l4.693-12.8h2.9L78.521,25H75.208Zm-3.489-2.382h2.751l-1.38-4.438Zm18.835.439a4.673,4.673,0,0,1-.721,2.36,4.35,4.35,0,0,1-1.85,1.586,6.3,6.3,0,0,1-2.72.563,5.025,5.025,0,0,1-3.973-1.644,6.786,6.786,0,0,1-1.45-4.641v-.633a7.746,7.746,0,0,1,.655-3.292,4.961,4.961,0,0,1,1.885-2.18,5.26,5.26,0,0,1,2.848-.769,5.516,5.516,0,0,1,3.744,1.226,4.844,4.844,0,0,1,1.608,3.379H86.757a2.292,2.292,0,0,0-.589-1.679,2.422,2.422,0,0,0-1.687-.51,1.843,1.843,0,0,0-1.687.861,5.536,5.536,0,0,0-.562,2.751v.905a6.126,6.126,0,0,0,.514,2.927,1.882,1.882,0,0,0,1.771.879,2.369,2.369,0,0,0,1.626-.5,2.126,2.126,0,0,0,.6-1.591ZM94.553,25H91.477V12.2h3.076Zm12.981-6.135a7.546,7.546,0,0,1-.694,3.313,5.132,5.132,0,0,1-1.973,2.219,5.494,5.494,0,0,1-2.914.778,5.572,5.572,0,0,1-2.9-.751,5.123,5.123,0,0,1-1.973-2.149,7.329,7.329,0,0,1-.743-3.208v-.721a7.58,7.58,0,0,1,.69-3.318A5.119,5.119,0,0,1,99,12.81a5.854,5.854,0,0,1,5.832-.009,5.211,5.211,0,0,1,1.982,2.2,7.362,7.362,0,0,1,.716,3.274Zm-3.138-.536a5.381,5.381,0,0,0-.637-2.9,2.044,2.044,0,0,0-1.824-.989q-2.32,0-2.452,3.48l-.009.94a5.535,5.535,0,0,0,.624,2.892,2.041,2.041,0,0,0,1.854,1.011,2.016,2.016,0,0,0,1.8-.993,5.383,5.383,0,0,0,.642-2.856Zm-2.1-9.554h3.129l-2.443,2.76-2.417,0ZM119.813,25h-3.067l-4.535-7.963V25h-3.085V12.2h3.085l4.526,7.963V12.2h3.076Z" transform="translate(966 1694)" fill="#12263f"/>
  </g>
</svg>
