<svg xmlns="http://www.w3.org/2000/svg" width="321.975" height="219.802" viewBox="0 0 321.975 219.802">
  <g id="Grupo_134635" data-name="Grupo 134635" transform="translate(-180 -425.596)">
    <g id="Grupo_134611" data-name="Grupo 134611" transform="translate(180 425.596)" style="mix-blend-mode: multiply;isolation: isolate">
      <rect id="Rectángulo_41288" data-name="Rectángulo 41288" width="98.106" height="98.107" rx="15.008" transform="translate(13.869 14.939)" fill="#00bcd4" opacity="0"/>
      <rect id="Rectángulo_41289" data-name="Rectángulo 41289" width="98.106" height="98.107" rx="15.008" transform="translate(6.934 7.469)" fill="#00bcd4" opacity="0.5"/>
      <rect id="Rectángulo_41290" data-name="Rectángulo 41290" width="98.106" height="98.107" rx="15.008" fill="#00bcd4"/>
    </g>
    <g id="Grupo_134614" data-name="Grupo 134614" transform="translate(202.474 437.282)">
      <g id="Grupo_134613" data-name="Grupo 134613">
        <path id="Trazado_195135" data-name="Trazado 195135" d="M307.617,44.109H266.911a3.326,3.326,0,0,0-3.329,3.31V88.13a3.333,3.333,0,0,0,3.329,3.321h40.706a3.333,3.333,0,0,0,3.329-3.321V47.419A3.326,3.326,0,0,0,307.617,44.109ZM287.263,88.293A21.021,21.021,0,1,1,308.286,67.27,21.051,21.051,0,0,1,287.263,88.293Z" transform="translate(-260.684 -19.559)" fill="#ff9d00"/>
        <path id="Trazado_195136" data-name="Trazado 195136" d="M308.187,46.1H292.32V35.128a37.5,37.5,0,0,0,22.094-10.74h-53.16a37.484,37.484,0,0,0,22.092,10.74V46.1H267.481a6.165,6.165,0,0,0-6.168,6.15V92.96a6.167,6.167,0,0,0,6.168,6.161h40.706a6.17,6.17,0,0,0,6.171-6.161V52.248A6.167,6.167,0,0,0,308.187,46.1Zm3.329,46.861a3.333,3.333,0,0,1-3.329,3.321H267.481a3.333,3.333,0,0,1-3.329-3.321V52.248a3.326,3.326,0,0,1,3.329-3.31h40.706a3.326,3.326,0,0,1,3.329,3.31Z" transform="translate(-261.254 -24.388)" fill="#49697e"/>
        <path id="Trazado_195137" data-name="Trazado 195137" d="M286.182,48.114a18.179,18.179,0,1,0,18.18,18.175A18.2,18.2,0,0,0,286.182,48.114Z" transform="translate(-259.603 -18.578)" fill="#fcf2d7"/>
        <path id="Trazado_195138" data-name="Trazado 195138" d="M286.74,45.83a21.021,21.021,0,1,0,21.022,21.019A21.051,21.051,0,0,0,286.74,45.83Zm0,39.2a18.179,18.179,0,1,1,18.18-18.183A18.194,18.194,0,0,1,286.74,85.031Z" transform="translate(-260.161 -19.137)" fill="#49697e"/>
        <path id="Trazado_195139" data-name="Trazado 195139" d="M280.7,53.223a.528.528,0,0,0,.082-.01.448.448,0,0,0,.365-.556l-.462-2.388a.474.474,0,0,0-.559-.376.453.453,0,0,0-.365.554l.464,2.4A.487.487,0,0,0,280.7,53.223Z" transform="translate(-256.725 -18.145)" fill="#64e2dc"/>
        <path id="Trazado_195140" data-name="Trazado 195140" d="M284.7,72.882a.448.448,0,0,0-.365.553l.464,2.39a.5.5,0,0,0,.477.385.26.26,0,0,0,.08-.014.447.447,0,0,0,.367-.551l-.462-2.39A.473.473,0,0,0,284.7,72.882Z" transform="translate(-255.605 -12.515)" fill="#64e2dc"/>
        <path id="Trazado_195141" data-name="Trazado 195141" d="M276.6,54.548a.521.521,0,0,0,.408.209.453.453,0,0,0,.249-.085.472.472,0,0,0,.126-.657l-1.342-2.022a.47.47,0,1,0-.781.524Z" transform="translate(-257.845 -17.68)" fill="#64e2dc"/>
        <path id="Trazado_195142" data-name="Trazado 195142" d="M289.065,71.477a.472.472,0,0,0-.656-.132.465.465,0,0,0-.128.656l1.342,2.028a.461.461,0,0,0,.656.137.471.471,0,0,0,.124-.657Z" transform="translate(-254.656 -12.909)" fill="#64e2dc"/>
        <path id="Trazado_195143" data-name="Trazado 195143" d="M273.912,57.507a.417.417,0,0,0,.245.075.509.509,0,0,0,.411-.21.473.473,0,0,0-.124-.657L272.4,55.365a.468.468,0,1,0-.515.781Z" transform="translate(-258.704 -16.822)" fill="#64e2dc"/>
        <path id="Trazado_195144" data-name="Trazado 195144" d="M291.887,68.387a.471.471,0,0,0-.656.124.476.476,0,0,0,.123.657l2.04,1.352a.407.407,0,0,0,.265.081.45.45,0,0,0,.388-.207.474.474,0,0,0-.136-.657Z" transform="translate(-253.933 -13.634)" fill="#64e2dc"/>
        <path id="Trazado_195145" data-name="Trazado 195145" d="M270.16,60.794l2.388.483h.1a.434.434,0,0,0,.444-.371.456.456,0,0,0-.371-.563l-2.39-.471a.468.468,0,0,0-.171.921Z" transform="translate(-259.167 -15.701)" fill="#64e2dc"/>
        <path id="Trazado_195146" data-name="Trazado 195146" d="M295.707,64.917l-2.388-.471a.468.468,0,1,0-.173.92l2.39.484h.09a.444.444,0,0,0,.453-.372A.46.46,0,0,0,295.707,64.917Z" transform="translate(-253.539 -14.581)" fill="#64e2dc"/>
        <path id="Trazado_195147" data-name="Trazado 195147" d="M273.091,64.813a.453.453,0,0,0-.544-.367l-2.388.469a.458.458,0,0,0-.372.56.442.442,0,0,0,.449.375h.093l2.39-.484A.447.447,0,0,0,273.091,64.813Z" transform="translate(-259.167 -14.581)" fill="#64e2dc"/>
        <path id="Trazado_195148" data-name="Trazado 195148" d="M292.774,60.9a.438.438,0,0,0,.443.375h.1l2.388-.483a.468.468,0,0,0-.171-.921l-2.39.469A.458.458,0,0,0,292.774,60.9Z" transform="translate(-253.539 -15.701)" fill="#64e2dc"/>
        <path id="Trazado_195149" data-name="Trazado 195149" d="M274.568,68.513a.469.469,0,0,0-.656-.124l-2.025,1.349a.476.476,0,0,0-.142.656.461.461,0,0,0,.392.207.421.421,0,0,0,.265-.08l2.042-1.352A.472.472,0,0,0,274.568,68.513Z" transform="translate(-258.704 -13.634)" fill="#64e2dc"/>
        <path id="Trazado_195150" data-name="Trazado 195150" d="M291.229,57.372a.513.513,0,0,0,.411.21.424.424,0,0,0,.245-.075l2.025-1.362a.468.468,0,1,0-.515-.781l-2.04,1.349A.475.475,0,0,0,291.229,57.372Z" transform="translate(-253.933 -16.822)" fill="#64e2dc"/>
        <path id="Trazado_195151" data-name="Trazado 195151" d="M276.6,71.477l-1.339,2.029a.474.474,0,0,0,.122.659.506.506,0,0,0,.25.082.5.5,0,0,0,.408-.218L277.381,72a.471.471,0,1,0-.783-.525Z" transform="translate(-257.845 -12.909)" fill="#64e2dc"/>
        <path id="Trazado_195152" data-name="Trazado 195152" d="M288.654,54.756a.528.528,0,0,0,.41-.208l1.339-2.029a.473.473,0,0,0-.122-.659.48.48,0,0,0-.659.132l-1.342,2.022a.469.469,0,0,0,.123.659A.486.486,0,0,0,288.654,54.756Z" transform="translate(-254.656 -17.68)" fill="#64e2dc"/>
        <path id="Trazado_195153" data-name="Trazado 195153" d="M280.786,72.882a.467.467,0,0,0-.556.372l-.464,2.388a.449.449,0,0,0,.365.553.363.363,0,0,0,.085.012.493.493,0,0,0,.474-.382l.462-2.39A.445.445,0,0,0,280.786,72.882Z" transform="translate(-256.725 -12.515)" fill="#64e2dc"/>
        <path id="Trazado_195154" data-name="Trazado 195154" d="M285.358,49.893a.472.472,0,0,0-.556.376l-.464,2.386a.448.448,0,0,0,.365.558.661.661,0,0,0,.082.009.491.491,0,0,0,.477-.376l.464-2.4A.452.452,0,0,0,285.358,49.893Z" transform="translate(-255.605 -18.145)" fill="#64e2dc"/>
        <path id="Trazado_195155" data-name="Trazado 195155" d="M282.7,71.589a.476.476,0,0,0-.476.464v4.3a.475.475,0,0,0,.95,0v-4.3A.475.475,0,0,0,282.7,71.589Z" transform="translate(-256.119 -12.829)" fill="#64e2dc"/>
        <path id="Trazado_195156" data-name="Trazado 195156" d="M274.3,63.286a.473.473,0,0,0,0-.946h-4.3a.473.473,0,1,0,0,.946Z" transform="translate(-259.229 -15.094)" fill="#64e2dc"/>
        <path id="Trazado_195157" data-name="Trazado 195157" d="M296.231,62.34H291.94a.473.473,0,0,0,0,.946h4.291a.473.473,0,1,0,0-.946Z" transform="translate(-253.852 -15.094)" fill="#64e2dc"/>
        <path id="Trazado_195158" data-name="Trazado 195158" d="M276.417,57.2a.457.457,0,0,0,.342.144.452.452,0,0,0,.334-.144.486.486,0,0,0,0-.667L274.058,53.5a.453.453,0,0,0-.664,0,.442.442,0,0,0,0,.666Z" transform="translate(-258.318 -17.294)" fill="#64e2dc"/>
        <path id="Trazado_195159" data-name="Trazado 195159" d="M289.58,69.014a.477.477,0,0,0-.676.672l3.029,3.03a.5.5,0,0,0,.349.147.456.456,0,0,0,.321-.147.435.435,0,0,0,0-.66Z" transform="translate(-254.516 -13.493)" fill="#64e2dc"/>
        <path id="Trazado_195160" data-name="Trazado 195160" d="M277.093,69.014a.487.487,0,0,0-.676,0l-3.023,3.042a.435.435,0,0,0,0,.66.447.447,0,0,0,.321.147.483.483,0,0,0,.342-.147l3.035-3.03A.492.492,0,0,0,277.093,69.014Z" transform="translate(-258.318 -13.493)" fill="#64e2dc"/>
        <path id="Trazado_195161" data-name="Trazado 195161" d="M288.906,57.2a.44.44,0,0,0,.326.144.469.469,0,0,0,.35-.144l3.02-3.029a.444.444,0,0,0,0-.667.462.462,0,0,0-.67,0l-3.026,3.029A.474.474,0,0,0,288.906,57.2Z" transform="translate(-254.516 -17.294)" fill="#64e2dc"/>
        <path id="Trazado_195162" data-name="Trazado 195162" d="M282.7,54.877a.478.478,0,0,0,.474-.469V50.116a.475.475,0,1,0-.95,0v4.292A.478.478,0,0,0,282.7,54.877Z" transform="translate(-256.119 -18.205)" fill="#64e2dc"/>
        <path id="Trazado_195163" data-name="Trazado 195163" d="M286.684,71.178a.5.5,0,0,0-.632-.265.471.471,0,0,0-.243.627l1.631,3.97a.507.507,0,0,0,.436.29.57.57,0,0,0,.194-.044.469.469,0,0,0,.245-.612Z" transform="translate(-255.251 -13.003)" fill="#64e2dc"/>
        <path id="Trazado_195164" data-name="Trazado 195164" d="M275.382,66.167a.485.485,0,0,0-.635-.249l-3.956,1.637a.486.486,0,0,0-.265.625.5.5,0,0,0,.438.291.573.573,0,0,0,.194-.041l3.949-1.637A.5.5,0,0,0,275.382,66.167Z" transform="translate(-258.992 -14.228)" fill="#64e2dc"/>
        <path id="Trazado_195165" data-name="Trazado 195165" d="M290.8,59.773a.479.479,0,0,0,.437.293.7.7,0,0,0,.2-.03l3.951-1.649a.472.472,0,0,0,.269-.611.5.5,0,0,0-.634-.264l-3.946,1.649A.475.475,0,0,0,290.8,59.773Z" transform="translate(-254.026 -16.286)" fill="#64e2dc"/>
        <path id="Trazado_195166" data-name="Trazado 195166" d="M270.791,58.387l3.954,1.648a.68.68,0,0,0,.2.03.466.466,0,0,0,.163-.905l-3.946-1.648a.494.494,0,0,0-.632.263A.477.477,0,0,0,270.791,58.387Z" transform="translate(-258.992 -16.285)" fill="#64e2dc"/>
        <path id="Trazado_195167" data-name="Trazado 195167" d="M295.385,67.555l-3.951-1.637a.485.485,0,0,0-.635.25.5.5,0,0,0,.275.625l3.946,1.637a.585.585,0,0,0,.2.041.5.5,0,0,0,.437-.291A.484.484,0,0,0,295.385,67.555Z" transform="translate(-254.026 -14.228)" fill="#64e2dc"/>
        <path id="Trazado_195168" data-name="Trazado 195168" d="M279.668,70.912a.5.5,0,0,0-.635.265l-1.627,3.967a.467.467,0,0,0,.244.612.57.57,0,0,0,.194.044.51.51,0,0,0,.438-.29l1.628-3.971A.469.469,0,0,0,279.668,70.912Z" transform="translate(-257.309 -13.003)" fill="#64e2dc"/>
        <path id="Trazado_195169" data-name="Trazado 195169" d="M288.07,50.641a.485.485,0,0,0-.63.26l-1.631,3.956a.469.469,0,0,0,.245.626.4.4,0,0,0,.192.034.478.478,0,0,0,.438-.293l1.631-3.959A.481.481,0,0,0,288.07,50.641Z" transform="translate(-255.251 -17.968)" fill="#64e2dc"/>
        <path id="Trazado_195170" data-name="Trazado 195170" d="M279.033,55.225a.484.484,0,0,0,.438.293.422.422,0,0,0,.2-.032.466.466,0,0,0,.243-.625L278.282,50.9a.488.488,0,0,0-.632-.26.479.479,0,0,0-.244.625Z" transform="translate(-257.309 -17.968)" fill="#64e2dc"/>
        <path id="Trazado_195171" data-name="Trazado 195171" d="M284.7,64.8a1.886,1.886,0,0,0-.992-1.023l-.729-8.7-.864,8.755a1.877,1.877,0,1,0,2.586.967Z" transform="translate(-256.406 -16.872)" fill="#ff4739"/>
      </g>
      <rect id="Rectángulo_41292" data-name="Rectángulo 41292" width="8.974" height="10.971" transform="translate(22.092 10.74)" fill="#8cbcfa"/>
    </g>
    <g id="Grupo_134617" data-name="Grupo 134617" transform="translate(390 425.596)" style="mix-blend-mode: multiply;isolation: isolate">
      <rect id="Rectángulo_41293" data-name="Rectángulo 41293" width="98.106" height="98.106" rx="15.008" transform="translate(13.869 14.939)" fill="#fff" opacity="0"/>
      <rect id="Rectángulo_41294" data-name="Rectángulo 41294" width="98.106" height="98.106" rx="15.008" transform="translate(6.934 7.469)" fill="#80cbd4" opacity="0.5"/>
      <rect id="Rectángulo_41295" data-name="Rectángulo 41295" width="98.106" height="98.106" rx="15.008" fill="#0096a9"/>
    </g>
    <g id="Grupo_134624" data-name="Grupo 134624" transform="translate(401.687 443.53)">
      <g id="Grupo_134619" data-name="Grupo 134619" transform="translate(0 9.821)">
        <path id="Trazado_195172" data-name="Trazado 195172" d="M138.994,58.792h-1.235a10.359,10.359,0,1,0,20.717,0H138.994Z" transform="translate(-137.759 -32.032)" fill="#ff9d00"/>
        <path id="Trazado_195173" data-name="Trazado 195173" d="M170.394,39.133a4.744,4.744,0,0,1,.366-1.837H148.048a1.3,1.3,0,0,0-.828,2.283L138.068,63.9a.45.45,0,0,0-.025.154h.881l9.093-24.164.031,0h.031l9.094,24.162h.88a.4.4,0,0,0-.025-.154l-9.034-24.007h21.474A4.784,4.784,0,0,1,170.394,39.133Z" transform="translate(-137.689 -37.296)" fill="#ff9d00"/>
      </g>
      <g id="Grupo_134620" data-name="Grupo 134620" transform="translate(19.863 15.837)">
        <path id="Trazado_195174" data-name="Trazado 195174" d="M169.083,42.129V84.2H155.851a2.166,2.166,0,0,0,0,4.331h15.368V42.678A4.561,4.561,0,0,1,169.083,42.129Z" transform="translate(-153.715 -42.129)" fill="#fcf2d7"/>
        <path id="Trazado_195175" data-name="Trazado 195175" d="M167.776,42.678v45.85h15.367a2.166,2.166,0,0,0,0-4.331H169.912V42.129a4.561,4.561,0,0,1-2.136.549Z" transform="translate(-150.272 -42.129)" fill="#ff9d00"/>
      </g>
      <g id="Grupo_134622" data-name="Grupo 134622" transform="translate(32.704)">
        <path id="Trazado_195176" data-name="Trazado 195176" d="M172.075,37.864a4.725,4.725,0,0,0-.6-1.018,4.62,4.62,0,0,0-3.695-1.871h0V44.43h0a4.561,4.561,0,0,0,2.136-.549,4.7,4.7,0,0,0,2.452-3.418,4.65,4.65,0,0,0,.076-.761A4.768,4.768,0,0,0,172.075,37.864Z" transform="translate(-163.113 -28.044)" fill="#ff9d00"/>
        <path id="Trazado_195177" data-name="Trazado 195177" d="M164.992,36.852a4.564,4.564,0,0,0-.962,2.85,4.786,4.786,0,0,0,.075.761,4.705,4.705,0,0,0,2.452,3.418,4.561,4.561,0,0,0,2.136.549V34.975A4.624,4.624,0,0,0,164.992,36.852Z" transform="translate(-164.03 -28.044)" fill="#fcf2d7"/>
        <g id="Grupo_134621" data-name="Grupo 134621" transform="translate(0.962)">
          <path id="Trazado_195178" data-name="Trazado 195178" d="M167.776,36.251a4.62,4.62,0,0,1,3.695,1.871,4.5,4.5,0,0,0-1.54-1.708l-2.155-6.65v6.487Z" transform="translate(-164.075 -29.32)" fill="#ff9d00"/>
          <path id="Trazado_195179" data-name="Trazado 195179" d="M168.5,36.338V29.851l-.144-.444-2.383,7.355a4.538,4.538,0,0,0-1.174,1.454A4.624,4.624,0,0,1,168.5,36.338Z" transform="translate(-164.803 -29.407)" fill="#fcf2d7"/>
        </g>
      </g>
      <g id="Grupo_134623" data-name="Grupo 134623" transform="translate(41.666 9.821)">
        <path id="Trazado_195180" data-name="Trazado 195180" d="M201.513,58.792H181.151a10.357,10.357,0,1,0,20.715,0Z" transform="translate(-168.799 -32.032)" fill="#ff9d00"/>
        <path id="Trazado_195181" data-name="Trazado 195181" d="M193.909,39.894h.03l.031,0,9.091,24.164h.881a.448.448,0,0,0-.024-.154l-9.152-24.322a1.3,1.3,0,0,0-.828-2.283h-22.71a4.768,4.768,0,0,1,.366,1.837,4.648,4.648,0,0,1-.076.761h21.473L183.959,63.9a.424.424,0,0,0-.026.154h.883Z" transform="translate(-171.229 -37.296)" fill="#ff9d00"/>
      </g>
    </g>
    <g id="Grupo_134627" data-name="Grupo 134627" transform="translate(285 532.193)" style="mix-blend-mode: multiply;isolation: isolate">
      <rect id="Rectángulo_41297" data-name="Rectángulo 41297" width="98.248" height="98.245" rx="15.008" transform="translate(13.888 14.96)" fill="#fff" opacity="0"/>
      <rect id="Rectángulo_41298" data-name="Rectángulo 41298" width="98.248" height="98.245" rx="15.008" transform="translate(6.944 7.48)" fill="#80cbd4" opacity="0.5"/>
      <rect id="Rectángulo_41299" data-name="Rectángulo 41299" width="98.248" height="98.245" rx="15.008" fill="#0096a9"/>
    </g>
    <rect id="Rectángulo_41300" data-name="Rectángulo 41300" width="98.193" height="98.193" rx="15" transform="translate(285 532.193)" fill="#64e2dc"/>
    <g id="Grupo_134633" data-name="Grupo 134633" transform="translate(296.697 556.784)">
      <path id="Trazado_195182" data-name="Trazado 195182" d="M433.393,381.517H375.448L369.1,400.958h70.636Z" transform="translate(-367.021 -374.589)" fill="#ff9d00"/>
      <path id="Trazado_195183" data-name="Trazado 195183" d="M434.85,381.291v-3.724a1.559,1.559,0,0,0-1.479-1.607H376.3a1.558,1.558,0,0,0-1.479,1.607v3.724l-7.384,22.64v17.835a3.108,3.108,0,0,0,2.958,3.205h68.883a3.109,3.109,0,0,0,2.958-3.205V403.931Zm-58.99,1.6H433.8l6.345,19.44H369.514Zm35.672,38.124H374.364a1.275,1.275,0,0,1-1.341-1.207V408.361a1.283,1.283,0,0,1,1.341-1.209h37.166a1.292,1.292,0,0,1,1.344,1.209V419.8A1.284,1.284,0,0,1,411.531,421.012Zm14.518-.59h-2.958v-3.2h2.958Zm0-4.731h-2.958v-3.2h2.958Zm0-4.744h-2.958V407.77h2.958Zm4.424,9.475h-2.958v-3.2h2.958Zm0-4.731h-2.958v-3.2h2.958Zm0-4.744h-2.958V407.77h2.958Zm4.427,9.475h-2.947v-3.2H434.9Zm0-4.731h-2.947v-3.2H434.9Zm0-4.744h-2.947V407.77H434.9Z" transform="translate(-367.433 -375.96)" fill="#123856"/>
      <path id="Trazado_195184" data-name="Trazado 195184" d="M411.769,402.189a1.292,1.292,0,0,0-1.344-1.209H373.258a1.283,1.283,0,0,0-1.341,1.209v11.444a1.275,1.275,0,0,0,1.341,1.207h37.166a1.284,1.284,0,0,0,1.344-1.207Zm-1.517,3.132-.585.552h-2.724l-.587-.552Zm-4.005.082.572.545v2.65l-.572.555Zm-.856-.082-.59.552h-2.715l-.587-.552Zm-3.992.082.561.545v2.65l-.561.555Zm-2.563-.082-.59.552h-2.723l-.583-.552Zm-4,.082.57.545v2.65l-.57.555Zm0,3.9.57.541v2.664l-.57.54Zm.1,3.948.583-.575h2.723l.59.575Zm4-.2-.57-.537v-2.667l.57-.541Zm0-3.893-.57-.552v-2.653l.57-.545Zm1.388,4.1h-.585v-.537h.585ZM401.4,409.3l.561.541v2.664l-.561.54Zm.1,3.948.59-.575H404.8l.59.575Zm4.006-.2-.572-.537v-2.667l.572-.541Zm0-3.893-.572-.552v-2.653l.572-.545Zm.743.148.572.541v2.664l-.572.54Zm.11,3.948.592-.575h2.719l.585.575Zm4-.2-.565-.537v-2.667l.565-.541Zm0-3.893-.565-.552v-2.653l.565-.545Z" transform="translate(-366.327 -369.789)" fill="#64e2dc"/>
      <path id="Trazado_195185" data-name="Trazado 195185" d="M390.872,408.2l-.57-.541V411.4l.57-.541Z" transform="translate(-361.792 -368.142)" fill="#636363"/>
      <g id="Grupo_134630" data-name="Grupo 134630" transform="translate(28.509 35.532)">
        <g id="Grupo_134629" data-name="Grupo 134629">
          <path id="Trazado_195186" data-name="Trazado 195186" d="M400.134,410.361l-.592.575h3.9l-.584-.575Z" transform="translate(-388.023 -403.007)" fill="#636363"/>
          <path id="Trazado_195187" data-name="Trazado 195187" d="M402.294,410.862l.565.538v-3.745l-.565.541Z" transform="translate(-387.344 -403.674)" fill="#636363"/>
          <path id="Trazado_195188" data-name="Trazado 195188" d="M402.294,407.725l.565.553v-3.75l-.565.544Z" transform="translate(-387.344 -404.446)" fill="#636363"/>
          <path id="Trazado_195189" data-name="Trazado 195189" d="M400.026,408.2l-.572-.541V411.4l.572-.541Z" transform="translate(-388.044 -403.674)" fill="#636363"/>
          <path id="Trazado_195190" data-name="Trazado 195190" d="M400.026,405.072l-.572-.544v3.75l.572-.555Z" transform="translate(-388.044 -404.446)" fill="#636363"/>
          <path id="Trazado_195191" data-name="Trazado 195191" d="M402.853,405.015l.584-.553h-3.9l.587.553Z" transform="translate(-388.023 -404.462)" fill="#636363"/>
          <path id="Trazado_195192" data-name="Trazado 195192" d="M396.235,410.361l-.589.575h3.891l-.589-.575Z" transform="translate(-388.984 -403.007)" fill="#636363"/>
          <path id="Trazado_195193" data-name="Trazado 195193" d="M398.4,410.862l.572.538v-3.745l-.572.541Z" transform="translate(-388.304 -403.674)" fill="#636363"/>
          <path id="Trazado_195194" data-name="Trazado 195194" d="M398.4,407.725l.572.553v-3.75l-.572.544Z" transform="translate(-388.304 -404.446)" fill="#636363"/>
          <path id="Trazado_195195" data-name="Trazado 195195" d="M396.125,408.2l-.56-.541V411.4l.56-.541Z" transform="translate(-389.004 -403.674)" fill="#636363"/>
          <path id="Trazado_195196" data-name="Trazado 195196" d="M396.125,405.072l-.56-.544v3.75l.56-.555Z" transform="translate(-389.004 -404.446)" fill="#636363"/>
          <path id="Trazado_195197" data-name="Trazado 195197" d="M398.947,405.015l.589-.553h-3.891l.587.553Z" transform="translate(-388.984 -404.462)" fill="#636363"/>
          <path id="Trazado_195198" data-name="Trazado 195198" d="M390.968,410.361l-.584.575h3.9l-.589-.575Z" transform="translate(-390.282 -403.007)" fill="#636363"/>
          <path id="Trazado_195199" data-name="Trazado 195199" d="M393.138,410.862l.57.538v-3.745l-.57.541Z" transform="translate(-389.602 -403.674)" fill="#636363"/>
          <path id="Trazado_195200" data-name="Trazado 195200" d="M393.138,407.725l.57.553v-3.75l-.57.544Z" transform="translate(-389.602 -404.446)" fill="#636363"/>
          <path id="Trazado_195201" data-name="Trazado 195201" d="M390.872,405.072l-.57-.544v3.75l.57-.555Z" transform="translate(-390.302 -404.446)" fill="#636363"/>
          <path id="Trazado_195202" data-name="Trazado 195202" d="M393.69,405.015l.589-.553h-3.9l.584.553Z" transform="translate(-390.282 -404.462)" fill="#636363"/>
          <rect id="Rectángulo_41301" data-name="Rectángulo 41301" width="0.584" height="0.538" transform="translate(4.909 7.391)" fill="#636363"/>
        </g>
      </g>
      <g id="Grupo_134632" data-name="Grupo 134632" transform="translate(55.658 31.809)">
        <g id="Grupo_134631" data-name="Grupo 134631">
          <rect id="Rectángulo_41302" data-name="Rectángulo 41302" width="2.958" height="3.179" fill="#ff4739"/>
          <rect id="Rectángulo_41303" data-name="Rectángulo 41303" width="2.958" height="3.179" transform="translate(4.424)" fill="#ff4739"/>
          <rect id="Rectángulo_41304" data-name="Rectángulo 41304" width="2.946" height="3.179" transform="translate(8.863)" fill="#ff4739"/>
          <rect id="Rectángulo_41305" data-name="Rectángulo 41305" width="2.958" height="3.203" transform="translate(0 4.719)" fill="#ff4739"/>
          <rect id="Rectángulo_41306" data-name="Rectángulo 41306" width="2.958" height="3.203" transform="translate(4.424 4.719)" fill="#ff4739"/>
          <rect id="Rectángulo_41307" data-name="Rectángulo 41307" width="2.946" height="3.203" transform="translate(8.863 4.719)" fill="#ff4739"/>
          <rect id="Rectángulo_41308" data-name="Rectángulo 41308" width="2.958" height="3.202" transform="translate(0 9.451)" fill="#ff4739"/>
          <rect id="Rectángulo_41309" data-name="Rectángulo 41309" width="2.958" height="3.202" transform="translate(4.424 9.451)" fill="#ff4739"/>
          <rect id="Rectángulo_41310" data-name="Rectángulo 41310" width="2.946" height="3.202" transform="translate(8.863 9.451)" fill="#ff4739"/>
        </g>
      </g>
    </g>
  </g>
</svg>
